<svg width="375" height="375" viewBox="0 0 375 375" fill="none" xmlns="http://www.w3.org/2000/svg">
<g clip-path="url(#clip0_13_3)">
<path d="M-37.5 -37.5H412.5V412.5H-37.5V-37.5Z" fill="white"/>
<path d="M-37.5 -37.5H412.5V412.5H-37.5V-37.5Z" fill="white"/>
<g filter="url(#filter0_i_13_3)">
<path d="M-38 -38H412V412H-38V-38Z" fill="#0C0E27"/>
<path d="M-37.5 -37.5H411.5V411.5H-37.5V-37.5Z" stroke="black"/>
</g>
<path fill-rule="evenodd" clip-rule="evenodd" d="M406.524 264.64C413.656 265.317 420.773 266.506 427.791 267.891C428.368 268.004 439.2 270.46 433.19 269.834C399.232 266.656 365.202 264.153 331.132 262.364C241.213 257.647 151.053 257.961 61.1759 263.128C60.723 263.262 60.09 263.303 59.3902 263.241C29.9971 264.943 0.645173 267.168 -28.6707 269.906C-33.3039 270.335 -38.5402 269.218 -43.3863 268.185C-44.9182 267.858 -46.4111 267.539 -47.8338 267.281C-48.564 267.147 -49.3701 267.025 -50.2099 266.898C-52.5245 266.547 -55.0952 266.157 -57.0397 265.379C-56.839 265.466 -60.2456 264.677 -58.5011 264.518C-24.5437 261.339 9.48582 258.838 43.5565 257.047C46.1879 256.912 48.8166 256.789 51.4464 256.665C52.4834 256.617 53.5207 256.57 54.5582 256.52V248.225V225.225V196.976V169.634V149.106V143.251C54.5582 143.093 54.546 142.916 54.5329 142.728C54.4904 142.116 54.441 141.402 54.8001 140.97C55.2951 140.369 55.8907 139.82 56.4809 139.278C56.7864 138.997 57.0903 138.716 57.3781 138.431C58.6441 137.177 59.9154 135.927 61.1869 134.678C62.0345 133.844 62.8822 133.012 63.7282 132.177C66.898 129.06 70.0639 125.942 73.2303 122.823C76.3958 119.705 79.5614 116.586 82.7322 113.469C86.3141 109.936 89.8985 106.405 93.483 102.876C96.1664 100.234 98.8485 97.5934 101.529 94.9501C102.106 94.3818 102.685 93.8121 103.263 93.2425C105.52 91.0179 107.781 88.788 110.046 86.5685C110.788 85.8454 112.47 86.117 113.355 86.2969C114.621 86.5423 115.882 87.0095 116.824 87.906C116.924 88.0097 117.029 88.1107 117.133 88.2105C117.211 88.2853 117.289 88.3601 117.364 88.4349C119.27 90.2724 121.175 92.1112 123.081 93.9513C124.986 95.7901 126.891 97.6289 128.797 99.4677C133.027 103.553 137.257 107.634 141.488 111.717C143.671 113.824 145.854 115.929 148.038 118.037L150.754 120.667C152.174 119.27 153.593 117.871 155.011 116.474C156.428 115.074 157.845 113.677 159.266 112.28C164.303 107.333 169.33 102.38 174.356 97.4281C175.367 96.4306 176.378 95.4344 177.389 94.4382C180.102 91.7765 182.818 89.1003 185.531 86.4281L185.577 86.3835C186.195 85.7679 187.691 86.0449 188.406 86.184C189.523 86.4097 190.949 86.8455 191.788 87.6605C191.847 87.7183 191.908 87.776 191.968 87.8351C192.09 87.9506 192.211 88.0674 192.328 88.1829C193.964 89.7631 195.603 91.3421 197.242 92.921C199.421 95.021 201.599 97.1209 203.772 99.2209C207.437 102.753 211.097 106.287 214.758 109.821C217.518 112.485 220.278 115.149 223.038 117.811L226.728 121.364C228.148 119.97 229.566 118.571 230.984 117.173C232.401 115.775 233.819 114.376 235.239 112.982C239.184 109.089 243.135 105.199 247.087 101.308C249.07 99.3574 251.052 97.4057 253.034 95.4528C255.699 92.8225 258.365 90.1976 261.035 87.5726C261.915 86.7064 263.485 86.4294 264.652 86.3323C265.635 86.2457 267.117 86.1945 267.91 86.9584C268.006 87.0529 268.101 87.1447 268.197 87.2353C268.291 87.3258 268.384 87.4151 268.477 87.507C270.439 89.3956 272.401 91.2882 274.363 93.1822C276.325 95.0748 278.287 96.9687 280.25 98.8573C282.414 100.944 284.577 103.031 286.742 105.118C291.141 109.362 295.541 113.606 299.943 117.848C305.865 123.553 311.779 129.26 317.686 134.966C319.373 136.591 321.046 138.206 322.729 139.832C322.833 139.932 322.95 140.033 323.068 140.138C323.519 140.529 324.014 140.961 324.067 141.524C324.131 142.266 324.11 143.038 324.088 143.801C324.077 144.18 324.067 144.557 324.067 144.928V152.059V174.054V201.754V229.03V249.823V258.099C324.067 258.138 324.054 258.175 324.041 258.213C324.03 258.243 324.02 258.274 324.016 258.309C351.545 259.975 379.06 262.077 406.524 264.64ZM239.107 116.334C236.45 118.95 233.794 121.565 231.138 124.179C230.885 124.43 230.649 124.666 230.387 124.932C233.854 128.286 237.312 131.624 240.786 134.966C241.586 135.736 242.383 136.506 243.181 137.278C244.176 138.24 245.169 139.201 246.169 140.16C246.385 140.367 246.605 140.58 246.825 140.793C247.038 140.999 247.253 141.206 247.465 141.411C247.494 141.438 247.523 141.465 247.552 141.492C248.012 141.924 248.458 142.343 248.458 143.051C248.476 145.086 248.47 147.127 248.465 149.165C248.461 150.183 248.458 151.202 248.458 152.218V173.305V200.355V227.22V247.798V254.853C271.182 255.546 293.882 256.545 316.579 257.848V246.824V223.928V196.176V169.234V149.367V143.912C316.579 143.775 316.574 143.635 316.57 143.494C316.559 143.21 316.549 142.924 316.579 142.646V142.635C316.682 142.739 316.873 142.799 316.693 142.697C316.657 142.672 316.621 142.635 316.579 142.61C316.579 142.591 316.578 142.563 316.575 142.536C316.57 142.478 316.566 142.417 316.579 142.411C316.508 142.471 316.517 142.533 316.559 142.6C316.328 142.431 316.109 142.19 315.909 141.97C315.823 141.877 315.741 141.787 315.664 141.707C315.316 141.374 314.971 141.042 314.626 140.707C314.286 140.379 313.945 140.05 313.601 139.719C311.377 137.57 309.159 135.427 306.936 133.289C303.762 130.223 300.583 127.157 297.404 124.093C294.225 121.027 291.045 117.961 287.871 114.895C281.737 108.966 275.593 103.042 269.445 97.1131L269.243 96.9188C268.074 95.7953 266.902 94.6653 265.73 93.5339C265.153 92.9774 264.576 92.4209 263.999 91.8644C263.631 92.2214 263.263 92.5758 262.894 92.9315C262.229 93.5733 261.562 94.2138 260.907 94.8635C258.599 97.1341 256.295 99.406 253.991 101.677C251.687 103.948 249.383 106.219 247.075 108.491C244.419 111.105 241.762 113.72 239.107 116.334ZM212.855 242.38V253.531C212.855 253.731 212.803 253.895 212.726 254.043C222.375 254.193 232.018 254.408 241.666 254.669C241.424 254.382 241.291 254.069 241.291 253.731V253.54C241.28 250.506 241.284 247.471 241.287 244.436C241.289 242.917 241.291 241.397 241.291 239.877V211.578V178.986V152.018V141.395C239.933 140.174 238.628 138.876 237.328 137.585C236.604 136.864 235.88 136.145 235.152 135.443C233.849 134.192 232.552 132.937 231.254 131.683C229.955 130.428 228.658 129.173 227.356 127.921C225.566 129.678 223.781 131.437 221.996 133.196C220.656 134.516 219.316 135.837 217.975 137.156C216.261 138.821 214.563 140.499 212.865 142.175C212.932 143.062 212.907 143.977 212.881 144.885C212.868 145.357 212.855 145.829 212.855 146.292V155.483V177.874H205.383V166.733V148.213V143.625C205.383 143.542 205.38 143.458 205.378 143.374C205.371 143.201 205.366 143.025 205.383 142.847C205.421 142.347 205.717 142.059 206.034 141.751C206.055 141.73 206.077 141.709 206.098 141.688C207.975 139.832 209.857 137.981 211.736 136.132C213.347 134.548 214.957 132.964 216.564 131.377C218.942 129.034 221.304 126.707 223.682 124.368L223.544 124.236C222.745 123.464 221.938 122.684 221.14 121.918L204.992 106.337L191.639 93.4643C191.036 92.8737 190.444 92.3002 189.837 91.7253C187.453 94.0904 185.059 96.4463 182.665 98.8022C181.867 99.5884 181.069 100.373 180.272 101.159L161.155 119.991L161.108 120.036C159.302 121.821 157.481 123.62 155.659 125.405C158.383 128.043 161.112 130.676 163.839 133.304C164.486 133.928 165.134 134.553 165.781 135.176C166.681 136.048 167.581 136.914 168.479 137.78C169.379 138.647 170.278 139.514 171.178 140.386C171.32 140.525 171.488 140.671 171.664 140.823C172.307 141.383 173.057 142.037 173.078 142.826C173.142 144.876 173.121 146.926 173.099 148.979C173.088 150.005 173.078 151.031 173.078 152.059V173.212V177.874H165.755V152.207V141.508C165.303 141.15 164.883 140.711 164.472 140.282C164.241 140.042 164.013 139.804 163.784 139.585C163.012 138.836 162.237 138.091 161.464 137.346C160.697 136.608 159.932 135.871 159.168 135.131C158.031 134.032 156.893 132.933 155.755 131.835C154.635 130.756 153.517 129.676 152.401 128.598C150.943 130.031 149.486 131.467 148.03 132.902C146.574 134.338 145.117 135.774 143.659 137.207C142.663 138.193 141.666 139.173 140.669 140.155C139.918 140.894 139.166 141.633 138.415 142.374C138.241 142.541 138.071 142.713 137.9 142.883C137.686 143.097 137.474 143.31 137.257 143.512V143.538C137.328 143.718 137.302 144.006 137.278 144.258C137.267 144.372 137.257 144.478 137.257 144.563V146.64V153.398V174.869V202.17V228.968V249.465V253.967C146.756 253.828 156.261 253.756 165.755 253.731C165.707 250.695 165.723 247.653 165.739 244.612C165.747 243.092 165.755 241.57 165.755 240.052V211.999H173.078V227.056V247.599V253.731C183.843 253.731 194.618 253.792 205.383 253.93V242.354V219.908V211.999H212.855V215.617V242.38ZM61.8654 233.361V254.218V256.259C84.5897 255.232 107.33 254.521 130.063 254.131V243.185V220.534V193.007V166.62V147.389V142.349C130.063 142.231 130.06 142.123 130.058 142.021C130.043 141.48 130.034 141.123 130.48 140.657C132.646 138.41 134.892 136.237 137.137 134.065C138.242 132.995 139.347 131.927 140.442 130.849C142.743 128.586 145.055 126.309 147.357 124.041L147.508 123.892C147.099 123.49 146.685 123.092 146.271 122.695C145.925 122.361 145.577 122.029 145.233 121.692L129.05 106.076C124.609 101.795 120.158 97.5042 115.717 93.2123C115.472 92.9748 115.227 92.7372 114.981 92.4997C114.736 92.2634 114.489 92.0259 114.246 91.787C112.284 93.7255 110.319 95.6575 108.352 97.5908C107.041 98.8783 105.73 100.167 104.421 101.456C100.662 105.164 96.9015 108.866 93.1405 112.569C90.3109 115.354 87.4812 118.14 84.6516 120.928C81.4149 124.107 78.1835 127.288 74.9547 130.47C72.3595 133.024 69.7656 135.578 67.1707 138.13C66.3859 138.907 65.6 139.678 64.8139 140.451C64.0279 141.224 63.2418 141.997 62.4571 142.774C62.4022 142.823 62.3275 142.912 62.2432 143.013C62.13 143.148 61.9995 143.305 61.8756 143.41C61.8756 143.46 61.8723 143.513 61.8694 143.561C61.8673 143.597 61.8654 143.629 61.8654 143.651V155.109V177.806V205.897V233.361Z" fill="white"/>
<path d="M427.181 268.271L426.287 272.796L426.293 272.797L427.181 268.271ZM405.924 265.006L406.359 260.414H406.353L405.924 265.006ZM432.577 270.221L433.055 265.633L433.031 265.632L433.007 265.629L432.577 270.221ZM330.566 262.721L330.808 258.114L330.566 262.721ZM60.7344 263.488L60.4688 258.883L59.9382 258.913L59.4285 259.064L60.7344 263.488ZM58.9496 263.601L59.3546 259.006L59.0187 258.976L58.6821 258.996L58.9496 263.601ZM-29.0707 270.294L-28.6448 274.887H-28.6406L-29.0707 270.294ZM-43.7795 268.566L-44.744 273.076L-43.7795 268.566ZM-48.225 267.658L-49.0583 272.195L-49.0521 272.196L-48.225 267.658ZM-50.6001 267.273L-49.9072 262.713H-49.9072L-50.6001 267.273ZM-57.4267 265.748L-55.708 261.467L-59.2682 269.976L-57.4267 265.748ZM-58.8874 264.883L-58.4677 269.477L-58.4563 269.475L-58.8874 264.883ZM43.1231 257.381L42.8843 252.775H42.8805L43.1231 257.381ZM51.0094 256.998L51.2254 261.607L51.0094 256.998ZM54.1198 256.852L54.3394 261.459L58.7284 261.25V256.852H54.1198ZM54.0945 142.581L49.497 142.9L54.0945 142.581ZM54.3615 140.815L57.9125 143.755L57.9187 143.747L57.9249 143.741L54.3615 140.815ZM56.0416 139.116L59.1679 142.504L56.0416 139.116ZM56.9384 138.266L60.1872 141.538L60.1893 141.536L56.9384 138.266ZM60.7455 134.496L63.9818 137.781L60.7455 134.496ZM63.2856 131.985L60.0481 128.702L60.0427 128.707L63.2856 131.985ZM82.2808 113.198L85.5173 116.482L85.5226 116.476L82.2808 113.198ZM93.0266 102.561L89.7875 99.2801L93.0266 102.561ZM101.069 94.6011L97.8288 91.3219L101.069 94.6011ZM102.802 92.8864L99.5602 89.6072L102.802 92.8864ZM109.582 86.1843L106.357 82.8879L106.351 82.8958L109.582 86.1843ZM112.889 85.9115L111.97 90.4309L111.989 90.4349L112.006 90.4388L112.889 85.9115ZM116.356 87.5273L119.661 84.3127L119.602 84.2521L119.542 84.1941L116.356 87.5273ZM116.666 87.8331L113.468 91.1558H113.469L116.666 87.8331ZM116.896 88.0585L113.637 91.3193L113.664 91.347L113.691 91.3733L116.896 88.0585ZM122.611 93.5981L119.403 96.9103L122.611 93.5981ZM128.324 99.1377L131.533 95.8256L131.529 95.8229L128.324 99.1377ZM141.01 111.439L137.803 114.752L141.01 111.439ZM147.556 117.785L150.768 114.477L150.763 114.472L147.556 117.785ZM150.271 120.426L147.06 123.735L150.298 126.883L153.509 123.71L150.271 120.426ZM158.779 112.004L155.544 108.718L155.541 108.721L158.779 112.004ZM173.862 97.0895L170.621 93.809L173.862 97.0895ZM176.894 94.0871L173.66 90.8L173.654 90.8066L176.894 94.0871ZM185.032 86.0433L181.793 82.7627L185.032 86.0433ZM185.078 85.9984L188.318 89.279L188.328 89.2698L188.337 89.2605L185.078 85.9984ZM187.906 85.7981L188.823 81.2773L188.804 81.2734L188.786 81.2694L187.906 85.7981ZM191.286 87.2809L188.068 90.5825L188.075 90.5891L191.286 87.2809ZM191.467 87.4562L194.662 84.1321V84.1308L191.467 87.4562ZM191.826 87.8054L188.567 91.0675L188.594 91.0926L188.619 91.1189L191.826 87.8054ZM196.737 92.5635L193.534 95.8796L196.737 92.5635ZM203.265 98.89L200.056 102.201L200.061 102.206L203.265 98.89ZM214.246 109.534L211.04 112.848L214.246 109.534ZM222.522 117.558L219.317 120.873L219.319 120.876L222.522 117.558ZM226.21 121.126L223.008 124.444L226.241 127.573L229.445 124.412L226.21 121.126ZM234.717 112.709L237.952 115.995L237.96 115.986L234.717 112.709ZM246.56 100.986L249.799 104.267L246.56 100.986ZM252.504 95.1059L255.744 98.3865L255.747 98.3838L252.504 95.1059ZM260.501 87.1926L263.738 90.4771L263.741 90.4744L260.501 87.1926ZM264.117 85.947L264.502 90.5443L264.513 90.543L264.527 90.5416L264.117 85.947ZM267.373 86.5757L270.632 83.3136L270.605 83.286L270.578 83.2596L267.373 86.5757ZM267.66 86.8538L264.47 90.1831L267.66 86.8538ZM267.94 87.1267L264.681 90.3874L264.708 90.4164L264.737 90.4441L267.94 87.1267ZM273.823 92.8258L277.029 89.5123L273.823 92.8258ZM279.707 98.5249L282.912 95.2101L282.91 95.2074L279.707 98.5249ZM286.196 104.812L289.401 101.497L286.196 104.812ZM299.391 117.595L296.187 120.911L299.391 117.595ZM317.126 134.786L313.918 138.098L313.924 138.102L317.126 134.786ZM322.166 139.672L318.959 142.984L318.96 142.985L322.166 139.672ZM322.506 139.979L319.474 143.452L322.506 139.979ZM323.504 141.371L328.096 140.969L328.094 140.954L328.093 140.941L323.504 141.371ZM323.525 143.658L328.133 143.789L323.525 143.658ZM323.478 258.552L319.12 257.056L319.118 257.057L323.478 258.552ZM323.453 258.648L318.885 258.036L318.227 262.953L323.174 263.253L323.453 258.648ZM230.618 123.953L227.379 120.673L227.369 120.682L227.359 120.691L230.618 123.953ZM229.868 124.71L226.577 121.479L223.333 124.792L226.658 128.021L229.868 124.71ZM240.262 134.786L237.06 138.104H237.061L240.262 134.786ZM242.656 137.107L239.446 140.418L242.656 137.107ZM245.642 140.001L248.84 136.68L248.839 136.677L245.642 140.001ZM246.298 140.637L243.088 143.946V143.948L246.298 140.637ZM246.938 141.258L243.739 144.578L243.754 144.592L243.77 144.607L246.938 141.258ZM247.025 141.339L250.184 137.98L247.025 141.339ZM247.931 142.905H243.322V142.925V142.943L247.931 142.905ZM247.937 149.044L243.329 149.031L247.937 149.044ZM247.931 255.178H243.322V259.652L247.79 259.789L247.931 255.178ZM316.02 258.185L315.755 262.79L320.629 263.071V258.185H316.02ZM316.011 143.349L320.615 143.183V143.182L316.011 143.349ZM316.02 142.498L320.601 143.008L320.629 142.754V142.498H316.02ZM316.02 142.487L319.279 139.227L311.411 131.351V142.487H316.02ZM316.133 142.549L313.455 146.303L313.645 146.439L313.847 146.555L316.133 142.549ZM316.02 142.462H311.411V145.019L313.577 146.374L316.02 142.462ZM316.016 142.387L320.61 142.022V142.019L316.016 142.387ZM316.02 142.262L319.019 145.764L313.961 138.135L316.02 142.262ZM316 142.452L313.272 146.17L319.924 140.034L316 142.452ZM315.35 141.819L311.935 144.919L315.35 141.819ZM315.105 141.555L318.395 138.326L318.349 138.279L318.301 138.233L315.105 141.555ZM314.067 140.551L317.276 137.24L314.067 140.551ZM313.043 139.559L309.834 142.869L309.846 142.881L313.043 139.559ZM306.382 133.102L303.174 136.415L303.181 136.422L306.382 133.102ZM287.325 114.63L284.116 117.941L284.117 117.942L287.325 114.63ZM268.907 96.7732L265.703 100.088L268.907 96.7732ZM268.706 96.5782L271.911 93.2633L271.906 93.2581L268.706 96.5782ZM265.194 93.179L268.402 89.8655L265.194 93.179ZM263.464 91.5025L266.669 88.1877L263.452 85.0719L260.247 88.1995L263.464 91.5025ZM262.359 92.574L265.562 95.8915L262.359 92.574ZM260.374 94.5141L263.612 97.796L263.623 97.7841L260.374 94.5141ZM253.461 101.356L256.701 104.635L253.461 101.356ZM246.548 108.199L243.309 104.917H243.308L246.548 108.199ZM212.214 254.364L208.122 252.245L204.702 258.861L212.143 258.977L212.214 254.364ZM241.142 254.993L241.016 259.605L251.258 259.883L244.672 252.028L241.142 254.993ZM240.766 253.86H245.375V253.845L240.766 253.86ZM240.762 244.717L245.371 244.722L240.762 244.717ZM240.766 141.242H245.375V139.191L243.854 137.818L240.766 141.242ZM236.806 137.416L233.551 140.68L236.806 137.416ZM234.63 135.265L237.834 131.948L237.829 131.944L234.63 135.265ZM230.734 131.488L227.524 134.799L230.734 131.488ZM226.838 127.711L230.036 124.391L226.804 121.27L223.603 124.425L226.838 127.711ZM221.48 133.008L218.24 129.728L221.48 133.008ZM217.461 136.985L220.68 140.285L220.689 140.277L220.698 140.268L217.461 136.985ZM212.354 142.025L209.109 138.748L207.597 140.248L207.759 142.374L212.354 142.025ZM212.37 144.746L216.977 144.877V144.876L212.37 144.746ZM212.343 177.875V182.488H216.952V177.875H212.343ZM204.875 177.875H200.266V182.488H204.875V177.875ZM204.87 143.229L200.264 143.382L204.87 143.229ZM204.875 142.699L209.462 143.141L209.466 143.096L209.47 143.053L204.875 142.699ZM205.525 141.599L208.747 144.897L205.525 141.599ZM205.59 141.536L208.824 144.823L208.837 144.81L205.59 141.536ZM211.225 135.957L214.463 139.24L211.225 135.957ZM216.051 131.181L212.811 127.902L212.808 127.905L216.051 131.181ZM223.166 124.143L226.402 127.426L229.756 124.114L226.373 120.832L223.166 124.143ZM223.027 124.01L226.236 120.698L223.027 124.01ZM220.624 121.682L217.418 124.996L217.427 125.005L220.624 121.682ZM204.484 106.036L207.69 102.723L207.689 102.721L204.484 106.036ZM191.137 93.1091L187.906 96.3989L187.919 96.4108L187.933 96.424L191.137 93.1091ZM189.336 91.3628L192.509 88.0176L189.261 84.9309L186.085 88.0928L189.336 91.3628ZM182.168 98.4695L185.406 101.751L182.168 98.4695ZM179.775 100.837L183.015 104.117L179.775 100.837ZM160.667 119.748L157.427 116.467L157.423 116.471L160.667 119.748ZM160.621 119.792L157.377 116.516V116.517L160.621 119.792ZM155.174 125.184L151.942 121.895L148.582 125.201L151.961 128.491L155.174 125.184ZM163.351 133.116L160.146 136.432L163.351 133.116ZM165.291 134.997L168.502 131.687L168.496 131.682L165.291 134.997ZM170.686 140.228L173.92 136.941L173.908 136.929L173.898 136.919L170.686 140.228ZM171.172 140.667L174.204 137.194L171.172 140.667ZM172.585 142.678L167.978 142.796V142.81V142.825L172.585 142.678ZM172.606 148.857L177.214 148.906L172.606 148.857ZM172.585 177.875V182.488H177.193V177.875H172.585ZM165.265 177.875H160.656V182.488H165.265V177.875ZM165.265 141.355H169.874V139.13L168.134 137.745L165.265 141.355ZM163.983 140.124L167.315 136.938L163.983 140.124ZM163.295 139.424L160.081 142.73L160.093 142.742L160.105 142.752L163.295 139.424ZM160.976 137.176L157.774 140.493L160.976 137.176ZM158.681 134.951L161.896 131.644L161.89 131.64L158.681 134.951ZM155.27 131.641L158.475 128.328L155.27 131.641ZM151.917 128.391L155.128 125.08L151.892 121.938L148.682 125.107L151.917 128.391ZM143.18 137.036L139.943 133.75L139.936 133.757L139.93 133.765L143.18 137.036ZM140.191 139.996L143.428 143.279L140.191 139.996ZM137.938 142.225L141.131 145.552L141.157 145.527L141.182 145.502L137.938 142.225ZM137.423 142.736L134.152 139.486L137.423 142.736ZM136.78 143.368L133.635 139.998L132.172 141.364V143.368H136.78ZM136.78 143.394H132.172V144.267L132.49 145.079L136.78 143.394ZM136.801 144.116L141.39 144.545L136.801 144.116ZM136.78 254.288H132.172V258.968L136.847 258.9L136.78 254.288ZM165.265 254.051L165.278 258.664L169.947 258.651L169.874 253.978L165.265 254.051ZM165.249 244.893L169.858 244.918L165.249 244.893ZM165.265 212.143V207.53H160.656V212.143H165.265ZM172.585 212.143H177.193V207.53H172.585V212.143ZM172.585 254.051H167.976V258.664H172.585V254.051ZM204.875 254.251L204.816 258.864L209.483 258.925V254.251H204.875ZM204.875 212.143V207.53H200.266V212.143H204.875ZM212.343 212.143H216.952V207.53H212.343V212.143ZM61.4236 256.589H56.815V261.416L61.632 261.197L61.4236 256.589ZM129.59 254.453L129.67 259.064L134.198 258.987V254.453H129.59ZM129.584 141.87L134.192 141.751V141.749L129.584 141.87ZM130.007 140.501L126.682 137.305L126.672 137.317L130.007 140.501ZM136.66 133.881L133.45 130.571L136.66 133.881ZM139.964 130.652L136.728 127.368L136.726 127.37L139.964 130.652ZM146.876 123.815L150.116 127.094L146.876 123.815ZM147.027 123.665L150.267 126.945L153.584 123.661L150.262 120.38L147.027 123.665ZM145.791 122.463L142.591 125.783L145.791 122.463ZM144.753 121.456L147.978 118.161L147.968 118.151L147.959 118.142L144.753 121.456ZM128.577 105.774L131.783 102.46L131.782 102.459L128.577 105.774ZM115.25 92.8561L112.026 96.1524L112.034 96.1603L112.042 96.1683L115.25 92.8561ZM114.514 92.1404L117.721 88.8269L114.514 92.1404ZM113.78 91.4247L117.003 88.1284L113.757 84.948L110.533 88.1508L113.78 91.4247ZM107.889 97.253L111.125 100.536L107.889 97.253ZM103.959 101.135L100.719 97.8553L100.718 97.8566L103.959 101.135ZM92.6843 112.294L95.9234 115.576L92.6843 112.294ZM84.1993 120.689L87.4345 123.974L87.4398 123.969L84.1993 120.689ZM74.5068 130.271L77.746 133.551L74.5068 130.271ZM66.7264 137.963L63.4895 134.678L63.4785 134.69L66.7264 137.963ZM62.015 142.627L65.0595 146.091L65.1641 145.998L65.263 145.9L62.015 142.627ZM61.8012 142.867L58.2599 139.915H58.2597L61.8012 142.867ZM61.4338 143.265L58.4346 139.763L56.8253 141.143V143.265H61.4338ZM61.4276 143.416L56.8275 143.137V143.138L61.4276 143.416ZM428.076 263.746C420.979 262.34 413.7 261.114 406.359 260.414L405.486 269.599C412.403 270.258 419.352 271.422 426.287 272.796L428.076 263.746ZM432.098 274.811C432.851 274.889 433.608 274.952 434.217 274.935C434.387 274.929 434.64 274.918 434.929 274.875C435.119 274.848 435.778 274.75 436.505 274.367C437.224 273.988 439.333 272.5 438.955 269.642C438.7 267.713 437.366 266.706 437.242 266.607C436.627 266.111 435.982 265.856 435.865 265.807C435.6 265.698 435.331 265.604 435.104 265.529C434.639 265.376 434.094 265.22 433.558 265.073C431.439 264.496 428.48 263.825 428.07 263.745L426.293 272.797C426.285 272.796 426.446 272.83 426.806 272.911C427.131 272.985 427.564 273.085 428.051 273.201C429.035 273.433 430.198 273.719 431.138 273.975C431.616 274.106 431.982 274.214 432.219 274.291C432.342 274.332 432.373 274.347 432.341 274.334C432.325 274.327 432.25 274.295 432.14 274.239C432.063 274.199 431.784 274.054 431.456 273.789C431.377 273.726 430.068 272.752 429.817 270.853C429.443 268.023 431.534 266.56 432.212 266.203C432.899 265.842 433.495 265.761 433.597 265.745C433.797 265.716 433.937 265.713 433.969 265.713C434.024 265.71 433.804 265.713 433.055 265.633L432.098 274.811ZM330.324 267.327C364.314 269.121 398.266 271.629 432.145 274.815L433.007 265.629C399.004 262.432 364.929 259.915 330.808 258.114L330.324 267.327ZM60.9998 268.093C150.669 262.913 240.619 262.599 330.324 267.327L330.808 258.114C240.76 253.368 150.47 253.683 60.4688 258.883L60.9998 268.093ZM58.5445 268.197C59.5753 268.288 60.8381 268.267 62.0402 267.912L59.4285 259.064C59.4805 259.049 59.523 259.038 59.5546 259.031C59.5865 259.024 59.6104 259.02 59.6256 259.017C59.6548 259.012 59.6606 259.013 59.641 259.014C59.6222 259.016 59.5871 259.017 59.5363 259.016C59.4859 259.016 59.4249 259.012 59.3546 259.006L58.5445 268.197ZM-28.6406 274.887C0.608193 272.143 29.8922 269.913 59.217 268.206L58.6821 258.996C29.2477 260.708 -0.144843 262.947 -29.5008 265.701L-28.6406 274.887ZM-44.744 273.076C-40.0811 274.075 -34.1136 275.396 -28.6448 274.887L-29.4967 265.701C-33.2899 266.054 -37.7901 265.131 -42.815 264.054L-44.744 273.076ZM-49.0521 272.196C-47.7116 272.441 -46.2899 272.745 -44.744 273.076L-42.815 264.054C-44.3316 263.73 -45.8945 263.394 -47.3979 263.12L-49.0521 272.196ZM-51.293 271.833C-50.4362 271.964 -49.7048 272.076 -49.0583 272.195L-47.3917 263.121C-48.205 262.971 -49.085 262.838 -49.9072 262.713L-51.293 271.833ZM-59.1454 270.028C-56.602 271.052 -53.4445 271.507 -51.2929 271.833L-49.9072 262.713C-52.3826 262.336 -54.3641 262.009 -55.708 261.467L-59.1454 270.028ZM-59.3071 260.289C-59.5227 260.309 -59.7914 260.342 -60.082 260.401C-60.3313 260.452 -60.8197 260.567 -61.3633 260.836C-61.7871 261.047 -63.1271 261.78 -63.731 263.501C-64.439 265.519 -63.5838 267.152 -63.0646 267.85C-62.5763 268.508 -62.03 268.884 -61.8125 269.027C-61.5363 269.208 -61.2847 269.337 -61.1162 269.416C-60.7774 269.578 -60.4503 269.697 -60.2207 269.775C-59.7433 269.938 -59.2495 270.07 -58.9095 270.153C-58.7408 270.195 -58.5504 270.239 -58.3764 270.272C-58.3626 270.274 -58.0936 270.33 -57.7824 270.355C-57.7093 270.36 -57.4403 270.381 -57.0983 270.356C-56.9488 270.345 -56.5446 270.312 -56.0524 270.16C-55.8001 270.082 -55.3717 269.925 -54.9005 269.618C-54.4271 269.308 -53.7284 268.726 -53.2592 267.741C-52.7524 266.679 -52.7163 265.573 -52.9431 264.65C-53.1472 263.821 -53.5328 263.241 -53.7733 262.93C-54.2288 262.341 -54.7171 262.012 -54.8552 261.919C-55.211 261.681 -55.5224 261.546 -55.5852 261.52L-59.2682 269.976C-59.3257 269.951 -59.4121 269.913 -59.5152 269.86C-59.6073 269.813 -59.7802 269.721 -59.9846 269.585C-60.0896 269.514 -60.2379 269.408 -60.4047 269.266C-60.5621 269.133 -60.8099 268.903 -61.0635 268.575C-61.1709 268.43 -61.3867 268.098 -61.4919 267.91C-61.6064 267.678 -61.8101 267.15 -61.8931 266.855C-61.9647 266.507 -62.0266 265.759 -62.0102 265.363C-61.956 264.949 -61.7381 264.147 -61.5772 263.767C-61.1081 262.783 -60.4096 262.2 -59.9365 261.89C-59.4656 261.583 -59.0377 261.428 -58.7859 261.349C-58.5164 261.266 -58.2882 261.222 -58.1363 261.197C-57.9778 261.172 -57.8432 261.16 -57.7444 261.153C-57.5521 261.139 -57.3974 261.14 -57.3082 261.143C-57.2112 261.146 -57.1312 261.151 -57.076 261.155C-56.9682 261.163 -56.8838 261.173 -56.8395 261.18C-56.79 261.186 -56.7505 261.192 -56.7253 261.196C-56.6761 261.205 -56.6418 261.21 -56.6303 261.213C-56.5974 261.219 -56.6264 261.214 -56.7215 261.192C-56.909 261.146 -57.1199 261.086 -57.2507 261.041C-57.3252 261.016 -57.2781 261.027 -57.161 261.084C-57.1033 261.111 -56.948 261.186 -56.7492 261.317C-56.6461 261.385 -56.4964 261.491 -56.3262 261.637C-56.1627 261.778 -55.9168 262.01 -55.6685 262.345C-55.4239 262.674 -55.0936 263.214 -54.9104 263.956C-54.8167 264.335 -54.7636 264.76 -54.7807 265.218C-54.7978 265.678 -54.8845 266.13 -55.0348 266.559C-55.3366 267.418 -55.8331 268.018 -56.2425 268.395C-56.6416 268.762 -57.0248 268.981 -57.2708 269.102C-57.5268 269.23 -57.7446 269.307 -57.8863 269.35C-58.0334 269.396 -58.1527 269.423 -58.2303 269.439C-58.3101 269.456 -58.3707 269.465 -58.4057 269.47C-58.4417 269.474 -58.4635 269.477 -58.4677 269.477L-59.3071 260.289ZM42.8805 252.775C8.76112 254.575 -25.3154 257.093 -59.3185 260.29L-58.4563 269.475C-24.5758 266.29 9.37511 263.782 43.3657 261.988L42.8805 252.775ZM50.7935 252.39C48.1667 252.514 45.5277 252.638 42.8843 252.775L43.3619 261.989C45.9787 261.852 48.5948 261.729 51.2254 261.607L50.7935 252.39ZM53.9003 252.244C52.8652 252.292 51.8303 252.341 50.7935 252.39L51.2254 261.607C52.2616 261.558 53.3001 261.509 54.3394 261.459L53.9003 252.244ZM49.5113 248.522V256.852H58.7284V248.522H49.5113ZM49.5113 225.425V248.522H58.7284V225.425H49.5113ZM49.5113 197.057V225.425H58.7284V197.057H49.5113ZM49.5113 169.6V197.057H58.7284V169.6H49.5113ZM49.5113 148.985V169.6H58.7284V148.985H49.5113ZM49.5113 143.105V148.985H58.7284V143.105H49.5113ZM49.497 142.9C49.504 143 49.5077 143.055 49.5101 143.101C49.5124 143.145 49.5113 143.14 49.5113 143.105H58.7284C58.7284 142.756 58.7021 142.408 58.6921 142.263L49.497 142.9ZM50.8106 137.874C49.7738 139.129 49.5501 140.501 49.4866 141.226C49.4222 141.961 49.4807 142.664 49.497 142.9L58.6921 142.263C58.6806 142.096 58.6761 142.022 58.6742 141.963C58.6725 141.907 58.6763 141.943 58.6684 142.033C58.6594 142.137 58.5905 142.935 57.9125 143.755L50.8106 137.874ZM52.9153 135.726C52.3711 136.229 51.531 136.995 50.7983 137.889L57.9249 143.741C58.1818 143.427 58.5324 143.092 59.1679 142.504L52.9153 135.726ZM53.6896 134.994C53.4724 135.211 53.2319 135.433 52.9153 135.726L59.1679 142.504C59.4619 142.233 59.829 141.894 60.1872 141.538L53.6896 134.994ZM57.5091 131.212C56.2395 132.465 54.9613 133.728 53.6877 134.996L60.1893 141.536C61.4461 140.284 62.7098 139.037 63.9818 137.781L57.5091 131.212ZM60.0427 128.707C59.2009 129.542 58.3569 130.375 57.5091 131.212L63.9818 137.781C64.8285 136.944 65.679 136.104 66.5283 135.263L60.0427 128.707ZM69.5429 119.311C66.3782 122.443 63.215 125.573 60.0481 128.702L66.5229 135.269C69.6928 132.137 72.8583 129.004 76.0224 125.872L69.5429 119.311ZM79.043 109.915C75.8736 113.047 72.7069 116.18 69.5429 119.311L76.0224 125.872C79.1878 122.741 82.3506 119.61 85.5173 116.482L79.043 109.915ZM89.7875 99.2801C86.2047 102.824 82.6192 106.37 79.0377 109.92L85.5226 116.476C89.1015 112.929 92.683 109.387 96.2658 105.841L89.7875 99.2801ZM97.8288 91.3219C95.1492 93.9751 92.4697 96.6269 89.7875 99.2801L96.2658 105.841C98.948 103.189 101.63 100.536 104.311 97.8817L97.8288 91.3219ZM99.5602 89.6072C98.9822 90.1792 98.4055 90.7512 97.8288 91.3219L104.31 97.8817C104.888 97.3097 105.466 96.7376 106.044 96.1643L99.5602 89.6072ZM106.351 82.8958C104.081 85.1299 101.814 87.3745 99.5602 89.6072L106.044 96.1643C108.299 93.9303 110.555 91.6962 112.813 89.4727L106.351 82.8958ZM113.809 81.3907C113.299 81.2865 112.286 81.0941 111.182 81.0941C110.319 81.0941 108.094 81.1851 106.357 82.8879L112.807 89.4793C112.26 90.0144 111.711 90.2042 111.475 90.2662C111.24 90.3294 111.119 90.3202 111.182 90.3202C111.228 90.3202 111.329 90.3255 111.489 90.3479C111.641 90.3677 111.803 90.398 111.97 90.4309L113.809 81.3907ZM119.542 84.1941C117.703 82.4345 115.466 81.7149 113.772 81.3828L112.006 90.4388C112.394 90.514 112.683 90.6062 112.886 90.6959C113.083 90.7828 113.157 90.8487 113.171 90.8619L119.542 84.1941ZM119.864 84.5117C119.75 84.4023 119.7 84.3522 119.661 84.3127L113.05 90.742C113.212 90.9094 113.373 91.0636 113.468 91.1558L119.864 84.5117ZM120.155 84.7964C120.045 84.6857 119.937 84.5816 119.864 84.5117L113.469 91.1558C113.552 91.2362 113.598 91.2811 113.637 91.3193L120.155 84.7964ZM125.817 90.2846C123.913 88.4381 122.008 86.5902 120.101 84.7424L113.691 91.3733C115.595 93.2172 117.499 95.0638 119.403 96.9103L125.817 90.2846ZM131.529 95.8229C129.625 93.9777 127.722 92.1325 125.817 90.2846L119.403 96.9103C121.307 98.7582 123.213 100.606 125.121 102.453L131.529 95.8229ZM144.216 108.125C139.986 104.025 135.76 99.9272 131.533 95.8256L125.117 102.45C129.346 106.553 133.574 110.653 137.803 114.752L144.216 108.125ZM150.763 114.472C148.579 112.355 146.398 110.239 144.216 108.125L137.803 114.752C139.985 116.868 142.167 118.983 144.35 121.099L150.763 114.472ZM153.483 117.118L150.768 114.477L144.345 121.095L147.06 123.735L153.483 117.118ZM151.283 112.937C149.866 114.341 148.45 115.743 147.034 117.144L153.509 123.71C154.931 122.303 156.351 120.897 157.768 119.493L151.283 112.937ZM155.541 108.721C154.119 110.126 152.699 111.532 151.283 112.937L157.768 119.493C159.186 118.088 160.6 116.687 162.017 115.286L155.541 108.721ZM170.621 93.809C165.598 98.7832 160.576 103.753 155.544 108.718L162.014 115.289C167.053 110.318 172.08 105.342 177.102 100.369L170.621 93.809ZM173.654 90.8066C172.643 91.8069 171.631 92.8086 170.621 93.809L177.102 100.369C178.114 99.3684 179.125 98.368 180.135 97.3663L173.654 90.8066ZM181.793 82.7627C179.08 85.4462 176.368 88.131 173.66 90.8L180.128 97.3729C182.843 94.6973 185.562 92.006 188.272 89.3238L181.793 82.7627ZM181.837 82.7179L181.793 82.7627L188.272 89.3238L188.318 89.279L181.837 82.7179ZM188.786 81.2694C188.442 81.2022 187.528 81.0203 186.538 81.0018C185.856 80.99 183.57 80.9834 181.819 82.7364L188.337 89.2605C187.707 89.8905 187.053 90.0988 186.78 90.166C186.499 90.2359 186.337 90.2253 186.374 90.2266C186.391 90.2266 186.462 90.2306 186.596 90.2504C186.726 90.2688 186.859 90.2939 187.028 90.3255L188.786 81.2694ZM194.504 83.9779C192.632 82.1498 190.018 81.5198 188.823 81.2773L186.991 90.3189C187.378 90.3967 187.727 90.4955 187.992 90.601C188.118 90.651 188.187 90.6893 188.21 90.7024C188.235 90.7183 188.173 90.6853 188.068 90.5825L194.504 83.9779ZM194.662 84.1308C194.6 84.0715 194.548 84.0214 194.498 83.9713L188.075 90.5891C188.145 90.6563 188.212 90.7222 188.272 90.7802L194.662 84.1308ZM195.085 84.5434C194.931 84.3905 194.778 84.2428 194.662 84.1321L188.272 90.7802C188.399 90.9015 188.487 90.9871 188.567 91.0675L195.085 84.5434ZM199.942 89.2487C198.304 87.6618 196.668 86.0775 195.034 84.4933L188.619 91.1189C190.257 92.7071 191.896 94.294 193.534 95.8796L199.942 89.2487ZM206.475 95.5791C204.299 93.4663 202.119 91.3562 199.942 89.2487L193.534 95.8796C195.712 97.9884 197.887 100.095 200.056 102.201L206.475 95.5791ZM217.454 106.222C213.794 102.673 210.134 99.1219 206.469 95.5738L200.061 102.206C203.723 105.75 207.381 109.298 211.04 112.848L217.454 106.222ZM225.728 114.245C222.969 111.572 220.212 108.898 217.454 106.222L211.04 112.848C213.797 115.523 216.557 118.199 219.317 120.873L225.728 114.245ZM229.413 117.81L225.725 114.242L219.319 120.876L223.008 124.444L229.413 117.81ZM227.221 113.64C225.804 115.045 224.39 116.445 222.975 117.842L229.445 124.412C230.868 123.007 232.289 121.599 233.706 120.196L227.221 113.64ZM231.482 109.424C230.059 110.829 228.638 112.236 227.221 113.64L233.706 120.196C235.124 118.791 236.537 117.391 237.952 115.995L231.482 109.424ZM243.321 97.7051C239.371 101.612 235.419 105.521 231.474 109.431L237.96 115.986C241.901 112.079 245.849 108.175 249.799 104.267L243.321 97.7051ZM249.263 91.8254C247.283 93.7853 245.302 95.7452 243.321 97.7051L249.799 104.267C251.781 102.308 253.762 100.348 255.744 98.3865L249.263 91.8254ZM257.265 83.9094C254.593 86.5467 251.927 89.1854 249.261 91.828L255.747 98.3838C258.409 95.7452 261.07 93.1105 263.738 90.4771L257.265 83.9094ZM263.733 81.3498C262.989 81.4131 261.964 81.5422 260.903 81.8546C259.889 82.1525 258.463 82.7245 257.262 83.912L263.741 90.4744C263.564 90.6484 263.425 90.7248 263.394 90.7407C263.364 90.7565 263.392 90.738 263.5 90.7064C263.605 90.6761 263.748 90.6431 263.93 90.6128C264.109 90.5838 264.303 90.5601 264.502 90.5443L263.733 81.3498ZM270.578 83.2596C269.134 81.8612 267.389 81.4856 266.373 81.3617C265.286 81.2285 264.279 81.301 263.709 81.3524L264.527 90.5416C264.714 90.5258 264.872 90.5153 265.011 90.5127C265.153 90.51 265.232 90.5166 265.26 90.5206C265.294 90.5245 265.198 90.5166 265.022 90.4494C264.84 90.3795 264.51 90.2214 264.169 89.8905L270.578 83.2596ZM270.85 83.5245C270.75 83.4296 270.689 83.3703 270.632 83.3136L264.115 89.8365C264.25 89.9723 264.38 90.0975 264.47 90.1831L270.85 83.5245ZM271.199 83.8646C271.067 83.7328 270.938 83.6102 270.85 83.5245L264.47 90.1831C264.57 90.2794 264.628 90.336 264.681 90.3874L271.199 83.8646ZM277.029 89.5123C275.068 87.6117 273.105 85.7085 271.141 83.8079L264.737 90.4441C266.697 92.3381 268.656 94.2374 270.617 96.1393L277.029 89.5123ZM282.91 95.2074C280.95 93.3121 278.991 91.4129 277.029 89.5123L270.617 96.1393C272.577 98.0398 274.54 99.9431 276.506 101.842L282.91 95.2074ZM289.401 101.497C287.239 99.4013 285.076 97.3057 282.912 95.2101L276.502 101.84C278.666 103.935 280.828 106.031 282.99 108.127L289.401 101.497ZM302.595 114.279C298.197 110.021 293.8 105.759 289.401 101.497L282.99 108.127C287.388 112.388 291.787 116.65 296.187 120.911L302.595 114.279ZM320.334 131.474C314.428 125.742 308.517 120.011 302.595 114.279L296.187 120.911C302.106 126.639 308.014 132.369 313.918 138.098L320.334 131.474ZM325.374 136.36C323.693 134.727 322.019 133.103 320.328 131.469L313.924 138.102C315.608 139.733 317.277 141.351 318.959 142.984L325.374 136.36ZM325.54 136.506C325.477 136.451 325.439 136.418 325.406 136.387C325.374 136.36 325.367 136.352 325.373 136.359L318.96 142.985C319.164 143.183 319.374 143.365 319.474 143.452L325.54 136.506ZM328.093 140.941C327.948 139.398 327.219 138.299 326.72 137.688C326.247 137.11 325.706 136.651 325.54 136.506L319.474 143.452C319.598 143.56 319.642 143.601 319.675 143.631C319.703 143.658 319.659 143.621 319.588 143.532C319.462 143.378 319.006 142.779 318.915 141.801L328.093 140.941ZM328.133 143.789C328.152 143.074 328.188 142.027 328.096 140.969L318.913 141.773C318.951 142.207 318.942 142.71 318.919 143.527L328.133 143.789ZM328.113 144.79C328.113 144.493 328.121 144.182 328.133 143.789L318.919 143.527C318.909 143.895 318.896 144.34 318.896 144.79H328.113ZM328.113 151.951V144.79H318.896V151.951H328.113ZM328.113 174.038V151.951H318.896V174.038H328.113ZM328.113 201.855V174.038H318.896V201.855H328.113ZM328.113 229.246V201.855H318.896V229.246H328.113ZM328.113 250.127V229.246H318.896V250.127H328.113ZM328.113 258.437V250.127H318.896V258.437H328.113ZM327.838 260.048C327.839 260.046 327.857 259.992 327.877 259.93C327.898 259.863 327.931 259.756 327.964 259.625C328.031 259.358 328.113 258.946 328.113 258.437H318.896C318.896 257.968 318.971 257.594 319.027 257.366C319.077 257.167 319.137 257.003 319.12 257.056L327.838 260.048ZM328.021 259.261C327.985 259.527 327.931 259.738 327.894 259.868C327.861 259.984 327.827 260.079 327.839 260.046L319.118 257.057C319.118 257.06 319.105 257.095 319.092 257.136C319.077 257.181 319.056 257.247 319.033 257.329C318.987 257.492 318.925 257.736 318.885 258.036L328.021 259.261ZM406.353 260.414C378.85 257.835 351.298 255.719 323.732 254.044L323.174 263.253C350.642 264.923 378.095 267.031 405.493 269.599L406.353 260.414ZM233.857 127.234C236.512 124.608 239.166 121.984 241.821 119.357L235.344 112.794C232.688 115.421 230.032 118.046 227.379 120.673L233.857 127.234ZM233.157 127.94C233.402 127.691 233.623 127.468 233.877 127.215L227.359 120.691C227.109 120.942 226.858 121.193 226.577 121.479L233.157 127.94ZM243.464 131.467C239.995 128.114 236.541 124.765 233.077 121.399L226.658 128.021C230.126 131.39 233.585 134.744 237.06 138.104L243.464 131.467ZM245.866 133.798C245.069 133.023 244.267 132.245 243.463 131.467L237.061 138.104C237.855 138.872 238.648 139.642 239.446 140.418L245.866 133.798ZM248.839 136.677C247.848 135.723 246.86 134.764 245.866 133.798L239.446 140.418C240.438 141.381 241.439 142.354 242.445 143.324L248.839 136.677ZM249.507 137.326C249.288 137.112 249.063 136.895 248.84 136.68L242.444 143.323C242.654 143.525 242.868 143.733 243.088 143.946L249.507 137.326ZM250.137 137.936C249.931 137.737 249.721 137.534 249.507 137.326L243.088 143.948C243.301 144.153 243.521 144.367 243.739 144.578L250.137 137.936ZM250.184 137.98C250.155 137.952 250.131 137.93 250.107 137.908L243.77 144.607C243.804 144.64 243.838 144.671 243.867 144.699L250.184 137.98ZM252.539 142.905C252.539 139.933 250.443 138.224 250.184 137.98L243.866 144.699C243.928 144.756 243.963 144.79 243.994 144.82C244.023 144.848 244.032 144.857 244.03 144.854C244.029 144.854 243.946 144.769 243.842 144.616C243.732 144.452 243.592 144.209 243.485 143.887C243.375 143.559 243.322 143.224 243.322 142.905H252.539ZM252.546 149.058C252.551 147.015 252.556 144.939 252.539 142.866L243.322 142.943C243.339 144.956 243.334 146.98 243.329 149.031L252.546 149.058ZM252.539 152.11C252.539 151.098 252.542 150.082 252.546 149.058L243.329 149.031C243.326 150.054 243.322 151.082 243.322 152.11H252.539ZM252.539 173.287V152.11H243.322V173.287H252.539ZM252.539 200.45V173.287H243.322V200.45H252.539ZM252.539 227.428V200.45H243.322V227.428H252.539ZM252.539 248.093V227.428H243.322V248.093H252.539ZM252.539 255.178V248.093H243.322V255.178H252.539ZM316.285 253.579C293.557 252.269 270.827 251.263 248.071 250.567L247.79 259.789C270.462 260.483 293.109 261.484 315.755 262.79L316.285 253.579ZM311.411 247.115V258.185H320.629V247.115H311.411ZM311.411 224.123V247.115H320.629V224.123H311.411ZM311.411 196.253V224.123H320.629V196.253H311.411ZM311.411 169.198V196.253H320.629V169.198H311.411ZM311.411 149.247V169.198H320.629V149.247H311.411ZM311.411 143.77V149.247H320.629V143.77H311.411ZM311.405 143.517C311.41 143.674 311.411 143.73 311.411 143.77H320.629C320.629 143.534 320.621 143.308 320.615 143.183L311.405 143.517ZM311.44 141.989C311.365 142.663 311.397 143.295 311.405 143.517L320.615 143.182C320.613 143.108 320.611 143.057 320.61 143.011C320.609 142.964 320.609 142.938 320.609 142.921C320.609 142.884 320.61 142.924 320.601 143.008L311.44 141.989ZM311.411 142.487V142.498H320.629V142.487H311.411ZM313.847 146.555C313.816 146.536 313.728 146.486 313.612 146.408C313.555 146.37 313.454 146.299 313.331 146.203C313.255 146.142 312.963 145.91 312.66 145.544C312.523 145.378 312.178 144.945 311.921 144.296C311.679 143.681 311.223 142.076 312.184 140.353C313.122 138.67 314.676 138.21 315.26 138.088C315.911 137.951 316.435 137.99 316.645 138.011C317.11 138.056 317.458 138.163 317.563 138.194C317.719 138.243 317.842 138.291 317.92 138.322C318.315 138.484 318.802 138.749 319.279 139.227L312.761 145.749C313.34 146.329 313.974 146.677 314.446 146.868C314.454 146.872 315.018 147.123 315.762 147.194C315.975 147.215 316.501 147.255 317.152 147.117C317.74 146.994 319.293 146.534 320.232 144.85C321.193 143.127 320.736 141.52 320.494 140.906C320.236 140.253 319.891 139.82 319.753 139.652C319.446 139.282 319.15 139.046 319.066 138.98C318.937 138.877 318.826 138.799 318.757 138.753C318.618 138.66 318.497 138.589 318.42 138.544L313.847 146.555ZM313.577 146.374C313.438 146.286 313.329 146.207 313.261 146.155C313.226 146.129 313.198 146.107 313.178 146.091C313.159 146.075 313.146 146.063 313.14 146.059C313.138 146.058 313.136 146.056 313.138 146.058C313.139 146.058 313.139 146.059 313.14 146.06C313.142 146.06 313.144 146.063 313.146 146.064C313.153 146.071 313.173 146.087 313.197 146.107C313.221 146.125 313.255 146.154 313.297 146.186C313.339 146.219 313.392 146.258 313.455 146.303L318.813 138.796C318.915 138.869 318.991 138.93 319.016 138.951C319.023 138.958 319.03 138.963 319.034 138.966C319.035 138.967 319.037 138.968 319.038 138.969H319.039C319.039 138.971 319.039 138.971 319.039 138.971C319.045 138.975 319.027 138.96 319.017 138.952C318.992 138.931 318.925 138.876 318.839 138.811C318.752 138.744 318.624 138.651 318.462 138.55L313.577 146.374ZM311.422 142.754C311.423 142.776 311.422 142.752 311.419 142.723C311.419 142.706 311.417 142.674 311.415 142.635C311.414 142.597 311.411 142.537 311.411 142.462H320.629C320.629 142.305 320.621 142.18 320.618 142.131C320.614 142.077 320.61 142.026 320.61 142.022L311.422 142.754ZM313.961 138.135C312.697 138.767 312.104 139.768 311.871 140.249C311.621 140.765 311.523 141.21 311.484 141.426C311.401 141.864 311.402 142.218 311.402 142.319C311.404 142.466 311.41 142.585 311.414 142.639C311.417 142.696 311.422 142.748 311.422 142.755L320.61 142.019C320.602 141.93 320.619 142.098 320.619 142.292C320.619 142.369 320.622 142.702 320.543 143.127C320.503 143.333 320.409 143.772 320.161 144.282C319.929 144.76 319.341 145.757 318.081 146.389L313.961 138.135ZM319.924 140.034C320.082 140.289 320.626 141.213 320.572 142.543C320.509 144.111 319.682 145.196 319.019 145.764L313.02 138.759C312.287 139.389 311.43 140.535 311.363 142.167C311.306 143.56 311.876 144.547 312.075 144.869L319.924 140.034ZM311.935 144.919C312.061 145.056 312.595 145.673 313.272 146.17L318.727 138.734C318.768 138.764 318.802 138.79 318.829 138.811C318.855 138.834 318.876 138.852 318.89 138.865C318.906 138.879 318.917 138.889 318.922 138.894C318.929 138.9 318.931 138.902 318.929 138.9C318.927 138.898 318.922 138.893 318.914 138.884C318.905 138.876 318.894 138.864 318.88 138.848C318.865 138.832 318.85 138.815 318.83 138.793C318.809 138.772 318.788 138.748 318.763 138.72L311.935 144.919ZM311.814 144.786C311.81 144.782 311.816 144.787 311.839 144.812C311.863 144.839 311.891 144.869 311.935 144.919L318.763 138.72C318.692 138.641 318.548 138.482 318.395 138.326L311.814 144.786ZM310.858 143.862C311.203 144.197 311.554 144.538 311.909 144.879L318.301 138.233C317.961 137.905 317.622 137.576 317.276 137.24L310.858 143.862ZM309.846 142.881C310.183 143.207 310.517 143.531 310.858 143.862L317.276 137.24C316.938 136.911 316.59 136.575 316.239 136.236L309.846 142.881ZM303.181 136.422C305.398 138.564 307.611 140.712 309.834 142.869L316.25 136.246C314.029 134.09 311.809 131.934 309.582 129.783L303.181 136.422ZM293.647 127.18C296.825 130.259 300.002 133.338 303.174 136.415L309.589 129.79C306.414 126.709 303.236 123.63 300.059 120.552L293.647 127.18ZM284.117 117.942C287.292 121.022 290.47 124.101 293.647 127.18L300.059 120.552C296.881 117.473 293.704 114.395 290.532 111.316L284.117 117.942ZM265.703 100.088C271.849 106.043 277.988 111.988 284.116 117.941L290.533 111.319C284.4 105.363 278.257 99.4119 272.111 93.4584L265.703 100.088ZM265.501 99.8943L265.703 100.088L272.111 93.4584L271.911 93.2633L265.501 99.8943ZM261.988 96.4925C263.16 97.6286 264.333 98.7674 265.506 99.8982L271.906 93.2581C270.74 92.1338 269.574 91.0029 268.402 89.8655L261.988 96.4925ZM260.259 94.8173C260.836 95.3748 261.411 95.9336 261.988 96.4925L268.402 89.8655C267.825 89.3067 267.247 88.7465 266.669 88.1877L260.259 94.8173ZM265.562 95.8915C265.929 95.5356 266.306 95.1718 266.682 94.8054L260.247 88.1995C259.889 88.5488 259.527 88.8981 259.157 89.2566L265.562 95.8915ZM263.623 97.7841C264.25 97.1594 264.893 96.5386 265.562 95.8915L259.157 89.2566C258.496 89.8971 257.806 90.5641 257.123 91.2442L263.623 97.7841ZM256.701 104.635C259.006 102.355 261.306 100.075 263.612 97.796L257.135 91.2323C254.826 93.5138 252.522 95.7966 250.219 98.0767L256.701 104.635ZM249.786 111.481C252.094 109.198 254.398 106.917 256.701 104.635L250.219 98.0767C247.916 100.358 245.614 102.637 243.309 104.917L249.786 111.481ZM241.821 119.357C244.477 116.732 247.133 114.106 249.787 111.48L243.308 104.917C240.654 107.543 238 110.168 235.344 112.794L241.821 119.357ZM216.952 253.85V242.653H207.735V253.85H216.952ZM216.308 256.484C216.662 255.8 216.952 254.913 216.952 253.85H207.735C207.735 253.546 207.774 253.24 207.853 252.945C207.931 252.652 208.032 252.416 208.122 252.245L216.308 256.484ZM241.267 250.381C231.608 250.119 221.952 249.902 212.285 249.753L212.143 258.977C221.766 259.126 231.387 259.343 241.016 259.605L241.267 250.381ZM236.158 254.051C236.158 255.701 236.833 257.031 237.611 257.959L244.672 252.028C244.967 252.378 245.375 253.079 245.375 254.051H236.158ZM236.158 253.86V254.051H245.375V253.86H236.158ZM236.154 244.711C236.151 247.759 236.147 250.816 236.158 253.875L245.375 253.845C245.364 250.81 245.368 247.772 245.371 244.722L236.154 244.711ZM236.158 240.139C236.158 241.663 236.156 243.185 236.154 244.711L245.371 244.722C245.374 243.197 245.375 241.668 245.375 240.139H236.158ZM236.158 211.72V240.139H245.375V211.72H236.158ZM236.158 178.991V211.72H245.375V178.991H236.158ZM236.158 151.91V178.991H245.375V151.91H236.158ZM236.158 141.242V151.91H245.375V141.242H236.158ZM233.551 140.68C234.836 141.964 236.221 143.349 237.679 144.666L243.854 137.818C242.597 136.681 241.373 135.461 240.061 134.15L233.551 140.68ZM231.427 138.581C232.125 139.257 232.822 139.953 233.551 140.68L240.061 134.15C239.342 133.431 238.594 132.684 237.834 131.948L231.427 138.581ZM227.524 134.799C228.821 136.058 230.123 137.323 231.431 138.585L237.829 131.944C236.534 130.694 235.241 129.438 233.943 128.178L227.524 134.799ZM223.638 131.032C224.934 132.283 226.226 133.538 227.524 134.799L233.943 128.178C232.646 126.918 231.344 125.654 230.036 124.391L223.638 131.032ZM224.721 136.289C226.506 134.521 228.286 132.759 230.072 130.998L223.603 124.425C221.811 126.194 220.024 127.963 218.24 129.728L224.721 136.289ZM220.698 140.268C222.041 138.94 223.382 137.613 224.721 136.289L218.24 129.728C216.901 131.053 215.563 132.378 214.224 133.7L220.698 140.268ZM215.597 145.301C217.297 143.615 218.982 141.944 220.68 140.285L214.242 133.683C212.515 135.37 210.805 137.066 209.109 138.748L215.597 145.301ZM216.977 144.876C217.001 144.01 217.038 142.846 216.949 141.674L207.759 142.374C207.805 142.984 207.79 143.66 207.764 144.617L216.977 144.876ZM216.952 146.159C216.952 145.769 216.962 145.362 216.977 144.877L207.764 144.617C207.751 145.08 207.735 145.618 207.735 146.159H216.952ZM216.952 155.389V146.159H207.735V155.389H216.952ZM216.952 177.875V155.389H207.735V177.875H216.952ZM204.875 182.488H212.343V173.262H204.875V182.488ZM200.266 166.686V177.875H209.483V166.686H200.266ZM200.266 148.089V166.686H209.483V148.089H200.266ZM200.266 143.481V148.089H209.483V143.481H200.266ZM200.264 143.382C200.265 143.428 200.265 143.451 200.266 143.472C200.266 143.489 200.266 143.49 200.266 143.481H209.483C209.483 143.308 209.478 143.148 209.476 143.075L200.264 143.382ZM200.287 142.258C200.237 142.781 200.26 143.253 200.264 143.382L209.476 143.076C209.474 143.054 209.474 143.037 209.474 143.02C209.473 143.005 209.473 142.993 209.473 142.983C209.472 142.964 209.472 142.959 209.472 142.964C209.472 142.97 209.472 142.989 209.47 143.018C209.47 143.047 209.468 143.088 209.462 143.141L200.287 142.258ZM202.302 138.301C202.104 138.496 200.468 139.901 200.279 142.345L209.47 143.053C209.447 143.353 209.381 143.664 209.267 143.967C209.157 144.265 209.021 144.503 208.904 144.674C208.793 144.839 208.699 144.941 208.674 144.969C208.658 144.986 208.654 144.989 208.747 144.897L202.302 138.301ZM202.356 138.249C202.341 138.263 202.326 138.279 202.302 138.301L208.747 144.897C208.767 144.877 208.795 144.85 208.824 144.823L202.356 138.249ZM207.989 132.673C206.11 134.53 204.224 136.393 202.343 138.262L208.837 144.81C210.707 142.951 212.583 141.098 214.463 139.24L207.989 132.673ZM212.808 127.905C211.206 129.496 209.599 131.082 207.989 132.673L214.463 139.24C216.072 137.649 217.685 136.055 219.296 134.458L212.808 127.905ZM219.928 120.86C217.55 123.21 215.187 125.549 212.811 127.902L219.293 134.462C221.67 132.108 224.028 129.772 226.402 127.426L219.928 120.86ZM219.82 127.322L219.957 127.455L226.373 120.832L226.236 120.698L219.82 127.322ZM217.427 125.005C218.219 125.768 219.02 126.546 219.82 127.322L226.236 120.698C225.438 119.924 224.626 119.136 223.821 118.361L217.427 125.005ZM201.278 109.35L217.418 124.996L223.831 118.369L207.69 102.723L201.278 109.35ZM187.933 96.424L201.279 109.351L207.689 102.721L194.341 89.793L187.933 96.424ZM186.164 94.7092C186.744 95.2601 187.314 95.815 187.906 96.3989L194.367 89.8181C193.756 89.2184 193.144 88.62 192.509 88.0176L186.164 94.7092ZM185.406 101.751C187.798 99.3869 190.196 97.0144 192.587 94.6328L186.085 88.0928C183.708 90.4612 181.323 92.8218 178.929 95.1877L185.406 101.751ZM183.015 104.117C183.811 103.329 184.609 102.541 185.406 101.751L178.929 95.1877C178.131 95.9771 177.333 96.7666 176.535 97.5561L183.015 104.117ZM163.907 123.027L183.015 104.117L176.535 97.5561L157.427 116.467L163.907 123.027ZM163.865 123.069L163.911 123.023L157.423 116.471L157.377 116.516L163.865 123.069ZM158.405 128.473C160.234 126.674 162.061 124.859 163.865 123.068L157.377 116.517C155.569 118.31 153.755 120.11 151.942 121.895L158.405 128.473ZM166.555 129.801C163.83 127.161 161.104 124.523 158.386 121.876L151.961 128.491C154.688 131.146 157.421 133.794 160.146 136.432L166.555 129.801ZM168.496 131.682C167.85 131.055 167.202 130.429 166.555 129.801L160.146 136.432C160.792 137.058 161.44 137.686 162.085 138.312L168.496 131.682ZM171.193 134.296C170.292 133.426 169.398 132.559 168.502 131.687L162.08 138.305C162.984 139.186 163.886 140.058 164.784 140.928L171.193 134.296ZM173.898 136.919C172.993 136.04 172.091 135.166 171.193 134.296L164.784 140.928C165.684 141.799 166.579 142.665 167.476 143.536L173.898 136.919ZM174.204 137.194C174.111 137.112 174.05 137.058 173.995 137.01C173.97 136.987 173.951 136.971 173.938 136.958C173.925 136.946 173.92 136.94 173.92 136.941L167.453 143.515C167.713 143.77 167.991 144.011 168.139 144.141L174.204 137.194ZM177.192 142.561C177.145 140.708 176.256 139.378 175.69 138.678C175.126 137.984 174.464 137.421 174.204 137.194L168.139 144.141C168.311 144.292 168.407 144.377 168.488 144.454C168.566 144.528 168.567 144.537 168.533 144.495C168.508 144.462 168.004 143.855 167.978 142.796L177.192 142.561ZM177.214 148.906C177.235 146.862 177.259 144.705 177.191 142.532L167.978 142.825C168.039 144.77 168.02 146.731 167.997 148.808L177.214 148.906ZM177.193 151.951C177.193 150.948 177.204 149.941 177.214 148.906L167.997 148.808C167.987 149.835 167.976 150.891 167.976 151.951H177.193ZM177.193 173.193V151.951H167.976V173.193H177.193ZM177.193 177.875V173.193H167.976V177.875H177.193ZM165.265 182.488H172.585V173.262H165.265V182.488ZM160.656 152.1V177.875H169.874V152.1H160.656ZM160.656 141.355V152.1H169.874V141.355H160.656ZM160.65 143.311C161.017 143.696 161.655 144.375 162.396 144.965L168.134 137.745C167.972 137.616 167.769 137.416 167.315 136.938L160.65 143.311ZM160.105 142.752C160.248 142.891 160.406 143.055 160.65 143.311L167.315 136.938C167.098 136.71 166.8 136.398 166.486 136.096L160.105 142.752ZM157.774 140.493C158.547 141.242 159.315 141.985 160.081 142.73L166.509 136.119C165.731 135.359 164.952 134.606 164.18 133.86L157.774 140.493ZM155.467 138.256C156.238 139.006 157.008 139.752 157.774 140.493L164.18 133.86C163.412 133.116 162.653 132.382 161.896 131.644L155.467 138.256ZM152.064 134.956C153.202 136.059 154.339 137.16 155.473 138.262L161.89 131.64C160.753 130.534 159.612 129.43 158.475 128.328L152.064 134.956ZM148.708 131.702C149.825 132.787 150.946 133.871 152.064 134.956L158.475 128.328C157.355 127.243 156.239 126.161 155.128 125.08L148.708 131.702ZM150.79 135.992C152.245 134.55 153.699 133.112 155.154 131.677L148.682 125.107C147.221 126.549 145.762 127.993 144.307 129.434L150.79 135.992ZM146.415 140.32C147.876 138.879 149.335 137.434 150.79 135.992L144.307 129.434C142.852 130.877 141.398 132.315 139.943 133.75L146.415 140.32ZM143.428 143.279C144.424 142.295 145.427 141.304 146.428 140.307L139.93 133.765C138.941 134.748 137.951 135.727 136.951 136.714L143.428 143.279ZM141.182 145.502C141.929 144.761 142.677 144.021 143.428 143.279L136.951 136.714C136.202 137.455 135.448 138.2 134.693 138.948L141.182 145.502ZM140.694 145.987C140.871 145.807 141.003 145.674 141.131 145.552L134.746 138.898C134.525 139.111 134.315 139.321 134.152 139.486L140.694 145.987ZM139.927 146.739C140.218 146.466 140.492 146.19 140.694 145.987L134.152 139.486C133.928 139.712 133.777 139.864 133.635 139.998L139.927 146.739ZM141.389 143.394V143.368H132.172V143.394H141.389ZM141.39 144.545C141.398 144.459 141.432 144.119 141.435 143.757C141.436 143.469 141.434 142.636 141.071 141.71L132.49 145.079C132.327 144.662 132.269 144.317 132.244 144.123C132.219 143.92 132.218 143.768 132.218 143.7C132.219 143.59 132.228 143.522 132.213 143.689L141.39 144.545ZM141.389 144.423C141.389 144.488 141.387 144.538 141.386 144.567C141.385 144.596 141.384 144.615 141.384 144.62C141.382 144.624 141.382 144.621 141.384 144.607C141.385 144.592 141.387 144.575 141.39 144.545L132.213 143.689C132.209 143.73 132.172 144.077 132.172 144.423H141.389ZM141.389 146.509V144.423H132.172V146.509H141.389ZM141.389 153.295V146.509H132.172V153.295H141.389ZM141.389 174.856V153.295H132.172V174.856H141.389ZM141.389 202.272V174.856H132.172V202.272H141.389ZM141.389 229.184V202.272H132.172V229.184H141.389ZM141.389 249.767V229.184H132.172V249.767H141.389ZM141.389 254.288V249.767H132.172V254.288H141.389ZM165.253 249.438C155.748 249.464 146.229 249.535 136.713 249.675L136.847 258.9C146.321 258.761 155.803 258.689 165.278 258.664L165.253 249.438ZM160.641 244.869C160.625 247.915 160.608 251.019 160.658 254.123L169.874 253.978C169.826 250.986 169.842 247.98 169.858 244.918L160.641 244.869ZM160.656 240.314C160.656 241.826 160.649 243.341 160.641 244.869L169.858 244.918C169.866 243.393 169.874 241.854 169.874 240.314H160.656ZM160.656 212.143V240.314H169.874V212.143H160.656ZM172.585 207.53H165.265V216.756H172.585V207.53ZM177.193 227.263V212.143H167.976V227.263H177.193ZM177.193 247.893V227.263H167.976V247.893H177.193ZM177.193 254.051V247.893H167.976V254.051H177.193ZM204.934 249.639C194.153 249.5 183.362 249.438 172.585 249.438V258.664C183.327 258.664 194.078 258.726 204.816 258.864L204.934 249.639ZM200.266 242.626V254.251H209.483V242.626H200.266ZM200.266 220.085V242.626H209.483V220.085H200.266ZM200.266 212.143V220.085H209.483V212.143H200.266ZM212.343 207.53H204.875V216.756H212.343V207.53ZM216.952 215.777V212.143H207.735V215.777H216.952ZM216.952 242.653V215.777H207.735V242.653H216.952ZM66.0321 254.54V233.595H56.815V254.54H66.0321ZM66.0321 256.589V254.54H56.815V256.589H66.0321ZM129.511 249.84C106.743 250.232 83.9715 250.949 61.215 251.98L61.632 261.197C84.3033 260.169 106.989 259.455 129.67 259.064L129.511 249.84ZM124.981 243.46V254.453H134.198V243.46H124.981ZM124.981 220.714V243.46H134.198V220.714H124.981ZM124.981 193.071V220.714H134.198V193.071H124.981ZM124.981 166.573V193.071H134.198V166.573H124.981ZM124.981 147.261V166.573H134.198V147.261H124.981ZM124.981 142.2V147.261H134.198V142.2H124.981ZM124.977 141.99C124.98 142.1 124.981 142.151 124.981 142.2H134.198C134.198 142.013 134.194 141.847 134.192 141.751L124.977 141.99ZM126.672 137.317C125.982 138.04 125.412 138.951 125.14 140.085C124.923 140.999 124.974 141.861 124.977 141.99L134.192 141.749C134.188 141.58 134.189 141.604 134.188 141.653C134.185 141.729 134.173 141.946 134.106 142.23C134.032 142.533 133.915 142.838 133.752 143.124C133.596 143.397 133.438 143.583 133.342 143.684L126.672 137.317ZM133.45 130.571C131.216 132.743 128.913 134.981 126.682 137.305L133.33 143.696C135.431 141.507 137.618 139.381 139.872 137.19L133.45 130.571ZM136.726 127.37C135.648 128.435 134.558 129.494 133.45 130.571L139.872 137.19C140.974 136.119 142.092 135.031 143.203 133.933L136.726 127.37ZM143.635 120.534C141.333 122.813 139.025 125.097 136.728 127.368L143.202 133.935C145.504 131.661 147.816 129.372 150.116 127.094L143.635 120.534ZM143.785 120.385L143.635 120.534L150.116 127.094L150.267 126.945L143.785 120.385ZM142.591 125.783C143.008 126.186 143.403 126.567 143.79 126.949L150.262 120.38C149.832 119.956 149.4 119.538 148.989 119.141L142.591 125.783ZM141.528 124.752C141.888 125.104 142.247 125.451 142.591 125.783L148.989 119.141C148.641 118.805 148.307 118.484 147.978 118.161L141.528 124.752ZM125.371 109.087L141.547 124.771L147.959 118.142L131.783 102.46L125.371 109.087ZM112.042 96.1683C116.483 100.479 120.933 104.791 125.372 109.089L131.782 102.459C127.342 98.1598 122.895 93.8525 118.458 89.5452L112.042 96.1683ZM111.308 95.4539C111.556 95.6938 111.791 95.9231 112.026 96.1524L118.474 89.5597C118.22 89.3106 117.965 89.0642 117.721 88.8269L111.308 95.4539ZM110.555 94.7211C110.809 94.9715 111.065 95.218 111.308 95.4539L117.721 88.8269C117.474 88.587 117.237 88.3577 117.003 88.1284L110.555 94.7211ZM111.125 100.536C113.09 98.5974 115.059 96.652 117.025 94.7L110.533 88.1508C108.579 90.0909 106.618 92.027 104.652 93.9685L111.125 100.536ZM107.201 104.415C108.506 103.122 109.815 101.83 111.125 100.536L104.652 93.9685C103.342 95.2615 102.03 96.5571 100.719 97.8553L107.201 104.415ZM95.9234 115.576C99.6827 111.858 103.443 108.138 107.203 104.414L100.718 97.8566C96.9623 101.577 93.2044 105.294 89.4451 109.012L95.9234 115.576ZM87.4398 123.969C90.2668 121.17 93.0951 118.373 95.9234 115.576L89.4451 109.012C86.6168 111.809 83.7872 114.609 80.9575 117.409L87.4398 123.969ZM77.746 133.551C80.9746 130.356 84.2019 127.164 87.4345 123.974L80.9628 117.404C77.7262 120.598 74.495 123.795 71.2664 126.989L77.746 133.551ZM69.9635 141.246C72.5581 138.682 75.1521 136.116 77.746 133.551L71.2664 126.989C68.6731 129.555 66.0818 132.118 63.4895 134.679L69.9635 141.246ZM67.608 143.577C68.3928 142.802 69.1838 142.021 69.9745 141.235L63.4785 134.69C62.7004 135.464 61.9201 136.235 61.1336 137.011L67.608 143.577ZM65.263 145.9C66.0412 145.126 66.8214 144.355 67.608 143.577L61.1336 137.011C60.3489 137.786 59.5578 138.568 58.7671 139.354L65.263 145.9ZM65.3425 145.818C65.3655 145.79 65.3772 145.777 65.3868 145.765C65.3961 145.755 65.3934 145.757 65.3834 145.769C65.3744 145.78 65.3454 145.813 65.302 145.857C65.2625 145.9 65.1782 145.985 65.0595 146.091L58.9706 139.163C58.7103 139.393 58.5177 139.613 58.4549 139.684C58.3719 139.779 58.2915 139.876 58.2599 139.915L65.3425 145.818ZM64.4331 146.768C64.912 146.357 65.3041 145.864 65.3428 145.818L58.2597 139.915C58.2294 139.95 58.2134 139.97 58.1992 139.987C58.186 140.003 58.1843 140.004 58.1901 139.998C58.1956 139.991 58.2172 139.967 58.2521 139.932C58.2857 139.899 58.3476 139.838 58.4346 139.763L64.4331 146.768ZM66.0278 143.696C66.029 143.676 66.0424 143.48 66.0424 143.265H56.8253C56.8253 143.228 56.8259 143.196 56.8265 143.175C56.8271 143.154 56.8278 143.138 56.8282 143.13C56.8286 143.121 56.8288 143.116 56.8287 143.119C56.8286 143.121 56.8283 143.125 56.8275 143.137L66.0278 143.696ZM66.0321 143.507C66.0321 143.565 66.0309 143.612 66.03 143.637C66.0292 143.664 66.0282 143.685 66.0278 143.695C66.027 143.71 66.0263 143.72 66.0279 143.695L56.8275 143.138C56.8269 143.15 56.8241 143.194 56.8219 143.239C56.82 143.278 56.815 143.381 56.815 143.507H66.0321ZM66.0321 155.014V143.507H56.815V155.014H66.0321ZM66.0321 177.806V155.014H56.815V177.806H66.0321ZM66.0321 206.016V177.806H56.815V206.016H66.0321ZM66.0321 233.595V206.016H56.815V233.595H66.0321Z" fill="white"/>
<path d="M214.389 201H163.611C162.169 201 161 202.215 161 203.714V217.286C161 218.785 162.169 220 163.611 220H214.389C215.831 220 217 218.785 217 217.286V203.714C217 202.215 215.831 201 214.389 201Z" fill="white"/>
<path d="M161 169.714C161 168.215 162.168 167 163.611 167H214.389C215.832 167 217 168.215 217 169.714V183.286C217 184.785 215.832 186 214.389 186H163.611C162.168 186 161 184.785 161 183.286V169.714Z" fill="white"/>
</g>
<defs>
<filter id="filter0_i_13_3" x="-38" y="-38" width="450" height="454" filterUnits="userSpaceOnUse" color-interpolation-filters="sRGB">
<feFlood flood-opacity="0" result="BackgroundImageFix"/>
<feBlend mode="normal" in="SourceGraphic" in2="BackgroundImageFix" result="shape"/>
<feColorMatrix in="SourceAlpha" type="matrix" values="0 0 0 0 0 0 0 0 0 0 0 0 0 0 0 0 0 0 127 0" result="hardAlpha"/>
<feOffset dy="4"/>
<feGaussianBlur stdDeviation="2"/>
<feComposite in2="hardAlpha" operator="arithmetic" k2="-1" k3="1"/>
<feColorMatrix type="matrix" values="0 0 0 0 0 0 0 0 0 0 0 0 0 0 0 0 0 0 0.25 0"/>
<feBlend mode="normal" in2="shape" result="effect1_innerShadow_13_3"/>
</filter>
<clipPath id="clip0_13_3">
<rect width="375" height="375" rx="187.5" fill="white"/>
</clipPath>
</defs>
</svg>
