<svg xmlns="http://www.w3.org/2000/svg" width="375" viewBox="0 0 375 375" height="375" version="1.0"><defs><clipPath id="a"><path d="M 32.066406 129.28125 L 342.566406 129.28125 L 342.566406 245.53125 L 32.066406 245.53125 Z M 32.066406 129.28125"/></clipPath></defs><path fill="#0C0E27" d="M 187.472656 4.097656 C 86.195312 4.097656 4.097656 86.195312 4.097656 187.472656 C 4.097656 288.746094 86.195312 370.847656 187.472656 370.847656 C 288.746094 370.847656 370.847656 288.746094 370.847656 187.472656 C 370.847656 86.195312 288.746094 4.097656 187.472656 4.097656 Z M 187.472656 4.097656"/><g clip-path="url(#a)"><path fill="#FD6B35" d="M 338.042969 244.15625 C 333.632812 243.277344 329.160156 242.527344 324.675781 242.101562 C 307.414062 240.480469 290.117188 239.152344 272.816406 238.101562 C 272.824219 238.054688 272.847656 238.015625 272.847656 237.96875 C 272.847656 236.230469 272.847656 234.484375 272.847656 232.746094 C 272.847656 228.367188 272.847656 223.988281 272.847656 219.613281 C 272.847656 213.867188 272.847656 208.128906 272.847656 202.386719 C 272.847656 196.554688 272.847656 190.722656 272.847656 184.890625 C 272.847656 180.261719 272.847656 175.628906 272.847656 171 C 272.847656 169.5 272.847656 167.996094 272.847656 166.496094 C 272.847656 165.792969 272.910156 165.050781 272.847656 164.347656 C 272.808594 163.894531 272.316406 163.578125 272.007812 163.28125 C 270.949219 162.253906 269.898438 161.234375 268.839844 160.207031 C 265.125 156.601562 261.410156 153 257.6875 149.394531 C 253.558594 145.398438 249.433594 141.398438 245.308594 137.402344 C 242.839844 135.015625 240.375 132.621094 237.910156 130.234375 C 237.789062 130.113281 237.671875 130.003906 237.554688 129.886719 C 237.054688 129.402344 236.121094 129.4375 235.507812 129.492188 C 234.769531 129.554688 233.78125 129.726562 233.230469 130.273438 C 231.554688 131.933594 229.878906 133.59375 228.203125 135.25 C 224.472656 138.941406 220.738281 142.632812 217.015625 146.320312 C 215.230469 148.085938 213.453125 149.855469 211.664062 151.617188 C 210.890625 150.867188 210.117188 150.113281 209.351562 149.371094 C 205.308594 145.460938 201.277344 141.542969 197.238281 137.628906 C 194.84375 135.308594 192.441406 132.984375 190.046875 130.660156 C 189.9375 130.550781 189.816406 130.4375 189.707031 130.328125 C 189.175781 129.816406 188.285156 129.539062 187.582031 129.394531 C 187.128906 129.308594 186.1875 129.136719 185.800781 129.523438 C 184.085938 131.222656 182.371094 132.921875 180.65625 134.609375 C 176.863281 138.363281 173.066406 142.125 169.265625 145.878906 C 167.480469 147.640625 165.699219 149.410156 163.914062 151.171875 C 163.34375 150.621094 162.777344 150.066406 162.207031 149.515625 C 158.175781 145.601562 154.144531 141.699219 150.113281 137.789062 C 147.71875 135.464844 145.324219 133.140625 142.925781 130.820312 C 142.816406 130.707031 142.699219 130.597656 142.585938 130.488281 C 141.996094 129.917969 141.203125 129.625 140.40625 129.46875 C 139.851562 129.355469 138.792969 129.183594 138.328125 129.640625 C 136.539062 131.402344 134.753906 133.171875 132.976562 134.933594 C 129.039062 138.832031 125.09375 142.726562 121.160156 146.628906 C 117.175781 150.566406 113.199219 154.507812 109.214844 158.445312 C 107.886719 159.761719 106.550781 161.074219 105.222656 162.394531 C 104.691406 162.921875 104.078125 163.421875 103.601562 164 C 103.308594 164.355469 103.453125 165.011719 103.453125 165.4375 C 103.453125 166.667969 103.453125 167.902344 103.453125 169.132812 C 103.453125 173.457031 103.453125 177.78125 103.453125 182.101562 C 103.453125 187.855469 103.453125 193.613281 103.453125 199.367188 C 103.453125 205.316406 103.453125 211.257812 103.453125 217.210938 C 103.453125 222.054688 103.453125 226.890625 103.453125 231.734375 C 103.453125 233.480469 103.453125 235.226562 103.453125 236.972656 C 101.144531 237.082031 98.84375 237.1875 96.535156 237.304688 C 75.121094 238.433594 53.730469 240.015625 32.390625 242.023438 C 31.292969 242.125 33.433594 242.621094 33.308594 242.566406 C 34.972656 243.238281 37.371094 243.453125 39.09375 243.769531 C 42.816406 244.449219 47.304688 245.78125 51.140625 245.425781 C 69.566406 243.695312 88.015625 242.289062 106.488281 241.214844 C 106.929688 241.253906 107.324219 241.230469 107.609375 241.144531 C 164.105469 237.882812 220.773438 237.683594 277.289062 240.664062 C 298.703125 241.792969 320.09375 243.371094 341.433594 245.378906 C 345.214844 245.773438 338.40625 244.226562 338.042969 244.15625 Z M 214.441406 153.394531 C 217.777344 150.089844 221.121094 146.789062 224.457031 143.484375 C 227.355469 140.617188 230.25 137.75 233.148438 134.878906 C 233.789062 134.238281 234.445312 133.617188 235.09375 132.984375 C 236.195312 134.050781 237.292969 135.117188 238.390625 136.175781 C 242.296875 139.960938 246.199219 143.746094 250.097656 147.53125 C 254.089844 151.402344 258.089844 155.273438 262.082031 159.148438 C 263.480469 160.496094 264.871094 161.847656 266.269531 163.207031 C 266.707031 163.628906 267.132812 164.046875 267.566406 164.464844 C 267.734375 164.628906 267.921875 164.875 268.128906 165.027344 C 268.105469 164.984375 268.097656 164.945312 268.144531 164.90625 C 268.128906 164.914062 268.144531 164.992188 268.144531 165.035156 C 268.167969 165.050781 268.191406 165.074219 268.214844 165.089844 C 268.324219 165.152344 268.207031 165.113281 268.144531 165.050781 C 268.144531 165.050781 268.144531 165.058594 268.144531 165.058594 C 268.113281 165.316406 268.144531 165.59375 268.144531 165.855469 C 268.144531 167 268.144531 168.15625 268.144531 169.300781 C 268.144531 173.480469 268.144531 177.667969 268.144531 181.847656 C 268.144531 187.523438 268.144531 193.1875 268.144531 198.863281 C 268.144531 204.699219 268.144531 210.546875 268.144531 216.386719 C 268.144531 221.207031 268.144531 226.027344 268.144531 230.847656 C 268.144531 233.171875 268.144531 235.496094 268.144531 237.808594 C 253.875 236.988281 239.609375 236.355469 225.324219 235.921875 C 225.324219 234.4375 225.324219 232.949219 225.324219 231.464844 C 225.324219 227.132812 225.324219 222.796875 225.324219 218.464844 C 225.324219 212.808594 225.324219 207.160156 225.324219 201.5 C 225.324219 195.804688 225.324219 190.113281 225.324219 184.417969 C 225.324219 179.976562 225.324219 175.535156 225.324219 171.101562 C 225.324219 169.175781 225.339844 167.238281 225.324219 165.308594 C 225.324219 164.835938 225.007812 164.566406 224.699219 164.273438 C 224.433594 164.015625 224.15625 163.746094 223.886719 163.484375 C 222.757812 162.394531 221.632812 161.296875 220.503906 160.207031 C 218.320312 158.097656 216.148438 155.984375 213.964844 153.867188 C 214.132812 153.703125 214.28125 153.550781 214.441406 153.394531 Z M 202.945312 235.082031 C 202.945312 232.738281 202.945312 230.390625 202.945312 228.042969 C 202.945312 222.410156 202.945312 216.773438 202.945312 211.140625 C 202.945312 204.371094 202.945312 197.589844 202.945312 190.816406 C 202.945312 184.929688 202.945312 179.042969 202.945312 173.164062 C 202.945312 171.230469 202.945312 169.292969 202.945312 167.355469 C 202.945312 166.503906 203.019531 165.609375 202.953125 164.757812 C 204.023438 163.699219 205.089844 162.640625 206.164062 161.589844 C 208.132812 159.644531 210.09375 157.699219 212.0625 155.757812 C 213.695312 157.335938 215.324219 158.925781 216.960938 160.503906 C 218.242188 161.746094 219.492188 163.066406 220.820312 164.265625 C 220.820312 166.503906 220.820312 168.738281 220.820312 170.976562 C 220.820312 176.648438 220.820312 182.332031 220.820312 188.003906 C 220.820312 194.863281 220.820312 201.730469 220.820312 208.589844 C 220.820312 214.546875 220.820312 220.503906 220.820312 226.460938 C 220.820312 229.339844 220.8125 232.214844 220.820312 235.089844 C 220.820312 235.132812 220.820312 235.171875 220.820312 235.210938 C 220.820312 235.421875 220.90625 235.621094 221.054688 235.804688 C 214.992188 235.636719 208.929688 235.503906 202.867188 235.40625 C 202.914062 235.3125 202.945312 235.210938 202.945312 235.082031 Z M 108.042969 235.519531 C 108.042969 231.125 108.042969 226.738281 108.042969 222.347656 C 108.042969 216.5625 108.042969 210.785156 108.042969 205 C 108.042969 199.089844 108.042969 193.171875 108.042969 187.261719 C 108.042969 182.480469 108.042969 177.707031 108.042969 172.925781 C 108.042969 170.515625 108.042969 168.097656 108.042969 165.6875 C 108.042969 165.65625 108.050781 165.59375 108.050781 165.539062 C 108.1875 165.421875 108.335938 165.207031 108.417969 165.136719 C 109.402344 164.15625 110.390625 163.183594 111.378906 162.203125 C 115.039062 158.585938 118.699219 154.957031 122.367188 151.339844 C 126.507812 147.238281 130.652344 143.144531 134.792969 139.042969 C 136.847656 137.003906 138.910156 134.976562 140.96875 132.9375 C 141.277344 133.238281 141.582031 133.535156 141.890625 133.835938 C 144.683594 136.546875 147.480469 139.257812 150.269531 141.960938 C 153.660156 145.246094 157.054688 148.535156 160.445312 151.820312 C 160.917969 152.289062 161.402344 152.746094 161.875 153.210938 C 160.398438 154.675781 158.910156 156.144531 157.433594 157.605469 C 155.34375 159.667969 153.203125 161.683594 151.171875 163.800781 C 150.839844 164.148438 150.910156 164.402344 150.910156 164.867188 C 150.910156 165.925781 150.910156 166.992188 150.910156 168.050781 C 150.910156 172.097656 150.910156 176.144531 150.910156 180.199219 C 150.910156 185.753906 150.910156 191.308594 150.910156 196.863281 C 150.910156 202.65625 150.910156 208.445312 150.910156 214.246094 C 150.910156 219.011719 150.910156 223.777344 150.910156 228.550781 C 150.910156 230.855469 150.910156 233.15625 150.910156 235.464844 C 136.621094 235.707031 122.328125 236.160156 108.042969 236.804688 C 108.042969 236.363281 108.042969 235.9375 108.042969 235.519531 Z M 173.34375 171.09375 C 173.34375 176.792969 173.34375 182.480469 173.34375 188.179688 C 173.34375 195.027344 173.34375 201.878906 173.34375 208.722656 C 173.34375 214.671875 173.34375 220.625 173.34375 226.574219 C 173.34375 229.449219 173.296875 232.332031 173.34375 235.210938 C 167.375 235.226562 161.402344 235.273438 155.433594 235.359375 C 155.433594 234.414062 155.433594 233.464844 155.433594 232.515625 C 155.433594 228.203125 155.433594 223.886719 155.433594 219.574219 C 155.433594 213.929688 155.433594 208.289062 155.433594 202.648438 C 155.433594 196.902344 155.433594 191.15625 155.433594 185.40625 C 155.433594 180.886719 155.433594 176.363281 155.433594 171.84375 C 155.433594 170.421875 155.433594 169 155.433594 167.578125 C 155.433594 167.144531 155.433594 166.707031 155.433594 166.265625 C 155.433594 166.09375 155.496094 165.785156 155.433594 165.617188 C 155.433594 165.617188 155.433594 165.609375 155.433594 165.601562 C 155.675781 165.375 155.914062 165.121094 156.160156 164.882812 C 157.257812 163.792969 158.355469 162.710938 159.457031 161.621094 C 161.289062 159.808594 163.117188 157.992188 164.949219 156.183594 C 166.363281 157.558594 167.789062 158.933594 169.203125 160.308594 C 170.167969 161.25 171.140625 162.179688 172.101562 163.121094 C 172.507812 163.507812 172.902344 163.984375 173.34375 164.339844 C 173.34375 166.597656 173.34375 168.851562 173.34375 171.09375 Z M 177.945312 235.210938 C 177.945312 233.921875 177.945312 232.625 177.945312 231.339844 C 177.945312 227.015625 177.945312 222.695312 177.945312 218.363281 C 177.945312 212.722656 177.945312 207.070312 177.945312 201.429688 C 177.945312 195.742188 177.945312 190.050781 177.945312 184.363281 C 177.945312 179.90625 177.945312 175.449219 177.945312 171 C 177.945312 169.054688 178.007812 167.113281 177.945312 165.167969 C 177.929688 164.535156 177.171875 164.039062 176.75 163.628906 C 175.621094 162.527344 174.492188 161.4375 173.359375 160.339844 C 171.242188 158.285156 169.117188 156.230469 166.996094 154.167969 C 168.152344 153.03125 169.304688 151.886719 170.453125 150.746094 C 174.457031 146.78125 178.457031 142.820312 182.464844 138.855469 C 184.472656 136.871094 186.480469 134.886719 188.480469 132.898438 C 188.859375 133.261719 189.234375 133.625 189.613281 133.996094 C 192.410156 136.707031 195.207031 139.414062 198.007812 142.125 C 201.390625 145.40625 204.773438 148.683594 208.15625 151.964844 C 208.6875 152.476562 209.222656 153 209.753906 153.511719 C 208.257812 154.992188 206.773438 156.460938 205.277344 157.9375 C 203.089844 160.109375 200.890625 162.277344 198.703125 164.449219 C 198.488281 164.664062 198.273438 164.84375 198.25 165.183594 C 198.234375 165.351562 198.25 165.515625 198.25 165.671875 C 198.25 166.636719 198.25 167.609375 198.25 168.574219 C 198.25 172.46875 198.25 176.371094 198.25 180.269531 C 198.25 185.703125 198.25 191.148438 198.25 196.585938 C 198.25 202.339844 198.25 208.089844 198.25 213.851562 C 198.25 218.578125 198.25 223.300781 198.25 228.027344 C 198.25 230.460938 198.25 232.902344 198.25 235.335938 C 191.484375 235.25 184.710938 235.210938 177.945312 235.210938 Z M 177.945312 235.210938"/></g><path fill="#FD6B35" d="M 268.152344 165.035156 C 268.144531 165.035156 268.144531 165.027344 268.136719 165.027344 C 268.144531 165.035156 268.144531 165.042969 268.152344 165.050781 C 268.152344 165.042969 268.152344 165.035156 268.152344 165.035156 Z M 268.152344 165.035156"/></svg>