<svg width="776" height="353" viewBox="0 0 776 353" fill="none" xmlns="http://www.w3.org/2000/svg">
<g clip-path="url(#clip0_9_2)">
<path d="M162 199C162 197.895 162.895 197 164 197H202.9C204.005 197 204.9 197.895 204.9 199V209C204.9 210.105 204.005 211 202.9 211H164C162.895 211 162 210.105 162 209V199Z" fill="#FF7F50"/>
<path d="M162 173C162 171.895 162.895 171 164 171H202.9C204.005 171 204.9 171.895 204.9 173V183C204.9 184.105 204.005 185 202.9 185H164C162.895 185 162 184.105 162 183V173Z" fill="#FF7F50"/>
<path d="M354 246C450.167 236.667 665 226.4 755 260" stroke="#FF7F50" stroke-width="8"/>
<path d="M278.691 142.108C278.679 142.108 278.679 142.1 278.671 142.1C278.679 142.108 278.679 142.119 278.691 142.127C278.691 142.119 278.691 142.108 278.691 142.108Z" fill="#FD6B35"/>
<path d="M384.472 250C383.672 246.4 368.139 242.5 360.472 241C359.639 243.667 358.272 249 359.472 249C360.672 249 369.639 251 373.972 252C377.806 252.833 385.272 253.6 384.472 250Z" fill="#FF7F50"/>
<path d="M338.33 247.961C339.487 244.459 355.333 242.137 363.111 241.414C363.673 244.15 364.498 249.594 363.304 249.473C362.11 249.353 352.988 250.444 348.576 251.004C344.678 251.448 337.173 251.462 338.33 247.961Z" fill="#FF7F50"/>
<path d="M768.5 263.5C769 262 759.5 257 753 255V263.5C760 266.333 768.5 267.5 768.5 263.5Z" fill="#FF7F50"/>
<g clip-path="url(#clip1_9_2)">
<path d="M696.632 219.66C696.699 218.921 696.664 218.266 696.63 217.611C695.833 218.191 694.859 218.662 693.894 219.041L676.845 222.258C678.2 225.826 681.494 228.544 685.558 228.909C691.192 229.416 696.125 225.296 696.632 219.66Z" fill="#FF7F50"/>
<path d="M673.16 222.858L669.467 223.55C671.463 230.342 677.412 235.627 684.893 236.3C694.592 237.172 703.149 230.025 704.021 220.324C704.478 215.243 702.676 210.424 699.458 206.875L699.989 209.251C700.318 210.771 700.168 212.434 699.473 213.954C700.146 215.784 700.425 217.859 700.234 219.984C699.545 227.652 692.8 233.286 685.134 232.596C679.499 232.09 674.828 228.13 673.16 222.858Z" fill="#FF7F50"/>
<path d="M604.555 194.709C596.235 195.078 589.172 201.149 587.794 209.221C585.882 220.132 594.296 230.109 605.487 229.905C613.782 229.813 621.039 223.666 622.517 215.51C623.787 208.639 620.834 202.133 615.784 198.233L621.393 189.703L623.904 190.767C624.107 191.624 624.502 192.405 625.098 193.017L630.628 198.823L630.713 198.924L626.822 203.883C626.411 204.311 626.353 204.958 626.487 205.529L628.054 210.885L627.855 213.103C627.564 216.336 630.195 219.181 633.612 219.488L638.23 219.903C637.591 218.728 637.237 217.486 637.177 216.083L637.739 206.727L631.259 208.379L630.408 205.416L634.609 200.112C634.71 200.028 634.727 199.844 634.827 199.759L638.144 200.151L638.566 193.39C638.688 189.954 640.549 186.862 643.595 185.087L651.852 180.241C651.399 180.107 650.937 180.066 650.383 180.016L638.376 178.936C638.006 178.903 637.637 178.87 637.259 178.929C637.452 178.853 637.729 178.878 637.922 178.803C638.594 178.584 639.45 178.381 640.407 178.094C646.803 176.341 653.61 174.159 657.527 170.972L658.732 175.179C658.724 175.271 658.623 175.355 658.615 175.447C658.037 176.699 657.275 178.959 657.823 181.151L645.437 188.419C643.474 189.547 642.368 191.496 642.26 193.722L641.268 209.932L640.938 215.676C640.839 217.809 641.975 219.681 643.764 220.494C644.301 220.729 644.931 220.971 645.485 221.021L645.578 221.03C646.317 221.096 646.98 220.97 647.651 220.75C647.844 220.675 648.037 220.599 648.23 220.523C648.331 220.439 648.423 220.447 648.524 220.363C648.717 220.287 648.817 220.203 649.019 220.035C649.12 219.951 649.212 219.96 649.22 219.867C649.422 219.699 649.623 219.531 649.833 219.27C649.833 219.27 649.841 219.178 649.933 219.186C650.135 219.018 650.252 218.749 650.361 218.573C650.369 218.48 650.47 218.396 650.478 218.304C650.587 218.127 650.696 217.951 650.713 217.766C650.721 217.673 650.822 217.59 650.83 217.497C650.947 217.228 650.972 216.951 651.006 216.582L651.789 210.971L653.824 196.624C654.102 196.649 654.479 196.59 654.857 196.531C655.042 196.548 655.142 196.463 655.327 196.48C655.512 196.497 655.705 196.421 655.982 196.446C656.167 196.463 656.36 196.387 656.544 196.403C656.729 196.42 656.83 196.336 657.014 196.353C657.3 196.285 657.485 196.302 657.77 196.234C657.862 196.242 657.862 196.242 657.955 196.251C663.688 195.649 670.723 194.046 674.06 190.062C674.17 189.885 674.371 189.717 674.48 189.541C674.69 189.28 674.908 188.927 675.033 188.566C676.645 188.245 677.996 187.715 679.062 187.252L678.58 192.61L669.822 200.95L665.664 198.527C662.802 199.295 659.78 199.768 657.06 199.989L654.599 216.998C654.366 218.56 653.771 219.997 652.823 221.216L658.92 221.764C659.289 221.797 659.474 221.814 691.49 215.752C693.286 215.447 694.864 214.472 695.828 213.068C696.473 212.102 696.666 211.001 696.48 209.96L695.485 205.493C695.299 204.452 694.543 203.546 693.568 202.992C692.149 202.213 690.301 202.047 688.572 202.636L665.75 208.966C665.851 208.882 665.951 208.798 666.144 208.722L666.245 208.638L671.346 204.719C671.446 204.636 671.648 204.467 671.757 204.291L680.313 196.119C680.405 196.127 680.498 196.136 680.682 196.152L693.972 194.367C694.064 194.375 694.24 194.484 694.333 194.492C694.425 194.501 694.61 194.517 694.702 194.526L701.429 196.342L701.03 200.776C700.997 201.146 701.064 201.431 701.224 201.725L703.79 207.357C704.102 208.038 704.631 208.365 705.277 208.423C705.555 208.448 705.932 208.388 706.226 208.229C707.191 207.85 707.576 206.674 707.189 205.801L704.867 200.562L705.357 195.111C705.44 194.188 704.86 193.39 703.953 193.122L695.95 191.006C693.106 184.323 682.315 182.142 681.853 182.101C681.668 182.084 681.483 182.068 681.391 182.059L681.299 182.051C681.114 182.034 680.921 182.11 680.728 182.186C680.627 182.27 680.434 182.346 680.333 182.43C680.233 182.514 678.824 183.691 676.515 184.508C676.725 184.248 676.842 183.979 676.968 183.617C676.993 183.34 677.41 180.77 677.264 177.218C677.056 170.214 675.064 159.231 664.808 154.21L663.412 152.129C665.543 150.179 667.069 147.708 667.393 144.105C667.741 140.224 666.226 136.363 663.395 133.687C660.647 131.111 657.035 129.855 653.442 130.463C643.545 131.809 639.866 139.581 639.24 143.436C639.19 143.99 639.325 144.562 639.754 144.972C640.182 145.384 640.72 145.618 641.283 145.575L642.877 145.439C642.837 146.926 643.091 149.277 644.756 151.476C643.8 152.787 643.457 154.526 644.055 156.163L644.433 157.128C644.964 158.48 646.073 159.604 647.434 160.006C647.703 160.124 648.072 160.157 648.349 160.182C649.458 160.281 650.607 159.919 651.597 159.263C652.101 158.842 652.688 158.523 653.284 158.111L653.419 158.681C650.994 160.792 643.553 166.922 634.472 170.576C633.893 170.803 633.297 171.215 632.886 171.644L630.409 171.235C629.678 171.076 628.906 171.379 628.571 172.001L623.297 179.909C620.59 175.847 613.503 174.93 613.134 174.897C612.672 174.855 612.101 174.991 611.791 175.335C611.397 175.579 611.162 176.117 611.121 176.579L609.957 189.513C609.908 190.068 610.051 190.546 610.387 190.949C610.731 191.259 611.177 191.485 611.638 191.527C611.638 191.527 611.731 191.535 611.823 191.543C612.192 191.577 613.964 191.55 616.046 191.178L612.592 196.456C610.089 195.3 607.443 194.689 604.555 194.709ZM647.667 149.13C646.423 147.435 646.48 145.763 646.546 145.024L649.459 144.728L649.345 148.07L647.667 149.13ZM671.958 186.52C671.841 186.789 671.631 187.049 671.514 187.318C670.986 188.016 670.281 188.604 669.391 189.176C668.997 189.42 668.603 189.664 668.124 189.808C668.024 189.891 667.931 189.883 667.831 189.967C667.638 190.043 667.445 190.119 667.252 190.195C667.151 190.279 666.966 190.262 666.866 190.346C666.673 190.422 666.479 190.498 666.286 190.574C666.186 190.657 666.001 190.641 665.9 190.725C665.707 190.801 665.514 190.877 665.321 190.952C665.229 190.944 665.128 191.028 664.943 191.012C664.557 191.163 664.087 191.214 663.701 191.366C663.508 191.441 663.324 191.425 663.223 191.509C663.03 191.585 662.845 191.568 662.652 191.644C662.459 191.72 662.274 191.703 662.081 191.778C661.888 191.854 661.703 191.838 661.51 191.914C661.317 191.989 661.04 191.964 660.847 192.04C660.654 192.116 660.47 192.1 660.277 192.175C659.899 192.234 659.613 192.302 659.236 192.361C659.051 192.344 658.95 192.429 658.766 192.412C658.48 192.479 658.203 192.454 657.825 192.514C657.641 192.497 657.54 192.581 657.355 192.565C657.07 192.632 656.793 192.607 656.6 192.683C656.415 192.666 656.314 192.75 656.13 192.734C655.844 192.801 655.567 192.776 655.282 192.844C655.189 192.835 655.004 192.819 654.904 192.903C654.526 192.962 654.064 192.92 653.686 192.98C651.907 193.099 650.48 194.461 650.23 196.208L648.07 210.916L647.319 216.157C647.303 216.342 647.294 216.434 647.186 216.61C647.085 216.695 647.068 216.879 646.967 216.964C646.657 217.308 646.179 217.451 645.717 217.41C644.978 217.343 644.49 216.554 644.465 215.807L644.745 210.617L645.118 205.435L645.862 194.046C645.946 193.122 646.398 192.231 647.279 191.751L660.445 184.088C661.629 184.38 664.191 184.89 667.238 185.164C668.901 185.314 670.572 185.371 672.436 185.352C672.226 185.613 672.092 186.066 671.958 186.52ZM635.525 174.396C635.534 174.304 635.642 174.127 635.928 174.06C647.535 169.236 656.469 161.005 656.779 160.66C657.291 160.147 657.441 159.509 657.315 158.845L656.607 156.36C657.774 155.813 658.948 155.174 660.131 154.442L661.695 156.725C661.855 157.019 662.116 157.228 662.468 157.446C670.969 161.284 672.942 170.403 673.217 176.668C673.319 178.633 673.262 180.304 673.162 181.413C668.293 181.72 663.255 180.801 661.34 180.35C660.994 179.014 661.815 177.132 662.243 176.519C662.36 176.25 662.478 175.981 662.502 175.704C662.519 175.519 662.544 175.242 662.468 175.049L660.135 166.829C659.924 166.065 659.319 165.545 658.58 165.479C657.841 165.412 657.061 165.808 656.726 166.43C654.698 170.345 644.382 173.236 639.413 174.652C638.363 174.93 637.499 175.225 636.735 175.436C636.349 175.588 635.812 175.353 635.652 175.059C635.5 174.673 635.517 174.488 635.525 174.396ZM631.084 175.114L631.907 175.281C631.958 175.752 632.101 176.23 632.337 176.717C633.136 178.186 634.547 179.058 636.218 179.115C634.052 179.386 632.114 180.236 630.495 181.674L627.639 180.299L631.084 175.114ZM625.593 183.375L627.559 184.297L625.227 186.416C625.025 186.584 624.815 186.844 624.606 187.105L623.438 186.627L625.593 183.375ZM618.964 213.607C618.258 221.46 611.127 227.245 603.217 226.161C596.222 225.253 590.927 218.909 591.197 211.762C591.542 203.783 598.505 197.797 606.356 198.503C607.834 198.636 609.202 198.945 610.454 199.523L603.788 209.448C603.47 209.885 603.428 210.347 603.571 210.826C603.622 211.296 603.958 211.699 604.395 212.018C605.278 212.563 606.419 212.293 606.956 211.503L613.73 201.401C617.292 204.236 619.404 208.711 618.964 213.607Z" fill="#FF7F50"/>
<path d="M602.258 215.085C599.712 213.366 598.995 209.949 600.714 207.402L604.159 202.217C599.374 202.625 595.398 206.459 594.949 211.448C594.443 217.083 598.561 222.017 604.196 222.524C609.83 223.031 614.763 218.91 615.269 213.275C615.46 211.15 614.988 209.151 614.03 207.389L610.039 213.456C608.957 215.129 606.91 216.156 604.878 215.973C603.954 215.89 603.047 215.622 602.258 215.085Z" fill="#FF7F50"/>
</g>
<path d="M342.583 218.127C343.311 216.774 344.359 216.09 345.727 216.074C346.615 216.063 347.341 216.534 347.904 217.488C348.467 218.417 348.865 219.577 349.098 220.966C349.354 222.331 349.562 223.721 349.723 225.135C350.125 228.658 350.592 230.585 351.124 230.915C352.057 230.663 352.868 229.226 353.557 226.601C354.245 223.953 354.582 221.969 354.566 220.649C354.55 219.305 354.466 218.238 354.312 217.448C355.15 217.27 355.869 217.177 356.469 217.17C358.533 217.146 359.576 218.117 359.6 220.085C359.636 223.157 359.822 225.663 360.157 227.603C360.516 229.519 360.926 230.654 361.386 231.009C362.057 230.953 362.627 230.418 363.095 229.404C363.563 228.391 363.896 227.162 364.095 225.72C364.471 223.003 364.65 220.925 364.633 219.485C364.616 218.021 364.53 216.894 364.377 216.104C365.215 215.926 365.934 215.833 366.534 215.826C368.598 215.802 369.641 216.773 369.665 218.741C369.679 219.989 369.445 221.504 368.963 223.286C368.479 225.044 367.84 226.768 367.044 228.457C366.248 230.123 365.268 231.551 364.107 232.74C362.969 233.93 361.824 234.532 360.672 234.545C359.352 234.561 358.344 233.589 357.649 231.629C357.103 230.147 356.648 228.221 356.284 225.849C356.078 226.643 355.928 227.221 355.837 227.582C355.745 227.943 355.583 228.485 355.352 229.208C355.121 229.931 354.911 230.486 354.724 230.872C354.536 231.258 354.278 231.717 353.948 232.249C353.642 232.781 353.323 233.169 352.99 233.413C352.158 234.094 351.226 234.442 350.194 234.454C349.186 234.466 348.341 234.02 347.658 233.116C346.999 232.212 346.529 231.053 346.248 229.64C345.992 228.227 345.758 226.778 345.549 225.292C345.048 221.506 344.059 219.118 342.583 218.127Z" fill="white"/>
<path d="M382.022 224.227C382.206 225.945 382.626 227.276 383.282 228.22C383.935 229.14 384.906 229.531 386.195 229.393C387.484 229.255 388.44 228.719 389.064 227.783C389.71 226.821 389.966 225.719 389.833 224.479C390.645 224.392 391.37 224.519 392.01 224.861C392.65 225.203 393.009 225.732 393.085 226.448C393.243 227.928 392.588 229.253 391.12 230.423C389.65 231.57 388.044 232.237 386.302 232.423C383.581 232.714 381.535 232.196 380.162 230.871C378.787 229.521 377.945 227.403 377.636 224.515C377.328 221.627 377.88 219.118 379.294 216.988C380.729 214.831 382.806 213.608 385.527 213.317C387.388 213.118 388.926 213.388 390.139 214.127C391.374 214.84 392.087 216.092 392.278 217.881C392.467 219.647 391.798 221.07 390.272 222.151C388.768 223.205 386.858 223.855 384.543 224.103C383.732 224.189 382.892 224.231 382.022 224.227ZM381.756 221.395C382.487 221.462 383.247 221.453 384.034 221.369C385.752 221.186 387.162 220.709 388.262 219.94C388.344 219.352 388.367 218.891 388.331 218.557C388.242 217.721 387.876 217.121 387.234 216.755C386.591 216.389 385.745 216.262 384.695 216.375C383.669 216.484 382.774 216.918 382.01 217.675C381.713 218.962 381.628 220.202 381.756 221.395Z" fill="white"/>
<path d="M412.735 230.891C411.994 231.243 411.193 231.455 410.332 231.528C409.471 231.601 408.694 231.39 408.002 230.894C407.334 230.397 406.959 229.67 406.878 228.713C406.797 227.757 406.762 225.917 406.772 223.194C406.781 220.448 406.716 218.262 406.579 216.635C406.225 212.45 405.693 209.159 404.985 206.763C405.726 206.411 406.527 206.199 407.388 206.126C408.248 206.053 409.013 206.265 409.681 206.763C410.374 207.258 410.754 207.912 410.823 208.725C410.89 209.515 410.919 210.283 410.91 211.03C410.924 211.776 410.925 212.631 410.91 213.595C410.895 214.56 410.894 215.403 410.907 216.125C411.872 216.139 413.526 216.047 415.87 215.849C418.213 215.651 420.011 215.402 421.262 215.104C420.94 211.301 420.411 208.034 419.674 205.303C420.415 204.951 421.216 204.739 422.077 204.666C422.938 204.593 423.702 204.805 424.371 205.303C425.063 205.798 425.45 206.536 425.533 207.517C425.614 208.473 425.639 210.193 425.609 212.677C425.578 215.16 425.625 217.143 425.751 218.626C426.147 223.313 426.717 227.058 427.46 229.862C426.719 230.214 425.918 230.426 425.057 230.499C424.197 230.572 423.42 230.36 422.728 229.865C422.059 229.367 421.687 228.664 421.61 227.756C421.533 226.847 421.503 225.356 421.52 223.283C421.538 221.21 421.538 219.789 421.521 219.02C419.163 219.051 415.665 219.263 411.025 219.655L411.104 220.588C411.462 224.821 412.006 228.255 412.735 230.891Z" fill="white"/>
<path d="M447.689 229.2C445.054 229.364 443.066 228.717 441.726 227.262C440.384 225.782 439.627 223.665 439.456 220.91C439.284 218.131 439.961 215.673 441.488 213.534C443.014 211.395 445.071 210.246 447.658 210.085C452.976 209.756 455.82 212.585 456.192 218.573C456.366 221.376 455.651 223.813 454.048 225.884C452.444 227.931 450.324 229.037 447.689 229.2ZM444.166 214.27C443.821 215.686 443.692 217.088 443.778 218.478C443.864 219.867 443.979 220.942 444.122 221.703C444.266 222.463 444.493 223.219 444.804 223.969C445.451 225.492 446.578 226.203 448.183 226.104C449.811 226.003 450.851 225.505 451.3 224.612C451.774 223.717 451.955 222.371 451.843 220.574C451.527 215.472 450.159 212.996 447.74 213.146C446.35 213.232 445.159 213.607 444.166 214.27Z" fill="white"/>
<path d="M495.104 212.538L495.026 220.25C495.111 222.577 495.527 224.771 496.275 226.833C495.614 227.145 494.852 227.317 493.988 227.349C491.95 227.423 490.889 226.321 490.805 224.043C490.768 223.012 490.836 221.28 491.012 218.848C491.186 216.392 491.262 214.852 491.239 214.229C491.195 213.029 490.682 212.448 489.698 212.484C488.619 212.523 487.364 213.674 485.934 215.936C484.528 218.196 483.847 219.95 483.893 221.198C484.082 223.088 484.487 224.958 485.107 226.809C484.206 227.13 483.444 227.302 482.82 227.325C480.781 227.399 479.72 226.297 479.637 224.019C479.602 223.06 479.675 221.448 479.856 219.184C480.038 216.92 480.118 215.5 480.097 214.924C480.053 213.725 479.492 213.145 478.412 213.185C477.669 213.212 476.838 213.794 475.919 214.933C475 216.071 474.229 217.324 473.606 218.692C473.007 220.035 472.698 221.103 472.679 221.896C472.874 223.954 473.182 225.804 473.602 227.446C472.845 227.762 472.047 227.935 471.208 227.966C470.392 227.995 469.714 227.828 469.172 227.464C468.653 227.074 468.381 226.532 468.356 225.836C468.33 225.117 468.391 223.842 468.54 222.011C468.689 220.156 468.73 218.33 468.664 216.531C468.597 214.708 468.245 212.632 467.608 210.301C468.365 209.985 469.175 209.812 470.038 209.78C470.902 209.749 471.607 209.975 472.153 210.459C472.723 210.943 473.023 211.604 473.054 212.444C473.069 212.876 473.024 213.934 472.918 215.619C473.747 214.004 474.824 212.595 476.149 211.394C477.474 210.169 478.819 209.531 480.186 209.481C482.609 209.393 483.867 210.644 483.962 213.234C483.986 213.881 483.976 214.602 483.933 215.396C484.759 213.685 485.844 212.168 487.189 210.846C488.557 209.523 489.937 208.837 491.328 208.786C493.751 208.697 495.009 209.948 495.104 212.538Z" fill="white"/>
<path d="M513.422 218.975C513.442 220.703 513.734 222.068 514.298 223.069C514.861 224.047 515.791 224.528 517.086 224.513C518.382 224.498 519.385 224.055 520.095 223.182C520.829 222.286 521.189 221.214 521.174 219.966C521.99 219.956 522.7 220.152 523.305 220.553C523.91 220.954 524.216 221.515 524.225 222.235C524.242 223.722 523.464 224.98 521.892 226.006C520.32 227.008 518.657 227.519 516.905 227.54C514.17 227.571 512.181 226.862 510.94 225.412C509.699 223.939 509.062 221.75 509.028 218.846C508.995 215.942 509.783 213.497 511.392 211.51C513.024 209.499 515.209 208.478 517.945 208.446C519.817 208.425 521.321 208.839 522.459 209.69C523.621 210.517 524.212 211.83 524.233 213.63C524.254 215.406 523.453 216.759 521.832 217.69C520.234 218.596 518.272 219.063 515.944 219.09C515.128 219.1 514.287 219.061 513.422 218.975ZM513.425 216.131C514.147 216.267 514.904 216.33 515.696 216.321C517.423 216.301 518.872 215.96 520.04 215.299C520.177 214.721 520.244 214.264 520.24 213.928C520.231 213.088 519.923 212.456 519.318 212.031C518.713 211.606 517.883 211.399 516.827 211.411C515.795 211.423 514.863 211.77 514.031 212.452C513.613 213.705 513.411 214.931 513.425 216.131Z" fill="white"/>
<path fill-rule="evenodd" clip-rule="evenodd" d="M347.595 241.463C352.982 241.977 358.357 242.881 363.658 243.933C364.093 244.018 372.275 245.884 367.735 245.409C342.088 242.994 316.386 241.092 290.653 239.733C222.74 236.149 154.644 236.386 86.7612 240.313C86.4191 240.415 85.9411 240.446 85.4125 240.399C63.2126 241.692 41.0437 243.383 18.902 245.464C15.4027 245.789 11.4478 244.941 7.78759 244.156C6.63057 243.907 5.50299 243.665 4.42855 243.469C3.87703 243.367 3.2682 243.274 2.63391 243.178C0.88578 242.911 -1.05581 242.615 -2.52448 242.024C-2.37291 242.09 -4.9458 241.49 -3.62826 241.369C22.0191 238.954 47.7208 237.053 73.4536 235.693C75.4404 235.59 77.4251 235.496 79.4108 235.403C80.1947 235.366 80.9787 235.329 81.7631 235.292V228.988V211.511V190.045V169.269V153.67V149.221C81.7631 149.101 81.7538 148.966 81.744 148.824C81.7118 148.358 81.6745 147.816 81.9457 147.487C82.3196 147.03 82.7695 146.614 83.2152 146.201C83.4459 145.988 83.6755 145.775 83.8929 145.559C84.8491 144.605 85.8094 143.655 86.7698 142.706C87.4099 142.073 88.05 141.44 88.6889 140.806C91.0828 138.437 93.4739 136.068 95.865 133.698C98.2563 131.329 100.648 128.959 103.042 126.59C105.747 123.905 108.455 121.223 111.162 118.541C113.188 116.533 115.215 114.526 117.239 112.518C117.675 112.087 118.111 111.654 118.547 111.222C120.251 109.531 121.96 107.836 123.672 106.149C124.231 105.599 125.502 105.806 126.171 105.942C127.127 106.129 128.079 106.484 128.79 107.165C128.866 107.244 128.946 107.321 129.025 107.397C129.084 107.454 129.142 107.51 129.198 107.567C130.638 108.963 132.077 110.361 133.516 111.759C134.955 113.156 136.394 114.554 137.834 115.951C141.024 119.05 144.214 122.147 147.405 125.245C149.058 126.85 150.712 128.455 152.366 130.061L154.418 132.06C155.491 130.998 156.561 129.936 157.632 128.873C158.703 127.811 159.774 126.748 160.846 125.686C164.649 121.93 168.443 118.168 172.236 114.408C173.002 113.648 173.768 112.888 174.535 112.129C176.588 110.101 178.646 108.062 180.699 106.027L180.718 106.008C181.185 105.541 182.316 105.751 182.856 105.856C183.699 106.028 184.776 106.359 185.409 106.978C185.455 107.023 185.5 107.067 185.546 107.111C185.638 107.199 185.729 107.287 185.818 107.376C187.054 108.576 188.291 109.776 189.529 110.976C191.174 112.572 192.82 114.167 194.461 115.764C197.228 118.446 199.992 121.131 202.756 123.815C204.841 125.841 206.927 127.866 209.012 129.89L211.799 132.59C212.872 131.53 213.943 130.467 215.013 129.405C216.084 128.342 217.155 127.28 218.227 126.22C221.206 123.263 224.19 120.307 227.174 117.351C228.672 115.868 230.17 114.384 231.667 112.9C233.68 110.902 235.694 108.907 237.711 106.912C238.375 106.254 239.561 106.043 240.443 105.969C241.185 105.903 242.305 105.864 242.903 106.445C242.976 106.517 243.048 106.587 243.12 106.656C243.191 106.724 243.261 106.792 243.331 106.862C244.812 108.296 246.292 109.733 247.773 111.17C249.256 112.61 250.739 114.05 252.223 115.487C253.856 117.071 255.489 118.656 257.121 120.24C260.446 123.467 263.771 126.693 267.097 129.917C271.57 134.253 276.036 138.589 280.498 142.925C281.773 144.16 283.036 145.387 284.307 146.622C284.385 146.699 284.473 146.776 284.563 146.855C284.903 147.152 285.277 147.48 285.317 147.908C285.366 148.473 285.35 149.059 285.333 149.639C285.325 149.927 285.317 150.213 285.317 150.495V155.914V172.627V193.676V214.402V230.204V236.492C285.317 236.546 285.286 236.593 285.278 236.651C306.071 237.917 326.853 239.515 347.595 241.463ZM221.138 128.778C219.135 130.762 217.132 132.745 215.13 134.728L215.128 134.731C214.938 134.921 214.76 135.099 214.562 135.301C217.182 137.849 219.794 140.385 222.417 142.925C223.021 143.51 223.623 144.095 224.225 144.681C224.976 145.412 225.728 146.143 226.482 146.872C226.646 147.03 226.811 147.191 226.977 147.352C227.139 147.509 227.301 147.667 227.462 147.822C227.484 147.843 227.506 147.864 227.527 147.884C227.875 148.212 228.212 148.53 228.212 149.069C228.225 150.615 228.221 152.166 228.216 153.715C228.214 154.489 228.212 155.263 228.212 156.035V172.058V192.613V213.027V228.665V234.025C245.375 234.551 262.519 235.311 279.662 236.301V227.925V210.526V189.438V168.965V153.869V149.724C279.662 149.619 279.658 149.513 279.654 149.406C279.647 149.19 279.639 148.972 279.662 148.761V148.753C279.74 148.831 279.884 148.878 279.748 148.8C279.736 148.792 279.725 148.783 279.714 148.773C279.697 148.76 279.68 148.745 279.662 148.734C279.662 148.687 279.647 148.59 279.662 148.582C279.608 148.629 279.615 148.676 279.647 148.726C279.472 148.598 279.307 148.415 279.155 148.248C279.091 148.177 279.029 148.109 278.97 148.048C278.708 147.795 278.448 147.542 278.187 147.289C277.93 147.039 277.672 146.788 277.412 146.537C275.733 144.904 274.058 143.276 272.379 141.651C269.978 139.319 267.574 136.986 265.169 134.653C262.772 132.326 260.374 130 257.979 127.673C253.345 123.167 248.703 118.664 244.058 114.158L243.91 114.014C243.027 113.161 242.143 112.302 241.257 111.443C240.822 111.019 240.385 110.596 239.949 110.173C239.672 110.444 239.393 110.714 239.114 110.984C238.612 111.471 238.109 111.958 237.614 112.452C235.871 114.178 234.13 115.904 232.39 117.629C230.65 119.355 228.91 121.081 227.167 122.807C225.158 124.797 223.148 126.788 221.138 128.778ZM201.321 224.547V233.02C201.321 233.172 201.282 233.297 201.224 233.41C208.511 233.523 215.794 233.687 223.082 233.885C222.899 233.667 222.798 233.429 222.798 233.172V233.028C222.79 230.722 222.793 228.416 222.795 226.109C222.797 224.955 222.798 223.8 222.798 222.646V201.141V176.375V155.883V147.811C221.772 146.883 220.787 145.897 219.805 144.915C219.258 144.368 218.712 143.822 218.161 143.288C217.178 142.337 216.198 141.383 215.217 140.43C214.237 139.476 213.257 138.523 212.273 137.572C210.922 138.907 209.574 140.243 208.227 141.579C207.214 142.583 206.202 143.586 205.188 144.589C203.894 145.855 202.611 147.129 201.329 148.403C201.38 149.077 201.36 149.773 201.341 150.463C201.331 150.822 201.321 151.179 201.321 151.531V158.516V175.53H195.678V167.064V152.992V149.505C195.678 149.442 195.676 149.379 195.673 149.314C195.669 149.183 195.665 149.049 195.678 148.913C195.707 148.534 195.93 148.315 196.169 148.081C196.185 148.065 196.202 148.049 196.218 148.033C197.636 146.622 199.057 145.216 200.478 143.81C201.694 142.607 202.91 141.404 204.123 140.198C205.919 138.418 207.703 136.649 209.498 134.873L209.398 134.775C208.793 134.187 208.182 133.594 207.578 133.01L195.382 121.171L185.297 111.388C184.842 110.94 184.395 110.504 183.936 110.068C182.135 111.864 180.328 113.654 178.52 115.444C177.917 116.042 177.314 116.639 176.711 117.236L162.273 131.546L162.239 131.58C160.874 132.936 159.498 134.303 158.122 135.66C160.179 137.665 162.241 139.664 164.299 141.661C164.789 142.136 165.278 142.611 165.767 143.085C166.447 143.747 167.126 144.406 167.806 145.064C168.485 145.723 169.164 146.381 169.844 147.043C169.951 147.149 170.078 147.26 170.21 147.376C170.696 147.801 171.263 148.298 171.278 148.898C171.327 150.456 171.311 152.014 171.294 153.573C171.286 154.353 171.278 155.133 171.278 155.914V171.988V175.53H165.747V156.027V147.896C165.406 147.624 165.089 147.291 164.778 146.965C164.604 146.782 164.432 146.602 164.259 146.435C163.675 145.866 163.091 145.3 162.507 144.734C161.928 144.173 161.349 143.613 160.773 143.05C159.914 142.215 159.053 141.379 158.193 140.545C157.348 139.725 156.503 138.905 155.662 138.087C154.56 139.176 153.46 140.266 152.36 141.357C151.26 142.448 150.16 143.539 149.059 144.628C148.307 145.377 147.553 146.123 146.8 146.869C146.233 147.43 145.665 147.991 145.098 148.555C144.967 148.681 144.838 148.812 144.709 148.942C144.548 149.104 144.388 149.266 144.224 149.42V149.439C144.277 149.576 144.257 149.794 144.239 149.986C144.231 150.072 144.224 150.153 144.224 150.218V151.796V156.931V173.247V193.992V214.355V229.931V233.351C151.398 233.246 158.577 233.192 165.747 233.172C165.711 230.866 165.723 228.554 165.735 226.243C165.741 225.088 165.747 223.933 165.747 222.778V201.461H171.278V212.902V228.513V233.172C179.409 233.172 187.547 233.219 195.678 233.324V224.527V207.471V201.461H201.321V204.211V224.547ZM87.2819 217.694V233.542V235.093C104.445 234.314 121.62 233.772 138.79 233.476V225.159V207.947V187.03V166.978V152.365V148.535C138.79 148.446 138.788 148.364 138.786 148.286C138.775 147.875 138.768 147.604 139.105 147.25C140.741 145.542 142.438 143.891 144.133 142.24C144.968 141.428 145.803 140.616 146.63 139.797C148.365 138.08 150.108 136.352 151.844 134.631L151.966 134.51C151.657 134.205 151.344 133.903 151.031 133.6C150.77 133.348 150.508 133.094 150.248 132.839L138.025 120.972C134.671 117.719 131.309 114.458 127.955 111.198C127.77 111.016 127.584 110.836 127.399 110.656C127.213 110.476 127.028 110.296 126.843 110.115C125.362 111.587 123.877 113.056 122.392 114.524C121.402 115.503 120.412 116.482 119.424 117.462C116.586 120.278 113.746 123.09 110.906 125.903C108.768 128.02 106.63 130.138 104.492 132.258C102.047 134.674 99.606 137.093 97.1659 139.51C95.2068 141.451 93.2483 143.391 91.289 145.329C90.6962 145.919 90.1025 146.507 89.5087 147.094C88.9151 147.681 88.3215 148.268 87.7289 148.859C87.6874 148.895 87.631 148.963 87.5673 149.04C87.4819 149.143 87.3832 149.261 87.2897 149.342C87.2897 149.379 87.2872 149.42 87.2851 149.456C87.2834 149.484 87.2819 149.508 87.2819 149.525V158.232V175.479V196.824V217.694Z" fill="#FF7F50"/>
<path d="M363.658 243.933L362.977 247.366L362.982 247.367L363.658 243.933ZM347.595 241.463L347.928 237.978L347.922 237.978L347.595 241.463ZM367.735 245.409L368.1 241.928L368.081 241.926L368.063 241.924L367.735 245.409ZM290.653 239.733L290.838 236.238L290.838 236.238L290.653 239.733ZM86.7612 240.313L86.559 236.819L86.1552 236.843L85.7673 236.957L86.7612 240.313ZM85.4125 240.399L85.7209 236.913L85.4652 236.89L85.209 236.905L85.4125 240.399ZM18.902 245.464L19.2263 248.949L19.2295 248.948L18.902 245.464ZM7.78759 244.156L7.05344 247.578L7.05344 247.578L7.78759 244.156ZM4.42855 243.469L3.79413 246.911L3.79888 246.912L4.42855 243.469ZM2.63391 243.178L3.16137 239.718L3.16134 239.718L2.63391 243.178ZM-2.52448 242.024L-1.21649 238.777L-3.926 245.231L-2.52448 242.024ZM-3.62826 241.369L-3.30877 244.855L-3.30009 244.854L-3.62826 241.369ZM73.4536 235.693L73.2718 232.198L73.2689 232.198L73.4536 235.693ZM79.4108 235.403L79.5752 238.899L79.5752 238.899L79.4108 235.403ZM81.7631 235.292L81.9302 238.788L85.2631 238.628V235.292H81.7631ZM81.744 148.824L85.2357 148.584L85.2357 148.584L81.744 148.824ZM81.9457 147.487L84.6451 149.715L84.6498 149.709L84.6544 149.704L81.9457 147.487ZM83.2152 146.201L85.5926 148.77L85.5926 148.77L83.2152 146.201ZM83.8929 145.559L86.3631 148.038L86.3646 148.037L83.8929 145.559ZM86.7698 142.706L84.309 140.217L84.309 140.217L86.7698 142.706ZM88.6889 140.806L86.2273 138.318L86.2232 138.322L88.6889 140.806ZM95.865 133.698L98.3286 136.184L98.3286 136.184L95.865 133.698ZM103.042 126.59L105.504 129.078L105.507 129.074L103.042 126.59ZM111.162 118.541L108.699 116.054L108.699 116.054L111.162 118.541ZM117.239 112.518L114.775 110.033L114.775 110.033L117.239 112.518ZM118.547 111.222L121.011 113.707L121.011 113.707L118.547 111.222ZM123.672 106.149L121.22 103.651L121.214 103.656L123.672 106.149ZM126.171 105.942L125.471 109.372L125.485 109.374L125.499 109.377L126.171 105.942ZM128.79 107.165L131.304 104.73L131.259 104.683L131.212 104.639L128.79 107.165ZM129.025 107.397L126.593 109.914L126.593 109.914L129.025 107.397ZM129.198 107.567L126.72 110.038L126.741 110.059L126.762 110.079L129.198 107.567ZM133.516 111.759L135.955 109.248L135.955 109.248L133.516 111.759ZM137.834 115.951L140.273 113.441L140.271 113.438L137.834 115.951ZM147.405 125.245L149.843 122.733L149.843 122.733L147.405 125.245ZM152.366 130.061L154.808 127.554L154.804 127.55L152.366 130.061ZM154.418 132.06L151.976 134.567L154.438 136.965L156.88 134.547L154.418 132.06ZM157.632 128.873L155.167 126.389L155.167 126.389L157.632 128.873ZM160.846 125.686L158.387 123.196L158.385 123.199L160.846 125.686ZM172.236 114.408L174.7 116.894L174.7 116.894L172.236 114.408ZM174.535 112.129L172.076 109.638L172.071 109.643L174.535 112.129ZM180.699 106.027L178.237 103.54L178.236 103.541L180.699 106.027ZM180.718 106.008L183.181 108.496L183.189 108.488L183.196 108.48L180.718 106.008ZM182.856 105.856L183.553 102.427L183.539 102.424L183.525 102.421L182.856 105.856ZM185.409 106.978L182.963 109.481L182.968 109.486L185.409 106.978ZM185.546 107.111L183.116 109.63L183.116 109.63L185.546 107.111ZM185.818 107.376L183.34 109.848L183.359 109.867L183.379 109.886L185.818 107.376ZM189.529 110.976L187.092 113.489L187.092 113.489L189.529 110.976ZM194.461 115.764L192.021 118.273L192.025 118.276L194.461 115.764ZM202.756 123.815L200.317 126.326L200.317 126.326L202.756 123.815ZM209.012 129.89L206.575 132.402L206.577 132.404L209.012 129.89ZM211.799 132.59L209.364 135.103L211.823 137.486L214.259 135.08L211.799 132.59ZM215.013 129.405L212.548 126.92L212.548 126.92L215.013 129.405ZM218.227 126.22L220.687 128.71L220.693 128.704L218.227 126.22ZM227.174 117.351L224.711 114.865L224.711 114.865L227.174 117.351ZM231.667 112.9L234.131 115.386L234.133 115.384L231.667 112.9ZM237.711 106.912L240.172 109.401L240.174 109.399L237.711 106.912ZM240.443 105.969L240.736 109.457L240.745 109.456L240.754 109.456L240.443 105.969ZM242.903 106.445L245.381 103.973L245.361 103.952L245.34 103.932L242.903 106.445ZM243.12 106.656L240.694 109.179L240.694 109.179L243.12 106.656ZM243.331 106.862L240.853 109.334L240.874 109.355L240.896 109.376L243.331 106.862ZM247.773 111.17L250.211 108.659L250.211 108.659L247.773 111.17ZM252.223 115.487L254.66 112.975L254.658 112.972L252.223 115.487ZM257.121 120.24L259.559 117.728L259.559 117.728L257.121 120.24ZM267.097 129.917L264.661 132.43L264.661 132.43L267.097 129.917ZM280.498 142.925L278.058 145.435L278.062 145.439L280.498 142.925ZM284.307 146.622L281.867 149.133L281.868 149.133L284.307 146.622ZM284.563 146.855L282.257 149.487L282.257 149.487L284.563 146.855ZM285.317 147.908L288.804 147.604L288.803 147.593L288.802 147.583L285.317 147.908ZM285.333 149.639L288.832 149.738L288.832 149.738L285.333 149.639ZM285.278 236.651L281.809 236.189L281.312 239.916L285.065 240.145L285.278 236.651ZM215.13 134.728L212.667 132.242L212.658 132.251L212.649 132.26L215.13 134.728ZM221.138 128.778L223.601 131.265L223.601 131.265L221.138 128.778ZM215.128 134.731L217.606 137.203L217.609 137.199L215.128 134.731ZM214.562 135.301L212.061 132.853L209.606 135.363L212.122 137.81L214.562 135.301ZM222.417 142.925L219.983 145.44L219.983 145.44L222.417 142.925ZM224.225 144.681L221.785 147.19L221.785 147.19L224.225 144.681ZM226.482 146.872L228.914 144.355L228.913 144.353L226.482 146.872ZM226.977 147.352L229.418 144.843L229.418 144.843L226.977 147.352ZM227.462 147.822L225.029 150.339L225.041 150.35L225.052 150.361L227.462 147.822ZM227.527 147.884L229.929 145.339L229.929 145.338L227.527 147.884ZM228.212 149.069H224.712V149.084L224.712 149.098L228.212 149.069ZM228.216 153.715L231.716 153.725L231.716 153.725L228.216 153.715ZM228.212 234.025H224.712V237.42L228.105 237.524L228.212 234.025ZM279.662 236.301L279.46 239.795L283.162 240.008V236.301H279.662ZM279.654 149.406L276.157 149.532L276.157 149.532L279.654 149.406ZM279.662 148.761L283.141 149.147L283.162 148.955V148.761H279.662ZM279.662 148.753L282.14 146.282L276.162 140.289V148.753H279.662ZM279.748 148.8L277.709 151.645L277.854 151.749L278.008 151.837L279.748 148.8ZM279.714 148.773L281.957 146.087L281.956 146.086L279.714 148.773ZM279.662 148.734H276.162V150.672L277.804 151.7L279.662 148.734ZM279.662 148.582L281.943 151.237L278.093 145.453L279.662 148.582ZM279.647 148.726L277.572 151.545L282.629 146.895L279.647 148.726ZM279.155 148.248L276.56 150.596L276.56 150.596L279.155 148.248ZM278.97 148.048L281.472 145.601L281.437 145.565L281.401 145.53L278.97 148.048ZM278.187 147.289L275.748 149.798L275.748 149.798L278.187 147.289ZM277.412 146.537L274.972 149.046L274.981 149.055L277.412 146.537ZM272.379 141.651L269.94 144.162L269.945 144.167L272.379 141.651ZM265.169 134.653L267.607 132.141L267.607 132.141L265.169 134.653ZM257.979 127.673L255.539 130.182L255.54 130.183L257.979 127.673ZM244.058 114.158L241.621 116.67L241.621 116.67L244.058 114.158ZM243.91 114.014L246.347 111.502L246.343 111.498L243.91 114.014ZM241.257 111.443L243.696 108.932L243.696 108.932L241.257 111.443ZM239.949 110.173L242.386 107.661L239.94 105.288L237.503 107.67L239.949 110.173ZM239.114 110.984L241.55 113.498L241.55 113.498L239.114 110.984ZM237.614 112.452L240.076 114.939L240.085 114.93L237.614 112.452ZM232.39 117.629L234.855 120.115L234.855 120.115L232.39 117.629ZM227.167 122.807L224.704 120.32L224.703 120.321L227.167 122.807ZM201.224 233.41L198.114 231.805L195.524 236.822L201.17 236.909L201.224 233.41ZM223.082 233.885L222.986 237.384L230.753 237.596L225.765 231.638L223.082 233.885ZM222.798 233.028L226.298 233.028L226.298 233.016L222.798 233.028ZM222.795 226.109L226.295 226.113L226.295 226.113L222.795 226.109ZM222.798 147.811H226.298V146.257L225.146 145.215L222.798 147.811ZM219.805 144.915L217.33 147.39L217.33 147.39L219.805 144.915ZM218.161 143.288L220.598 140.775L220.594 140.771L218.161 143.288ZM215.217 140.43L217.657 137.921L217.657 137.921L215.217 140.43ZM212.273 137.572L214.706 135.056L212.247 132.679L209.814 135.082L212.273 137.572ZM208.227 141.579L205.763 139.093L205.762 139.093L208.227 141.579ZM205.188 144.589L207.636 147.091L207.643 147.084L207.65 147.077L205.188 144.589ZM201.329 148.403L198.862 145.92L197.717 147.058L197.839 148.668L201.329 148.403ZM201.341 150.463L204.84 150.561L204.84 150.561L201.341 150.463ZM201.321 175.53V179.03H204.821V175.53H201.321ZM195.678 175.53H192.178V179.03H195.678V175.53ZM195.673 149.314L199.172 149.198L199.172 149.198L195.673 149.314ZM195.678 148.913L199.162 149.247L199.165 149.214L199.167 149.181L195.678 148.913ZM196.169 148.081L198.619 150.58L198.619 150.58L196.169 148.081ZM196.218 148.033L198.677 150.523L198.687 150.514L196.218 148.033ZM200.478 143.81L198.016 141.322L198.016 141.322L200.478 143.81ZM204.123 140.198L201.659 137.713L201.656 137.715L204.123 140.198ZM209.498 134.873L211.96 137.361L214.497 134.85L211.938 132.363L209.498 134.873ZM209.398 134.775L206.959 137.285L206.959 137.285L209.398 134.775ZM207.578 133.01L205.14 135.522L205.147 135.528L207.578 133.01ZM195.382 121.171L197.82 118.66L197.819 118.659L195.382 121.171ZM185.297 111.388L182.84 113.882L182.85 113.891L182.86 113.901L185.297 111.388ZM183.936 110.068L186.349 107.532L183.879 105.182L181.465 107.59L183.936 110.068ZM178.52 115.444L176.058 112.957L176.058 112.957L178.52 115.444ZM176.711 117.236L179.175 119.722L179.175 119.722L176.711 117.236ZM162.273 131.546L159.809 129.06L159.806 129.063L162.273 131.546ZM162.239 131.58L164.706 134.062L164.706 134.062L162.239 131.58ZM158.122 135.66L155.665 133.167L153.122 135.673L155.679 138.166L158.122 135.66ZM164.299 141.661L161.862 144.174L161.862 144.174L164.299 141.661ZM165.767 143.085L168.209 140.577L168.204 140.573L165.767 143.085ZM167.806 145.064L165.37 147.577L165.37 147.577L167.806 145.064ZM169.844 147.043L172.302 144.552L172.294 144.544L172.286 144.536L169.844 147.043ZM170.21 147.376L172.516 144.743L172.516 144.743L170.21 147.376ZM171.278 148.898L167.779 148.987L167.779 148.997L167.78 149.008L171.278 148.898ZM171.294 153.573L174.794 153.61L174.794 153.61L171.294 153.573ZM171.278 175.53V179.03H174.778V175.53H171.278ZM165.747 175.53H162.247V179.03H165.747V175.53ZM165.747 147.896H169.247V146.211L167.93 145.16L165.747 147.896ZM164.778 146.965L162.244 149.38L162.244 149.38L164.778 146.965ZM164.259 146.435L161.815 148.941L161.824 148.949L161.832 148.958L164.259 146.435ZM162.507 144.734L164.943 142.221L164.943 142.221L162.507 144.734ZM160.773 143.05L163.217 140.545L163.213 140.541L160.773 143.05ZM158.193 140.545L160.63 138.033L160.63 138.033L158.193 140.545ZM155.662 138.087L158.102 135.578L155.642 133.185L153.202 135.597L155.662 138.087ZM152.36 141.357L149.896 138.872L149.896 138.872L152.36 141.357ZM149.059 144.628L146.598 142.138L146.593 142.143L146.588 142.149L149.059 144.628ZM146.8 146.869L149.262 149.356L149.262 149.356L146.8 146.869ZM145.098 148.555L147.526 151.076L147.546 151.057L147.565 151.038L145.098 148.555ZM144.709 148.942L147.196 151.404L147.196 151.404L144.709 148.942ZM144.224 149.42L141.831 146.865L140.724 147.902V149.42H144.224ZM144.224 149.439H140.724V150.099L140.964 150.714L144.224 149.439ZM144.239 149.986L140.754 149.662L140.754 149.662L144.239 149.986ZM144.224 233.351H140.724V236.903L144.275 236.851L144.224 233.351ZM165.747 233.172L165.757 236.672L169.303 236.663L169.247 233.117L165.747 233.172ZM165.735 226.243L169.235 226.261L169.235 226.261L165.735 226.243ZM165.747 201.461V197.961H162.247V201.461H165.747ZM171.278 201.461H174.778V197.961H171.278V201.461ZM171.278 233.172H167.778V236.672H171.278V233.172ZM195.678 233.324L195.632 236.824L199.178 236.87V233.324H195.678ZM195.678 201.461V197.961H192.178V201.461H195.678ZM201.321 201.461H204.821V197.961H201.321V201.461ZM87.2819 235.093H83.7819V238.755L87.4407 238.589L87.2819 235.093ZM138.79 233.476L138.851 236.976L142.29 236.916V233.476H138.79ZM138.786 148.286L135.287 148.377L135.287 148.378L138.786 148.286ZM139.105 147.25L136.578 144.828L136.569 144.837L139.105 147.25ZM144.133 142.24L141.692 139.732L141.692 139.732L144.133 142.24ZM146.63 139.797L144.168 137.309L144.167 137.31L146.63 139.797ZM151.844 134.631L154.308 137.117L154.308 137.117L151.844 134.631ZM151.966 134.51L154.43 136.996L156.94 134.507L154.426 132.021L151.966 134.51ZM151.031 133.6L148.599 136.117L148.599 136.117L151.031 133.6ZM150.248 132.839L152.7 130.342L152.693 130.335L152.686 130.328L150.248 132.839ZM138.025 120.972L140.463 118.461L140.461 118.46L138.025 120.972ZM127.955 111.198L125.503 113.696L125.509 113.701L125.515 113.707L127.955 111.198ZM127.399 110.656L124.961 113.167L124.961 113.167L127.399 110.656ZM126.843 110.115L129.295 107.616L126.827 105.195L124.375 107.633L126.843 110.115ZM122.392 114.524L119.931 112.035L119.931 112.035L122.392 114.524ZM119.424 117.462L116.96 114.977L116.959 114.978L119.424 117.462ZM110.906 125.903L108.443 123.416L108.443 123.416L110.906 125.903ZM104.492 132.258L106.952 134.748L106.956 134.744L104.492 132.258ZM97.1659 139.51L99.6292 141.996L99.6292 141.996L97.1659 139.51ZM91.289 145.329L88.8277 142.841L88.8193 142.849L91.289 145.329ZM89.5087 147.094L87.0472 144.606L87.0472 144.606L89.5087 147.094ZM87.7289 148.859L90.0444 151.483L90.1237 151.413L90.1986 151.339L87.7289 148.859ZM87.5673 149.04L84.8752 146.803L84.8752 146.803L87.5673 149.04ZM87.2897 149.342L85.0089 146.687L83.7897 147.734V149.342H87.2897ZM87.2851 149.456L83.7914 149.245L83.7914 149.245L87.2851 149.456ZM364.339 240.499C358.976 239.435 353.475 238.508 347.928 237.978L347.262 244.947C352.488 245.446 357.737 246.326 362.977 247.366L364.339 240.499ZM367.371 248.89C367.94 248.95 368.513 248.997 368.976 248.984C369.105 248.981 369.297 248.971 369.516 248.939C369.661 248.918 370.162 248.844 370.715 248.552C371.264 248.263 372.858 247.133 372.572 244.97C372.379 243.51 371.37 242.746 371.274 242.669C370.808 242.292 370.318 242.098 370.229 242.061C370.029 241.978 369.825 241.907 369.652 241.85C369.301 241.734 368.889 241.615 368.483 241.504C366.882 241.068 364.645 240.56 364.334 240.499L362.982 247.367C362.976 247.365 363.097 247.391 363.369 247.453C363.615 247.509 363.942 247.585 364.31 247.672C365.053 247.848 365.931 248.064 366.641 248.258C367.002 248.356 367.278 248.438 367.457 248.497C367.55 248.528 367.572 248.538 367.548 248.528C367.536 248.522 367.478 248.498 367.394 248.455C367.336 248.425 367.123 248.314 366.874 248.113C366.813 248.064 365.822 247.325 365.632 245.886C365.35 243.745 366.93 242.634 367.449 242.361C367.971 242.086 368.424 242.024 368.502 242.013C368.655 241.991 368.762 241.988 368.786 241.987C368.83 241.986 368.665 241.987 368.1 241.928L367.371 248.89ZM290.469 243.228C316.152 244.585 341.806 246.483 367.407 248.894L368.063 241.924C342.369 239.505 316.62 237.6 290.838 236.238L290.469 243.228ZM86.9633 243.807C154.719 239.888 222.686 239.651 290.469 243.228L290.838 236.238C222.793 232.647 154.568 232.885 86.559 236.819L86.9633 243.807ZM85.1041 243.885C85.885 243.954 86.8427 243.939 87.755 243.669L85.7673 236.957C85.8071 236.946 85.8398 236.938 85.8642 236.932C85.8887 236.927 85.9073 236.923 85.9192 236.921C85.9422 236.918 85.9474 236.918 85.9333 236.919C85.9198 236.92 85.894 236.921 85.8563 236.92C85.8189 236.919 85.7734 236.917 85.7209 236.913L85.1041 243.885ZM19.2295 248.948C41.3303 246.872 63.4579 245.184 85.6161 243.893L85.209 236.905C62.9672 238.201 40.7571 239.895 18.5746 241.979L19.2295 248.948ZM7.05344 247.578C10.5758 248.333 15.0892 249.334 19.2263 248.949L18.5778 241.979C15.7162 242.245 12.3198 241.548 8.52173 240.733L7.05344 247.578ZM3.79888 246.912C4.8114 247.097 5.88529 247.327 7.05344 247.578L8.52173 240.733C7.37584 240.488 6.19458 240.234 5.05821 240.026L3.79888 246.912ZM2.10644 246.638C2.75399 246.737 3.30619 246.821 3.79413 246.911L5.06297 240.027C4.44786 239.914 3.78242 239.812 3.16137 239.718L2.10644 246.638ZM-3.83248 245.27C-1.90751 246.046 0.481489 246.39 2.10647 246.638L3.16134 239.718C1.29007 239.433 -0.204107 239.185 -1.21649 238.777L-3.83248 245.27ZM-3.94775 237.884C-4.11127 237.899 -4.31533 237.923 -4.53612 237.969C-4.72551 238.008 -5.09674 238.095 -5.50991 238.3C-5.83326 238.461 -6.84862 239.018 -7.30572 240.323C-7.84087 241.85 -7.19488 243.086 -6.80121 243.617C-6.43108 244.116 -6.0167 244.401 -5.85147 244.51C-5.64175 244.648 -5.45078 244.746 -5.32288 244.807C-5.06577 244.929 -4.81772 245.02 -4.64381 245.079C-4.28217 245.202 -3.90837 245.303 -3.65096 245.366C-3.52332 245.397 -3.37898 245.43 -3.24694 245.456C-3.23663 245.458 -3.03198 245.5 -2.79508 245.518C-2.73946 245.522 -2.53462 245.538 -2.2742 245.52C-2.16037 245.512 -1.85262 245.487 -1.47807 245.37C-1.28594 245.31 -0.960298 245.191 -0.602217 244.957C-0.242285 244.722 0.287055 244.278 0.642124 243.532C1.0253 242.727 1.05242 241.891 0.881057 241.193C0.726833 240.565 0.435154 240.125 0.252768 239.889C-0.0925092 239.442 -0.462991 239.191 -0.568092 239.121C-0.838507 238.939 -1.0752 238.837 -1.12297 238.816L-3.926 245.231C-3.96979 245.212 -4.03549 245.182 -4.11383 245.142C-4.18392 245.106 -4.31533 245.036 -4.4706 244.932C-4.55041 244.878 -4.663 244.798 -4.78961 244.69C-4.90911 244.588 -5.09706 244.414 -5.28923 244.165C-5.37065 244.055 -5.53401 243.803 -5.61367 243.661C-5.70033 243.485 -5.85438 243.085 -5.91711 242.862C-5.9712 242.598 -6.018 242.032 -6.00556 241.733C-5.96462 241.419 -5.79995 240.812 -5.67823 240.523C-5.32326 239.778 -4.79409 239.335 -4.43441 239.099C-4.07657 238.865 -3.75126 238.746 -3.55952 238.687C-3.35444 238.623 -3.1808 238.59 -3.06512 238.571C-2.94442 238.552 -2.84194 238.543 -2.76669 238.537C-2.62029 238.527 -2.50248 238.528 -2.43452 238.53C-2.36067 238.532 -2.2997 238.536 -2.25767 238.539C-2.17559 238.545 -2.11132 238.553 -2.07752 238.558C-2.0398 238.563 -2.00969 238.567 -1.99049 238.57C-1.95296 238.576 -1.92677 238.581 -1.91792 238.583C-1.89243 238.588 -1.91394 238.584 -1.9856 238.567C-2.12681 238.532 -2.28546 238.487 -2.38341 238.454C-2.43929 238.435 -2.40281 238.444 -2.31322 238.487C-2.26907 238.508 -2.15085 238.566 -1.99963 238.665C-1.92129 238.717 -1.80754 238.797 -1.67826 238.909C-1.55414 239.016 -1.36763 239.193 -1.17943 239.446C-0.993919 239.696 -0.744033 240.105 -0.605525 240.667C-0.534673 240.954 -0.494546 241.276 -0.507442 241.623C-0.520411 241.971 -0.58592 242.313 -0.699601 242.638C-0.927904 243.289 -1.30384 243.744 -1.61464 244.031C-1.91761 244.31 -2.20866 244.476 -2.39588 244.569C-2.59059 244.666 -2.75631 244.724 -2.86428 244.757C-2.97635 244.792 -3.06729 244.813 -3.12653 244.825C-3.18751 244.838 -3.23379 244.845 -3.26071 244.849C-3.2884 244.853 -3.30522 244.854 -3.30877 244.854L-3.94775 237.884ZM73.2689 232.198C47.4871 233.56 21.7375 235.465 -3.95643 237.885L-3.30009 244.854C22.3006 242.443 47.9545 240.545 73.6383 239.188L73.2689 232.198ZM79.2464 231.907C77.2622 232 75.2687 232.094 73.2718 232.198L73.6354 239.188C75.612 239.085 77.5881 238.992 79.5752 238.899L79.2464 231.907ZM81.5959 231.796C80.8132 231.833 80.0305 231.87 79.2464 231.907L79.5752 238.899C80.3588 238.862 81.1442 238.825 81.9302 238.788L81.5959 231.796ZM78.2631 228.988V235.292H85.2631V228.988H78.2631ZM78.2631 211.511V228.988H85.2631V211.511H78.2631ZM78.2631 190.045V211.511H85.2631V190.045H78.2631ZM78.2631 169.269V190.045H85.2631V169.269H78.2631ZM78.2631 153.67V169.269H85.2631V153.67H78.2631ZM78.2631 149.221V153.67H85.2631V149.221H78.2631ZM78.2523 149.065C78.2575 149.141 78.2603 149.183 78.2622 149.217C78.2639 149.251 78.2631 149.247 78.2631 149.221H85.2631C85.2631 148.957 85.2433 148.693 85.2357 148.584L78.2523 149.065ZM79.2463 145.259C78.4612 146.211 78.2924 147.251 78.2444 147.799C78.1958 148.355 78.24 148.887 78.2523 149.065L85.2357 148.584C85.227 148.457 85.2235 148.401 85.2221 148.356C85.2208 148.314 85.2237 148.341 85.2178 148.409C85.2109 148.488 85.159 149.092 84.6451 149.715L79.2463 145.259ZM80.8377 143.633C80.4267 144.013 79.7913 144.593 79.237 145.271L84.6544 149.704C84.848 149.467 85.1122 149.215 85.5926 148.77L80.8377 143.633ZM81.4226 143.079C81.2587 143.243 81.0771 143.411 80.8377 143.633L85.5926 148.77C85.8146 148.565 86.0923 148.308 86.3631 148.038L81.4226 143.079ZM84.309 140.217C83.3495 141.166 82.3837 142.121 81.4211 143.081L86.3646 148.037C87.3145 147.089 88.2694 146.145 89.2307 145.195L84.309 140.217ZM86.2232 138.322C85.5872 138.953 84.9495 139.584 84.309 140.217L89.2307 145.195C89.8704 144.562 90.5129 143.927 91.1546 143.29L86.2232 138.322ZM93.4013 131.212C91.0101 133.582 88.62 135.951 86.2273 138.318L91.1505 143.294C93.5456 140.924 95.9377 138.554 98.3286 136.184L93.4013 131.212ZM100.58 124.102C98.1848 126.472 95.7925 128.843 93.4013 131.212L98.3286 136.184C100.72 133.815 103.11 131.446 105.504 129.078L100.58 124.102ZM108.699 116.054C105.992 118.736 103.283 121.42 100.576 124.106L105.507 129.074C108.211 126.391 110.918 123.71 113.625 121.027L108.699 116.054ZM114.775 110.033C112.751 112.04 110.725 114.047 108.699 116.054L113.625 121.027C115.652 119.02 117.678 117.012 119.704 115.003L114.775 110.033ZM116.082 108.737C115.646 109.17 115.21 109.601 114.775 110.033L119.704 115.004C120.139 114.572 120.575 114.139 121.011 113.707L116.082 108.737ZM121.214 103.656C119.498 105.348 117.786 107.047 116.082 108.737L121.011 113.707C122.716 112.016 124.422 110.324 126.129 108.641L121.214 103.656ZM126.87 102.513C126.486 102.434 125.718 102.288 124.88 102.288C124.227 102.288 122.538 102.357 121.22 103.651L126.123 108.646C125.709 109.053 125.29 109.198 125.109 109.246C124.928 109.295 124.835 109.288 124.88 109.288C124.914 109.288 124.989 109.292 125.109 109.308C125.224 109.324 125.345 109.346 125.471 109.372L126.87 102.513ZM131.212 104.639C129.82 103.304 128.126 102.758 126.843 102.507L125.499 109.377C125.791 109.434 126.006 109.503 126.158 109.57C126.305 109.635 126.36 109.684 126.368 109.692L131.212 104.639ZM131.457 104.88C131.37 104.796 131.332 104.759 131.304 104.73L126.277 109.601C126.4 109.728 126.521 109.845 126.593 109.914L131.457 104.88ZM131.676 105.095C131.593 105.012 131.511 104.932 131.456 104.88L126.593 109.914C126.656 109.975 126.691 110.009 126.72 110.038L131.676 105.095ZM135.955 109.248C134.516 107.85 133.076 106.452 131.635 105.054L126.762 110.079C128.2 111.475 129.639 112.872 131.078 114.269L135.955 109.248ZM140.271 113.438C138.832 112.042 137.394 110.646 135.955 109.248L131.078 114.269C132.517 115.667 133.956 117.065 135.397 118.463L140.271 113.438ZM149.843 122.733C146.652 119.636 143.463 116.54 140.273 113.441L135.395 118.461C138.586 121.561 141.776 124.658 144.967 127.756L149.843 122.733ZM154.804 127.55C153.15 125.944 151.496 124.338 149.843 122.733L144.967 127.756C146.62 129.361 148.274 130.966 149.928 132.572L154.804 127.55ZM156.86 129.552L154.808 127.554L149.924 132.569L151.976 134.567L156.86 129.552ZM155.167 126.389C154.096 127.452 153.027 128.513 151.956 129.572L156.88 134.547C157.955 133.484 159.027 132.42 160.097 131.358L155.167 126.389ZM158.385 123.199C157.31 124.262 156.237 125.327 155.167 126.389L160.097 131.358C161.169 130.295 162.238 129.234 163.308 128.174L158.385 123.199ZM169.771 111.923C165.978 115.683 162.186 119.443 158.387 123.196L163.306 128.176C167.111 124.417 170.907 120.654 174.7 116.894L169.771 111.923ZM172.071 109.643C171.304 110.403 170.538 111.163 169.771 111.923L174.7 116.894C175.466 116.134 176.233 115.374 176.999 114.614L172.071 109.643ZM178.236 103.541C176.182 105.577 174.127 107.613 172.076 109.638L176.994 114.619C179.05 112.589 181.11 110.548 183.163 108.513L178.236 103.541ZM178.256 103.521L178.237 103.54L183.162 108.515L183.181 108.496L178.256 103.521ZM183.525 102.421C183.265 102.37 182.573 102.232 181.822 102.218C181.305 102.209 179.57 102.204 178.241 103.536L183.196 108.48C182.718 108.96 182.22 109.119 182.011 109.171C181.796 109.224 181.671 109.217 181.697 109.217C181.708 109.217 181.761 109.22 181.862 109.234C181.96 109.249 182.06 109.267 182.187 109.292L183.525 102.421ZM187.856 104.476C186.438 103.089 184.458 102.61 183.553 102.427L182.159 109.286C182.45 109.346 182.713 109.42 182.911 109.499C183.005 109.537 183.056 109.564 183.073 109.574C183.091 109.585 183.043 109.559 182.963 109.481L187.856 104.476ZM187.976 104.592C187.929 104.546 187.89 104.508 187.851 104.471L182.968 109.486C183.02 109.537 183.072 109.587 183.116 109.63L187.976 104.592ZM188.295 104.904C188.179 104.788 188.063 104.676 187.976 104.592L183.116 109.63C183.212 109.722 183.279 109.787 183.34 109.848L188.295 104.904ZM191.965 108.463C190.727 107.263 189.491 106.065 188.256 104.865L183.379 109.886C184.616 111.088 185.855 112.289 187.092 113.489L191.965 108.463ZM196.901 113.255C195.258 111.656 193.61 110.059 191.965 108.463L187.092 113.489C188.738 115.085 190.382 116.678 192.021 118.273L196.901 113.255ZM205.195 121.304C202.431 118.62 199.666 115.934 196.897 113.251L192.025 118.276C194.79 120.957 197.553 123.641 200.317 126.326L205.195 121.304ZM211.45 127.378C209.365 125.355 207.28 123.33 205.195 121.304L200.317 126.326C202.403 128.351 204.489 130.377 206.575 132.402L211.45 127.378ZM214.235 130.076L211.448 127.376L206.577 132.404L209.364 135.103L214.235 130.076ZM212.548 126.92C211.477 127.984 210.409 129.043 209.339 130.1L214.259 135.08C215.335 134.017 216.408 132.951 217.479 131.889L212.548 126.92ZM215.768 123.73C214.692 124.793 213.618 125.858 212.548 126.92L217.479 131.889C218.55 130.826 219.618 129.766 220.687 128.71L215.768 123.73ZM224.711 114.865C221.727 117.82 218.742 120.777 215.762 123.736L220.693 128.704C223.67 125.748 226.653 122.794 229.637 119.838L224.711 114.865ZM229.203 110.414C227.706 111.898 226.209 113.381 224.711 114.865L229.637 119.838C231.135 118.355 232.633 116.871 234.131 115.386L229.203 110.414ZM235.25 104.423C233.231 106.42 231.216 108.416 229.201 110.416L234.133 115.384C236.145 113.387 238.156 111.394 240.172 109.401L235.25 104.423ZM240.15 102.482C239.587 102.529 238.811 102.627 238.007 102.864C237.238 103.09 236.157 103.524 235.247 104.426L240.174 109.399C240.039 109.532 239.932 109.591 239.908 109.603C239.883 109.616 239.903 109.603 239.984 109.579C240.062 109.556 240.169 109.531 240.306 109.509C240.441 109.487 240.586 109.47 240.736 109.457L240.15 102.482ZM245.34 103.932C244.245 102.87 242.921 102.584 242.15 102.49C241.327 102.39 240.563 102.445 240.132 102.483L240.754 109.456C240.895 109.443 241.014 109.435 241.119 109.434C241.225 109.432 241.284 109.436 241.303 109.439C241.327 109.442 241.253 109.436 241.118 109.384C240.977 109.33 240.726 109.209 240.466 108.957L245.34 103.932ZM245.546 104.133C245.47 104.06 245.424 104.015 245.381 103.973L240.425 108.916C240.528 109.019 240.626 109.114 240.694 109.179L245.546 104.133ZM245.808 104.389C245.709 104.29 245.612 104.197 245.546 104.133L240.694 109.179C240.769 109.251 240.813 109.294 240.853 109.334L245.808 104.389ZM250.211 108.659C248.731 107.222 247.249 105.783 245.765 104.347L240.896 109.376C242.375 110.808 243.854 112.244 245.335 113.681L250.211 108.659ZM254.658 112.972C253.176 111.537 251.694 110.099 250.211 108.659L245.335 113.681C246.818 115.121 248.302 116.563 249.788 118.001L254.658 112.972ZM259.559 117.728C257.926 116.144 256.293 114.559 254.66 112.975L249.786 117.999C251.419 119.583 253.051 121.167 254.684 122.752L259.559 117.728ZM269.533 127.404C266.208 124.18 262.884 120.955 259.559 117.728L254.684 122.751C258.009 125.978 261.334 129.205 264.661 132.43L269.533 127.404ZM282.937 140.415C278.475 136.079 274.008 131.741 269.533 127.404L264.661 132.43C269.133 136.765 273.597 141.1 278.058 145.435L282.937 140.415ZM286.746 144.112C285.475 142.877 284.21 141.649 282.933 140.411L278.062 145.439C279.335 146.672 280.596 147.897 281.867 149.133L286.746 144.112ZM286.87 144.223C286.822 144.181 286.794 144.156 286.769 144.133C286.746 144.112 286.74 144.107 286.745 144.111L281.868 149.133C282.023 149.283 282.181 149.421 282.257 149.487L286.87 144.223ZM288.802 147.583C288.693 146.415 288.142 145.582 287.763 145.119C287.405 144.68 286.995 144.332 286.87 144.223L282.257 149.487C282.35 149.569 282.384 149.6 282.408 149.623C282.429 149.642 282.396 149.613 282.342 149.547C282.245 149.429 281.901 148.974 281.832 148.233L288.802 147.583ZM288.832 149.738C288.847 149.197 288.874 148.405 288.804 147.604L281.83 148.213C281.859 148.541 281.852 148.921 281.835 149.54L288.832 149.738ZM288.817 150.495C288.817 150.271 288.823 150.035 288.832 149.738L281.835 149.54C281.827 149.819 281.817 150.155 281.817 150.495H288.817ZM288.817 155.914V150.495H281.817V155.914H288.817ZM288.817 172.627V155.914H281.817V172.627H288.817ZM288.817 193.676V172.627H281.817V193.676H288.817ZM288.817 214.402V193.676H281.817V214.402H288.817ZM288.817 230.204V214.402H281.817V230.204H288.817ZM288.817 236.492V230.204H281.817V236.492H288.817ZM288.748 237.113C288.718 237.339 288.67 237.513 288.642 237.609C288.628 237.656 288.616 237.692 288.611 237.705C288.609 237.711 288.608 237.715 288.609 237.712C288.609 237.712 288.612 237.703 288.615 237.693C288.625 237.664 288.676 237.517 288.72 237.33C288.767 237.129 288.817 236.84 288.817 236.492H281.817C281.817 236.17 281.863 235.908 281.904 235.733C281.925 235.646 281.945 235.577 281.959 235.531C281.972 235.486 281.984 235.453 281.986 235.447C281.987 235.444 281.988 235.44 281.986 235.447C281.984 235.451 281.981 235.461 281.976 235.474C281.968 235.5 281.951 235.549 281.933 235.61C281.897 235.732 281.843 235.935 281.809 236.189L288.748 237.113ZM347.922 237.978C327.14 236.026 306.321 234.426 285.491 233.158L285.065 240.145C305.821 241.409 326.565 243.003 347.268 244.947L347.922 237.978ZM217.593 137.215C219.595 135.232 221.598 133.249 223.601 131.265L218.675 126.291C216.672 128.274 214.669 130.258 212.667 132.242L217.593 137.215ZM217.609 137.199L217.611 137.197L212.649 132.26L212.646 132.262L217.609 137.199ZM217.064 137.749C217.248 137.561 217.415 137.394 217.606 137.203L212.65 132.259C212.461 132.448 212.272 132.638 212.061 132.853L217.064 137.749ZM224.852 140.411C222.231 137.873 219.621 135.339 217.003 132.792L212.122 137.81C214.743 140.359 217.357 142.897 219.983 145.44L224.852 140.411ZM226.666 142.173C226.064 141.587 225.459 140.998 224.851 140.41L219.983 145.44C220.583 146.021 221.182 146.603 221.785 147.19L226.666 142.173ZM228.913 144.353C228.164 143.631 227.418 142.904 226.666 142.173L221.785 147.19C222.535 147.92 223.291 148.656 224.052 149.39L228.913 144.353ZM229.418 144.843C229.253 144.682 229.083 144.517 228.914 144.355L224.051 149.389C224.209 149.542 224.37 149.699 224.537 149.861L229.418 144.843ZM229.894 145.306C229.738 145.155 229.58 145.001 229.418 144.843L224.537 149.861C224.698 150.017 224.864 150.179 225.029 150.339L229.894 145.306ZM229.929 145.338C229.907 145.318 229.889 145.3 229.872 145.284L225.052 150.361C225.079 150.386 225.104 150.41 225.126 150.43L229.929 145.338ZM231.712 149.069C231.712 146.819 230.126 145.524 229.929 145.339L225.126 150.43C225.172 150.474 225.199 150.499 225.222 150.522C225.244 150.543 225.25 150.55 225.249 150.548C225.248 150.547 225.185 150.482 225.106 150.365C225.021 150.242 224.916 150.056 224.835 149.813C224.752 149.564 224.712 149.31 224.712 149.069H231.712ZM231.716 153.725C231.721 152.179 231.725 150.608 231.712 149.04L224.712 149.098C224.725 150.621 224.721 152.153 224.716 153.705L231.716 153.725ZM231.712 156.035C231.712 155.268 231.714 154.5 231.716 153.725L224.716 153.705C224.714 154.478 224.712 155.257 224.712 156.035H231.712ZM231.712 172.058V156.035H224.712V172.058H231.712ZM231.712 192.613V172.058H224.712V192.613H231.712ZM231.712 213.027V192.613H224.712V213.027H231.712ZM231.712 228.665V213.027H224.712V228.665H231.712ZM231.712 234.025V228.665H224.712V234.025H231.712ZM279.864 232.806C262.689 231.815 245.514 231.054 228.319 230.527L228.105 237.524C245.236 238.049 262.348 238.807 279.46 239.795L279.864 232.806ZM276.162 227.925V236.301H283.162V227.925H276.162ZM276.162 210.526V227.925H283.162V210.526H276.162ZM276.162 189.438V210.526H283.162V189.438H276.162ZM276.162 168.965V189.438H283.162V168.965H276.162ZM276.162 153.869V168.965H283.162V153.869H276.162ZM276.162 149.724V153.869H283.162V149.724H276.162ZM276.157 149.532C276.161 149.651 276.162 149.693 276.162 149.724H283.162C283.162 149.545 283.156 149.375 283.152 149.279L276.157 149.532ZM276.183 148.376C276.127 148.886 276.151 149.364 276.157 149.532L283.152 149.279C283.15 149.223 283.149 149.184 283.148 149.149C283.147 149.115 283.147 149.094 283.147 149.081C283.147 149.053 283.148 149.083 283.141 149.147L276.183 148.376ZM276.162 148.753V148.761H283.162V148.753H276.162ZM278.008 151.837C277.984 151.824 277.917 151.785 277.829 151.726C277.786 151.696 277.709 151.643 277.616 151.569C277.558 151.523 277.337 151.347 277.106 151.068C277.002 150.943 276.742 150.614 276.547 150.122C276.364 149.657 276.019 148.441 276.746 147.136C277.458 145.86 278.636 145.509 279.083 145.415C279.578 145.311 279.977 145.341 280.137 145.356C280.49 145.391 280.756 145.472 280.835 145.497C280.953 145.534 281.047 145.57 281.106 145.594C281.408 145.717 281.778 145.919 282.14 146.282L277.184 151.225C277.624 151.666 278.105 151.93 278.464 152.076C278.469 152.079 278.899 152.269 279.464 152.324C279.626 152.34 280.027 152.37 280.523 152.265C280.97 152.171 282.149 151.82 282.861 150.543C283.589 149.238 283.244 148.021 283.06 147.555C282.865 147.062 282.604 146.732 282.499 146.605C282.266 146.324 282.041 146.145 281.977 146.094C281.879 146.016 281.795 145.957 281.743 145.922C281.638 145.851 281.545 145.796 281.487 145.763L278.008 151.837ZM277.47 151.459C277.473 151.462 277.502 151.486 277.536 151.514C277.572 151.543 277.633 151.59 277.709 151.645L281.787 145.955C281.851 146.002 281.9 146.041 281.925 146.06C281.948 146.079 281.966 146.094 281.957 146.087L277.47 151.459ZM277.804 151.7C277.68 151.622 277.587 151.553 277.537 151.514C277.492 151.478 277.455 151.447 277.471 151.46L281.956 146.086C281.955 146.085 281.902 146.041 281.84 145.992C281.773 145.94 281.662 145.857 281.52 145.768L277.804 151.7ZM278.093 145.453C277.375 145.813 276.946 146.332 276.714 146.695C276.484 147.053 276.367 147.379 276.308 147.573C276.194 147.949 276.171 148.259 276.163 148.37C276.147 148.622 276.161 148.829 276.163 148.861C276.166 148.909 276.173 148.994 276.17 148.959C276.17 148.958 276.168 148.937 276.167 148.907C276.165 148.881 276.162 148.817 276.162 148.734H283.162C283.162 148.572 283.15 148.433 283.15 148.424C283.145 148.358 283.148 148.409 283.149 148.426C283.15 148.427 283.163 148.605 283.148 148.835C283.141 148.935 283.119 149.236 283.007 149.605C282.949 149.796 282.834 150.118 282.605 150.474C282.374 150.835 281.947 151.352 281.231 151.711L278.093 145.453ZM282.629 146.895C282.748 147.089 283.16 147.788 283.119 148.795C283.071 149.982 282.446 150.804 281.943 151.237L277.381 145.927C276.823 146.407 276.175 147.275 276.125 148.511C276.082 149.565 276.514 150.313 276.664 150.558L282.629 146.895ZM276.56 150.596C276.654 150.7 277.059 151.168 277.572 151.545L281.721 145.907C281.752 145.93 281.778 145.951 281.798 145.967C281.819 145.984 281.834 145.997 281.846 146.008C281.858 146.018 281.866 146.026 281.87 146.03C281.875 146.034 281.877 146.036 281.875 146.035C281.874 146.034 281.87 146.03 281.864 146.023C281.858 146.017 281.849 146.008 281.839 145.996C281.828 145.985 281.816 145.971 281.801 145.955C281.785 145.938 281.77 145.92 281.75 145.899L276.56 150.596ZM276.469 150.496C276.465 150.492 276.469 150.497 276.487 150.516C276.505 150.536 276.526 150.558 276.56 150.596L281.75 145.899C281.697 145.84 281.588 145.719 281.472 145.601L276.469 150.496ZM275.748 149.798C276.007 150.051 276.272 150.309 276.54 150.567L281.401 145.53C281.144 145.282 280.889 145.034 280.627 144.78L275.748 149.798ZM274.981 149.055C275.236 149.301 275.49 149.548 275.748 149.798L280.627 144.78C280.371 144.53 280.109 144.275 279.843 144.018L274.981 149.055ZM269.945 144.167C271.62 145.788 273.293 147.413 274.972 149.046L279.852 144.027C278.173 142.395 276.495 140.764 274.812 139.136L269.945 144.167ZM262.732 137.165C265.136 139.498 267.54 141.83 269.94 144.162L274.818 139.141C272.416 136.807 270.011 134.474 267.607 132.141L262.732 137.165ZM255.54 130.183C257.936 132.511 260.334 134.838 262.732 137.165L267.607 132.141C265.209 129.814 262.812 127.489 260.418 125.163L255.54 130.183ZM241.621 116.67C246.267 121.177 250.907 125.678 255.539 130.182L260.419 125.164C255.783 120.656 251.14 116.152 246.495 111.646L241.621 116.67ZM241.473 116.526L241.621 116.67L246.495 111.646L246.347 111.502L241.473 116.526ZM238.819 113.954C239.704 114.813 240.591 115.674 241.477 116.53L246.343 111.498C245.463 110.648 244.581 109.791 243.696 108.932L238.819 113.954ZM237.513 112.685C237.948 113.108 238.383 113.53 238.819 113.954L243.696 108.932C243.26 108.508 242.823 108.084 242.386 107.661L237.513 112.685ZM241.55 113.498C241.827 113.229 242.112 112.954 242.396 112.676L237.503 107.67C237.232 107.934 236.959 108.199 236.679 108.47L241.55 113.498ZM240.085 114.93C240.559 114.458 241.044 113.988 241.55 113.498L236.679 108.47C236.18 108.954 235.658 109.459 235.142 109.974L240.085 114.93ZM234.855 120.115C236.595 118.389 238.334 116.664 240.076 114.939L235.151 109.965C233.407 111.692 231.666 113.419 229.926 115.144L234.855 120.115ZM229.629 125.294C231.373 123.567 233.115 121.84 234.855 120.115L229.926 115.144C228.185 116.87 226.446 118.595 224.704 120.32L229.629 125.294ZM223.601 131.265C225.61 129.275 227.621 127.284 229.63 125.294L224.703 120.321C222.695 122.311 220.685 124.301 218.675 126.291L223.601 131.265ZM204.821 233.02V224.547H197.821V233.02H204.821ZM204.334 235.015C204.602 234.496 204.821 233.825 204.821 233.02H197.821C197.821 232.791 197.851 232.559 197.911 232.335C197.969 232.114 198.046 231.935 198.114 231.805L204.334 235.015ZM223.177 230.387C215.879 230.188 208.581 230.024 201.278 229.91L201.17 236.909C208.441 237.022 215.71 237.186 222.986 237.384L223.177 230.387ZM219.298 233.172C219.298 234.421 219.809 235.428 220.398 236.132L225.765 231.638C225.989 231.906 226.298 232.438 226.298 233.172H219.298ZM219.298 233.028V233.172H226.298V233.028H219.298ZM219.295 226.105C219.293 228.411 219.29 230.725 219.298 233.04L226.298 233.016C226.29 230.719 226.293 228.421 226.295 226.113L219.295 226.105ZM219.298 222.646C219.298 223.798 219.297 224.951 219.295 226.105L226.295 226.113C226.297 224.959 226.298 223.803 226.298 222.646H219.298ZM219.298 201.141V222.646H226.298V201.141H219.298ZM219.298 176.375V201.141H226.298V176.375H219.298ZM219.298 155.883V176.375H226.298V155.883H219.298ZM219.298 147.811V155.883H226.298V147.811H219.298ZM217.33 147.39C218.301 148.361 219.348 149.409 220.45 150.406L225.146 145.215C224.197 144.356 223.273 143.433 222.281 142.441L217.33 147.39ZM215.725 145.801C216.253 146.312 216.78 146.839 217.33 147.39L222.281 142.441C221.737 141.897 221.171 141.331 220.598 140.775L215.725 145.801ZM212.777 142.939C213.757 143.892 214.741 144.849 215.729 145.804L220.594 140.771C219.615 139.825 218.639 138.875 217.657 137.921L212.777 142.939ZM209.841 140.089C210.819 141.035 211.796 141.985 212.777 142.939L217.657 137.921C216.678 136.968 215.694 136.011 214.706 135.056L209.841 140.089ZM210.691 144.065C212.038 142.728 213.384 141.395 214.733 140.063L209.814 135.082C208.46 136.42 207.11 137.758 205.763 139.093L210.691 144.065ZM207.65 147.077C208.665 146.073 209.678 145.068 210.691 144.065L205.762 139.093C204.75 140.097 203.739 141.099 202.727 142.101L207.65 147.077ZM203.795 150.886C205.079 149.611 206.353 148.346 207.636 147.091L202.741 142.087C201.435 143.364 200.143 144.647 198.862 145.92L203.795 150.886ZM204.84 150.561C204.858 149.905 204.886 149.025 204.819 148.138L197.839 148.668C197.874 149.129 197.863 149.64 197.842 150.365L204.84 150.561ZM204.821 151.531C204.821 151.237 204.829 150.928 204.84 150.561L197.842 150.365C197.833 150.715 197.821 151.122 197.821 151.531H204.821ZM204.821 158.516V151.531H197.821V158.516H204.821ZM204.821 175.53V158.516H197.821V175.53H204.821ZM195.678 179.03H201.321V172.03H195.678V179.03ZM192.178 167.064V175.53H199.178V167.064H192.178ZM192.178 152.992V167.064H199.178V152.992H192.178ZM192.178 149.505V152.992H199.178V149.505H192.178ZM192.175 149.43C192.177 149.465 192.177 149.482 192.177 149.497C192.178 149.511 192.178 149.512 192.178 149.505H199.178C199.178 149.375 199.173 149.253 199.172 149.198L192.175 149.43ZM192.194 148.579C192.156 148.975 192.172 149.332 192.175 149.43L199.172 149.198C199.171 149.181 199.171 149.168 199.17 149.156C199.17 149.144 199.17 149.136 199.169 149.128C199.169 149.114 199.169 149.111 199.169 149.114C199.169 149.118 199.169 149.133 199.168 149.154C199.167 149.177 199.165 149.208 199.162 149.247L192.194 148.579ZM193.719 145.582C193.568 145.73 192.33 146.795 192.188 148.645L199.167 149.181C199.15 149.409 199.1 149.644 199.015 149.873C198.931 150.1 198.828 150.279 198.739 150.41C198.655 150.535 198.583 150.613 198.564 150.634C198.551 150.648 198.548 150.65 198.619 150.58L193.719 145.582ZM193.759 145.542C193.748 145.553 193.736 145.565 193.718 145.582L198.619 150.58C198.635 150.565 198.656 150.545 198.677 150.523L193.759 145.542ZM198.016 141.322C196.596 142.727 195.171 144.137 193.749 145.552L198.687 150.514C200.1 149.107 201.518 147.705 202.939 146.298L198.016 141.322ZM201.656 137.715C200.446 138.918 199.233 140.118 198.016 141.322L202.939 146.298C204.155 145.095 205.374 143.89 206.59 142.681L201.656 137.715ZM207.037 132.385C205.24 134.163 203.454 135.933 201.659 137.713L206.588 142.684C208.383 140.903 210.166 139.136 211.96 137.361L207.037 132.385ZM206.959 137.285L207.059 137.383L211.938 132.363L211.837 132.265L206.959 137.285ZM205.147 135.528C205.746 136.107 206.353 136.697 206.959 137.285L211.837 132.265C211.233 131.678 210.618 131.08 210.01 130.493L205.147 135.528ZM192.944 123.682L205.14 135.522L210.016 130.499L197.82 118.66L192.944 123.682ZM182.86 113.901L192.946 123.683L197.819 118.659L187.734 108.876L182.86 113.901ZM181.524 112.604C181.962 113.02 182.392 113.44 182.84 113.882L187.753 108.895C187.292 108.441 186.829 107.988 186.349 107.532L181.524 112.604ZM180.983 117.931C182.79 116.142 184.602 114.348 186.408 112.546L181.465 107.59C179.669 109.381 177.866 111.167 176.058 112.957L180.983 117.931ZM179.175 119.722C179.777 119.125 180.38 118.529 180.983 117.931L176.058 112.957C175.455 113.555 174.851 114.152 174.248 114.75L179.175 119.722ZM164.737 134.032L179.175 119.722L174.248 114.75L159.809 129.06L164.737 134.032ZM164.706 134.062L164.74 134.028L159.806 129.063L159.771 129.097L164.706 134.062ZM160.579 138.152C161.961 136.79 163.342 135.417 164.706 134.062L159.771 129.097C158.406 130.454 157.035 131.817 155.665 133.167L160.579 138.152ZM166.736 139.149C164.677 137.152 162.618 135.155 160.565 133.153L155.679 138.166C157.739 140.174 159.804 142.177 161.862 144.174L166.736 139.149ZM168.204 140.573C167.715 140.098 167.226 139.624 166.736 139.149L161.862 144.174C162.352 144.648 162.841 145.123 163.33 145.597L168.204 140.573ZM170.242 142.551C169.562 141.892 168.886 141.237 168.209 140.577L163.325 145.593C164.009 146.258 164.691 146.919 165.37 147.577L170.242 142.551ZM172.286 144.536C171.602 143.87 170.92 143.209 170.242 142.551L165.37 147.577C166.049 148.236 166.725 148.892 167.402 149.551L172.286 144.536ZM172.516 144.743C172.447 144.682 172.4 144.641 172.359 144.604C172.34 144.587 172.326 144.575 172.316 144.565C172.306 144.556 172.302 144.552 172.302 144.552L167.385 149.534C167.582 149.728 167.792 149.911 167.904 150.009L172.516 144.743ZM174.777 148.808C174.741 147.406 174.07 146.398 173.64 145.868C173.214 145.342 172.713 144.915 172.516 144.743L167.904 150.009C168.034 150.123 168.107 150.187 168.168 150.245C168.226 150.301 168.227 150.307 168.201 150.274C168.18 150.249 167.8 149.789 167.779 148.987L174.777 148.808ZM174.794 153.61C174.81 152.063 174.828 150.431 174.776 148.787L167.78 149.008C167.826 150.48 167.811 151.965 167.795 153.536L174.794 153.61ZM174.778 155.914C174.778 155.155 174.786 154.393 174.794 153.61L167.795 153.536C167.786 154.313 167.778 155.112 167.778 155.914H174.778ZM174.778 171.988V155.914H167.778V171.988H174.778ZM174.778 175.53V171.988H167.778V175.53H174.778ZM165.747 179.03H171.278V172.03H165.747V179.03ZM162.247 156.027V175.53H169.247V156.027H162.247ZM162.247 147.896V156.027H169.247V147.896H162.247ZM162.244 149.38C162.522 149.671 163.004 150.185 163.565 150.633L167.93 145.16C167.808 145.063 167.656 144.912 167.312 144.551L162.244 149.38ZM161.832 148.958C161.941 149.062 162.06 149.186 162.244 149.38L167.312 144.551C167.148 144.379 166.923 144.142 166.685 143.913L161.832 148.958ZM160.072 147.248C160.656 147.814 161.236 148.376 161.815 148.941L166.703 143.93C166.115 143.356 165.526 142.786 164.943 142.221L160.072 147.248ZM158.329 145.555C158.91 146.123 159.493 146.688 160.072 147.248L164.943 142.221C164.363 141.659 163.788 141.102 163.217 140.545L158.329 145.555ZM155.755 143.056C156.616 143.891 157.475 144.725 158.332 145.559L163.213 140.541C162.353 139.704 161.49 138.867 160.63 138.033L155.755 143.056ZM153.222 140.596C154.065 141.416 154.911 142.237 155.755 143.056L160.63 138.033C159.785 137.213 158.942 136.395 158.102 135.578L153.222 140.596ZM154.825 143.842C155.925 142.751 157.023 141.662 158.122 140.576L153.202 135.597C152.097 136.689 150.995 137.782 149.896 138.872L154.825 143.842ZM151.519 147.117C152.623 146.026 153.725 144.933 154.825 143.842L149.896 138.872C148.795 139.963 147.698 141.052 146.598 142.138L151.519 147.117ZM149.262 149.356C150.015 148.611 150.772 147.861 151.529 147.107L146.588 142.149C145.841 142.893 145.092 143.634 144.338 144.381L149.262 149.356ZM147.565 151.038C148.13 150.477 148.694 149.918 149.262 149.356L144.338 144.381C143.771 144.942 143.201 145.506 142.631 146.072L147.565 151.038ZM147.196 151.404C147.33 151.269 147.43 151.169 147.526 151.076L142.671 146.033C142.504 146.194 142.346 146.354 142.222 146.479L147.196 151.404ZM146.616 151.974C146.837 151.768 147.043 151.558 147.196 151.404L142.222 146.479C142.053 146.65 141.939 146.764 141.831 146.865L146.616 151.974ZM147.724 149.439V149.42H140.724V149.439H147.724ZM147.724 150.31C147.73 150.245 147.756 149.988 147.758 149.714C147.76 149.496 147.758 148.865 147.483 148.164L140.964 150.714C140.841 150.399 140.797 150.137 140.778 149.991C140.759 149.837 140.758 149.722 140.758 149.67C140.759 149.588 140.766 149.536 140.754 149.662L147.724 150.31ZM147.724 150.218C147.724 150.267 147.722 150.305 147.721 150.327C147.72 150.349 147.719 150.363 147.719 150.367C147.719 150.37 147.719 150.368 147.72 150.357C147.721 150.346 147.722 150.333 147.724 150.309L140.754 149.662C140.751 149.693 140.724 149.955 140.724 150.218H147.724ZM147.724 151.796V150.218H140.724V151.796H147.724ZM147.724 156.931V151.796H140.724V156.931H147.724ZM147.724 173.247V156.931H140.724V173.247H147.724ZM147.724 193.992V173.247H140.724V193.992H147.724ZM147.724 214.355V193.992H140.724V214.355H147.724ZM147.724 229.931V214.355H140.724V229.931H147.724ZM147.724 233.351V229.931H140.724V233.351H147.724ZM165.738 229.672C158.556 229.692 151.363 229.746 144.172 229.852L144.275 236.851C151.433 236.746 158.598 236.692 165.757 236.672L165.738 229.672ZM162.235 226.225C162.223 228.53 162.211 230.878 162.248 233.227L169.247 233.117C169.211 230.854 169.223 228.579 169.235 226.261L162.235 226.225ZM162.247 222.778C162.247 223.922 162.241 225.068 162.235 226.225L169.235 226.261C169.241 225.108 169.247 223.943 169.247 222.778H162.247ZM162.247 201.461V222.778H169.247V201.461H162.247ZM171.278 197.961H165.747V204.961H171.278V197.961ZM174.778 212.902V201.461H167.778V212.902H174.778ZM174.778 228.513V212.902H167.778V228.513H174.778ZM174.778 233.172V228.513H167.778V233.172H174.778ZM195.723 229.824C187.576 229.719 179.422 229.672 171.278 229.672V236.672C179.395 236.672 187.519 236.719 195.632 236.824L195.723 229.824ZM192.178 224.527V233.324H199.178V224.527H192.178ZM192.178 207.471V224.527H199.178V207.471H192.178ZM192.178 201.461V207.471H199.178V201.461H192.178ZM201.321 197.961H195.678V204.961H201.321V197.961ZM204.821 204.211V201.461H197.821V204.211H204.821ZM204.821 224.547V204.211H197.821V224.547H204.821ZM90.7819 233.542V217.694H83.7819V233.542H90.7819ZM90.7819 235.093V233.542H83.7819V235.093H90.7819ZM138.73 229.977C121.526 230.273 104.318 230.816 87.1232 231.597L87.4407 238.589C104.571 237.812 121.713 237.271 138.851 236.976L138.73 229.977ZM135.29 225.159V233.476H142.29V225.159H135.29ZM135.29 207.947V225.159H142.29V207.947H135.29ZM135.29 187.03V207.947H142.29V187.03H135.29ZM135.29 166.978V187.03H142.29V166.978H135.29ZM135.29 152.365V166.978H142.29V152.365H135.29ZM135.29 148.535V152.365H142.29V148.535H135.29ZM135.287 148.378C135.289 148.459 135.29 148.498 135.29 148.535H142.29C142.29 148.394 142.287 148.268 142.285 148.195L135.287 148.378ZM136.569 144.837C136.047 145.386 135.615 146.076 135.411 146.934C135.246 147.626 135.285 148.28 135.287 148.377L142.285 148.195C142.282 148.067 142.283 148.085 142.282 148.122C142.28 148.18 142.271 148.343 142.22 148.558C142.165 148.788 142.076 149.02 141.952 149.236C141.834 149.443 141.715 149.584 141.641 149.662L136.569 144.837ZM141.692 139.732C140.004 141.375 138.263 143.069 136.578 144.828L141.633 149.671C143.219 148.015 144.871 146.406 146.575 144.748L141.692 139.732ZM144.167 137.31C143.353 138.116 142.529 138.918 141.692 139.732L146.575 144.748C147.407 143.938 148.253 143.115 149.092 142.284L144.167 137.31ZM149.38 132.146C147.644 133.867 145.902 135.593 144.168 137.309L149.091 142.285C150.828 140.567 152.572 138.837 154.308 137.117L149.38 132.146ZM149.501 132.025L149.38 132.146L154.308 137.117L154.43 136.996L149.501 132.025ZM148.599 136.117C148.914 136.422 149.212 136.71 149.505 136.999L154.426 132.021C154.101 131.7 153.774 131.384 153.464 131.084L148.599 136.117ZM147.796 135.336C148.067 135.603 148.339 135.866 148.599 136.117L153.464 131.084C153.201 130.829 152.949 130.586 152.7 130.342L147.796 135.336ZM135.587 123.483L147.81 135.35L152.686 130.328L140.463 118.461L135.587 123.483ZM125.515 113.707C128.871 116.97 132.234 120.232 135.588 123.485L140.461 118.46C137.107 115.207 133.747 111.947 130.394 108.688L125.515 113.707ZM124.961 113.167C125.148 113.349 125.326 113.522 125.503 113.696L130.406 108.699C130.214 108.511 130.021 108.324 129.837 108.145L124.961 113.167ZM124.392 112.613C124.584 112.801 124.776 112.988 124.961 113.167L129.837 108.145C129.65 107.964 129.471 107.79 129.295 107.616L124.392 112.613ZM124.853 117.013C126.338 115.545 127.826 114.073 129.311 112.596L124.375 107.633C122.898 109.101 121.417 110.566 119.931 112.035L124.853 117.013ZM121.888 119.948C122.875 118.969 123.863 117.992 124.853 117.013L119.931 112.035C118.942 113.014 117.95 113.995 116.96 114.977L121.888 119.948ZM113.369 128.39C116.209 125.577 119.049 122.764 121.889 119.947L116.959 114.978C114.122 117.792 111.284 120.603 108.443 123.416L113.369 128.39ZM106.956 134.744C109.093 132.625 111.231 130.507 113.369 128.39L108.443 123.416C106.306 125.534 104.166 127.652 102.027 129.773L106.956 134.744ZM99.6292 141.996C102.07 139.579 104.509 137.162 106.952 134.748L102.031 129.769C99.585 132.187 97.1425 134.606 94.7027 137.023L99.6292 141.996ZM93.7503 147.817C95.7107 145.878 97.6702 143.937 99.6292 141.996L94.7027 137.023C92.7434 138.965 90.7858 140.904 88.8277 142.841L93.7503 147.817ZM91.9702 149.582C92.5633 148.996 93.1611 148.404 93.7587 147.809L88.8193 142.849C88.2313 143.434 87.6417 144.018 87.0472 144.606L91.9702 149.582ZM90.1986 151.339C90.7864 150.753 91.3759 150.17 91.9702 149.582L87.0472 144.606C86.4543 145.192 85.8566 145.784 85.2592 146.379L90.1986 151.339ZM90.2595 151.276C90.2767 151.256 90.2856 151.245 90.2928 151.236C90.2998 151.228 90.2977 151.231 90.2901 151.239C90.2833 151.247 90.2612 151.272 90.2283 151.307C90.1983 151.338 90.1344 151.404 90.0444 151.483L85.4134 146.234C85.2161 146.408 85.0703 146.575 85.0228 146.629C84.9599 146.701 84.8991 146.774 84.8752 146.803L90.2595 151.276ZM89.5706 151.996C89.9336 151.685 90.2307 151.311 90.2595 151.276L84.8752 146.803C84.8523 146.831 84.8402 146.845 84.8294 146.858C84.8195 146.87 84.8182 146.871 84.8227 146.866C84.827 146.861 84.8434 146.843 84.87 146.816C84.8955 146.79 84.9426 146.744 85.0089 146.687L89.5706 151.996ZM90.7787 149.667C90.7795 149.654 90.7897 149.504 90.7897 149.342H83.7897C83.7897 149.313 83.7902 149.29 83.7906 149.274C83.7911 149.258 83.7916 149.246 83.7919 149.239C83.7922 149.233 83.7924 149.229 83.7923 149.23C83.7922 149.232 83.792 149.235 83.7914 149.245L90.7787 149.667ZM90.7819 149.525C90.7819 149.569 90.781 149.603 90.7804 149.623C90.7797 149.644 90.779 149.66 90.7786 149.667C90.7781 149.678 90.7776 149.686 90.7787 149.667L83.7914 149.245C83.7909 149.254 83.7888 149.287 83.7871 149.322C83.7857 149.351 83.7819 149.429 83.7819 149.525H90.7819ZM90.7819 158.232V149.525H83.7819V158.232H90.7819ZM90.7819 175.479V158.232H83.7819V175.479H90.7819ZM90.7819 196.824V175.479H83.7819V196.824H90.7819ZM90.7819 217.694V196.824H83.7819V217.694H90.7819Z" fill="#FF7F50"/>
</g>
<defs>
<clipPath id="clip0_9_2">
<rect width="776" height="353" fill="white"/>
</clipPath>
<clipPath id="clip1_9_2">
<rect width="120" height="120" fill="white" transform="translate(595.782 110.035) rotate(5.13834)"/>
</clipPath>
</defs>
</svg>
