<svg width="375" height="151" viewBox="0 0 375 151" fill="none" xmlns="http://www.w3.org/2000/svg">
<mask id="path-1-outside-1_2_7" maskUnits="userSpaceOnUse" x="-4" y="-1" width="386" height="152" fill="black">
<rect fill="white" x="-4" y="-1" width="386" height="152"/>
<path d="M370.527 143.585C365.199 142.53 359.797 141.624 354.383 141.108C333.535 139.155 312.648 137.554 291.75 136.284C291.758 136.226 291.789 136.179 291.789 136.124C291.789 134.026 291.789 131.917 291.789 129.819C291.789 124.538 291.789 119.257 291.789 113.976C291.789 107.046 291.789 100.124 291.789 93.1944C291.789 86.1592 291.789 79.1241 291.789 72.0889C291.789 66.503 291.789 60.9171 291.789 55.3311C291.789 53.5186 291.789 51.7061 291.789 49.8975C291.789 49.046 291.863 48.1514 291.789 47.3038C291.738 46.7608 291.148 46.378 290.773 46.0147C289.496 44.7764 288.226 43.546 286.945 42.3077C282.461 37.96 277.972 33.6124 273.476 29.2647C268.492 24.4444 263.512 19.6202 258.527 14.796C255.547 11.9171 252.57 9.02643 249.59 6.14752C249.449 6.0069 249.304 5.87408 249.16 5.72955C248.558 5.14752 247.433 5.18658 246.687 5.25299C245.801 5.32721 244.609 5.53815 243.941 6.1983C241.914 8.1983 239.89 10.1983 237.867 12.2022C233.363 16.6553 228.855 21.1046 224.359 25.5577C222.203 27.6827 220.054 29.8194 217.898 31.9444C216.961 31.0381 216.027 30.1358 215.097 29.2374C210.222 24.5186 205.351 19.7921 200.472 15.0733C197.582 12.2686 194.679 9.46783 191.785 6.66315C191.652 6.53033 191.512 6.39752 191.375 6.26471C190.738 5.64362 189.656 5.31158 188.808 5.13971C188.265 5.03424 187.129 4.8233 186.66 5.29205C184.59 7.33893 182.515 9.38971 180.445 11.4288C175.863 15.96 171.281 20.4952 166.687 25.0225C164.531 27.1514 162.383 29.2842 160.226 31.4131C159.539 30.7452 158.851 30.0772 158.164 29.4092C153.293 24.6905 148.426 19.9796 143.558 15.2608C140.664 12.46 137.773 9.65533 134.879 6.85455C134.746 6.72174 134.601 6.58893 134.469 6.45221C133.754 5.76862 132.797 5.41315 131.836 5.22565C131.164 5.08893 129.887 4.8819 129.324 5.43268C127.164 7.55768 125.008 9.6944 122.859 11.8194C118.105 16.5225 113.344 21.2217 108.59 25.9288C103.777 30.6788 98.9764 35.4327 94.1639 40.1827C92.5584 41.7725 90.9451 43.3546 89.3435 44.9483C88.7029 45.585 87.9568 46.1866 87.3865 46.8819C87.031 47.3116 87.2029 48.1046 87.2029 48.6202C87.2029 50.1046 87.2029 51.5928 87.2029 53.0811C87.2029 58.296 87.2029 63.5108 87.2029 68.7217C87.2029 75.6631 87.2029 82.6124 87.2029 89.5538C87.2029 96.7335 87.2029 103.901 87.2029 111.077C87.2029 116.921 87.2029 122.757 87.2029 128.601C87.2029 130.706 87.2029 132.815 87.2029 134.921C84.4178 135.054 81.6365 135.179 78.8514 135.323C52.9881 136.687 27.156 138.593 1.3787 141.015C0.0544798 141.136 2.64042 141.737 2.48807 141.671C4.49979 142.48 7.39432 142.737 9.47636 143.12C13.9724 143.94 19.3943 145.55 24.0232 145.12C46.2771 143.034 68.5584 141.339 90.8709 140.042C91.4021 140.089 91.8826 140.058 92.2264 139.956C160.453 136.019 228.894 135.78 297.152 139.374C323.015 140.737 348.847 142.644 374.625 145.065C379.187 145.542 370.965 143.671 370.527 143.585ZM221.246 34.0889C225.277 30.1046 229.312 26.1202 233.344 22.1358C236.847 18.6749 240.34 15.2139 243.844 11.753C244.617 10.9835 245.41 10.2296 246.191 9.46783C247.519 10.753 248.847 12.0421 250.172 13.3194C254.89 17.8858 259.605 22.4483 264.312 27.0147C269.133 31.6866 273.965 36.3585 278.785 41.0303C280.472 42.6592 282.156 44.2921 283.844 45.9288C284.371 46.4366 284.887 46.9405 285.41 47.4444C285.609 47.6475 285.84 47.9405 286.09 48.1241C286.058 48.0733 286.051 48.0264 286.105 47.9796C286.09 47.9874 286.105 48.085 286.105 48.1319C286.137 48.1514 286.164 48.1788 286.191 48.1983C286.328 48.2764 286.183 48.2296 286.105 48.1514V48.1592C286.07 48.4756 286.105 48.8077 286.105 49.1241C286.105 50.5069 286.105 51.8975 286.105 53.2803C286.105 58.3233 286.105 63.3741 286.105 68.4171C286.105 75.2647 286.105 82.0967 286.105 88.9444C286.105 95.9874 286.105 103.042 286.105 110.089C286.105 115.901 286.105 121.718 286.105 127.534C286.105 130.335 286.105 133.14 286.105 135.933C268.875 134.94 251.644 134.179 234.394 133.651C234.394 131.862 234.394 130.069 234.394 128.276C234.394 123.054 234.394 117.819 234.394 112.597C234.394 105.769 234.394 98.9522 234.394 92.128C234.394 85.253 234.394 78.3897 234.394 71.5186C234.394 66.1592 234.394 60.7999 234.394 55.4522C234.394 53.128 234.414 50.7921 234.394 48.4678C234.394 47.8936 234.012 47.5694 233.64 47.2178C233.312 46.9014 232.98 46.5772 232.656 46.2647C231.289 44.9483 229.933 43.6241 228.57 42.3077C225.933 39.7608 223.308 37.2178 220.676 34.6631C220.875 34.46 221.054 34.2803 221.246 34.0889ZM207.367 132.644C207.367 129.812 207.367 126.98 207.367 124.148C207.367 117.351 207.367 110.554 207.367 103.757C207.367 95.5889 207.367 87.4092 207.367 79.2374C207.367 72.1358 207.367 65.0342 207.367 57.9405C207.367 55.6046 207.367 53.2725 207.367 50.9366C207.367 49.9053 207.453 48.8272 207.375 47.7999C208.664 46.5225 209.953 45.2452 211.254 43.9756C213.629 41.6319 215.996 39.2842 218.375 36.9405C220.351 38.8467 222.316 40.7647 224.293 42.671C225.84 44.1671 227.347 45.7569 228.953 47.2061C228.953 49.9053 228.953 52.6046 228.953 55.2999C228.953 62.1475 228.953 68.9991 228.953 75.8467C228.953 84.1202 228.953 92.4053 228.953 100.679C228.953 107.866 228.953 115.054 228.953 122.241C228.953 125.714 228.941 129.183 228.953 132.651C228.953 132.698 228.953 132.749 228.953 132.796C228.953 133.054 229.054 133.292 229.238 133.511C221.914 133.312 214.594 133.148 207.269 133.034C207.328 132.921 207.367 132.796 207.367 132.644ZM92.7498 133.167C92.7498 127.866 92.7498 122.577 92.7498 117.276C92.7498 110.296 92.7498 103.327 92.7498 96.3506C92.7498 89.2178 92.7498 82.0811 92.7498 74.9483C92.7498 69.1827 92.7498 63.4249 92.7498 57.6553C92.7498 54.7491 92.7498 51.8311 92.7498 48.9249C92.7498 48.8858 92.7576 48.8077 92.7576 48.7413C92.9217 48.6006 93.1014 48.3428 93.199 48.2569C94.3904 47.0733 95.5857 45.9014 96.7771 44.7178C101.199 40.3546 105.617 35.9796 110.047 31.6124C115.051 26.6631 120.054 21.7256 125.054 16.7764C127.539 14.3194 130.031 11.8702 132.512 9.40924C132.883 9.77252 133.258 10.1319 133.629 10.4952C137 13.7647 140.379 17.0342 143.75 20.296C147.844 24.2608 151.937 28.2256 156.035 32.1944C156.609 32.7569 157.191 33.3077 157.762 33.8702C155.976 35.6358 154.183 37.4092 152.398 39.171C149.879 41.6592 147.289 44.0889 144.836 46.6436C144.433 47.0655 144.519 47.3702 144.519 47.9327C144.519 49.21 144.519 50.4952 144.519 51.7725C144.519 56.6553 144.519 61.5342 144.519 66.4249C144.519 73.128 144.519 79.8311 144.519 86.5303C144.519 93.5186 144.519 100.507 144.519 107.503C144.519 113.253 144.519 119.003 144.519 124.761C144.519 127.542 144.519 130.315 144.519 133.101C127.262 133.398 110 133.94 92.7498 134.722C92.7498 134.187 92.7498 133.671 92.7498 133.167ZM171.613 55.4444C171.613 62.3194 171.613 69.1827 171.613 76.0538C171.613 84.3194 171.613 92.585 171.613 100.839C171.613 108.019 171.613 115.198 171.613 122.374C171.613 125.847 171.558 129.327 171.613 132.796C164.406 132.815 157.191 132.87 149.98 132.976C149.98 131.831 149.98 130.69 149.98 129.546C149.98 124.339 149.98 119.136 149.98 113.929C149.98 107.124 149.98 100.315 149.98 93.5108C149.98 86.5772 149.98 79.6475 149.98 72.71C149.98 67.2569 149.98 61.8038 149.98 56.3506C149.98 54.6319 149.98 52.9171 149.98 51.2022C149.98 50.6788 149.98 50.1514 149.98 49.6202C149.98 49.4092 150.058 49.0381 149.98 48.8389C149.98 48.8389 149.98 48.8272 149.98 48.8194C150.277 48.5421 150.562 48.2374 150.859 47.9522C152.187 46.6358 153.515 45.3311 154.84 44.0147C157.054 41.8311 159.262 39.6397 161.476 37.4561C163.183 39.1124 164.902 40.7725 166.613 42.4327C167.777 43.5655 168.949 44.6905 170.117 45.8272C170.601 46.2921 171.078 46.8663 171.613 47.2921C171.613 50.0186 171.613 52.7374 171.613 55.4444ZM177.172 132.796C177.172 131.241 177.172 129.679 177.172 128.124C177.172 122.909 177.172 117.694 177.172 112.472C177.172 105.663 177.172 98.8467 177.172 92.0421C177.172 85.1788 177.172 78.3155 177.172 71.4483C177.172 66.0733 177.172 60.6983 177.172 55.3311C177.172 52.9835 177.246 50.6397 177.172 48.296C177.152 47.5303 176.234 46.9327 175.73 46.4366C174.363 45.1085 173 43.796 171.633 42.4678C169.074 39.9913 166.508 37.5108 163.949 35.0225C165.344 33.6514 166.738 32.2686 168.121 30.8975C172.961 26.1124 177.793 21.335 182.633 16.5499C185.054 14.1553 187.48 11.7647 189.894 9.36236C190.355 9.79986 190.804 10.2374 191.262 10.6866C194.64 13.9561 198.019 17.2256 201.398 20.4952C205.484 24.4522 209.57 28.4092 213.656 32.3663C214.297 32.9835 214.945 33.6124 215.586 34.2335C213.781 36.0147 211.988 37.7881 210.183 39.5733C207.539 42.1944 204.883 44.8038 202.238 47.4288C201.98 47.6827 201.726 47.9053 201.695 48.3116C201.676 48.5147 201.695 48.7139 201.695 48.9053C201.695 50.0694 201.695 51.2413 201.695 52.4014C201.695 57.1046 201.695 61.8116 201.695 66.5108C201.695 73.0694 201.695 79.6397 201.695 86.1983C201.695 93.1397 201.695 100.077 201.695 107.026C201.695 112.73 201.695 118.429 201.695 124.128C201.695 127.065 201.695 130.011 201.695 132.948C193.523 132.843 185.344 132.796 177.172 132.796Z"/>
</mask>
<path d="M370.527 143.585C365.199 142.53 359.797 141.624 354.383 141.108C333.535 139.155 312.648 137.554 291.75 136.284C291.758 136.226 291.789 136.179 291.789 136.124C291.789 134.026 291.789 131.917 291.789 129.819C291.789 124.538 291.789 119.257 291.789 113.976C291.789 107.046 291.789 100.124 291.789 93.1944C291.789 86.1592 291.789 79.1241 291.789 72.0889C291.789 66.503 291.789 60.9171 291.789 55.3311C291.789 53.5186 291.789 51.7061 291.789 49.8975C291.789 49.046 291.863 48.1514 291.789 47.3038C291.738 46.7608 291.148 46.378 290.773 46.0147C289.496 44.7764 288.226 43.546 286.945 42.3077C282.461 37.96 277.972 33.6124 273.476 29.2647C268.492 24.4444 263.512 19.6202 258.527 14.796C255.547 11.9171 252.57 9.02643 249.59 6.14752C249.449 6.0069 249.304 5.87408 249.16 5.72955C248.558 5.14752 247.433 5.18658 246.687 5.25299C245.801 5.32721 244.609 5.53815 243.941 6.1983C241.914 8.1983 239.89 10.1983 237.867 12.2022C233.363 16.6553 228.855 21.1046 224.359 25.5577C222.203 27.6827 220.054 29.8194 217.898 31.9444C216.961 31.0381 216.027 30.1358 215.097 29.2374C210.222 24.5186 205.351 19.7921 200.472 15.0733C197.582 12.2686 194.679 9.46783 191.785 6.66315C191.652 6.53033 191.512 6.39752 191.375 6.26471C190.738 5.64362 189.656 5.31158 188.808 5.13971C188.265 5.03424 187.129 4.8233 186.66 5.29205C184.59 7.33893 182.515 9.38971 180.445 11.4288C175.863 15.96 171.281 20.4952 166.687 25.0225C164.531 27.1514 162.383 29.2842 160.226 31.4131C159.539 30.7452 158.851 30.0772 158.164 29.4092C153.293 24.6905 148.426 19.9796 143.558 15.2608C140.664 12.46 137.773 9.65533 134.879 6.85455C134.746 6.72174 134.601 6.58893 134.469 6.45221C133.754 5.76862 132.797 5.41315 131.836 5.22565C131.164 5.08893 129.887 4.8819 129.324 5.43268C127.164 7.55768 125.008 9.6944 122.859 11.8194C118.105 16.5225 113.344 21.2217 108.59 25.9288C103.777 30.6788 98.9764 35.4327 94.1639 40.1827C92.5584 41.7725 90.9451 43.3546 89.3435 44.9483C88.7029 45.585 87.9568 46.1866 87.3865 46.8819C87.031 47.3116 87.2029 48.1046 87.2029 48.6202C87.2029 50.1046 87.2029 51.5928 87.2029 53.0811C87.2029 58.296 87.2029 63.5108 87.2029 68.7217C87.2029 75.6631 87.2029 82.6124 87.2029 89.5538C87.2029 96.7335 87.2029 103.901 87.2029 111.077C87.2029 116.921 87.2029 122.757 87.2029 128.601C87.2029 130.706 87.2029 132.815 87.2029 134.921C84.4178 135.054 81.6365 135.179 78.8514 135.323C52.9881 136.687 27.156 138.593 1.3787 141.015C0.0544798 141.136 2.64042 141.737 2.48807 141.671C4.49979 142.48 7.39432 142.737 9.47636 143.12C13.9724 143.94 19.3943 145.55 24.0232 145.12C46.2771 143.034 68.5584 141.339 90.8709 140.042C91.4021 140.089 91.8826 140.058 92.2264 139.956C160.453 136.019 228.894 135.78 297.152 139.374C323.015 140.737 348.847 142.644 374.625 145.065C379.187 145.542 370.965 143.671 370.527 143.585ZM221.246 34.0889C225.277 30.1046 229.312 26.1202 233.344 22.1358C236.847 18.6749 240.34 15.2139 243.844 11.753C244.617 10.9835 245.41 10.2296 246.191 9.46783C247.519 10.753 248.847 12.0421 250.172 13.3194C254.89 17.8858 259.605 22.4483 264.312 27.0147C269.133 31.6866 273.965 36.3585 278.785 41.0303C280.472 42.6592 282.156 44.2921 283.844 45.9288C284.371 46.4366 284.887 46.9405 285.41 47.4444C285.609 47.6475 285.84 47.9405 286.09 48.1241C286.058 48.0733 286.051 48.0264 286.105 47.9796C286.09 47.9874 286.105 48.085 286.105 48.1319C286.137 48.1514 286.164 48.1788 286.191 48.1983C286.328 48.2764 286.183 48.2296 286.105 48.1514V48.1592C286.07 48.4756 286.105 48.8077 286.105 49.1241C286.105 50.5069 286.105 51.8975 286.105 53.2803C286.105 58.3233 286.105 63.3741 286.105 68.4171C286.105 75.2647 286.105 82.0967 286.105 88.9444C286.105 95.9874 286.105 103.042 286.105 110.089C286.105 115.901 286.105 121.718 286.105 127.534C286.105 130.335 286.105 133.14 286.105 135.933C268.875 134.94 251.644 134.179 234.394 133.651C234.394 131.862 234.394 130.069 234.394 128.276C234.394 123.054 234.394 117.819 234.394 112.597C234.394 105.769 234.394 98.9522 234.394 92.128C234.394 85.253 234.394 78.3897 234.394 71.5186C234.394 66.1592 234.394 60.7999 234.394 55.4522C234.394 53.128 234.414 50.7921 234.394 48.4678C234.394 47.8936 234.012 47.5694 233.64 47.2178C233.312 46.9014 232.98 46.5772 232.656 46.2647C231.289 44.9483 229.933 43.6241 228.57 42.3077C225.933 39.7608 223.308 37.2178 220.676 34.6631C220.875 34.46 221.054 34.2803 221.246 34.0889ZM207.367 132.644C207.367 129.812 207.367 126.98 207.367 124.148C207.367 117.351 207.367 110.554 207.367 103.757C207.367 95.5889 207.367 87.4092 207.367 79.2374C207.367 72.1358 207.367 65.0342 207.367 57.9405C207.367 55.6046 207.367 53.2725 207.367 50.9366C207.367 49.9053 207.453 48.8272 207.375 47.7999C208.664 46.5225 209.953 45.2452 211.254 43.9756C213.629 41.6319 215.996 39.2842 218.375 36.9405C220.351 38.8467 222.316 40.7647 224.293 42.671C225.84 44.1671 227.347 45.7569 228.953 47.2061C228.953 49.9053 228.953 52.6046 228.953 55.2999C228.953 62.1475 228.953 68.9991 228.953 75.8467C228.953 84.1202 228.953 92.4053 228.953 100.679C228.953 107.866 228.953 115.054 228.953 122.241C228.953 125.714 228.941 129.183 228.953 132.651C228.953 132.698 228.953 132.749 228.953 132.796C228.953 133.054 229.054 133.292 229.238 133.511C221.914 133.312 214.594 133.148 207.269 133.034C207.328 132.921 207.367 132.796 207.367 132.644ZM92.7498 133.167C92.7498 127.866 92.7498 122.577 92.7498 117.276C92.7498 110.296 92.7498 103.327 92.7498 96.3506C92.7498 89.2178 92.7498 82.0811 92.7498 74.9483C92.7498 69.1827 92.7498 63.4249 92.7498 57.6553C92.7498 54.7491 92.7498 51.8311 92.7498 48.9249C92.7498 48.8858 92.7576 48.8077 92.7576 48.7413C92.9217 48.6006 93.1014 48.3428 93.199 48.2569C94.3904 47.0733 95.5857 45.9014 96.7771 44.7178C101.199 40.3546 105.617 35.9796 110.047 31.6124C115.051 26.6631 120.054 21.7256 125.054 16.7764C127.539 14.3194 130.031 11.8702 132.512 9.40924C132.883 9.77252 133.258 10.1319 133.629 10.4952C137 13.7647 140.379 17.0342 143.75 20.296C147.844 24.2608 151.937 28.2256 156.035 32.1944C156.609 32.7569 157.191 33.3077 157.762 33.8702C155.976 35.6358 154.183 37.4092 152.398 39.171C149.879 41.6592 147.289 44.0889 144.836 46.6436C144.433 47.0655 144.519 47.3702 144.519 47.9327C144.519 49.21 144.519 50.4952 144.519 51.7725C144.519 56.6553 144.519 61.5342 144.519 66.4249C144.519 73.128 144.519 79.8311 144.519 86.5303C144.519 93.5186 144.519 100.507 144.519 107.503C144.519 113.253 144.519 119.003 144.519 124.761C144.519 127.542 144.519 130.315 144.519 133.101C127.262 133.398 110 133.94 92.7498 134.722C92.7498 134.187 92.7498 133.671 92.7498 133.167ZM171.613 55.4444C171.613 62.3194 171.613 69.1827 171.613 76.0538C171.613 84.3194 171.613 92.585 171.613 100.839C171.613 108.019 171.613 115.198 171.613 122.374C171.613 125.847 171.558 129.327 171.613 132.796C164.406 132.815 157.191 132.87 149.98 132.976C149.98 131.831 149.98 130.69 149.98 129.546C149.98 124.339 149.98 119.136 149.98 113.929C149.98 107.124 149.98 100.315 149.98 93.5108C149.98 86.5772 149.98 79.6475 149.98 72.71C149.98 67.2569 149.98 61.8038 149.98 56.3506C149.98 54.6319 149.98 52.9171 149.98 51.2022C149.98 50.6788 149.98 50.1514 149.98 49.6202C149.98 49.4092 150.058 49.0381 149.98 48.8389C149.98 48.8389 149.98 48.8272 149.98 48.8194C150.277 48.5421 150.562 48.2374 150.859 47.9522C152.187 46.6358 153.515 45.3311 154.84 44.0147C157.054 41.8311 159.262 39.6397 161.476 37.4561C163.183 39.1124 164.902 40.7725 166.613 42.4327C167.777 43.5655 168.949 44.6905 170.117 45.8272C170.601 46.2921 171.078 46.8663 171.613 47.2921C171.613 50.0186 171.613 52.7374 171.613 55.4444ZM177.172 132.796C177.172 131.241 177.172 129.679 177.172 128.124C177.172 122.909 177.172 117.694 177.172 112.472C177.172 105.663 177.172 98.8467 177.172 92.0421C177.172 85.1788 177.172 78.3155 177.172 71.4483C177.172 66.0733 177.172 60.6983 177.172 55.3311C177.172 52.9835 177.246 50.6397 177.172 48.296C177.152 47.5303 176.234 46.9327 175.73 46.4366C174.363 45.1085 173 43.796 171.633 42.4678C169.074 39.9913 166.508 37.5108 163.949 35.0225C165.344 33.6514 166.738 32.2686 168.121 30.8975C172.961 26.1124 177.793 21.335 182.633 16.5499C185.054 14.1553 187.48 11.7647 189.894 9.36236C190.355 9.79986 190.804 10.2374 191.262 10.6866C194.64 13.9561 198.019 17.2256 201.398 20.4952C205.484 24.4522 209.57 28.4092 213.656 32.3663C214.297 32.9835 214.945 33.6124 215.586 34.2335C213.781 36.0147 211.988 37.7881 210.183 39.5733C207.539 42.1944 204.883 44.8038 202.238 47.4288C201.98 47.6827 201.726 47.9053 201.695 48.3116C201.676 48.5147 201.695 48.7139 201.695 48.9053C201.695 50.0694 201.695 51.2413 201.695 52.4014C201.695 57.1046 201.695 61.8116 201.695 66.5108C201.695 73.0694 201.695 79.6397 201.695 86.1983C201.695 93.1397 201.695 100.077 201.695 107.026C201.695 112.73 201.695 118.429 201.695 124.128C201.695 127.065 201.695 130.011 201.695 132.948C193.523 132.843 185.344 132.796 177.172 132.796Z" fill="white"/>
<path d="M370.527 143.585C365.199 142.53 359.797 141.624 354.383 141.108C333.535 139.155 312.648 137.554 291.75 136.284C291.758 136.226 291.789 136.179 291.789 136.124C291.789 134.026 291.789 131.917 291.789 129.819C291.789 124.538 291.789 119.257 291.789 113.976C291.789 107.046 291.789 100.124 291.789 93.1944C291.789 86.1592 291.789 79.1241 291.789 72.0889C291.789 66.503 291.789 60.9171 291.789 55.3311C291.789 53.5186 291.789 51.7061 291.789 49.8975C291.789 49.046 291.863 48.1514 291.789 47.3038C291.738 46.7608 291.148 46.378 290.773 46.0147C289.496 44.7764 288.226 43.546 286.945 42.3077C282.461 37.96 277.972 33.6124 273.476 29.2647C268.492 24.4444 263.512 19.6202 258.527 14.796C255.547 11.9171 252.57 9.02643 249.59 6.14752C249.449 6.0069 249.304 5.87408 249.16 5.72955C248.558 5.14752 247.433 5.18658 246.687 5.25299C245.801 5.32721 244.609 5.53815 243.941 6.1983C241.914 8.1983 239.89 10.1983 237.867 12.2022C233.363 16.6553 228.855 21.1046 224.359 25.5577C222.203 27.6827 220.054 29.8194 217.898 31.9444C216.961 31.0381 216.027 30.1358 215.097 29.2374C210.222 24.5186 205.351 19.7921 200.472 15.0733C197.582 12.2686 194.679 9.46783 191.785 6.66315C191.652 6.53033 191.512 6.39752 191.375 6.26471C190.738 5.64362 189.656 5.31158 188.808 5.13971C188.265 5.03424 187.129 4.8233 186.66 5.29205C184.59 7.33893 182.515 9.38971 180.445 11.4288C175.863 15.96 171.281 20.4952 166.687 25.0225C164.531 27.1514 162.383 29.2842 160.226 31.4131C159.539 30.7452 158.851 30.0772 158.164 29.4092C153.293 24.6905 148.426 19.9796 143.558 15.2608C140.664 12.46 137.773 9.65533 134.879 6.85455C134.746 6.72174 134.601 6.58893 134.469 6.45221C133.754 5.76862 132.797 5.41315 131.836 5.22565C131.164 5.08893 129.887 4.8819 129.324 5.43268C127.164 7.55768 125.008 9.6944 122.859 11.8194C118.105 16.5225 113.344 21.2217 108.59 25.9288C103.777 30.6788 98.9764 35.4327 94.1639 40.1827C92.5584 41.7725 90.9451 43.3546 89.3435 44.9483C88.7029 45.585 87.9568 46.1866 87.3865 46.8819C87.031 47.3116 87.2029 48.1046 87.2029 48.6202C87.2029 50.1046 87.2029 51.5928 87.2029 53.0811C87.2029 58.296 87.2029 63.5108 87.2029 68.7217C87.2029 75.6631 87.2029 82.6124 87.2029 89.5538C87.2029 96.7335 87.2029 103.901 87.2029 111.077C87.2029 116.921 87.2029 122.757 87.2029 128.601C87.2029 130.706 87.2029 132.815 87.2029 134.921C84.4178 135.054 81.6365 135.179 78.8514 135.323C52.9881 136.687 27.156 138.593 1.3787 141.015C0.0544798 141.136 2.64042 141.737 2.48807 141.671C4.49979 142.48 7.39432 142.737 9.47636 143.12C13.9724 143.94 19.3943 145.55 24.0232 145.12C46.2771 143.034 68.5584 141.339 90.8709 140.042C91.4021 140.089 91.8826 140.058 92.2264 139.956C160.453 136.019 228.894 135.78 297.152 139.374C323.015 140.737 348.847 142.644 374.625 145.065C379.187 145.542 370.965 143.671 370.527 143.585ZM221.246 34.0889C225.277 30.1046 229.312 26.1202 233.344 22.1358C236.847 18.6749 240.34 15.2139 243.844 11.753C244.617 10.9835 245.41 10.2296 246.191 9.46783C247.519 10.753 248.847 12.0421 250.172 13.3194C254.89 17.8858 259.605 22.4483 264.312 27.0147C269.133 31.6866 273.965 36.3585 278.785 41.0303C280.472 42.6592 282.156 44.2921 283.844 45.9288C284.371 46.4366 284.887 46.9405 285.41 47.4444C285.609 47.6475 285.84 47.9405 286.09 48.1241C286.058 48.0733 286.051 48.0264 286.105 47.9796C286.09 47.9874 286.105 48.085 286.105 48.1319C286.137 48.1514 286.164 48.1788 286.191 48.1983C286.328 48.2764 286.183 48.2296 286.105 48.1514V48.1592C286.07 48.4756 286.105 48.8077 286.105 49.1241C286.105 50.5069 286.105 51.8975 286.105 53.2803C286.105 58.3233 286.105 63.3741 286.105 68.4171C286.105 75.2647 286.105 82.0967 286.105 88.9444C286.105 95.9874 286.105 103.042 286.105 110.089C286.105 115.901 286.105 121.718 286.105 127.534C286.105 130.335 286.105 133.14 286.105 135.933C268.875 134.94 251.644 134.179 234.394 133.651C234.394 131.862 234.394 130.069 234.394 128.276C234.394 123.054 234.394 117.819 234.394 112.597C234.394 105.769 234.394 98.9522 234.394 92.128C234.394 85.253 234.394 78.3897 234.394 71.5186C234.394 66.1592 234.394 60.7999 234.394 55.4522C234.394 53.128 234.414 50.7921 234.394 48.4678C234.394 47.8936 234.012 47.5694 233.64 47.2178C233.312 46.9014 232.98 46.5772 232.656 46.2647C231.289 44.9483 229.933 43.6241 228.57 42.3077C225.933 39.7608 223.308 37.2178 220.676 34.6631C220.875 34.46 221.054 34.2803 221.246 34.0889ZM207.367 132.644C207.367 129.812 207.367 126.98 207.367 124.148C207.367 117.351 207.367 110.554 207.367 103.757C207.367 95.5889 207.367 87.4092 207.367 79.2374C207.367 72.1358 207.367 65.0342 207.367 57.9405C207.367 55.6046 207.367 53.2725 207.367 50.9366C207.367 49.9053 207.453 48.8272 207.375 47.7999C208.664 46.5225 209.953 45.2452 211.254 43.9756C213.629 41.6319 215.996 39.2842 218.375 36.9405C220.351 38.8467 222.316 40.7647 224.293 42.671C225.84 44.1671 227.347 45.7569 228.953 47.2061C228.953 49.9053 228.953 52.6046 228.953 55.2999C228.953 62.1475 228.953 68.9991 228.953 75.8467C228.953 84.1202 228.953 92.4053 228.953 100.679C228.953 107.866 228.953 115.054 228.953 122.241C228.953 125.714 228.941 129.183 228.953 132.651C228.953 132.698 228.953 132.749 228.953 132.796C228.953 133.054 229.054 133.292 229.238 133.511C221.914 133.312 214.594 133.148 207.269 133.034C207.328 132.921 207.367 132.796 207.367 132.644ZM92.7498 133.167C92.7498 127.866 92.7498 122.577 92.7498 117.276C92.7498 110.296 92.7498 103.327 92.7498 96.3506C92.7498 89.2178 92.7498 82.0811 92.7498 74.9483C92.7498 69.1827 92.7498 63.4249 92.7498 57.6553C92.7498 54.7491 92.7498 51.8311 92.7498 48.9249C92.7498 48.8858 92.7576 48.8077 92.7576 48.7413C92.9217 48.6006 93.1014 48.3428 93.199 48.2569C94.3904 47.0733 95.5857 45.9014 96.7771 44.7178C101.199 40.3546 105.617 35.9796 110.047 31.6124C115.051 26.6631 120.054 21.7256 125.054 16.7764C127.539 14.3194 130.031 11.8702 132.512 9.40924C132.883 9.77252 133.258 10.1319 133.629 10.4952C137 13.7647 140.379 17.0342 143.75 20.296C147.844 24.2608 151.937 28.2256 156.035 32.1944C156.609 32.7569 157.191 33.3077 157.762 33.8702C155.976 35.6358 154.183 37.4092 152.398 39.171C149.879 41.6592 147.289 44.0889 144.836 46.6436C144.433 47.0655 144.519 47.3702 144.519 47.9327C144.519 49.21 144.519 50.4952 144.519 51.7725C144.519 56.6553 144.519 61.5342 144.519 66.4249C144.519 73.128 144.519 79.8311 144.519 86.5303C144.519 93.5186 144.519 100.507 144.519 107.503C144.519 113.253 144.519 119.003 144.519 124.761C144.519 127.542 144.519 130.315 144.519 133.101C127.262 133.398 110 133.94 92.7498 134.722C92.7498 134.187 92.7498 133.671 92.7498 133.167ZM171.613 55.4444C171.613 62.3194 171.613 69.1827 171.613 76.0538C171.613 84.3194 171.613 92.585 171.613 100.839C171.613 108.019 171.613 115.198 171.613 122.374C171.613 125.847 171.558 129.327 171.613 132.796C164.406 132.815 157.191 132.87 149.98 132.976C149.98 131.831 149.98 130.69 149.98 129.546C149.98 124.339 149.98 119.136 149.98 113.929C149.98 107.124 149.98 100.315 149.98 93.5108C149.98 86.5772 149.98 79.6475 149.98 72.71C149.98 67.2569 149.98 61.8038 149.98 56.3506C149.98 54.6319 149.98 52.9171 149.98 51.2022C149.98 50.6788 149.98 50.1514 149.98 49.6202C149.98 49.4092 150.058 49.0381 149.98 48.8389C149.98 48.8389 149.98 48.8272 149.98 48.8194C150.277 48.5421 150.562 48.2374 150.859 47.9522C152.187 46.6358 153.515 45.3311 154.84 44.0147C157.054 41.8311 159.262 39.6397 161.476 37.4561C163.183 39.1124 164.902 40.7725 166.613 42.4327C167.777 43.5655 168.949 44.6905 170.117 45.8272C170.601 46.2921 171.078 46.8663 171.613 47.2921C171.613 50.0186 171.613 52.7374 171.613 55.4444ZM177.172 132.796C177.172 131.241 177.172 129.679 177.172 128.124C177.172 122.909 177.172 117.694 177.172 112.472C177.172 105.663 177.172 98.8467 177.172 92.0421C177.172 85.1788 177.172 78.3155 177.172 71.4483C177.172 66.0733 177.172 60.6983 177.172 55.3311C177.172 52.9835 177.246 50.6397 177.172 48.296C177.152 47.5303 176.234 46.9327 175.73 46.4366C174.363 45.1085 173 43.796 171.633 42.4678C169.074 39.9913 166.508 37.5108 163.949 35.0225C165.344 33.6514 166.738 32.2686 168.121 30.8975C172.961 26.1124 177.793 21.335 182.633 16.5499C185.054 14.1553 187.48 11.7647 189.894 9.36236C190.355 9.79986 190.804 10.2374 191.262 10.6866C194.64 13.9561 198.019 17.2256 201.398 20.4952C205.484 24.4522 209.57 28.4092 213.656 32.3663C214.297 32.9835 214.945 33.6124 215.586 34.2335C213.781 36.0147 211.988 37.7881 210.183 39.5733C207.539 42.1944 204.883 44.8038 202.238 47.4288C201.98 47.6827 201.726 47.9053 201.695 48.3116C201.676 48.5147 201.695 48.7139 201.695 48.9053C201.695 50.0694 201.695 51.2413 201.695 52.4014C201.695 57.1046 201.695 61.8116 201.695 66.5108C201.695 73.0694 201.695 79.6397 201.695 86.1983C201.695 93.1397 201.695 100.077 201.695 107.026C201.695 112.73 201.695 118.429 201.695 124.128C201.695 127.065 201.695 130.011 201.695 132.948C193.523 132.843 185.344 132.796 177.172 132.796Z" stroke="white" stroke-width="10" mask="url(#path-1-outside-1_2_7)"/>
</svg>
