<svg xmlns="http://www.w3.org/2000/svg" width="375" viewBox="0 0 375 375" height="375" version="1.0"><defs><clipPath id="a"><path d="M 0 108.378906 L 375 108.378906 L 375 248.628906 L 0 248.628906 Z M 0 108.378906"/></clipPath></defs><path fill="#FFF" d="M-37.5 -37.5H412.5V412.5H-37.5z"/><path fill="#FFF" d="M-37.5 -37.5H412.5V412.5H-37.5z"/><path fill="#0C0E27" d="M-37.5 -37.5H412.5V412.5H-37.5z"/><g clip-path="url(#a)"><path fill="#FD6B35" d="M 369.539062 246.964844 C 364.210938 245.910156 358.808594 245.003906 353.394531 244.488281 C 332.546875 242.535156 311.660156 240.933594 290.761719 239.664062 C 290.769531 239.605469 290.800781 239.558594 290.800781 239.503906 C 290.800781 237.40625 290.800781 235.296875 290.800781 233.199219 C 290.800781 227.917969 290.800781 222.636719 290.800781 217.355469 C 290.800781 210.425781 290.800781 203.503906 290.800781 196.574219 C 290.800781 189.539062 290.800781 182.503906 290.800781 175.46875 C 290.800781 169.882812 290.800781 164.296875 290.800781 158.710938 C 290.800781 156.898438 290.800781 155.085938 290.800781 153.277344 C 290.800781 152.425781 290.875 151.53125 290.800781 150.683594 C 290.75 150.140625 290.160156 149.757812 289.785156 149.394531 C 288.507812 148.15625 287.238281 146.925781 285.957031 145.6875 C 281.472656 141.339844 276.984375 136.992188 272.488281 132.644531 C 267.503906 127.824219 262.523438 123 257.539062 118.175781 C 254.558594 115.296875 251.582031 112.40625 248.601562 109.527344 C 248.460938 109.386719 248.316406 109.253906 248.171875 109.109375 C 247.570312 108.527344 246.445312 108.566406 245.699219 108.632812 C 244.8125 108.707031 243.621094 108.917969 242.953125 109.578125 C 240.925781 111.578125 238.902344 113.578125 236.878906 115.582031 C 232.375 120.035156 227.867188 124.484375 223.371094 128.9375 C 221.214844 131.0625 219.066406 133.199219 216.910156 135.324219 C 215.972656 134.417969 215.039062 133.515625 214.109375 132.617188 C 209.234375 127.898438 204.363281 123.171875 199.484375 118.453125 C 196.59375 115.648438 193.691406 112.847656 190.796875 110.042969 C 190.664062 109.910156 190.523438 109.777344 190.386719 109.644531 C 189.75 109.023438 188.667969 108.691406 187.820312 108.519531 C 187.277344 108.414062 186.140625 108.203125 185.671875 108.671875 C 183.601562 110.71875 181.527344 112.769531 179.457031 114.808594 C 174.875 119.339844 170.292969 123.875 165.699219 128.402344 C 163.542969 130.53125 161.394531 132.664062 159.238281 134.792969 C 158.550781 134.125 157.863281 133.457031 157.175781 132.789062 C 152.304688 128.070312 147.4375 123.359375 142.570312 118.640625 C 139.675781 115.839844 136.785156 113.035156 133.890625 110.234375 C 133.757812 110.101562 133.613281 109.96875 133.480469 109.832031 C 132.765625 109.148438 131.808594 108.792969 130.847656 108.605469 C 130.175781 108.46875 128.898438 108.261719 128.335938 108.8125 C 126.175781 110.9375 124.019531 113.074219 121.871094 115.199219 C 117.117188 119.902344 112.355469 124.601562 107.601562 129.308594 C 102.789062 134.058594 97.988281 138.8125 93.175781 143.5625 C 91.570312 145.152344 89.957031 146.734375 88.355469 148.328125 C 87.714844 148.964844 86.96875 149.566406 86.398438 150.261719 C 86.042969 150.691406 86.214844 151.484375 86.214844 152 C 86.214844 153.484375 86.214844 154.972656 86.214844 156.460938 C 86.214844 161.675781 86.214844 166.890625 86.214844 172.101562 C 86.214844 179.042969 86.214844 185.992188 86.214844 192.933594 C 86.214844 200.113281 86.214844 207.28125 86.214844 214.457031 C 86.214844 220.300781 86.214844 226.136719 86.214844 231.980469 C 86.214844 234.085938 86.214844 236.195312 86.214844 238.300781 C 83.429688 238.433594 80.648438 238.558594 77.863281 238.703125 C 52 240.066406 26.167969 241.972656 0.390625 244.394531 C -0.933594 244.515625 1.652344 245.117188 1.5 245.050781 C 3.511719 245.859375 6.40625 246.117188 8.488281 246.5 C 12.984375 247.320312 18.40625 248.929688 23.035156 248.5 C 45.289062 246.414062 67.570312 244.71875 89.882812 243.421875 C 90.414062 243.46875 90.894531 243.4375 91.238281 243.335938 C 159.464844 239.398438 227.90625 239.160156 296.164062 242.753906 C 322.027344 244.117188 347.859375 246.023438 373.636719 248.445312 C 378.199219 248.921875 369.976562 247.050781 369.539062 246.964844 Z M 220.257812 137.46875 C 224.289062 133.484375 228.324219 129.5 232.355469 125.515625 C 235.859375 122.054688 239.351562 118.59375 242.855469 115.132812 C 243.628906 114.363281 244.421875 113.609375 245.203125 112.847656 C 246.53125 114.132812 247.859375 115.421875 249.183594 116.699219 C 253.902344 121.265625 258.617188 125.828125 263.324219 130.394531 C 268.144531 135.066406 272.976562 139.738281 277.796875 144.410156 C 279.484375 146.039062 281.167969 147.671875 282.855469 149.308594 C 283.382812 149.816406 283.898438 150.320312 284.421875 150.824219 C 284.621094 151.027344 284.851562 151.320312 285.101562 151.503906 C 285.070312 151.453125 285.0625 151.40625 285.117188 151.359375 C 285.101562 151.367188 285.117188 151.464844 285.117188 151.511719 C 285.148438 151.53125 285.175781 151.558594 285.203125 151.578125 C 285.339844 151.65625 285.195312 151.609375 285.117188 151.53125 C 285.117188 151.53125 285.117188 151.539062 285.117188 151.539062 C 285.082031 151.855469 285.117188 152.1875 285.117188 152.503906 C 285.117188 153.886719 285.117188 155.277344 285.117188 156.660156 C 285.117188 161.703125 285.117188 166.753906 285.117188 171.796875 C 285.117188 178.644531 285.117188 185.476562 285.117188 192.324219 C 285.117188 199.367188 285.117188 206.421875 285.117188 213.46875 C 285.117188 219.28125 285.117188 225.097656 285.117188 230.914062 C 285.117188 233.714844 285.117188 236.519531 285.117188 239.3125 C 267.886719 238.320312 250.65625 237.558594 233.40625 237.03125 C 233.40625 235.242188 233.40625 233.449219 233.40625 231.65625 C 233.40625 226.433594 233.40625 221.199219 233.40625 215.976562 C 233.40625 209.148438 233.40625 202.332031 233.40625 195.507812 C 233.40625 188.632812 233.40625 181.769531 233.40625 174.898438 C 233.40625 169.539062 233.40625 164.179688 233.40625 158.832031 C 233.40625 156.507812 233.425781 154.171875 233.40625 151.847656 C 233.40625 151.273438 233.023438 150.949219 232.652344 150.597656 C 232.324219 150.28125 231.992188 149.957031 231.667969 149.644531 C 230.300781 148.328125 228.945312 147.003906 227.582031 145.6875 C 224.945312 143.140625 222.320312 140.597656 219.6875 138.042969 C 219.886719 137.839844 220.066406 137.660156 220.257812 137.46875 Z M 206.378906 236.023438 C 206.378906 233.191406 206.378906 230.359375 206.378906 227.527344 C 206.378906 220.730469 206.378906 213.933594 206.378906 207.136719 C 206.378906 198.96875 206.378906 190.789062 206.378906 182.617188 C 206.378906 175.515625 206.378906 168.414062 206.378906 161.320312 C 206.378906 158.984375 206.378906 156.652344 206.378906 154.316406 C 206.378906 153.285156 206.464844 152.207031 206.386719 151.179688 C 207.675781 149.902344 208.964844 148.625 210.265625 147.355469 C 212.640625 145.011719 215.007812 142.664062 217.386719 140.320312 C 219.363281 142.226562 221.328125 144.144531 223.304688 146.050781 C 224.851562 147.546875 226.359375 149.136719 227.964844 150.585938 C 227.964844 153.285156 227.964844 155.984375 227.964844 158.679688 C 227.964844 165.527344 227.964844 172.378906 227.964844 179.226562 C 227.964844 187.5 227.964844 195.785156 227.964844 204.058594 C 227.964844 211.246094 227.964844 218.433594 227.964844 225.621094 C 227.964844 229.09375 227.953125 232.5625 227.964844 236.03125 C 227.964844 236.078125 227.964844 236.128906 227.964844 236.175781 C 227.964844 236.433594 228.066406 236.671875 228.25 236.890625 C 220.925781 236.691406 213.605469 236.527344 206.28125 236.414062 C 206.339844 236.300781 206.378906 236.175781 206.378906 236.023438 Z M 91.761719 236.546875 C 91.761719 231.246094 91.761719 225.957031 91.761719 220.65625 C 91.761719 213.675781 91.761719 206.707031 91.761719 199.730469 C 91.761719 192.597656 91.761719 185.460938 91.761719 178.328125 C 91.761719 172.5625 91.761719 166.804688 91.761719 161.035156 C 91.761719 158.128906 91.761719 155.210938 91.761719 152.304688 C 91.761719 152.265625 91.769531 152.1875 91.769531 152.121094 C 91.933594 151.980469 92.113281 151.722656 92.210938 151.636719 C 93.402344 150.453125 94.597656 149.28125 95.789062 148.097656 C 100.210938 143.734375 104.628906 139.359375 109.058594 134.992188 C 114.0625 130.042969 119.066406 125.105469 124.066406 120.15625 C 126.550781 117.699219 129.042969 115.25 131.523438 112.789062 C 131.894531 113.152344 132.269531 113.511719 132.640625 113.875 C 136.011719 117.144531 139.390625 120.414062 142.761719 123.675781 C 146.855469 127.640625 150.949219 131.605469 155.046875 135.574219 C 155.621094 136.136719 156.203125 136.6875 156.773438 137.25 C 154.988281 139.015625 153.195312 140.789062 151.410156 142.550781 C 148.890625 145.039062 146.300781 147.46875 143.847656 150.023438 C 143.445312 150.445312 143.53125 150.75 143.53125 151.3125 C 143.53125 152.589844 143.53125 153.875 143.53125 155.152344 C 143.53125 160.035156 143.53125 164.914062 143.53125 169.804688 C 143.53125 176.507812 143.53125 183.210938 143.53125 189.910156 C 143.53125 196.898438 143.53125 203.886719 143.53125 210.882812 C 143.53125 216.632812 143.53125 222.382812 143.53125 228.140625 C 143.53125 230.921875 143.53125 233.695312 143.53125 236.480469 C 126.273438 236.777344 109.011719 237.320312 91.761719 238.101562 C 91.761719 237.566406 91.761719 237.050781 91.761719 236.546875 Z M 170.625 158.824219 C 170.625 165.699219 170.625 172.5625 170.625 179.433594 C 170.625 187.699219 170.625 195.964844 170.625 204.21875 C 170.625 211.398438 170.625 218.578125 170.625 225.753906 C 170.625 229.226562 170.570312 232.707031 170.625 236.175781 C 163.417969 236.195312 156.203125 236.25 148.992188 236.355469 C 148.992188 235.210938 148.992188 234.070312 148.992188 232.925781 C 148.992188 227.71875 148.992188 222.515625 148.992188 217.308594 C 148.992188 210.503906 148.992188 203.695312 148.992188 196.890625 C 148.992188 189.957031 148.992188 183.027344 148.992188 176.089844 C 148.992188 170.636719 148.992188 165.183594 148.992188 159.730469 C 148.992188 158.011719 148.992188 156.296875 148.992188 154.582031 C 148.992188 154.058594 148.992188 153.53125 148.992188 153 C 148.992188 152.789062 149.070312 152.417969 148.992188 152.21875 C 148.992188 152.21875 148.992188 152.207031 148.992188 152.199219 C 149.289062 151.921875 149.574219 151.617188 149.871094 151.332031 C 151.199219 150.015625 152.527344 148.710938 153.851562 147.394531 C 156.066406 145.210938 158.273438 143.019531 160.488281 140.835938 C 162.195312 142.492188 163.914062 144.152344 165.625 145.8125 C 166.789062 146.945312 167.960938 148.070312 169.128906 149.207031 C 169.613281 149.671875 170.089844 150.246094 170.625 150.671875 C 170.625 153.398438 170.625 156.117188 170.625 158.824219 Z M 176.183594 236.175781 C 176.183594 234.621094 176.183594 233.058594 176.183594 231.503906 C 176.183594 226.289062 176.183594 221.074219 176.183594 215.851562 C 176.183594 209.042969 176.183594 202.226562 176.183594 195.421875 C 176.183594 188.558594 176.183594 181.695312 176.183594 174.828125 C 176.183594 169.453125 176.183594 164.078125 176.183594 158.710938 C 176.183594 156.363281 176.257812 154.019531 176.183594 151.675781 C 176.164062 150.910156 175.246094 150.3125 174.742188 149.816406 C 173.375 148.488281 172.011719 147.175781 170.644531 145.847656 C 168.085938 143.371094 165.519531 140.890625 162.960938 138.402344 C 164.355469 137.03125 165.75 135.648438 167.132812 134.277344 C 171.972656 129.492188 176.804688 124.714844 181.644531 119.929688 C 184.066406 117.535156 186.492188 115.144531 188.90625 112.742188 C 189.367188 113.179688 189.816406 113.617188 190.273438 114.066406 C 193.652344 117.335938 197.03125 120.605469 200.410156 123.875 C 204.496094 127.832031 208.582031 131.789062 212.667969 135.746094 C 213.308594 136.363281 213.957031 136.992188 214.597656 137.613281 C 212.792969 139.394531 211 141.167969 209.195312 142.953125 C 206.550781 145.574219 203.894531 148.183594 201.25 150.808594 C 200.992188 151.0625 200.738281 151.285156 200.707031 151.691406 C 200.6875 151.894531 200.707031 152.09375 200.707031 152.285156 C 200.707031 153.449219 200.707031 154.621094 200.707031 155.78125 C 200.707031 160.484375 200.707031 165.191406 200.707031 169.890625 C 200.707031 176.449219 200.707031 183.019531 200.707031 189.578125 C 200.707031 196.519531 200.707031 203.457031 200.707031 210.40625 C 200.707031 216.109375 200.707031 221.808594 200.707031 227.507812 C 200.707031 230.445312 200.707031 233.390625 200.707031 236.328125 C 192.535156 236.222656 184.355469 236.175781 176.183594 236.175781 Z M 176.183594 236.175781"/></g><path fill="#FD6B35" d="M 285.128906 151.511719 C 285.117188 151.511719 285.117188 151.503906 285.109375 151.503906 C 285.117188 151.511719 285.117188 151.523438 285.128906 151.53125 C 285.128906 151.523438 285.128906 151.511719 285.128906 151.511719 Z M 285.128906 151.511719"/></svg>