<svg width="375" height="375" viewBox="0 0 375 375" fill="none" xmlns="http://www.w3.org/2000/svg">
<g clip-path="url(#clip0_2_3)">
<path d="M-37.5 -37.5H412.5V412.5H-37.5V-37.5Z" fill="white"/>
<path d="M-37.5 -37.5H412.5V412.5H-37.5V-37.5Z" fill="white"/>
<g filter="url(#filter0_d_2_3)">
<path d="M-38 -38H412V412H-38V-38Z" fill="#0C0E27"/>
<path d="M-37.5 -37.5H411.5V411.5H-37.5V-37.5Z" stroke="black"/>
</g>
<path fill-rule="evenodd" clip-rule="evenodd" d="M354.383 254.108C359.797 254.624 365.199 255.53 370.527 256.585C370.965 256.671 379.187 258.542 374.625 258.065C348.847 255.644 323.015 253.737 297.152 252.374C228.894 248.78 160.453 249.019 92.2264 252.956C91.8826 253.058 91.4021 253.089 90.8709 253.042C68.5584 254.339 46.2771 256.034 24.0232 258.12C20.5061 258.447 16.5312 257.596 12.8525 256.809C11.6896 256.56 10.5563 256.317 9.47636 256.12C8.92203 256.018 8.31011 255.925 7.6726 255.828C5.91561 255.561 3.96419 255.264 2.48807 254.671C2.64042 254.737 0.0544798 254.136 1.3787 254.015C27.156 251.593 52.9881 249.687 78.8514 248.323C80.8489 248.22 82.8444 248.126 84.8407 248.032C85.6279 247.995 86.4153 247.959 87.2029 247.921V241.601V224.077V202.554V181.722V166.081V161.62C87.2029 161.5 87.1936 161.365 87.1837 161.222C87.1514 160.755 87.1139 160.211 87.3865 159.882C87.7623 159.424 88.2144 159.006 88.6624 158.593C88.8943 158.379 89.125 158.165 89.3435 157.948C90.3045 156.992 91.2696 156.04 92.2348 155.088C92.8782 154.453 93.5217 153.819 94.1639 153.183C96.5701 150.808 98.9734 148.432 101.377 146.056C103.78 143.68 106.183 141.304 108.59 138.929C111.309 136.237 114.03 133.547 116.751 130.858C118.788 128.845 120.824 126.833 122.859 124.819C123.297 124.386 123.736 123.952 124.175 123.518C125.888 121.823 127.605 120.124 129.324 118.433C129.887 117.882 131.164 118.089 131.836 118.226C132.797 118.413 133.754 118.769 134.469 119.452C134.545 119.531 134.625 119.608 134.704 119.684C134.763 119.741 134.822 119.798 134.879 119.855C136.326 121.255 137.772 122.656 139.219 124.058C140.665 125.459 142.111 126.86 143.558 128.261C146.769 131.374 149.98 134.483 153.192 137.594C154.849 139.199 156.506 140.803 158.164 142.409L160.226 144.413C161.304 143.349 162.381 142.283 163.457 141.218C164.533 140.152 165.609 139.087 166.687 138.023C170.511 134.254 174.327 130.48 178.142 126.707C178.91 125.947 179.677 125.188 180.445 124.429C182.504 122.401 184.566 120.362 186.625 118.326L186.66 118.292C187.129 117.823 188.265 118.034 188.808 118.14C189.656 118.312 190.738 118.644 191.375 119.265C191.42 119.309 191.466 119.353 191.512 119.398C191.604 119.486 191.696 119.575 191.785 119.663C193.027 120.867 194.271 122.07 195.515 123.273C197.169 124.873 198.823 126.473 200.472 128.073C203.254 130.764 206.033 133.457 208.812 136.149C210.907 138.179 213.002 140.209 215.097 142.237L217.898 144.944C218.976 143.882 220.053 142.816 221.129 141.751C222.205 140.686 223.281 139.62 224.359 138.558C227.354 135.592 230.353 132.628 233.353 129.663C234.858 128.177 236.363 126.69 237.867 125.202C239.89 123.198 241.914 121.198 243.941 119.198C244.609 118.538 245.801 118.327 246.687 118.253C247.433 118.187 248.558 118.148 249.16 118.73C249.233 118.802 249.305 118.872 249.378 118.941C249.449 119.01 249.52 119.078 249.59 119.148C251.08 120.587 252.569 122.029 254.058 123.472C255.548 124.914 257.037 126.357 258.527 127.796C260.17 129.386 261.812 130.976 263.455 132.566C266.795 135.8 270.135 139.033 273.476 142.265C277.972 146.612 282.461 150.96 286.945 155.308C288.226 156.546 289.496 157.776 290.773 159.015C290.852 159.091 290.941 159.168 291.031 159.248C291.373 159.546 291.749 159.875 291.789 160.304C291.838 160.87 291.822 161.458 291.805 162.039C291.797 162.328 291.789 162.615 291.789 162.898V168.331V185.089V206.194V226.976V242.819V249.124C291.789 249.154 291.779 249.182 291.769 249.211C291.761 249.234 291.753 249.258 291.75 249.284C312.648 250.554 333.535 252.155 354.383 254.108ZM227.295 141.112C225.278 143.105 223.262 145.097 221.246 147.089C221.054 147.28 220.875 147.46 220.676 147.663C223.308 150.218 225.933 152.761 228.57 155.308C229.177 155.894 229.782 156.481 230.388 157.069C231.143 157.802 231.897 158.534 232.656 159.265C232.82 159.423 232.987 159.585 233.154 159.747C233.316 159.904 233.479 160.062 233.64 160.218C233.662 160.239 233.684 160.259 233.706 160.28C234.055 160.609 234.394 160.928 234.394 161.468C234.407 163.018 234.403 164.573 234.399 166.126C234.396 166.902 234.394 167.678 234.394 168.452V184.519V205.128V225.597V241.276V246.651C251.644 247.179 268.875 247.94 286.105 248.933V240.534V223.089V201.944V181.417V166.28V162.124C286.105 162.019 286.101 161.913 286.098 161.805C286.09 161.589 286.082 161.371 286.105 161.159V161.151C286.183 161.23 286.328 161.276 286.191 161.198C286.164 161.179 286.137 161.151 286.105 161.132C286.105 161.117 286.104 161.096 286.102 161.075C286.098 161.031 286.095 160.985 286.105 160.98C286.051 161.026 286.058 161.073 286.09 161.124C285.914 160.995 285.748 160.812 285.596 160.644C285.531 160.573 285.469 160.505 285.41 160.444C285.146 160.19 284.884 159.937 284.622 159.682C284.364 159.432 284.105 159.181 283.844 158.929C282.156 157.292 280.472 155.659 278.785 154.03C276.375 151.694 273.962 149.358 271.549 147.023C269.136 144.687 266.722 142.351 264.312 140.015C259.656 135.498 254.992 130.984 250.325 126.467L250.172 126.319C249.284 125.463 248.395 124.602 247.505 123.74C247.067 123.316 246.629 122.892 246.191 122.468C245.912 122.74 245.632 123.01 245.352 123.281C244.847 123.77 244.341 124.258 243.844 124.753C242.092 126.483 240.343 128.214 238.594 129.944C236.845 131.675 235.096 133.405 233.344 135.136C231.328 137.128 229.311 139.12 227.295 141.112ZM207.367 237.148V245.644C207.367 245.796 207.328 245.921 207.269 246.034C214.594 246.148 221.914 246.312 229.238 246.511C229.054 246.292 228.953 246.054 228.953 245.796V245.651C228.945 243.339 228.948 241.027 228.95 238.714C228.952 237.557 228.953 236.399 228.953 235.241V213.679V188.847V168.3V160.206C227.922 159.276 226.932 158.287 225.945 157.303C225.395 156.754 224.846 156.206 224.293 155.671C223.304 154.718 222.319 153.762 221.334 152.806C220.348 151.85 219.363 150.894 218.375 149.94C217.016 151.279 215.661 152.619 214.306 153.959C213.289 154.965 212.272 155.971 211.254 156.976C209.953 158.245 208.664 159.523 207.375 160.8C207.426 161.476 207.407 162.173 207.387 162.865C207.377 163.225 207.367 163.584 207.367 163.937V170.94V188H201.695V179.511V165.401V161.905C201.695 161.842 201.693 161.778 201.691 161.714C201.686 161.582 201.682 161.448 201.695 161.312C201.724 160.931 201.949 160.712 202.189 160.477C202.205 160.461 202.222 160.445 202.238 160.429C203.663 159.015 205.091 157.605 206.518 156.196C207.741 154.989 208.963 153.782 210.183 152.573C211.988 150.788 213.781 149.015 215.586 147.233L215.481 147.132C214.875 146.544 214.262 145.95 213.656 145.366L201.398 133.495L191.262 123.687C190.804 123.237 190.355 122.8 189.894 122.362C188.084 124.164 186.267 125.959 184.45 127.754C183.844 128.353 183.238 128.951 182.633 129.55L168.121 143.898L168.086 143.932C166.715 145.292 165.332 146.663 163.949 148.023C166.017 150.033 168.089 152.039 170.159 154.041C170.65 154.517 171.142 154.993 171.633 155.468C172.316 156.132 172.999 156.792 173.681 157.452C174.364 158.112 175.047 158.773 175.73 159.437C175.838 159.543 175.965 159.654 176.099 159.77C176.587 160.197 177.156 160.695 177.172 161.296C177.221 162.858 177.205 164.42 177.188 165.984C177.18 166.766 177.172 167.548 177.172 168.331V184.448V188H171.613V168.444V160.292C171.27 160.019 170.951 159.685 170.639 159.358C170.464 159.175 170.291 158.994 170.117 158.827C169.531 158.256 168.943 157.689 168.356 157.121C167.774 156.559 167.193 155.997 166.613 155.433C165.75 154.596 164.886 153.759 164.022 152.922C163.172 152.1 162.323 151.277 161.476 150.456C160.369 151.548 159.263 152.642 158.158 153.735C157.053 154.829 155.947 155.923 154.84 157.015C154.084 157.766 153.327 158.513 152.57 159.261C152 159.824 151.429 160.387 150.859 160.952C150.727 161.079 150.598 161.21 150.468 161.34C150.306 161.503 150.145 161.665 149.98 161.819V161.839C150.034 161.976 150.014 162.195 149.996 162.387C149.988 162.474 149.98 162.555 149.98 162.62V164.202V169.351V185.71V206.511V226.929V242.546V245.976C157.191 245.87 164.406 245.815 171.613 245.796C171.577 243.483 171.589 241.165 171.601 238.848C171.607 237.69 171.613 236.531 171.613 235.374V214H177.172V225.472V241.124V245.796C185.344 245.796 193.523 245.843 201.695 245.948V237.128V220.026V214H207.367V216.757V237.148ZM92.7498 230.276V246.167V247.722C110 246.94 127.262 246.398 144.519 246.101V237.761V220.503V199.53V179.425V164.773V160.933C144.519 160.843 144.517 160.761 144.515 160.683C144.504 160.271 144.497 159.999 144.836 159.644C146.48 157.932 148.185 156.276 149.889 154.621C150.728 153.806 151.567 152.992 152.398 152.171C154.145 150.447 155.9 148.712 157.647 146.984L157.762 146.87C157.451 146.564 157.137 146.261 156.823 145.958C156.56 145.704 156.296 145.451 156.035 145.194L143.75 133.296C140.379 130.034 137 126.765 133.629 123.495C133.443 123.314 133.257 123.133 133.07 122.952C132.884 122.772 132.697 122.591 132.512 122.409C131.023 123.886 129.531 125.358 128.038 126.831C127.043 127.812 126.048 128.794 125.054 129.776C122.201 132.601 119.346 135.422 116.491 138.243C114.343 140.365 112.195 142.488 110.047 144.612C107.59 147.034 105.137 149.458 102.686 151.882C100.716 153.828 98.7469 155.774 96.7771 157.718C96.1814 158.31 95.5848 158.898 94.9881 159.487C94.3914 160.076 93.7947 160.665 93.199 161.257C93.1573 161.294 93.1006 161.362 93.0366 161.439C92.9507 161.542 92.8516 161.661 92.7576 161.741C92.7576 161.779 92.7551 161.82 92.7529 161.856C92.7513 161.884 92.7498 161.908 92.7498 161.925V170.655V187.948V209.351V230.276Z" fill="#FF7F50"/>
<path d="M370.527 256.585L369.848 260.018L369.853 260.019L370.527 256.585ZM354.383 254.108L354.714 250.624L354.709 250.624L354.383 254.108ZM374.625 258.065L374.988 254.584L374.97 254.583L374.952 254.581L374.625 258.065ZM297.152 252.374L297.336 248.879L297.336 248.879L297.152 252.374ZM92.2264 252.956L92.0247 249.462L91.6217 249.485L91.2346 249.6L92.2264 252.956ZM90.8709 253.042L91.1785 249.556L90.9234 249.533L90.6678 249.548L90.8709 253.042ZM24.0232 258.12L24.3467 261.605L24.3499 261.605L24.0232 258.12ZM12.8525 256.809L12.12 260.231L12.12 260.231L12.8525 256.809ZM9.47636 256.12L8.84348 259.562L8.84817 259.563L9.47636 256.12ZM7.6726 255.828L8.19883 252.368L8.19881 252.368L7.6726 255.828ZM2.48807 254.671L3.79337 251.423L1.08953 257.879L2.48807 254.671ZM1.3787 254.015L1.69743 257.5L1.70609 257.499L1.3787 254.015ZM78.8514 248.323L78.67 244.828L78.6671 244.828L78.8514 248.323ZM84.8407 248.032L85.0047 251.529L85.0047 251.529L84.8407 248.032ZM87.2029 247.921L87.3697 251.417L90.7029 251.258V247.921H87.2029ZM87.1837 161.222L83.6921 161.464L83.6921 161.464L87.1837 161.222ZM87.3865 159.882L90.0833 162.113L90.088 162.107L90.0927 162.102L87.3865 159.882ZM88.6624 158.593L91.0367 161.164L91.0367 161.164L88.6624 158.593ZM89.3435 157.948L91.8108 160.431L91.8124 160.429L89.3435 157.948ZM92.2348 155.088L94.6927 157.58L94.6927 157.58L92.2348 155.088ZM94.1639 153.183L91.7052 150.692L91.7011 150.696L94.1639 153.183ZM108.59 138.929L111.048 141.42L111.052 141.416L108.59 138.929ZM116.751 130.858L114.291 128.369L114.291 128.369L116.751 130.858ZM122.859 124.819L120.398 122.331L120.398 122.331L122.859 124.819ZM124.175 123.518L121.713 121.03L121.713 121.03L124.175 123.518ZM129.324 118.433L126.875 115.932L126.87 115.938L129.324 118.433ZM131.836 118.226L131.138 121.655L131.152 121.658L131.165 121.661L131.836 118.226ZM134.469 119.452L136.979 117.013L136.934 116.967L136.888 116.923L134.469 119.452ZM134.704 119.684L132.275 122.205L132.276 122.205L134.704 119.684ZM134.879 119.855L132.404 122.329L132.424 122.35L132.445 122.37L134.879 119.855ZM139.219 124.058L136.783 126.571L136.783 126.571L139.219 124.058ZM143.558 128.261L145.995 125.748L145.992 125.746L143.558 128.261ZM153.192 137.594L150.757 140.108L150.757 140.108L153.192 137.594ZM158.164 142.409L160.603 139.899L160.599 139.895L158.164 142.409ZM160.226 144.413L157.787 146.923L160.246 149.312L162.685 146.904L160.226 144.413ZM166.687 138.023L164.23 135.53L164.228 135.532L166.687 138.023ZM178.142 126.707L175.681 124.218L175.681 124.218L178.142 126.707ZM180.445 124.429L177.989 121.935L177.984 121.94L180.445 124.429ZM186.625 118.326L184.165 115.837L184.165 115.837L186.625 118.326ZM186.66 118.292L189.121 120.781L189.128 120.774L189.135 120.767L186.66 118.292ZM188.808 118.14L189.504 114.71L189.49 114.707L189.476 114.704L188.808 118.14ZM191.375 119.265L188.931 121.77L188.936 121.775L191.375 119.265ZM191.512 119.398L193.939 116.876L193.939 116.875L191.512 119.398ZM191.785 119.663L189.31 122.138L189.33 122.157L189.349 122.177L191.785 119.663ZM195.515 123.273L193.082 125.789L193.082 125.789L195.515 123.273ZM200.472 128.073L198.035 130.585L198.039 130.589L200.472 128.073ZM208.812 136.149L206.377 138.663L206.377 138.663L208.812 136.149ZM215.097 142.237L212.663 144.752L212.665 144.754L215.097 142.237ZM217.898 144.944L215.466 147.461L217.922 149.835L220.355 147.437L217.898 144.944ZM224.359 138.558L226.816 141.051L226.822 141.044L224.359 138.558ZM233.353 129.663L235.813 132.153L235.813 132.153L233.353 129.663ZM237.867 125.202L240.328 127.691L240.33 127.689L237.867 125.202ZM243.941 119.198L246.399 121.69L246.401 121.688L243.941 119.198ZM246.687 118.253L246.979 121.741L246.988 121.74L246.998 121.739L246.687 118.253ZM249.16 118.73L251.635 116.255L251.614 116.234L251.594 116.214L249.16 118.73ZM249.378 118.941L246.955 121.467L246.955 121.467L249.378 118.941ZM249.59 119.148L247.115 121.622L247.136 121.644L247.158 121.665L249.59 119.148ZM254.058 123.472L256.493 120.958L256.493 120.958L254.058 123.472ZM258.527 127.796L260.961 125.281L260.959 125.279L258.527 127.796ZM263.455 132.566L265.889 130.051L265.889 130.051L263.455 132.566ZM273.476 142.265L271.043 144.781L271.043 144.781L273.476 142.265ZM286.945 155.308L284.509 157.821L284.513 157.824L286.945 155.308ZM290.773 159.015L288.337 161.528L288.338 161.529L290.773 159.015ZM291.031 159.248L288.728 161.883L288.728 161.883L291.031 159.248ZM291.789 160.304L295.276 159.999L295.275 159.988L295.274 159.978L291.789 160.304ZM291.805 162.039L295.304 162.139L295.304 162.139L291.805 162.039ZM291.769 249.211L288.459 248.076L288.458 248.077L291.769 249.211ZM291.75 249.284L288.281 248.82L287.781 252.55L291.538 252.778L291.75 249.284ZM221.246 147.089L218.786 144.6L218.778 144.607L218.771 144.614L221.246 147.089ZM220.676 147.663L218.177 145.212L215.713 147.725L218.238 150.175L220.676 147.663ZM228.57 155.308L226.138 157.825L226.139 157.825L228.57 155.308ZM230.388 157.069L227.95 159.581L227.95 159.581L230.388 157.069ZM232.656 159.265L235.085 156.745L235.084 156.743L232.656 159.265ZM233.154 159.747L230.716 162.258L230.716 162.259L233.154 159.747ZM233.64 160.218L231.211 162.737L231.222 162.748L231.234 162.759L233.64 160.218ZM233.706 160.28L236.105 157.731L236.105 157.731L233.706 160.28ZM234.394 161.468H230.894V161.483L230.894 161.497L234.394 161.468ZM234.399 166.126L230.899 166.116L230.899 166.116L234.399 166.126ZM234.394 246.651H230.894V250.046L234.287 250.15L234.394 246.651ZM286.105 248.933L285.904 252.427L289.605 252.64V248.933H286.105ZM286.098 161.805L289.595 161.679L289.595 161.678L286.098 161.805ZM286.105 161.159L289.584 161.546L289.605 161.353V161.159H286.105ZM286.105 161.151L288.58 158.677L282.605 152.702V161.151H286.105ZM286.191 161.198L284.157 164.046L284.301 164.149L284.455 164.237L286.191 161.198ZM286.105 161.132H282.605V163.072L284.25 164.1L286.105 161.132ZM286.102 161.075L289.591 160.798L289.591 160.796L286.102 161.075ZM286.105 160.98L288.383 163.637L284.541 157.849L286.105 160.98ZM286.09 161.124L284.018 163.945L289.07 159.29L286.09 161.124ZM285.596 160.644L283.003 162.996L283.003 162.996L285.596 160.644ZM285.41 160.444L287.909 157.994L287.874 157.958L287.837 157.923L285.41 160.444ZM284.622 159.682L287.059 157.17L287.059 157.17L284.622 159.682ZM283.844 158.929L281.407 161.441L281.416 161.45L283.844 158.929ZM278.785 154.03L276.349 156.544L276.354 156.549L278.785 154.03ZM264.312 140.015L261.875 142.527L261.876 142.528L264.312 140.015ZM250.325 126.467L247.891 128.982L247.891 128.982L250.325 126.467ZM250.172 126.319L252.606 123.804L252.602 123.8L250.172 126.319ZM247.505 123.74L249.941 121.226L249.941 121.226L247.505 123.74ZM246.191 122.468L248.625 119.953L246.182 117.589L243.748 119.962L246.191 122.468ZM245.352 123.281L247.784 125.798L247.784 125.798L245.352 123.281ZM243.844 124.753L246.303 127.243L246.312 127.234L243.844 124.753ZM238.594 129.944L241.055 132.432L241.055 132.432L238.594 129.944ZM233.344 135.136L230.884 132.646L230.883 132.646L233.344 135.136ZM207.269 246.034L204.161 244.426L201.564 249.446L207.215 249.534L207.269 246.034ZM229.238 246.511L229.143 250.01L236.921 250.221L231.919 244.261L229.238 246.511ZM228.953 245.651L232.453 245.651L232.453 245.64L228.953 245.651ZM228.95 238.714L232.45 238.718L232.45 238.718L228.95 238.714ZM228.953 160.206H232.453V158.65L231.298 157.608L228.953 160.206ZM225.945 157.303L223.473 159.78L223.473 159.78L225.945 157.303ZM224.293 155.671L226.726 153.155L226.722 153.152L224.293 155.671ZM221.334 152.806L218.896 155.318L218.896 155.318L221.334 152.806ZM218.375 149.94L220.804 147.421L218.349 145.053L215.918 147.447L218.375 149.94ZM214.306 153.959L211.845 151.47L211.845 151.47L214.306 153.959ZM211.254 156.976L213.698 159.48L213.705 159.474L213.712 159.467L211.254 156.976ZM207.375 160.8L204.911 158.314L203.762 159.452L203.885 161.065L207.375 160.8ZM207.387 162.865L210.886 162.964L210.886 162.963L207.387 162.865ZM207.367 188V191.5H210.867V188H207.367ZM201.695 188H198.195V191.5H201.695V188ZM201.691 161.714L198.193 161.83L198.193 161.83L201.691 161.714ZM201.695 161.312L205.179 161.647L205.182 161.613L205.185 161.58L201.695 161.312ZM202.189 160.477L204.636 162.979L204.636 162.979L202.189 160.477ZM202.238 160.429L204.694 162.923L204.704 162.913L202.238 160.429ZM206.518 156.196L208.977 158.687L208.977 158.687L206.518 156.196ZM210.183 152.573L207.722 150.085L207.72 150.087L210.183 152.573ZM215.586 147.233L218.044 149.724L220.591 147.211L218.022 144.721L215.586 147.233ZM215.481 147.132L217.918 144.619L217.918 144.619L215.481 147.132ZM213.656 145.366L211.221 147.88L211.228 147.887L213.656 145.366ZM201.398 133.495L203.833 130.981L203.832 130.98L201.398 133.495ZM191.262 123.687L188.808 126.183L188.818 126.192L188.828 126.202L191.262 123.687ZM189.894 122.362L192.304 119.824L189.837 117.482L187.425 119.881L189.894 122.362ZM184.45 127.754L186.909 130.244L186.909 130.244L184.45 127.754ZM182.633 129.55L185.093 132.039L185.093 132.039L182.633 129.55ZM168.121 143.898L165.66 141.409L165.657 141.412L168.121 143.898ZM168.086 143.932L165.622 141.446L165.622 141.447L168.086 143.932ZM163.949 148.023L161.495 145.527L158.943 148.036L161.509 150.532L163.949 148.023ZM170.159 154.041L167.725 156.557L167.725 156.557L170.159 154.041ZM171.633 155.468L174.071 152.957L174.067 152.953L171.633 155.468ZM175.73 159.437L178.186 156.943L178.177 156.934L178.169 156.926L175.73 159.437ZM176.099 159.77L178.402 157.135L178.402 157.135L176.099 159.77ZM177.172 161.296L173.673 161.385L173.673 161.396L173.673 161.407L177.172 161.296ZM177.188 165.984L180.688 166.021L180.688 166.021L177.188 165.984ZM177.172 188V191.5H180.672V188H177.172ZM171.613 188H168.113V191.5H171.613V188ZM171.613 160.292H175.113V158.604L173.792 157.553L171.613 160.292ZM170.639 159.358L173.17 156.941L173.17 156.941L170.639 159.358ZM170.117 158.827L167.676 161.335L167.685 161.344L167.694 161.352L170.117 158.827ZM168.356 157.121L165.924 159.638L165.924 159.638L168.356 157.121ZM166.613 155.433L169.054 152.924L169.05 152.921L166.613 155.433ZM164.022 152.922L166.456 150.408L166.456 150.408L164.022 152.922ZM161.476 150.456L163.914 147.944L161.457 145.56L159.019 147.964L161.476 150.456ZM154.84 157.015L152.382 154.522L152.377 154.527L152.372 154.533L154.84 157.015ZM152.57 159.261L155.029 161.752L155.029 161.752L152.57 159.261ZM150.859 160.952L153.284 163.476L153.304 163.457L153.323 163.438L150.859 160.952ZM150.468 161.34L147.984 158.874L147.984 158.874L150.468 161.34ZM149.98 161.819L147.591 159.262L146.48 160.299V161.819H149.98ZM149.98 161.839H146.48V162.501L146.722 163.117L149.98 161.839ZM149.996 162.387L153.481 162.712L153.481 162.712L149.996 162.387ZM149.98 245.976H146.48V249.527L150.031 249.475L149.98 245.976ZM171.613 245.796L171.623 249.296L175.169 249.286L175.113 245.741L171.613 245.796ZM171.601 238.848L175.101 238.867L175.101 238.867L171.601 238.848ZM171.613 214V210.5H168.113V214H171.613ZM177.172 214H180.672V210.5H177.172V214ZM177.172 245.796H173.672V249.296H177.172V245.796ZM201.695 245.948L201.65 249.448L205.195 249.494V245.948H201.695ZM201.695 214V210.5H198.195V214H201.695ZM207.367 214H210.867V210.5H207.367V214ZM92.7498 247.722H89.2498V251.384L92.9081 251.218L92.7498 247.722ZM144.519 246.101L144.58 249.6L148.019 249.541V246.101H144.519ZM144.515 160.683L148.014 160.592L148.014 160.591L144.515 160.683ZM144.836 159.644L142.311 157.219L142.303 157.228L144.836 159.644ZM149.889 154.621L147.451 152.11L147.451 152.11L149.889 154.621ZM152.398 152.171L149.94 149.68L149.939 149.681L152.398 152.171ZM157.647 146.984L160.108 149.472L160.108 149.472L157.647 146.984ZM157.762 146.87L160.223 149.359L162.742 146.867L160.219 144.378L157.762 146.87ZM156.823 145.958L154.393 148.477L154.393 148.477L156.823 145.958ZM156.035 145.194L158.484 142.694L158.477 142.687L158.47 142.68L156.035 145.194ZM143.75 133.296L146.185 130.782L146.184 130.781L143.75 133.296ZM133.629 123.495L131.18 125.996L131.186 126.002L131.192 126.008L133.629 123.495ZM133.07 122.952L135.505 120.438L135.505 120.438L133.07 122.952ZM132.512 122.409L134.96 119.908L132.495 117.495L130.046 119.925L132.512 122.409ZM128.038 126.831L130.496 129.322L130.496 129.322L128.038 126.831ZM125.054 129.776L122.593 127.288L122.592 127.289L125.054 129.776ZM116.491 138.243L118.951 140.733L118.951 140.733L116.491 138.243ZM110.047 144.612L112.504 147.105L112.508 147.101L110.047 144.612ZM102.686 151.882L105.146 154.371L105.146 154.371L102.686 151.882ZM96.7771 157.718L94.3188 155.226L94.3104 155.235L96.7771 157.718ZM93.199 161.257L95.5111 163.885L95.5906 163.815L95.6657 163.74L93.199 161.257ZM93.0366 161.439L90.3471 159.199L90.347 159.199L93.0366 161.439ZM92.7576 161.741L90.4798 159.084L89.2576 160.131V161.741H92.7576ZM92.7529 161.856L89.2593 161.644L89.2593 161.645L92.7529 161.856ZM371.207 253.152C365.817 252.085 360.289 251.155 354.714 250.624L354.051 257.593C359.304 258.093 364.581 258.976 369.848 260.018L371.207 253.152ZM374.261 261.547C374.833 261.606 375.408 261.654 375.871 261.641C376 261.637 376.192 261.628 376.411 261.596C376.556 261.575 377.056 261.501 377.608 261.21C378.154 260.923 379.756 259.794 379.469 257.625C379.275 256.162 378.262 255.398 378.168 255.323C377.701 254.946 377.211 254.753 377.122 254.716C376.921 254.633 376.717 254.562 376.544 254.505C376.191 254.389 375.777 254.27 375.37 254.159C373.761 253.721 371.514 253.212 371.202 253.151L369.853 260.019C369.847 260.018 369.969 260.044 370.242 260.106C370.489 260.162 370.818 260.238 371.188 260.326C371.935 260.502 372.818 260.719 373.532 260.913C373.895 261.012 374.173 261.094 374.353 261.153C374.447 261.184 374.47 261.195 374.446 261.185C374.434 261.18 374.377 261.156 374.293 261.113C374.235 261.083 374.023 260.973 373.774 260.772C373.714 260.724 372.72 259.985 372.529 258.544C372.245 256.397 373.833 255.287 374.348 255.016C374.87 254.742 375.322 254.681 375.4 254.669C375.552 254.647 375.658 254.644 375.682 254.644C375.724 254.642 375.557 254.644 374.988 254.584L374.261 261.547ZM296.968 255.869C322.782 257.23 348.567 259.133 374.297 261.55L374.952 254.581C349.128 252.155 323.249 250.245 297.336 248.879L296.968 255.869ZM92.428 256.45C160.528 252.52 228.841 252.282 296.968 255.869L297.336 248.879C228.948 245.278 160.377 245.517 92.0247 249.462L92.428 256.45ZM90.5633 256.529C91.3461 256.598 92.3052 256.582 93.2181 256.313L91.2346 249.6C91.2741 249.588 91.3064 249.58 91.3304 249.575C91.3546 249.569 91.3728 249.566 91.3843 249.564C91.4065 249.56 91.4109 249.561 91.396 249.562C91.3817 249.563 91.3551 249.564 91.3165 249.563C91.2782 249.563 91.2319 249.56 91.1785 249.556L90.5633 256.529ZM24.3499 261.605C46.5631 259.523 68.8031 257.831 91.074 256.536L90.6678 249.548C68.3136 250.847 45.9912 252.546 23.6966 254.635L24.3499 261.605ZM12.12 260.231C15.6613 260.989 20.1934 261.991 24.3467 261.605L23.6997 254.635C20.8189 254.903 17.4012 254.203 13.585 253.386L12.12 260.231ZM8.84817 259.563C9.86626 259.749 10.946 259.98 12.12 260.231L13.585 253.386C12.4332 253.14 11.2463 252.885 10.1045 252.677L8.84817 259.563ZM7.14636 259.288C7.79703 259.387 8.35254 259.472 8.84348 259.562L10.1092 252.678C9.49153 252.564 8.82319 252.463 8.19883 252.368L7.14636 259.288ZM1.18278 257.918C3.11441 258.695 5.51236 259.04 7.14638 259.288L8.19881 252.368C6.31886 252.082 4.81397 251.834 3.79337 251.423L1.18278 257.918ZM1.05997 250.529C0.896227 250.544 0.69214 250.569 0.471437 250.614C0.282133 250.653 -0.0887645 250.74 -0.501602 250.944C-0.823523 251.104 -1.84118 251.66 -2.2998 252.966C-2.8375 254.497 -2.188 255.736 -1.79369 256.266C-1.42285 256.765 -1.00793 257.05 -0.84281 257.159C-0.633007 257.296 -0.441954 257.394 -0.313949 257.454C-0.0566272 257.577 0.191769 257.667 0.366144 257.726C0.728722 257.85 1.10368 257.95 1.36196 258.013C1.49006 258.045 1.63468 258.078 1.76679 258.103C1.7773 258.105 1.98158 258.147 2.21793 258.166C2.27343 258.17 2.47774 258.186 2.73747 258.167C2.85097 258.159 3.15799 258.134 3.53175 258.018C3.72342 257.959 4.04871 257.84 4.40662 257.607C4.76612 257.372 5.29678 256.93 5.65312 256.183C6.03801 255.377 6.06541 254.538 5.89313 253.838C5.73819 253.209 5.44529 252.769 5.26263 252.533C4.91674 252.086 4.54587 251.836 4.44102 251.766C4.17075 251.585 3.93426 251.483 3.88662 251.463L1.08953 257.879C1.04582 257.86 0.980206 257.831 0.901958 257.791C0.831967 257.755 0.700659 257.685 0.545449 257.582C0.46568 257.528 0.35307 257.448 0.226398 257.34C0.106881 257.239 -0.0813523 257.065 -0.273916 256.816C-0.355542 256.706 -0.519371 256.454 -0.599293 256.311C-0.686285 256.135 -0.840989 255.735 -0.904001 255.511C-0.958364 255.247 -1.00541 254.679 -0.992904 254.379C-0.95175 254.065 -0.786299 253.456 -0.664049 253.168C-0.3078 252.421 0.222688 251.979 0.581931 251.744C0.939598 251.511 1.26456 251.393 1.45582 251.333C1.66049 251.27 1.83375 251.237 1.94913 251.218C2.06952 251.199 2.17174 251.19 2.24679 251.185C2.3928 251.174 2.51029 251.175 2.57806 251.177C2.6517 251.179 2.7125 251.183 2.75441 251.186C2.83625 251.192 2.90033 251.2 2.93401 251.205C2.97162 251.21 3.00161 251.214 3.02073 251.217C3.0581 251.224 3.08413 251.228 3.09287 251.23C3.1179 251.235 3.09583 251.231 3.02361 251.214C2.88126 251.179 2.72106 251.134 2.62172 251.1C2.56514 251.081 2.60089 251.089 2.68985 251.132C2.73367 251.153 2.85161 251.21 3.00262 251.309C3.08085 251.361 3.19456 251.441 3.32386 251.552C3.44798 251.659 3.63473 251.835 3.82331 252.089C4.00913 252.339 4.25997 252.748 4.39906 253.311C4.47023 253.599 4.51056 253.921 4.4976 254.269C4.48457 254.618 4.41874 254.961 4.3046 255.286C4.07542 255.938 3.69833 256.393 3.38743 256.679C3.08429 256.958 2.7933 257.124 2.60644 257.216C2.41202 257.313 2.24665 257.371 2.13903 257.404C2.0273 257.439 1.9367 257.459 1.87778 257.471C1.81713 257.484 1.77116 257.491 1.74455 257.495C1.71717 257.498 1.70067 257.5 1.69743 257.5L1.05997 250.529ZM78.6671 244.828C52.7549 246.194 26.8752 248.104 1.0513 250.53L1.70609 257.499C27.4369 255.082 53.2212 253.179 79.0356 251.818L78.6671 244.828ZM84.6767 244.536C82.6818 244.63 80.6776 244.724 78.67 244.828L79.0327 251.819C81.0201 251.715 83.0069 251.622 85.0047 251.529L84.6767 244.536ZM87.0362 244.425C86.2501 244.462 85.4641 244.499 84.6767 244.536L85.0047 251.529C85.7917 251.492 86.5804 251.455 87.3697 251.417L87.0362 244.425ZM83.7029 241.601V247.921H90.7029V241.601H83.7029ZM83.7029 224.077V241.601H90.7029V224.077H83.7029ZM83.7029 202.554V224.077H90.7029V202.554H83.7029ZM83.7029 181.722V202.554H90.7029V181.722H83.7029ZM83.7029 166.081V181.722H90.7029V166.081H83.7029ZM83.7029 161.62V166.081H90.7029V161.62H83.7029ZM83.6921 161.464C83.6974 161.54 83.7002 161.582 83.702 161.617C83.7038 161.65 83.7029 161.646 83.7029 161.62H90.7029C90.7029 161.355 90.683 161.091 90.6754 160.981L83.6921 161.464ZM84.6897 157.651C83.9023 158.603 83.7324 159.644 83.6842 160.194C83.6353 160.752 83.6797 161.285 83.6921 161.464L90.6754 160.981C90.6666 160.854 90.6632 160.798 90.6618 160.753C90.6605 160.711 90.6634 160.738 90.6574 160.806C90.6505 160.885 90.5982 161.491 90.0833 162.113L84.6897 157.651ZM86.2881 156.021C85.8748 156.403 85.2368 156.984 84.6804 157.662L90.0927 162.102C90.2878 161.864 90.5541 161.61 91.0367 161.164L86.2881 156.021ZM86.8762 155.466C86.7112 155.63 86.5286 155.799 86.2881 156.021L91.0367 161.164C91.26 160.958 91.5388 160.701 91.8108 160.431L86.8762 155.466ZM89.7769 152.596C88.8127 153.547 87.842 154.505 86.8747 155.467L91.8124 160.429C92.7669 159.479 93.7266 158.533 94.6927 157.58L89.7769 152.596ZM91.7011 150.696C91.0618 151.329 90.4208 151.961 89.7769 152.596L94.6927 157.58C95.3357 156.945 95.9816 156.308 96.6266 155.67L91.7011 150.696ZM98.9161 143.567C96.5126 145.943 94.1103 148.318 91.7052 150.692L96.6225 155.674C99.0299 153.298 101.434 150.921 103.837 148.545L98.9161 143.567ZM106.131 136.438C103.724 138.814 101.319 141.191 98.9161 143.567L103.837 148.545C106.241 146.169 108.643 143.794 111.048 141.42L106.131 136.438ZM114.291 128.369C111.57 131.058 108.847 133.748 106.127 136.442L111.052 141.416C113.77 138.725 116.49 136.037 119.211 133.347L114.291 128.369ZM120.398 122.331C118.363 124.344 116.328 126.356 114.291 128.369L119.211 133.347C121.248 131.335 123.285 129.322 125.321 127.308L120.398 122.331ZM121.713 121.03C121.274 121.464 120.836 121.898 120.398 122.331L125.32 127.308C125.759 126.874 126.198 126.44 126.637 126.005L121.713 121.03ZM126.87 115.938C125.146 117.633 123.425 119.336 121.713 121.03L126.637 126.005C128.35 124.31 130.063 122.615 131.778 120.928L126.87 115.938ZM132.534 114.796C132.147 114.717 131.378 114.571 130.539 114.571C129.884 114.571 128.194 114.64 126.875 115.932L131.773 120.933C131.358 121.339 130.941 121.483 130.762 121.53C130.583 121.578 130.491 121.571 130.539 121.571C130.574 121.571 130.651 121.575 130.772 121.592C130.888 121.607 131.011 121.63 131.138 121.655L132.534 114.796ZM136.888 116.923C135.492 115.588 133.793 115.042 132.506 114.79L131.165 121.661C131.46 121.718 131.679 121.788 131.833 121.856C131.983 121.922 132.039 121.972 132.05 121.982L136.888 116.923ZM137.133 117.164C137.046 117.081 137.008 117.043 136.979 117.013L131.958 121.891C132.081 122.018 132.203 122.135 132.275 122.205L137.133 117.164ZM137.354 117.38C137.27 117.296 137.188 117.217 137.133 117.164L132.276 122.205C132.339 122.266 132.374 122.3 132.404 122.329L137.354 117.38ZM141.654 121.544C140.208 120.143 138.761 118.741 137.313 117.339L132.445 122.37C133.891 123.769 135.337 125.17 136.783 126.571L141.654 121.544ZM145.992 125.746C144.546 124.346 143.101 122.946 141.654 121.544L136.783 126.571C138.229 127.973 139.676 129.375 141.125 130.776L145.992 125.746ZM155.627 135.08C152.415 131.969 149.205 128.86 145.995 125.748L141.122 130.774C144.334 133.887 147.545 136.998 150.757 140.108L155.627 135.08ZM160.599 139.895C158.941 138.289 157.284 136.684 155.627 135.08L150.757 140.108C152.414 141.713 154.071 143.318 155.729 144.923L160.599 139.895ZM162.665 141.903L160.603 139.899L155.725 144.92L157.787 146.923L162.665 141.903ZM160.994 138.731C159.918 139.796 158.843 140.86 157.767 141.923L162.685 146.904C163.765 145.837 164.843 144.77 165.919 143.705L160.994 138.731ZM164.228 135.532C163.148 136.598 162.07 137.665 160.994 138.731L165.919 143.705C166.996 142.639 168.07 141.576 169.146 140.513L164.228 135.532ZM175.681 124.218C171.866 127.992 168.052 131.763 164.23 135.53L169.144 140.515C172.971 136.744 176.789 132.968 180.603 129.195L175.681 124.218ZM177.984 121.94C177.216 122.699 176.448 123.459 175.681 124.218L180.603 129.195C181.371 128.436 182.139 127.677 182.906 126.917L177.984 121.94ZM184.165 115.837C182.105 117.873 180.045 119.91 177.989 121.935L182.901 126.922C184.963 124.892 187.028 122.85 189.086 120.815L184.165 115.837ZM184.199 115.803L184.165 115.837L189.086 120.815L189.121 120.781L184.199 115.803ZM189.476 114.704C189.215 114.653 188.521 114.515 187.769 114.501C187.251 114.492 185.515 114.487 184.185 115.817L189.135 120.767C188.657 121.245 188.16 121.403 187.953 121.454C187.739 121.507 187.616 121.499 187.644 121.5C187.657 121.5 187.711 121.503 187.813 121.518C187.912 121.532 188.013 121.551 188.141 121.575L189.476 114.704ZM193.819 116.759C192.397 115.372 190.412 114.894 189.504 114.71L188.113 121.57C188.407 121.629 188.672 121.704 188.873 121.784C188.969 121.822 189.021 121.851 189.039 121.861C189.058 121.873 189.011 121.848 188.931 121.77L193.819 116.759ZM193.939 116.875C193.892 116.83 193.852 116.792 193.814 116.754L188.936 121.775C188.989 121.826 189.04 121.876 189.086 121.92L193.939 116.875ZM194.26 117.188C194.143 117.072 194.027 116.96 193.939 116.876L189.086 121.92C189.182 122.012 189.249 122.077 189.31 122.138L194.26 117.188ZM197.949 120.758C196.705 119.554 195.462 118.352 194.221 117.15L189.349 122.177C190.593 123.382 191.838 124.586 193.082 125.789L197.949 120.758ZM202.91 125.561C201.258 123.958 199.602 122.357 197.949 120.758L193.082 125.789C194.736 127.389 196.388 128.987 198.035 130.585L202.91 125.561ZM211.248 133.636C208.469 130.943 205.689 128.249 202.906 125.557L198.039 130.589C200.82 133.278 203.598 135.97 206.377 138.663L211.248 133.636ZM217.532 139.723C215.437 137.695 213.343 135.666 211.248 133.636L206.377 138.663C208.471 140.693 210.567 142.723 212.663 144.752L217.532 139.723ZM220.331 142.428L217.53 139.721L212.665 144.754L215.466 147.461L220.331 142.428ZM218.666 139.264C217.59 140.33 216.516 141.392 215.441 142.452L220.355 147.437C221.436 146.371 222.515 145.303 223.591 144.238L218.666 139.264ZM221.902 136.065C220.821 137.131 219.742 138.199 218.666 139.264L223.591 144.238C224.668 143.172 225.741 142.11 226.816 141.051L221.902 136.065ZM230.893 127.174C227.893 130.138 224.892 133.104 221.896 136.071L226.822 141.044C229.815 138.08 232.813 135.118 235.813 132.153L230.893 127.174ZM235.406 122.713C233.902 124.2 232.398 125.687 230.893 127.174L235.813 132.153C237.318 130.666 238.823 129.179 240.328 127.691L235.406 122.713ZM241.483 116.707C239.454 118.708 237.429 120.71 235.404 122.715L240.33 127.689C242.352 125.687 244.373 123.688 246.399 121.69L241.483 116.707ZM246.395 114.765C245.83 114.813 245.052 114.911 244.246 115.148C243.476 115.374 242.393 115.808 241.481 116.709L246.401 121.688C246.267 121.82 246.161 121.878 246.138 121.89C246.115 121.902 246.136 121.888 246.218 121.864C246.298 121.841 246.407 121.816 246.545 121.793C246.681 121.771 246.828 121.753 246.979 121.741L246.395 114.765ZM251.594 116.214C250.497 115.153 249.172 114.868 248.4 114.774C247.575 114.673 246.81 114.728 246.377 114.767L246.998 121.739C247.14 121.727 247.26 121.719 247.366 121.717C247.474 121.715 247.534 121.72 247.555 121.723C247.581 121.726 247.508 121.72 247.374 121.669C247.236 121.616 246.985 121.496 246.726 121.245L251.594 116.214ZM251.8 116.415C251.724 116.343 251.678 116.298 251.635 116.255L246.685 121.204C246.788 121.307 246.887 121.402 246.955 121.467L251.8 116.415ZM252.065 116.673C251.965 116.573 251.867 116.48 251.8 116.415L246.955 121.467C247.031 121.54 247.075 121.583 247.115 121.622L252.065 116.673ZM256.493 120.958C255.004 119.516 253.513 118.072 252.021 116.63L247.158 121.665C248.646 123.102 250.134 124.543 251.623 125.986L256.493 120.958ZM260.959 125.279C259.471 123.841 257.983 122.4 256.493 120.958L251.623 125.986C253.112 127.428 254.603 128.872 256.096 130.313L260.959 125.279ZM265.889 130.051C264.247 128.461 262.604 126.871 260.961 125.281L256.093 130.311C257.736 131.901 259.378 133.491 261.02 135.081L265.889 130.051ZM275.909 139.749C272.569 136.518 269.23 133.285 265.889 130.051L261.02 135.081C264.36 138.314 267.701 141.548 271.043 144.781L275.909 139.749ZM289.381 152.795C284.896 148.446 280.407 144.098 275.909 139.749L271.043 144.781C275.538 149.127 280.025 153.474 284.509 157.821L289.381 152.795ZM293.209 156.502C291.932 155.263 290.661 154.031 289.377 152.791L284.513 157.824C285.792 159.061 287.06 160.289 288.337 161.528L293.209 156.502ZM293.335 156.613C293.287 156.571 293.258 156.546 293.233 156.523C293.209 156.502 293.204 156.496 293.208 156.501L288.338 161.529C288.493 161.679 288.652 161.817 288.728 161.883L293.335 156.613ZM295.274 159.978C295.164 158.807 294.61 157.973 294.231 157.51C293.872 157.071 293.461 156.723 293.335 156.613L288.728 161.883C288.822 161.965 288.856 161.996 288.881 162.019C288.902 162.039 288.869 162.011 288.815 161.944C288.719 161.827 288.373 161.372 288.304 160.63L295.274 159.978ZM295.304 162.139C295.319 161.596 295.346 160.802 295.276 159.999L288.302 160.609C288.331 160.938 288.324 161.32 288.307 161.94L295.304 162.139ZM295.289 162.898C295.289 162.673 295.295 162.437 295.304 162.139L288.307 161.94C288.299 162.219 288.289 162.557 288.289 162.898H295.289ZM295.289 168.331V162.898H288.289V168.331H295.289ZM295.289 185.089V168.331H288.289V185.089H295.289ZM295.289 206.194V185.089H288.289V206.194H295.289ZM295.289 226.976V206.194H288.289V226.976H295.289ZM295.289 242.819V226.976H288.289V242.819H295.289ZM295.289 249.124V242.819H288.289V249.124H295.289ZM295.08 250.346C295.081 250.345 295.095 250.304 295.11 250.257C295.126 250.206 295.151 250.125 295.176 250.025C295.227 249.823 295.289 249.51 295.289 249.124H288.289C288.289 248.768 288.346 248.484 288.389 248.311C288.427 248.16 288.472 248.036 288.459 248.076L295.08 250.346ZM295.219 249.749C295.192 249.951 295.151 250.111 295.123 250.21C295.098 250.298 295.072 250.37 295.081 250.345L288.458 248.077C288.458 248.079 288.448 248.106 288.438 248.137C288.427 248.171 288.411 248.221 288.393 248.283C288.358 248.407 288.311 248.592 288.281 248.82L295.219 249.749ZM354.709 250.624C333.822 248.667 312.897 247.062 291.962 245.791L291.538 252.778C312.399 254.045 333.248 255.644 354.056 257.593L354.709 250.624ZM223.706 149.578C225.722 147.586 227.738 145.595 229.754 143.602L224.835 138.622C222.818 140.615 220.801 142.607 218.786 144.6L223.706 149.578ZM223.174 150.114C223.36 149.925 223.528 149.756 223.721 149.564L218.771 144.614C218.581 144.804 218.39 144.995 218.177 145.212L223.174 150.114ZM231.002 152.79C228.367 150.246 225.744 147.705 223.113 145.151L218.238 150.175C220.872 152.731 223.499 155.276 226.138 157.825L231.002 152.79ZM232.826 154.558C232.221 153.97 231.612 153.38 231.001 152.79L226.139 157.825C226.742 158.408 227.344 158.992 227.95 159.581L232.826 154.558ZM235.084 156.743C234.331 156.019 233.581 155.291 232.826 154.558L227.95 159.581C228.704 160.312 229.464 161.05 230.228 161.786L235.084 156.743ZM235.591 157.235C235.425 157.073 235.254 156.908 235.085 156.745L230.227 161.785C230.387 161.938 230.549 162.096 230.716 162.258L235.591 157.235ZM236.07 157.698C235.913 157.547 235.754 157.393 235.591 157.235L230.716 162.259C230.878 162.415 231.045 162.577 231.211 162.737L236.07 157.698ZM236.105 157.731C236.083 157.71 236.065 157.693 236.047 157.677L231.234 162.759C231.26 162.784 231.286 162.808 231.308 162.829L236.105 157.731ZM237.894 161.468C237.894 159.213 236.302 157.916 236.105 157.731L231.307 162.829C231.354 162.872 231.381 162.898 231.404 162.921C231.426 162.942 231.433 162.949 231.432 162.947C231.431 162.947 231.368 162.882 231.289 162.766C231.205 162.642 231.099 162.457 231.018 162.213C230.934 161.964 230.894 161.71 230.894 161.468H237.894ZM237.899 166.136C237.903 164.586 237.907 163.011 237.894 161.438L230.894 161.497C230.907 163.024 230.903 164.56 230.899 166.116L237.899 166.136ZM237.894 168.452C237.894 167.684 237.896 166.913 237.899 166.136L230.899 166.116C230.897 166.892 230.894 167.672 230.894 168.452H237.894ZM237.894 184.519V168.452H230.894V184.519H237.894ZM237.894 205.128V184.519H230.894V205.128H237.894ZM237.894 225.597V205.128H230.894V225.597H237.894ZM237.894 241.276V225.597H230.894V241.276H237.894ZM237.894 246.651V241.276H230.894V246.651H237.894ZM286.306 245.438C269.045 244.444 251.783 243.681 234.501 243.153L234.287 250.15C251.506 250.676 268.705 251.436 285.904 252.427L286.306 245.438ZM282.605 240.534V248.933H289.605V240.534H282.605ZM282.605 223.089V240.534H289.605V223.089H282.605ZM282.605 201.944V223.089H289.605V201.944H282.605ZM282.605 181.417V201.944H289.605V181.417H282.605ZM282.605 166.28V181.417H289.605V166.28H282.605ZM282.605 162.124V166.28H289.605V162.124H282.605ZM282.6 161.932C282.604 162.051 282.605 162.094 282.605 162.124H289.605C289.605 161.945 289.599 161.774 289.595 161.679L282.6 161.932ZM282.627 160.773C282.57 161.284 282.594 161.764 282.6 161.932L289.595 161.678C289.593 161.622 289.592 161.583 289.591 161.548C289.59 161.513 289.59 161.493 289.59 161.48C289.59 161.452 289.591 161.482 289.584 161.546L282.627 160.773ZM282.605 161.151V161.159H289.605V161.151H282.605ZM284.455 164.237C284.431 164.223 284.364 164.185 284.276 164.126C284.233 164.097 284.156 164.043 284.063 163.97C284.005 163.924 283.783 163.748 283.553 163.47C283.449 163.344 283.187 163.016 282.992 162.523C282.808 162.057 282.462 160.839 283.192 159.532C283.904 158.255 285.084 157.906 285.528 157.813C286.022 157.709 286.42 157.739 286.58 157.755C286.933 157.789 287.197 157.87 287.277 157.894C287.395 157.931 287.489 157.967 287.548 157.991C287.848 158.114 288.218 158.315 288.58 158.677L283.63 163.626C284.07 164.066 284.551 164.33 284.91 164.475C284.916 164.478 285.344 164.668 285.909 164.722C286.071 164.738 286.47 164.768 286.965 164.664C287.411 164.57 288.591 164.221 289.304 162.944C290.034 161.636 289.687 160.417 289.503 159.951C289.307 159.456 289.045 159.127 288.94 159C288.707 158.719 288.482 158.54 288.418 158.49C288.32 158.412 288.236 158.353 288.184 158.318C288.078 158.247 287.986 158.193 287.928 158.159L284.455 164.237ZM284.25 164.1C284.144 164.033 284.061 163.973 284.01 163.934C283.983 163.914 283.962 163.897 283.947 163.885C283.932 163.873 283.922 163.864 283.918 163.861C283.916 163.86 283.915 163.859 283.916 163.86C283.917 163.86 283.917 163.861 283.918 163.862C283.919 163.862 283.921 163.864 283.922 163.865C283.928 163.87 283.943 163.882 283.961 163.897C283.979 163.911 284.005 163.933 284.037 163.957C284.069 163.982 284.109 164.012 284.157 164.046L288.226 158.35C288.304 158.406 288.361 158.452 288.38 158.468C288.386 158.473 288.391 158.477 288.394 158.479C288.395 158.48 288.396 158.481 288.397 158.482C288.397 158.482 288.398 158.482 288.398 158.482C288.398 158.483 288.398 158.483 288.398 158.483C288.398 158.483 288.398 158.483 288.398 158.483C288.398 158.483 288.398 158.483 288.398 158.483C288.402 158.486 288.389 158.475 288.381 158.469C288.362 158.453 288.311 158.411 288.246 158.362C288.18 158.311 288.083 158.24 287.96 158.164L284.25 164.1ZM282.613 161.353C282.614 161.37 282.613 161.352 282.611 161.33C282.611 161.317 282.609 161.293 282.608 161.263C282.607 161.234 282.605 161.189 282.605 161.132H289.605C289.605 161.013 289.599 160.918 289.597 160.881C289.594 160.84 289.591 160.801 289.591 160.798L282.613 161.353ZM284.541 157.849C283.581 158.328 283.131 159.088 282.954 159.453C282.764 159.844 282.69 160.182 282.66 160.346C282.597 160.678 282.598 160.947 282.598 161.023C282.599 161.135 282.604 161.225 282.607 161.266C282.609 161.309 282.613 161.349 282.613 161.354L289.591 160.796C289.585 160.728 289.598 160.856 289.598 161.003C289.598 161.061 289.6 161.314 289.54 161.636C289.51 161.793 289.438 162.126 289.25 162.513C289.074 162.875 288.627 163.632 287.67 164.111L284.541 157.849ZM289.07 159.29C289.19 159.483 289.603 160.184 289.562 161.193C289.514 162.383 288.886 163.206 288.383 163.637L283.827 158.322C283.27 158.8 282.619 159.67 282.568 160.908C282.525 161.965 282.958 162.714 283.109 162.958L289.07 159.29ZM283.003 162.996C283.098 163.1 283.504 163.568 284.018 163.945L288.161 158.303C288.192 158.326 288.218 158.346 288.238 158.362C288.258 158.379 288.274 158.393 288.285 158.403C288.297 158.413 288.305 158.421 288.309 158.425C288.314 158.429 288.316 158.431 288.314 158.429C288.313 158.428 288.309 158.424 288.303 158.417C288.296 158.411 288.288 158.402 288.277 158.39C288.266 158.378 288.254 158.365 288.239 158.348C288.223 158.332 288.207 158.314 288.188 158.293L283.003 162.996ZM282.911 162.895C282.908 162.892 282.912 162.896 282.93 162.915C282.948 162.935 282.969 162.958 283.003 162.996L288.188 158.293C288.134 158.233 288.025 158.112 287.909 157.994L282.911 162.895ZM282.185 162.194C282.447 162.448 282.713 162.707 282.983 162.966L287.837 157.923C287.579 157.674 287.322 157.425 287.059 157.17L282.185 162.194ZM281.416 161.45C281.672 161.697 281.926 161.943 282.185 162.194L287.059 157.17C286.802 156.92 286.538 156.665 286.271 156.408L281.416 161.45ZM276.354 156.549C278.038 158.174 279.719 159.804 281.407 161.441L286.28 156.416C284.593 154.78 282.907 153.144 281.216 151.512L276.354 156.549ZM269.114 149.537C271.527 151.873 273.94 154.209 276.349 156.544L281.221 151.517C278.81 149.18 276.396 146.844 273.983 144.508L269.114 149.537ZM261.876 142.528C264.287 144.865 266.701 147.201 269.114 149.537L273.983 144.508C271.57 142.172 269.157 139.837 266.748 137.501L261.876 142.528ZM247.891 128.982C252.559 133.5 257.221 138.011 261.875 142.527L266.749 137.503C262.091 132.984 257.426 128.469 252.758 123.952L247.891 128.982ZM247.738 128.835L247.891 128.982L252.758 123.952L252.606 123.804L247.738 128.835ZM245.07 126.254C245.96 127.116 246.851 127.98 247.742 128.838L252.602 123.8C251.717 122.947 250.831 122.089 249.941 121.226L245.07 126.254ZM243.757 124.983C244.195 125.406 244.632 125.83 245.07 126.254L249.941 121.226C249.503 120.802 249.064 120.377 248.625 119.953L243.757 124.983ZM247.784 125.798C248.063 125.528 248.349 125.252 248.635 124.974L243.748 119.962C243.476 120.227 243.201 120.492 242.92 120.764L247.784 125.798ZM246.312 127.234C246.788 126.76 247.276 126.289 247.784 125.798L242.92 120.764C242.418 121.25 241.894 121.756 241.375 122.272L246.312 127.234ZM241.055 132.432C242.805 130.702 244.552 128.972 246.303 127.243L241.384 122.263C239.631 123.994 237.881 125.726 236.132 127.456L241.055 132.432ZM235.803 137.626C237.556 135.894 239.306 134.163 241.055 132.432L236.132 127.456C234.383 129.187 232.635 130.916 230.884 132.646L235.803 137.626ZM229.754 143.602C231.771 141.61 233.788 139.618 235.804 137.625L230.883 132.646C228.868 134.638 226.852 136.63 224.835 138.622L229.754 143.602ZM210.867 245.644V237.148H203.867V245.644H210.867ZM210.378 247.642C210.647 247.123 210.867 246.45 210.867 245.644H203.867C203.867 245.413 203.897 245.181 203.957 244.957C204.016 244.735 204.093 244.556 204.161 244.426L210.378 247.642ZM229.333 243.012C221.998 242.813 214.664 242.648 207.323 242.535L207.215 249.534C214.523 249.647 221.83 249.811 229.143 250.01L229.333 243.012ZM225.453 245.796C225.453 247.048 225.966 248.057 226.557 248.761L231.919 244.261C232.143 244.527 232.453 245.059 232.453 245.796H225.453ZM225.453 245.651V245.796H232.453V245.651H225.453ZM225.45 238.71C225.448 241.022 225.445 243.342 225.453 245.663L232.453 245.64C232.445 243.337 232.448 241.032 232.45 238.718L225.45 238.71ZM225.453 235.241C225.453 236.397 225.452 237.552 225.45 238.71L232.45 238.718C232.452 237.561 232.453 236.401 232.453 235.241H225.453ZM225.453 213.679V235.241H232.453V213.679H225.453ZM225.453 188.847V213.679H232.453V188.847H225.453ZM225.453 168.3V188.847H232.453V168.3H225.453ZM225.453 160.206V168.3H232.453V160.206H225.453ZM223.473 159.78C224.449 160.754 225.501 161.805 226.608 162.804L231.298 157.608C230.343 156.746 229.414 155.82 228.417 154.825L223.473 159.78ZM221.86 158.187C222.39 158.7 222.92 159.228 223.473 159.78L228.417 154.825C227.871 154.28 227.303 153.713 226.726 153.155L221.86 158.187ZM218.896 155.318C219.881 156.273 220.87 157.233 221.863 158.19L226.722 153.152C225.739 152.203 224.757 151.25 223.771 150.294L218.896 155.318ZM215.945 152.46C216.929 153.409 217.91 154.361 218.896 155.318L223.771 150.294C222.786 149.338 221.797 148.379 220.804 147.421L215.945 152.46ZM216.767 156.448C218.123 155.107 219.475 153.77 220.831 152.434L215.918 147.447C214.557 148.789 213.2 150.131 211.845 151.47L216.767 156.448ZM213.712 159.467C214.732 158.46 215.75 157.453 216.767 156.448L211.845 151.47C210.828 152.476 209.812 153.481 208.795 154.484L213.712 159.467ZM209.838 163.286C211.129 162.007 212.409 160.739 213.698 159.48L208.809 154.471C207.497 155.751 206.199 157.038 204.911 158.314L209.838 163.286ZM210.886 162.963C210.904 162.306 210.932 161.423 210.865 160.534L203.885 161.065C203.92 161.528 203.909 162.041 203.889 162.767L210.886 162.963ZM210.867 163.937C210.867 163.641 210.875 163.332 210.886 162.964L203.889 162.767C203.879 163.118 203.867 163.526 203.867 163.937H210.867ZM210.867 170.94V163.937H203.867V170.94H210.867ZM210.867 188V170.94H203.867V188H210.867ZM201.695 191.5H207.367V184.5H201.695V191.5ZM198.195 179.511V188H205.195V179.511H198.195ZM198.195 165.401V179.511H205.195V165.401H198.195ZM198.195 161.905V165.401H205.195V161.905H198.195ZM198.193 161.83C198.194 161.865 198.194 161.882 198.195 161.898C198.195 161.911 198.195 161.912 198.195 161.905H205.195C205.195 161.774 205.191 161.652 205.189 161.597L198.193 161.83ZM198.211 160.977C198.173 161.374 198.19 161.732 198.193 161.83L205.189 161.598C205.188 161.581 205.188 161.568 205.188 161.555C205.187 161.544 205.187 161.535 205.187 161.527C205.186 161.513 205.186 161.509 205.186 161.513C205.186 161.517 205.186 161.532 205.185 161.554C205.185 161.576 205.183 161.607 205.179 161.647L198.211 160.977ZM199.741 157.975C199.591 158.123 198.348 159.189 198.205 161.043L205.185 161.58C205.167 161.808 205.117 162.044 205.031 162.274C204.947 162.5 204.844 162.68 204.755 162.81C204.671 162.935 204.599 163.013 204.58 163.034C204.568 163.047 204.565 163.049 204.636 162.979L199.741 157.975ZM199.782 157.935C199.771 157.946 199.759 157.958 199.741 157.975L204.636 162.979C204.651 162.964 204.672 162.944 204.694 162.923L199.782 157.935ZM204.06 153.705C202.633 155.114 201.201 156.527 199.772 157.945L204.704 162.913C206.124 161.503 207.549 160.097 208.977 158.687L204.06 153.705ZM207.72 150.087C206.503 151.294 205.283 152.498 204.06 153.705L208.977 158.687C210.199 157.48 211.424 156.271 212.647 155.059L207.72 150.087ZM213.127 144.742C211.321 146.525 209.527 148.3 207.722 150.085L212.645 155.062C214.45 153.276 216.241 151.504 218.044 149.724L213.127 144.742ZM213.045 149.645L213.149 149.746L218.022 144.721L217.918 144.619L213.045 149.645ZM211.228 147.887C211.829 148.466 212.438 149.056 213.045 149.645L217.918 144.619C217.312 144.032 216.695 143.434 216.084 142.846L211.228 147.887ZM198.963 136.009L211.221 147.88L216.091 142.852L203.833 130.981L198.963 136.009ZM188.828 126.202L198.964 136.01L203.832 130.98L193.695 121.171L188.828 126.202ZM187.485 124.901C187.925 125.319 188.358 125.74 188.808 126.183L193.715 121.19C193.251 120.735 192.786 120.281 192.304 119.824L187.485 124.901ZM186.909 130.244C188.726 128.45 190.547 126.65 192.363 124.843L187.425 119.881C185.62 121.678 183.808 123.469 181.99 125.264L186.909 130.244ZM185.093 132.039C185.698 131.441 186.304 130.843 186.909 130.244L181.99 125.264C181.384 125.863 180.778 126.462 180.172 127.061L185.093 132.039ZM170.582 146.386L185.093 132.039L180.172 127.061L165.66 141.409L170.582 146.386ZM170.55 146.418L170.585 146.383L165.657 141.412L165.622 141.446L170.55 146.418ZM166.403 150.518C167.792 149.153 169.18 147.776 170.55 146.417L165.622 141.447C164.249 142.807 162.872 144.173 161.495 145.527L166.403 150.518ZM172.593 151.526C170.523 149.523 168.453 147.521 166.389 145.513L161.509 150.532C163.58 152.546 165.656 154.555 167.725 156.557L172.593 151.526ZM174.067 152.953C173.576 152.477 173.084 152.002 172.593 151.526L167.725 156.557C168.216 157.032 168.708 157.508 169.198 157.983L174.067 152.953ZM176.115 154.936C175.431 154.276 174.752 153.618 174.071 152.957L169.194 157.978C169.881 158.646 170.566 159.308 171.248 159.968L176.115 154.936ZM178.169 156.926C177.482 156.259 176.797 155.596 176.115 154.936L171.248 159.968C171.931 160.629 172.611 161.286 173.292 161.947L178.169 156.926ZM178.402 157.135C178.331 157.073 178.285 157.032 178.243 156.995C178.224 156.978 178.21 156.966 178.2 156.956C178.19 156.947 178.186 156.942 178.186 156.943L173.275 161.931C173.472 162.124 173.683 162.307 173.796 162.406L178.402 157.135ZM180.671 161.207C180.635 159.801 179.96 158.792 179.53 158.261C179.102 157.734 178.599 157.307 178.402 157.135L173.796 162.406C173.926 162.52 173.999 162.585 174.061 162.643C174.12 162.699 174.121 162.706 174.095 162.674C174.076 162.649 173.693 162.189 173.673 161.385L180.671 161.207ZM180.688 166.021C180.704 164.47 180.722 162.834 180.67 161.185L173.673 161.407C173.72 162.883 173.705 164.371 173.688 165.947L180.688 166.021ZM180.672 168.331C180.672 167.57 180.68 166.806 180.688 166.021L173.688 165.947C173.68 166.726 173.672 167.527 173.672 168.331H180.672ZM180.672 184.448V168.331H173.672V184.448H180.672ZM180.672 188V184.448H173.672V188H180.672ZM171.613 191.5H177.172V184.5H171.613V191.5ZM168.113 168.444V188H175.113V168.444H168.113ZM168.113 160.292V168.444H175.113V160.292H168.113ZM168.108 161.776C168.387 162.068 168.871 162.583 169.434 163.031L173.792 157.553C173.669 157.455 173.515 157.303 173.17 156.941L168.108 161.776ZM167.694 161.352C167.803 161.457 167.923 161.582 168.108 161.776L173.17 156.941C173.005 156.768 172.779 156.531 172.54 156.302L167.694 161.352ZM165.924 159.638C166.511 160.206 167.094 160.77 167.676 161.335L172.558 156.319C171.967 155.743 171.375 155.171 170.789 154.605L165.924 159.638ZM164.172 157.941C164.757 158.51 165.342 159.076 165.924 159.638L170.789 154.605C170.206 154.041 169.629 153.484 169.054 152.924L164.172 157.941ZM161.587 155.437C162.452 156.274 163.315 157.109 164.176 157.945L169.05 152.921C168.186 152.082 167.32 151.244 166.456 150.408L161.587 155.437ZM159.039 152.968C159.887 153.791 160.738 154.614 161.587 155.437L166.456 150.408C165.606 149.585 164.758 148.764 163.914 147.944L159.039 152.968ZM160.62 156.223C161.725 155.129 162.829 154.038 163.934 152.949L159.019 147.964C157.909 149.058 156.801 150.154 155.696 151.247L160.62 156.223ZM157.297 159.507C158.407 158.413 159.515 157.317 160.62 156.223L155.696 151.247C154.591 152.342 153.487 153.433 152.382 154.522L157.297 159.507ZM155.029 161.752C155.785 161.005 156.547 160.253 157.307 159.497L152.372 154.533C151.621 155.279 150.869 156.022 150.11 156.771L155.029 161.752ZM153.323 163.438C153.89 162.876 154.458 162.315 155.029 161.752L150.11 156.771C149.541 157.333 148.968 157.898 148.395 158.466L153.323 163.438ZM152.952 163.806C153.087 163.67 153.187 163.569 153.284 163.476L148.435 158.428C148.267 158.589 148.108 158.749 147.984 158.874L152.952 163.806ZM152.37 164.377C152.591 164.17 152.799 163.96 152.952 163.806L147.984 158.874C147.814 159.045 147.699 159.161 147.591 159.262L152.37 164.377ZM153.48 161.839V161.819H146.48V161.839H153.48ZM153.481 162.712C153.487 162.647 153.513 162.389 153.515 162.114C153.516 161.896 153.514 161.264 153.239 160.561L146.722 163.117C146.598 162.801 146.554 162.539 146.535 162.392C146.516 162.238 146.515 162.123 146.515 162.071C146.516 161.988 146.523 161.936 146.511 162.063L153.481 162.712ZM153.48 162.62C153.48 162.669 153.479 162.707 153.478 162.729C153.477 162.751 153.476 162.765 153.476 162.769C153.475 162.772 153.475 162.77 153.476 162.759C153.477 162.748 153.479 162.735 153.481 162.712L146.511 162.063C146.508 162.094 146.48 162.357 146.48 162.62H153.48ZM153.48 164.202V162.62H146.48V164.202H153.48ZM153.48 169.351V164.202H146.48V169.351H153.48ZM153.48 185.71V169.351H146.48V185.71H153.48ZM153.48 206.511V185.71H146.48V206.511H153.48ZM153.48 226.929V206.511H146.48V226.929H153.48ZM153.48 242.546V226.929H146.48V242.546H153.48ZM153.48 245.976V242.546H146.48V245.976H153.48ZM171.604 242.296C164.385 242.316 157.156 242.37 149.929 242.476L150.031 249.475C157.226 249.37 164.427 249.315 171.623 249.296L171.604 242.296ZM168.101 238.83C168.089 241.141 168.076 243.496 168.114 245.851L175.113 245.741C175.077 243.471 175.089 241.19 175.101 238.867L168.101 238.83ZM168.113 235.374C168.113 236.521 168.107 237.67 168.101 238.83L175.101 238.867C175.107 237.71 175.113 236.542 175.113 235.374H168.113ZM168.113 214V235.374H175.113V214H168.113ZM177.172 210.5H171.613V217.5H177.172V210.5ZM180.672 225.472V214H173.672V225.472H180.672ZM180.672 241.124V225.472H173.672V241.124H180.672ZM180.672 245.796V241.124H173.672V245.796H180.672ZM201.74 242.449C193.552 242.343 185.357 242.296 177.172 242.296V249.296C185.33 249.296 193.495 249.343 201.65 249.448L201.74 242.449ZM198.195 237.128V245.948H205.195V237.128H198.195ZM198.195 220.026V237.128H205.195V220.026H198.195ZM198.195 214V220.026H205.195V214H198.195ZM207.367 210.5H201.695V217.5H207.367V210.5ZM210.867 216.757V214H203.867V216.757H210.867ZM210.867 237.148V216.757H203.867V237.148H210.867ZM96.2498 246.167V230.276H89.2498V246.167H96.2498ZM96.2498 247.722V246.167H89.2498V247.722H96.2498ZM144.459 242.601C127.168 242.899 109.874 243.443 92.5914 244.225L92.9081 251.218C110.126 250.438 127.355 249.896 144.58 249.6L144.459 242.601ZM141.019 237.761V246.101H148.019V237.761H141.019ZM141.019 220.503V237.761H148.019V220.503H141.019ZM141.019 199.53V220.503H148.019V199.53H141.019ZM141.019 179.425V199.53H148.019V179.425H141.019ZM141.019 164.773V179.425H148.019V164.773H141.019ZM141.019 160.933V164.773H148.019V160.933H141.019ZM141.016 160.774C141.018 160.857 141.019 160.896 141.019 160.933H148.019C148.019 160.791 148.016 160.665 148.014 160.592L141.016 160.774ZM142.303 157.228C141.779 157.777 141.346 158.468 141.14 159.328C140.975 160.022 141.014 160.676 141.016 160.774L148.014 160.591C148.011 160.463 148.012 160.481 148.011 160.518C148.009 160.576 148 160.74 147.949 160.956C147.893 161.186 147.804 161.417 147.68 161.634C147.562 161.841 147.442 161.982 147.369 162.059L142.303 157.228ZM147.451 152.11C145.754 153.758 144.005 155.456 142.311 157.219L147.36 162.068C148.955 160.407 150.616 158.794 152.328 157.132L147.451 152.11ZM149.939 149.681C149.12 150.489 148.292 151.293 147.451 152.11L152.328 157.132C153.165 156.319 154.014 155.494 154.858 154.661L149.939 149.681ZM155.186 144.495C153.438 146.224 151.685 147.957 149.94 149.68L154.857 154.662C156.605 152.937 158.361 151.2 160.108 149.472L155.186 144.495ZM155.3 144.382L155.186 144.495L160.108 149.472L160.223 149.359L155.3 144.382ZM154.393 148.477C154.71 148.783 155.01 149.072 155.304 149.362L160.219 144.378C159.892 144.056 159.564 143.739 159.252 143.438L154.393 148.477ZM153.586 147.695C153.859 147.962 154.132 148.225 154.393 148.477L159.252 143.438C158.988 143.183 158.734 142.939 158.484 142.694L153.586 147.695ZM141.315 135.81L153.6 147.709L158.47 142.68L146.185 130.782L141.315 135.81ZM131.192 126.008C134.565 129.279 137.945 132.55 141.316 135.811L146.184 130.781C142.812 127.519 139.435 124.251 136.065 120.983L131.192 126.008ZM130.635 125.466C130.823 125.648 131.002 125.822 131.18 125.996L136.077 120.994C135.884 120.805 135.691 120.618 135.505 120.438L130.635 125.466ZM130.063 124.91C130.256 125.1 130.45 125.287 130.635 125.466L135.505 120.438C135.318 120.256 135.138 120.082 134.96 119.908L130.063 124.91ZM130.496 129.322C131.988 127.851 133.484 126.375 134.977 124.894L130.046 119.925C128.562 121.397 127.073 122.866 125.58 124.339L130.496 129.322ZM127.516 132.265C128.507 131.284 129.501 130.304 130.496 129.322L125.58 124.339C124.585 125.32 123.589 126.303 122.593 127.288L127.516 132.265ZM118.951 140.733C121.806 137.912 124.662 135.09 127.517 132.264L122.592 127.289C119.74 130.112 116.886 132.932 114.031 135.753L118.951 140.733ZM112.508 147.101C114.655 144.977 116.803 142.855 118.951 140.733L114.031 135.753C111.883 137.875 109.734 139.999 107.585 142.124L112.508 147.101ZM105.146 154.371C107.598 151.947 110.049 149.525 112.504 147.105L107.589 142.12C105.131 144.543 102.677 146.969 100.225 149.392L105.146 154.371ZM99.2355 160.209C101.206 158.264 103.176 156.317 105.146 154.371L100.225 149.392C98.2555 151.339 96.2875 153.284 94.3188 155.227L99.2355 160.209ZM97.4466 161.978C98.0426 161.39 98.6434 160.797 99.2439 160.201L94.3104 155.235C93.7195 155.822 93.1269 156.407 92.5296 156.996L97.4466 161.978ZM95.6657 163.74C96.2567 163.153 96.8492 162.568 97.4466 161.978L92.5296 156.996C91.9336 157.584 91.3328 158.177 90.7323 158.774L95.6657 163.74ZM95.7261 163.678C95.7435 163.657 95.7524 163.647 95.7597 163.638C95.7668 163.63 95.7647 163.632 95.7571 163.641C95.7503 163.649 95.7283 163.674 95.6953 163.708C95.6653 163.74 95.6013 163.805 95.5111 163.885L90.8869 158.629C90.6892 158.803 90.5429 158.97 90.4952 159.024C90.4322 159.096 90.3711 159.17 90.3471 159.199L95.7261 163.678ZM95.0354 164.399C95.3991 164.087 95.6969 163.713 95.7263 163.678L90.347 159.199C90.324 159.226 90.3118 159.241 90.301 159.254C90.291 159.266 90.2897 159.267 90.2941 159.262C90.2983 159.257 90.3147 159.239 90.3412 159.212C90.3667 159.187 90.4137 159.141 90.4798 159.084L95.0354 164.399ZM96.2465 162.068C96.2474 162.053 96.2576 161.904 96.2576 161.741H89.2576C89.2576 161.713 89.2581 161.689 89.2585 161.673C89.259 161.657 89.2595 161.645 89.2598 161.639C89.2601 161.632 89.2603 161.628 89.2602 161.63C89.2601 161.632 89.2599 161.635 89.2593 161.644L96.2465 162.068ZM96.2498 161.925C96.2498 161.969 96.2489 162.004 96.2482 162.023C96.2476 162.044 96.2468 162.06 96.2465 162.067C96.2459 162.079 96.2454 162.086 96.2466 162.067L89.2593 161.645C89.2588 161.654 89.2567 161.687 89.255 161.721C89.2536 161.751 89.2498 161.829 89.2498 161.925H96.2498ZM96.2498 170.655V161.925H89.2498V170.655H96.2498ZM96.2498 187.948V170.655H89.2498V187.948H96.2498ZM96.2498 209.351V187.948H89.2498V209.351H96.2498ZM96.2498 230.276V209.351H89.2498V230.276H96.2498Z" fill="#FF7F50"/>
<rect x="168" y="206" width="42.9" height="14" rx="2" fill="#FF7F50"/>
<path d="M168 182C168 180.895 168.895 180 170 180H208.9C210.005 180 210.9 180.895 210.9 182V192C210.9 193.105 210.005 194 208.9 194H170C168.895 194 168 193.105 168 192V182Z" fill="#FF7F50"/>
<path d="M285.129 151.512C285.117 151.512 285.117 151.504 285.109 151.504C285.117 151.512 285.117 151.523 285.129 151.531C285.129 151.523 285.129 151.512 285.129 151.512Z" fill="#FD6B35"/>
</g>
<defs>
<filter id="filter0_d_2_3" x="-42" y="-38" width="458" height="458" filterUnits="userSpaceOnUse" color-interpolation-filters="sRGB">
<feFlood flood-opacity="0" result="BackgroundImageFix"/>
<feColorMatrix in="SourceAlpha" type="matrix" values="0 0 0 0 0 0 0 0 0 0 0 0 0 0 0 0 0 0 127 0" result="hardAlpha"/>
<feOffset dy="4"/>
<feGaussianBlur stdDeviation="2"/>
<feComposite in2="hardAlpha" operator="out"/>
<feColorMatrix type="matrix" values="0 0 0 0 0 0 0 0 0 0 0 0 0 0 0 0 0 0 0.25 0"/>
<feBlend mode="normal" in2="BackgroundImageFix" result="effect1_dropShadow_2_3"/>
<feBlend mode="normal" in="SourceGraphic" in2="effect1_dropShadow_2_3" result="shape"/>
</filter>
<clipPath id="clip0_2_3">
<rect width="375" height="375" fill="white"/>
</clipPath>
</defs>
</svg>
