<svg width="375" height="148" viewBox="0 0 375 148" fill="none" xmlns="http://www.w3.org/2000/svg">
<path fill-rule="evenodd" clip-rule="evenodd" d="M354.383 140.108C359.797 140.624 365.199 141.53 370.527 142.585C370.965 142.671 379.187 144.542 374.625 144.065C348.847 141.644 323.015 139.737 297.152 138.374C228.894 134.78 160.453 135.019 92.2264 138.956C91.8826 139.058 91.4021 139.089 90.8709 139.042C68.5584 140.339 46.2771 142.034 24.0232 144.12C20.5061 144.447 16.5312 143.596 12.8525 142.809C11.6896 142.56 10.5563 142.317 9.47636 142.12C8.92203 142.018 8.31011 141.925 7.6726 141.828C5.91561 141.561 3.96419 141.264 2.48807 140.671C2.64042 140.737 0.0544798 140.136 1.3787 140.015C27.156 137.593 52.9881 135.687 78.8514 134.323C80.8489 134.22 82.8444 134.126 84.8407 134.032C85.6279 133.995 86.4153 133.959 87.2029 133.921V127.601V110.077V88.5538V67.7217V52.0811V47.6202C87.2029 47.5 87.1936 47.3646 87.1837 47.2224C87.1514 46.7545 87.1139 46.2114 87.3865 45.8819C87.7623 45.4237 88.2144 45.0063 88.6624 44.5927C88.8943 44.3785 89.125 44.1655 89.3435 43.9483C90.3045 42.9921 91.2696 42.04 92.2348 41.088C92.8782 40.4533 93.5217 39.8186 94.1639 39.1827C96.5701 36.8077 98.9734 34.4317 101.377 32.0557C103.78 29.6797 106.183 27.3038 108.59 24.9288C111.309 22.2367 114.03 19.5472 116.751 16.858C118.788 14.8453 120.824 12.8327 122.859 10.8194C123.297 10.3859 123.736 9.95184 124.175 9.51752C125.888 7.82303 127.605 6.12414 129.324 4.43268C129.887 3.8819 131.164 4.08893 131.836 4.22565C132.797 4.41315 133.754 4.76862 134.469 5.45221C134.545 5.53065 134.625 5.6078 134.704 5.6844C134.763 5.74132 134.822 5.79794 134.879 5.85455C136.326 7.25498 137.772 8.65637 139.219 10.0578C140.665 11.4591 142.111 12.8604 143.558 14.2608C146.769 17.3738 149.98 20.4833 153.192 23.594C154.849 25.1986 156.506 26.8035 158.164 28.4092L160.226 30.4131C161.304 29.3487 162.381 28.2833 163.457 27.2178C164.533 26.1524 165.609 25.087 166.687 24.0225C170.511 20.2538 174.327 16.4796 178.142 12.7068C178.91 11.9474 179.677 11.188 180.445 10.4288C182.504 8.40108 184.566 6.36181 186.625 4.32631L186.66 4.29205C187.129 3.8233 188.265 4.03424 188.808 4.13971C189.656 4.31158 190.738 4.64362 191.375 5.26471C191.42 5.30899 191.466 5.35326 191.512 5.39754C191.604 5.48607 191.696 5.57461 191.785 5.66315C193.027 6.86706 194.271 8.07025 195.515 9.27335C197.169 10.873 198.823 12.4725 200.472 14.0733C203.254 16.7637 206.033 19.4566 208.812 22.1492C210.907 24.1792 213.002 26.209 215.097 28.2374L217.898 30.9444C218.976 29.8819 220.053 28.8165 221.129 27.751C222.205 26.6856 223.281 25.6202 224.359 24.5577C227.354 21.5919 230.353 18.6279 233.353 15.6634C234.858 14.1766 236.363 12.6896 237.867 11.2022C239.89 9.1983 241.914 7.1983 243.941 5.1983C244.609 4.53815 245.801 4.32721 246.687 4.25299C247.433 4.18658 248.558 4.14752 249.16 4.72955C249.233 4.80231 249.305 4.8721 249.378 4.94141C249.449 5.00978 249.52 5.07769 249.59 5.14752C251.08 6.58699 252.569 8.02939 254.058 9.47179C255.548 10.9142 257.037 12.3565 258.527 13.796C260.17 15.386 261.812 16.9761 263.455 18.566C266.795 21.7999 270.135 25.0332 273.476 28.2647C277.972 32.6124 282.461 36.96 286.945 41.3077C288.226 42.546 289.496 43.7764 290.773 45.0147C290.852 45.0912 290.941 45.1685 291.031 45.248C291.373 45.5462 291.749 45.8751 291.789 46.3038C291.838 46.8703 291.822 47.4578 291.805 48.0394C291.797 48.328 291.789 48.6151 291.789 48.8975V54.3311V71.0889V92.1944V112.976V128.819V135.124C291.789 135.154 291.779 135.182 291.769 135.211C291.761 135.234 291.753 135.258 291.75 135.284C312.648 136.554 333.535 138.155 354.383 140.108ZM227.295 27.1124C225.278 29.1046 223.262 31.0967 221.246 33.0889C221.054 33.2803 220.875 33.46 220.676 33.6631C223.308 36.2178 225.933 38.7608 228.57 41.3077C229.177 41.8937 229.782 42.4813 230.388 43.0691C231.143 43.8016 231.897 44.5343 232.656 45.2647C232.82 45.4232 232.987 45.5847 233.154 45.7466C233.316 45.904 233.479 46.0619 233.64 46.2178C233.662 46.2386 233.684 46.2593 233.706 46.28C234.055 46.6086 234.394 46.9276 234.394 47.4678C234.407 49.0177 234.403 50.5729 234.399 52.1263C234.396 52.9023 234.394 53.6779 234.394 54.4522V70.5186V91.128V111.597V127.276V132.651C251.644 133.179 268.875 133.94 286.105 134.933V126.534V109.089V87.9444V67.4171V52.2803V48.1241C286.105 48.0192 286.101 47.9126 286.098 47.8054C286.09 47.5892 286.082 47.3708 286.105 47.1592V47.1514C286.183 47.2296 286.328 47.2764 286.191 47.1983C286.164 47.1788 286.137 47.1514 286.105 47.1319C286.105 47.1167 286.104 47.0961 286.102 47.075C286.098 47.0311 286.095 46.9848 286.105 46.9796C286.051 47.0264 286.058 47.0733 286.09 47.1241C285.914 46.9951 285.748 46.8121 285.596 46.6442C285.531 46.5731 285.469 46.5048 285.41 46.4444C285.146 46.1905 284.884 45.9366 284.622 45.6821C284.364 45.4317 284.105 45.1807 283.844 44.9288C282.156 43.2921 280.472 41.6592 278.785 40.0303C276.375 37.6944 273.962 35.3585 271.549 33.0225C269.136 30.6866 266.722 28.3506 264.312 26.0147C259.656 21.4976 254.992 16.9843 250.325 12.4673L250.172 12.3194C249.284 11.4634 248.395 10.6022 247.505 9.7404C247.067 9.31616 246.629 8.89178 246.191 8.46783C245.912 8.73961 245.632 9.01039 245.352 9.28124C244.847 9.76952 244.341 10.258 243.844 10.753C242.092 12.4834 240.343 14.2138 238.594 15.9442C236.845 17.6747 235.096 19.4053 233.344 21.1358C231.328 23.128 229.311 25.1202 227.295 27.1124ZM207.367 123.148V131.644C207.367 131.796 207.328 131.921 207.269 132.034C214.594 132.148 221.914 132.312 229.238 132.511C229.054 132.292 228.953 132.054 228.953 131.796V131.651C228.945 129.339 228.948 127.027 228.95 124.714C228.952 123.557 228.953 122.399 228.953 121.241V99.6788V74.8467V54.2999V46.2061C227.922 45.2756 226.932 44.2872 225.945 43.3028C225.395 42.754 224.846 42.2065 224.293 41.671C223.304 40.7178 222.319 39.7617 221.334 38.8056C220.348 37.8496 219.363 36.8936 218.375 35.9405C217.016 37.2792 215.661 38.6191 214.306 39.9589C213.289 40.9648 212.272 41.9706 211.254 42.9756C209.953 44.2452 208.664 45.5225 207.375 46.7999C207.426 47.4756 207.407 48.1733 207.387 48.8652C207.377 49.2252 207.367 49.5837 207.367 49.9366V56.9405V74H201.695V65.5108V51.4014V47.9053C201.695 47.8422 201.693 47.7783 201.691 47.7136C201.686 47.5822 201.682 47.4478 201.695 47.3116C201.724 46.9313 201.949 46.7119 202.189 46.4772C202.205 46.4611 202.222 46.445 202.238 46.4288C203.663 45.0147 205.091 43.6052 206.518 42.1959C207.741 40.9891 208.963 39.7824 210.183 38.5733C211.988 36.7881 213.781 35.0147 215.586 33.2335L215.481 33.1322C214.875 32.5441 214.262 31.9499 213.656 31.3663L201.398 19.4952L191.262 9.68658C190.804 9.23737 190.355 8.79986 189.894 8.36236C188.084 10.164 186.267 11.9591 184.45 13.7542C183.844 14.3527 183.238 14.9512 182.633 15.5499L168.121 29.8975L168.086 29.9321C166.715 31.2919 165.332 32.6629 163.949 34.0225C166.017 36.0332 168.089 38.0388 170.159 40.0414C170.65 40.517 171.142 40.9925 171.633 41.4678C172.316 42.1319 172.999 42.7921 173.681 43.4522C174.364 44.1124 175.047 44.7725 175.73 45.4366C175.838 45.543 175.965 45.6541 176.099 45.7705C176.587 46.1968 177.156 46.6946 177.172 47.296C177.221 48.8582 177.205 50.4204 177.188 51.9837C177.18 52.7659 177.172 53.5483 177.172 54.3311V70.4483V74H171.613V54.4444V46.2921C171.27 46.0192 170.951 45.6853 170.639 45.3584C170.464 45.1752 170.291 44.9941 170.117 44.8272C169.531 44.2564 168.943 43.6886 168.356 43.1213C167.774 42.5588 167.193 41.9967 166.613 41.4327C165.75 40.5957 164.886 39.7587 164.022 38.9223C163.172 38.0996 162.323 37.2774 161.476 36.4561C160.369 37.5479 159.263 38.6417 158.158 39.7354C157.053 40.8292 155.947 41.9229 154.84 43.0147C154.084 43.7659 153.327 44.5133 152.57 45.2613C152 45.824 151.429 46.387 150.859 46.9522C150.727 47.079 150.598 47.2096 150.468 47.34C150.306 47.5029 150.145 47.6654 149.98 47.8194V47.8389C150.034 47.9762 150.014 48.1952 149.996 48.3871C149.988 48.4736 149.98 48.5546 149.98 48.6202V50.2022V55.3506V71.71V92.5108V112.929V128.546V131.976C157.191 131.87 164.406 131.815 171.613 131.796C171.577 129.483 171.589 127.165 171.601 124.848C171.607 123.69 171.613 122.531 171.613 121.374V100H177.172V111.472V127.124V131.796C185.344 131.796 193.523 131.843 201.695 131.948V123.128V106.026V100H207.367V102.757V123.148ZM92.7498 116.276V132.167V133.722C110 132.94 127.262 132.398 144.519 132.101V123.761V106.503V85.5303V65.4249V50.7725V46.9327C144.519 46.8434 144.517 46.7606 144.515 46.6829C144.504 46.2705 144.497 45.9985 144.836 45.6436C146.48 43.9316 148.185 42.2757 149.889 40.6207C150.728 39.8061 151.567 38.9917 152.398 38.171C154.145 36.447 155.9 34.7117 157.647 32.9836L157.762 32.8702C157.451 32.5639 157.137 32.261 156.823 31.9579C156.56 31.7043 156.296 31.4506 156.035 31.1944L143.75 19.296C140.379 16.0342 137 12.7647 133.629 9.49518C133.443 9.31355 133.257 9.1329 133.07 8.95224C132.884 8.77157 132.697 8.59089 132.512 8.40924C131.023 9.8859 129.531 11.3583 128.038 12.8308C127.043 13.8123 126.048 14.7937 125.054 15.7764C122.201 18.601 119.346 21.4217 116.491 24.2429C114.343 26.3651 112.195 28.4877 110.047 30.6124C107.59 33.0341 105.137 35.4583 102.686 37.8815C100.716 39.8281 98.7469 41.7741 96.7771 43.7178C96.1814 44.3096 95.5848 44.8985 94.9881 45.4874C94.3914 46.0762 93.7947 46.6651 93.199 47.2569C93.1573 47.2936 93.1006 47.3616 93.0366 47.4385C92.9507 47.5417 92.8516 47.6607 92.7576 47.7413C92.7576 47.7789 92.7551 47.8202 92.7529 47.8561C92.7513 47.8836 92.7498 47.9079 92.7498 47.9249V56.6553V73.9483V95.3506V116.276Z" fill="#FF7F50"/>
<path d="M370.527 142.585L369.848 146.018L369.853 146.019L370.527 142.585ZM354.383 140.108L354.714 136.624L354.709 136.624L354.383 140.108ZM374.625 144.065L374.988 140.584L374.97 140.583L374.952 140.581L374.625 144.065ZM297.152 138.374L297.336 134.879L297.336 134.879L297.152 138.374ZM92.2264 138.956L92.0247 135.462L91.6217 135.485L91.2346 135.6L92.2264 138.956ZM90.8709 139.042L91.1785 135.556L90.9234 135.533L90.6678 135.548L90.8709 139.042ZM24.0232 144.12L24.3467 147.605L24.3499 147.605L24.0232 144.12ZM12.8525 142.809L12.12 146.231L12.12 146.231L12.8525 142.809ZM9.47636 142.12L8.84348 145.562L8.84817 145.563L9.47636 142.12ZM7.6726 141.828L8.19883 138.368L8.19881 138.368L7.6726 141.828ZM2.48807 140.671L3.79337 137.423L1.08953 143.879L2.48807 140.671ZM1.3787 140.015L1.69743 143.5L1.70609 143.499L1.3787 140.015ZM78.8514 134.323L78.67 130.828L78.6671 130.828L78.8514 134.323ZM84.8407 134.032L85.0047 137.529L85.0047 137.529L84.8407 134.032ZM87.2029 133.921L87.3697 137.417L90.7029 137.258V133.921H87.2029ZM87.1837 47.2224L83.6921 47.4635L83.6921 47.4636L87.1837 47.2224ZM87.3865 45.8819L90.0833 48.1129L90.088 48.1072L90.0927 48.1015L87.3865 45.8819ZM88.6624 44.5927L91.0367 47.1641L91.0367 47.1641L88.6624 44.5927ZM89.3435 43.9483L91.8108 46.4307L91.8124 46.4292L89.3435 43.9483ZM92.2348 41.088L94.6927 43.5798L94.6927 43.5798L92.2348 41.088ZM94.1639 39.1827L91.7052 36.6917L91.7011 36.6957L94.1639 39.1827ZM108.59 24.9288L111.048 27.4198L111.052 27.4159L108.59 24.9288ZM116.751 16.858L114.291 14.3686L114.291 14.3686L116.751 16.858ZM122.859 10.8194L120.398 8.33099L120.398 8.33127L122.859 10.8194ZM124.175 9.51752L121.713 7.02958L121.713 7.02959L124.175 9.51752ZM129.324 4.43268L126.875 1.93188L126.87 1.93758L129.324 4.43268ZM131.836 4.22565L131.138 7.65536L131.152 7.65817L131.165 7.66086L131.836 4.22565ZM134.469 5.45221L136.979 3.01335L136.934 2.96716L136.888 2.92266L134.469 5.45221ZM134.704 5.6844L132.275 8.20451L132.276 8.20466L134.704 5.6844ZM134.879 5.85455L132.404 8.32927L132.424 8.34972L132.445 8.36982L134.879 5.85455ZM139.219 10.0578L136.783 12.5714L136.783 12.5714L139.219 10.0578ZM143.558 14.2608L145.995 11.7479L145.992 11.7455L143.558 14.2608ZM153.192 23.594L150.757 26.1082L150.757 26.1082L153.192 23.594ZM158.164 28.4092L160.603 25.899L160.599 25.8954L158.164 28.4092ZM160.226 30.4131L157.787 32.9234L160.246 35.3122L162.685 32.9038L160.226 30.4131ZM166.687 24.0225L164.23 21.5297L164.228 21.5319L166.687 24.0225ZM178.142 12.7068L175.681 10.2183L175.681 10.2183L178.142 12.7068ZM180.445 10.4288L177.989 7.93514L177.984 7.94015L180.445 10.4288ZM186.625 4.32631L184.165 1.83727L184.165 1.8374L186.625 4.32631ZM186.66 4.29205L189.121 6.78109L189.128 6.77403L189.135 6.76693L186.66 4.29205ZM188.808 4.13971L189.504 0.709512L189.49 0.706661L189.476 0.703926L188.808 4.13971ZM191.375 5.26471L188.931 7.77014L188.936 7.77516L191.375 5.26471ZM191.512 5.39754L193.939 2.8755L193.939 2.87533L191.512 5.39754ZM191.785 5.66315L189.31 8.13795L189.33 8.15749L189.349 8.17672L191.785 5.66315ZM195.515 9.27335L193.082 11.789L193.082 11.7891L195.515 9.27335ZM200.472 14.0733L198.035 16.5852L198.039 16.5891L200.472 14.0733ZM208.812 22.1492L206.377 24.6628L206.377 24.6628L208.812 22.1492ZM215.097 28.2374L212.663 30.7522L212.665 30.754L215.097 28.2374ZM217.898 30.9444L215.466 33.461L217.922 35.835L220.355 33.4373L217.898 30.9444ZM224.359 24.5577L226.816 27.0506L226.822 27.0444L224.359 24.5577ZM233.353 15.6634L235.813 18.1529L235.813 18.1529L233.353 15.6634ZM237.867 11.2022L240.328 13.6911L240.33 13.6891L237.867 11.2022ZM243.941 5.1983L246.399 7.68992L246.401 7.68769L243.941 5.1983ZM246.687 4.25299L246.979 7.74079L246.988 7.74003L246.998 7.73921L246.687 4.25299ZM249.16 4.72955L251.635 2.25478L251.614 2.23431L251.594 2.21418L249.16 4.72955ZM249.378 4.94141L246.955 7.46737L246.955 7.46746L249.378 4.94141ZM249.59 5.14752L247.115 7.62226L247.136 7.64378L247.158 7.66491L249.59 5.14752ZM254.058 9.47179L256.493 6.95766L256.493 6.95765L254.058 9.47179ZM258.527 13.796L260.961 11.281L260.959 11.2786L258.527 13.796ZM263.455 18.566L265.889 16.0514L265.889 16.0514L263.455 18.566ZM273.476 28.2647L271.043 30.7806L271.043 30.7808L273.476 28.2647ZM286.945 41.3077L284.509 43.8206L284.513 43.8244L286.945 41.3077ZM290.773 45.0147L288.337 47.5277L288.338 47.5286L290.773 45.0147ZM291.031 45.248L288.728 47.8828L288.728 47.8828L291.031 45.248ZM291.789 46.3038L295.276 45.9986L295.275 45.9882L295.274 45.9778L291.789 46.3038ZM291.805 48.0394L295.304 48.1389L295.304 48.1387L291.805 48.0394ZM291.769 135.211L288.459 134.076L288.458 134.077L291.769 135.211ZM291.75 135.284L288.281 134.82L287.781 138.55L291.538 138.778L291.75 135.284ZM221.246 33.0889L218.786 30.5996L218.778 30.6068L218.771 30.6141L221.246 33.0889ZM220.676 33.6631L218.177 31.2124L215.713 33.7246L218.238 36.175L220.676 33.6631ZM228.57 41.3077L226.138 43.8251L226.139 43.8254L228.57 41.3077ZM230.388 43.0691L227.95 45.5805L227.95 45.5805L230.388 43.0691ZM232.656 45.2647L235.085 42.7447L235.084 42.7434L232.656 45.2647ZM233.154 45.7466L230.716 48.2585L230.716 48.2585L233.154 45.7466ZM233.64 46.2178L231.211 48.7373L231.222 48.7481L231.234 48.7589L233.64 46.2178ZM233.706 46.28L236.105 43.7314L236.105 43.7312L233.706 46.28ZM234.394 47.4678H230.894V47.4825L230.894 47.4973L234.394 47.4678ZM234.399 52.1263L230.899 52.1165L230.899 52.1165L234.399 52.1263ZM234.394 132.651H230.894V136.046L234.287 136.15L234.394 132.651ZM286.105 134.933L285.904 138.427L289.605 138.64V134.933H286.105ZM286.098 47.8054L289.595 47.6789L289.595 47.6785L286.098 47.8054ZM286.105 47.1592L289.584 47.5457L289.605 47.3531V47.1592H286.105ZM286.105 47.1514L288.58 44.6766L282.605 38.7017V47.1514H286.105ZM286.191 47.1983L284.157 50.0464L284.301 50.1493L284.455 50.2372L286.191 47.1983ZM286.105 47.1319H282.605V49.0718L284.25 50.0999L286.105 47.1319ZM286.102 47.075L289.591 46.7975L289.591 46.7962L286.102 47.075ZM286.105 46.9796L288.383 49.637L284.541 43.8486L286.105 46.9796ZM286.09 47.1241L284.018 49.9451L289.07 45.2897L286.09 47.1241ZM285.596 46.6442L283.003 48.9958L283.003 48.9959L285.596 46.6442ZM285.41 46.4444L287.909 43.9937L287.874 43.9578L287.837 43.9229L285.41 46.4444ZM284.622 45.6821L287.059 43.17L287.059 43.1698L284.622 45.6821ZM283.844 44.9288L281.407 47.4412L281.416 47.4499L283.844 44.9288ZM278.785 40.0303L276.349 42.5436L276.354 42.5485L278.785 40.0303ZM264.312 26.0147L261.875 28.5268L261.876 28.528L264.312 26.0147ZM250.325 12.4673L247.891 14.9824L247.891 14.9825L250.325 12.4673ZM250.172 12.3194L252.606 9.80428L252.602 9.80035L250.172 12.3194ZM247.505 9.7404L249.941 7.2264L249.941 7.22638L247.505 9.7404ZM246.191 8.46783L248.625 5.95261L246.182 3.58858L243.748 5.96182L246.191 8.46783ZM245.352 9.28124L247.784 11.7982L247.784 11.7982L245.352 9.28124ZM243.844 10.753L246.303 13.2431L246.312 13.2341L243.844 10.753ZM238.594 15.9442L241.055 18.4322L241.055 18.4322L238.594 15.9442ZM233.344 21.1358L230.884 18.6457L230.883 18.6465L233.344 21.1358ZM207.269 132.034L204.161 130.426L201.564 135.446L207.215 135.534L207.269 132.034ZM229.238 132.511L229.143 136.01L236.921 136.221L231.919 130.261L229.238 132.511ZM228.953 131.651L232.453 131.651L232.453 131.64L228.953 131.651ZM228.95 124.714L232.45 124.718L232.45 124.718L228.95 124.714ZM228.953 46.2061H232.453V44.6504L231.298 43.608L228.953 46.2061ZM225.945 43.3028L223.473 45.7803L223.473 45.7803L225.945 43.3028ZM224.293 41.671L226.726 39.1551L226.722 39.1517L224.293 41.671ZM221.334 38.8056L218.896 41.3175L218.896 41.3175L221.334 38.8056ZM218.375 35.9405L220.804 33.4212L218.349 31.0528L215.918 33.4473L218.375 35.9405ZM214.306 39.9589L211.845 37.4703L211.845 37.4703L214.306 39.9589ZM211.254 42.9756L213.698 45.4804L213.705 45.4737L213.712 45.4668L211.254 42.9756ZM207.375 46.7999L204.911 44.3137L203.762 45.4523L203.885 47.0653L207.375 46.7999ZM207.387 48.8652L210.886 48.9635L210.886 48.9634L207.387 48.8652ZM207.367 74V77.5H210.867V74H207.367ZM201.695 74H198.195V77.5H201.695V74ZM201.691 47.7136L198.193 47.8298L198.193 47.8301L201.691 47.7136ZM201.695 47.3116L205.179 47.6466L205.182 47.6133L205.185 47.58L201.695 47.3116ZM202.189 46.4772L204.636 48.9793L204.636 48.9792L202.189 46.4772ZM202.238 46.4288L204.694 48.9226L204.704 48.9128L202.238 46.4288ZM206.518 42.1959L208.977 44.6868L208.977 44.6868L206.518 42.1959ZM210.183 38.5733L207.722 36.085L207.72 36.0874L210.183 38.5733ZM215.586 33.2335L218.044 35.7245L220.591 33.2112L218.022 30.7207L215.586 33.2335ZM215.481 33.1322L217.918 30.6194L217.918 30.6193L215.481 33.1322ZM213.656 31.3663L211.221 33.8805L211.228 33.8868L213.656 31.3663ZM201.398 19.4952L203.833 16.981L203.832 16.9799L201.398 19.4952ZM191.262 9.68658L188.808 12.1827L188.818 12.1923L188.828 12.2018L191.262 9.68658ZM189.894 8.36236L192.304 5.82379L189.837 3.48204L187.425 5.88148L189.894 8.36236ZM184.45 13.7542L186.909 16.2441L186.909 16.2441L184.45 13.7542ZM182.633 15.5499L185.093 18.0388L185.093 18.0388L182.633 15.5499ZM168.121 29.8975L165.66 27.4086L165.657 27.4119L168.121 29.8975ZM168.086 29.9321L165.622 27.4465L165.622 27.4467L168.086 29.9321ZM163.949 34.0225L161.495 31.5268L158.943 34.0362L161.509 36.5316L163.949 34.0225ZM170.159 40.0414L167.725 42.5566L167.725 42.5566L170.159 40.0414ZM171.633 41.4678L174.071 38.9574L174.067 38.953L171.633 41.4678ZM175.73 45.4366L178.186 42.9425L178.177 42.9343L178.169 42.9261L175.73 45.4366ZM176.099 45.7705L178.402 43.1348L178.402 43.1347L176.099 45.7705ZM177.172 47.296L173.673 47.3852L173.673 47.396L173.673 47.4067L177.172 47.296ZM177.188 51.9837L180.688 52.0207L180.688 52.0206L177.188 51.9837ZM177.172 74V77.5H180.672V74H177.172ZM171.613 74H168.113V77.5H171.613V74ZM171.613 46.2921H175.113V44.6041L173.792 43.5531L171.613 46.2921ZM170.639 45.3584L173.17 42.9408L173.17 42.9408L170.639 45.3584ZM170.117 44.8272L167.676 47.3354L167.685 47.344L167.694 47.3525L170.117 44.8272ZM168.356 43.1213L165.924 45.6378L165.924 45.6379L168.356 43.1213ZM166.613 41.4327L169.054 38.9244L169.05 38.9208L166.613 41.4327ZM164.022 38.9223L166.456 36.4076L166.456 36.4076L164.022 38.9223ZM161.476 36.4561L163.914 33.9442L161.457 31.5604L159.019 33.9637L161.476 36.4561ZM154.84 43.0147L152.382 40.5223L152.377 40.5274L152.372 40.5325L154.84 43.0147ZM152.57 45.2613L155.029 47.7518L155.029 47.7518L152.57 45.2613ZM150.859 46.9522L153.284 49.4764L153.304 49.4574L153.323 49.438L150.859 46.9522ZM150.468 47.34L147.984 44.8744L147.984 44.8744L150.468 47.34ZM149.98 47.8194L147.591 45.2618L146.48 46.2995V47.8194H149.98ZM149.98 47.8389H146.48V48.5006L146.722 49.1167L149.98 47.8389ZM149.996 48.3871L153.481 48.7117L153.481 48.7116L149.996 48.3871ZM149.98 131.976H146.48V135.527L150.031 135.475L149.98 131.976ZM171.613 131.796L171.623 135.296L175.169 135.286L175.113 131.741L171.613 131.796ZM171.601 124.848L175.101 124.867L175.101 124.867L171.601 124.848ZM171.613 100V96.5H168.113V100H171.613ZM177.172 100H180.672V96.5H177.172V100ZM177.172 131.796H173.672V135.296H177.172V131.796ZM201.695 131.948L201.65 135.448L205.195 135.494V131.948H201.695ZM201.695 100V96.5H198.195V100H201.695ZM207.367 100H210.867V96.5H207.367V100ZM92.7498 133.722H89.2498V137.384L92.9081 137.218L92.7498 133.722ZM144.519 132.101L144.58 135.6L148.019 135.541V132.101H144.519ZM144.515 46.6829L148.014 46.5916L148.014 46.5913L144.515 46.6829ZM144.836 45.6436L142.311 43.2194L142.303 43.228L144.836 45.6436ZM149.889 40.6207L147.451 38.1097L147.451 38.1097L149.889 40.6207ZM152.398 38.171L149.94 35.6798L149.939 35.6807L152.398 38.171ZM157.647 32.9836L160.108 35.472L160.108 35.472L157.647 32.9836ZM157.762 32.8702L160.223 35.3586L162.742 32.8667L160.219 30.3783L157.762 32.8702ZM156.823 31.9579L154.393 34.4773L154.393 34.4773L156.823 31.9579ZM156.035 31.1944L158.484 28.6942L158.477 28.6872L158.47 28.6803L156.035 31.1944ZM143.75 19.296L146.185 16.7818L146.184 16.7806L143.75 19.296ZM133.629 9.49518L131.18 11.9962L131.186 12.0019L131.192 12.0076L133.629 9.49518ZM133.07 8.95224L135.505 6.43822L135.505 6.43817L133.07 8.95224ZM132.512 8.40924L134.96 5.90816L132.495 3.49526L130.046 5.9246L132.512 8.40924ZM128.038 12.8308L130.496 15.3224L130.496 15.3224L128.038 12.8308ZM125.054 15.7764L122.593 13.2879L122.592 13.289L125.054 15.7764ZM116.491 24.2429L118.951 26.7326L118.951 26.7326L116.491 24.2429ZM110.047 30.6124L112.504 33.1048L112.508 33.1008L110.047 30.6124ZM102.686 37.8815L105.146 40.3709L105.146 40.3709L102.686 37.8815ZM96.7771 43.7178L94.3188 41.2265L94.3104 41.2348L96.7771 43.7178ZM93.199 47.2569L95.5111 49.8845L95.5906 49.8145L95.6657 49.7399L93.199 47.2569ZM93.0366 47.4385L90.3471 45.1988L90.347 45.1989L93.0366 47.4385ZM92.7576 47.7413L90.4798 45.0839L89.2576 46.1315V47.7413H92.7576ZM92.7529 47.8561L89.2593 47.6444L89.2593 47.6449L92.7529 47.8561ZM371.207 139.152C365.817 138.085 360.289 137.155 354.714 136.624L354.051 143.593C359.304 144.093 364.581 144.976 369.848 146.018L371.207 139.152ZM374.261 147.547C374.833 147.606 375.408 147.654 375.871 147.641C376 147.637 376.192 147.628 376.411 147.596C376.556 147.575 377.056 147.501 377.608 147.21C378.154 146.923 379.756 145.794 379.469 143.625C379.275 142.162 378.262 141.398 378.168 141.323C377.701 140.946 377.211 140.753 377.122 140.716C376.921 140.633 376.717 140.562 376.544 140.505C376.191 140.389 375.777 140.27 375.37 140.159C373.761 139.721 371.514 139.212 371.202 139.151L369.853 146.019C369.847 146.018 369.969 146.044 370.242 146.106C370.489 146.162 370.818 146.238 371.188 146.326C371.935 146.502 372.818 146.719 373.532 146.913C373.895 147.012 374.173 147.094 374.353 147.153C374.447 147.184 374.47 147.195 374.446 147.185C374.434 147.18 374.377 147.156 374.293 147.113C374.235 147.083 374.023 146.973 373.774 146.772C373.714 146.724 372.72 145.985 372.529 144.544C372.245 142.397 373.833 141.287 374.348 141.016C374.87 140.742 375.322 140.681 375.4 140.669C375.552 140.647 375.658 140.644 375.682 140.644C375.724 140.642 375.557 140.644 374.988 140.584L374.261 147.547ZM296.968 141.869C322.782 143.23 348.567 145.133 374.297 147.55L374.952 140.581C349.128 138.155 323.249 136.245 297.336 134.879L296.968 141.869ZM92.428 142.45C160.528 138.52 228.841 138.282 296.968 141.869L297.336 134.879C228.948 131.278 160.377 131.517 92.0247 135.462L92.428 142.45ZM90.5633 142.529C91.3461 142.598 92.3052 142.582 93.2181 142.313L91.2346 135.6C91.2741 135.588 91.3064 135.58 91.3304 135.575C91.3546 135.569 91.3728 135.566 91.3843 135.564C91.4065 135.56 91.4109 135.561 91.396 135.562C91.3817 135.563 91.3551 135.564 91.3165 135.563C91.2782 135.563 91.2319 135.56 91.1785 135.556L90.5633 142.529ZM24.3499 147.605C46.5631 145.523 68.8031 143.831 91.074 142.536L90.6678 135.548C68.3136 136.847 45.9912 138.546 23.6966 140.635L24.3499 147.605ZM12.12 146.231C15.6613 146.989 20.1934 147.991 24.3467 147.605L23.6997 140.635C20.8189 140.903 17.4012 140.203 13.585 139.386L12.12 146.231ZM8.84817 145.563C9.86626 145.749 10.946 145.98 12.12 146.231L13.585 139.386C12.4332 139.14 11.2463 138.885 10.1045 138.677L8.84817 145.563ZM7.14636 145.288C7.79703 145.387 8.35254 145.472 8.84348 145.562L10.1092 138.678C9.49153 138.564 8.82319 138.463 8.19883 138.368L7.14636 145.288ZM1.18278 143.918C3.11441 144.695 5.51236 145.04 7.14638 145.288L8.19881 138.368C6.31886 138.082 4.81397 137.834 3.79337 137.423L1.18278 143.918ZM1.05997 136.529C0.896227 136.544 0.69214 136.569 0.471437 136.614C0.282133 136.653 -0.0887645 136.74 -0.501602 136.944C-0.823523 137.104 -1.84118 137.66 -2.2998 138.966C-2.8375 140.497 -2.188 141.736 -1.79369 142.266C-1.42285 142.765 -1.00793 143.05 -0.84281 143.159C-0.633007 143.296 -0.441954 143.394 -0.313949 143.454C-0.0566272 143.577 0.191769 143.667 0.366144 143.726C0.728722 143.85 1.10368 143.95 1.36196 144.013C1.49006 144.045 1.63468 144.078 1.76679 144.103C1.7773 144.105 1.98158 144.147 2.21793 144.166C2.27343 144.17 2.47774 144.186 2.73747 144.167C2.85097 144.159 3.15799 144.134 3.53175 144.018C3.72342 143.959 4.04871 143.84 4.40662 143.607C4.76612 143.372 5.29678 142.93 5.65312 142.183C6.03801 141.377 6.06541 140.538 5.89313 139.838C5.73819 139.209 5.44529 138.769 5.26263 138.533C4.91674 138.086 4.54587 137.836 4.44102 137.766C4.17075 137.585 3.93426 137.483 3.88662 137.463L1.08953 143.879C1.04582 143.86 0.980206 143.831 0.901958 143.791C0.831967 143.755 0.700659 143.685 0.545449 143.582C0.46568 143.528 0.35307 143.448 0.226398 143.34C0.106881 143.239 -0.0813523 143.065 -0.273916 142.816C-0.355542 142.706 -0.519371 142.454 -0.599293 142.311C-0.686285 142.135 -0.840989 141.735 -0.904001 141.511C-0.958364 141.247 -1.00541 140.679 -0.992904 140.379C-0.95175 140.065 -0.786299 139.456 -0.664049 139.168C-0.3078 138.421 0.222688 137.979 0.581931 137.744C0.939598 137.511 1.26456 137.393 1.45582 137.333C1.66049 137.27 1.83375 137.237 1.94913 137.218C2.06952 137.199 2.17174 137.19 2.24679 137.185C2.3928 137.174 2.51029 137.175 2.57806 137.177C2.6517 137.179 2.7125 137.183 2.75441 137.186C2.83625 137.192 2.90033 137.2 2.93401 137.205C2.97162 137.21 3.00161 137.214 3.02073 137.217C3.0581 137.224 3.08413 137.228 3.09287 137.23C3.1179 137.235 3.09583 137.231 3.02361 137.214C2.88126 137.179 2.72106 137.134 2.62172 137.1C2.56514 137.081 2.60089 137.089 2.68985 137.132C2.73367 137.153 2.85161 137.21 3.00262 137.309C3.08085 137.361 3.19456 137.441 3.32386 137.552C3.44798 137.659 3.63473 137.835 3.82331 138.089C4.00913 138.339 4.25997 138.748 4.39906 139.311C4.47023 139.599 4.51056 139.921 4.4976 140.269C4.48457 140.618 4.41874 140.961 4.3046 141.286C4.07542 141.938 3.69833 142.393 3.38743 142.679C3.08429 142.958 2.7933 143.124 2.60644 143.216C2.41202 143.313 2.24665 143.371 2.13903 143.404C2.0273 143.439 1.9367 143.459 1.87778 143.471C1.81713 143.484 1.77116 143.491 1.74455 143.495C1.71717 143.498 1.70067 143.5 1.69743 143.5L1.05997 136.529ZM78.6671 130.828C52.7549 132.194 26.8752 134.104 1.0513 136.53L1.70609 143.499C27.4369 141.082 53.2212 139.179 79.0356 137.818L78.6671 130.828ZM84.6767 130.536C82.6818 130.63 80.6776 130.724 78.67 130.828L79.0327 137.819C81.0201 137.715 83.0069 137.622 85.0047 137.529L84.6767 130.536ZM87.0362 130.425C86.2501 130.462 85.4641 130.499 84.6767 130.536L85.0047 137.529C85.7917 137.492 86.5804 137.455 87.3697 137.417L87.0362 130.425ZM83.7029 127.601V133.921H90.7029V127.601H83.7029ZM83.7029 110.077V127.601H90.7029V110.077H83.7029ZM83.7029 88.5538V110.077H90.7029V88.5538H83.7029ZM83.7029 67.7217V88.5538H90.7029V67.7217H83.7029ZM83.7029 52.0811V67.7217H90.7029V52.0811H83.7029ZM83.7029 47.6202V52.0811H90.7029V47.6202H83.7029ZM83.6921 47.4636C83.6974 47.5402 83.7002 47.5818 83.702 47.6165C83.7038 47.6499 83.7029 47.6459 83.7029 47.6202H90.7029C90.7029 47.3553 90.683 47.0911 90.6754 46.9812L83.6921 47.4636ZM84.6897 43.6509C83.9023 44.6028 83.7324 45.6443 83.6842 46.1943C83.6353 46.7517 83.6797 47.285 83.6921 47.4635L90.6754 46.9812C90.6666 46.8539 90.6632 46.7978 90.6618 46.7528C90.6605 46.7112 90.6634 46.738 90.6574 46.8062C90.6505 46.8853 90.5982 47.4905 90.0833 48.1129L84.6897 43.6509ZM86.2881 42.0212C85.8748 42.4028 85.2368 42.9838 84.6804 43.6623L90.0927 48.1015C90.2878 47.8636 90.5541 47.6098 91.0367 47.1641L86.2881 42.0212ZM86.8762 41.4659C86.7112 41.6299 86.5286 41.7991 86.2881 42.0212L91.0367 47.1641C91.26 46.958 91.5388 46.7011 91.8108 46.4307L86.8762 41.4659ZM89.7769 38.5962C88.8127 39.5474 87.842 40.5048 86.8747 41.4674L91.8124 46.4292C92.7669 45.4793 93.7266 44.5327 94.6927 43.5798L89.7769 38.5962ZM91.7011 36.6957C91.0618 37.3289 90.4208 37.9612 89.7769 38.5962L94.6927 43.5798C95.3357 42.9455 95.9816 42.3084 96.6266 41.6696L91.7011 36.6957ZM98.9161 29.5667C96.5126 31.9429 94.1103 34.3179 91.7052 36.6917L96.6225 41.6737C99.0299 39.2975 101.434 36.9205 103.837 34.5447L98.9161 29.5667ZM106.131 22.4378C103.724 24.8139 101.319 27.1909 98.9161 29.5667L103.837 34.5447C106.241 32.1686 108.643 29.7936 111.048 27.4198L106.131 22.4378ZM114.291 14.3686C111.57 17.0576 108.847 19.7482 106.127 22.4417L111.052 27.4159C113.77 24.7252 116.49 22.0368 119.211 19.3475L114.291 14.3686ZM120.398 8.33127C118.363 10.3438 116.328 12.3557 114.291 14.3686L119.211 19.3475C121.248 17.3348 123.285 15.3216 125.321 13.3075L120.398 8.33127ZM121.713 7.02959C121.274 7.46393 120.836 7.89773 120.398 8.33099L125.32 13.3078C125.759 12.874 126.198 12.4397 126.637 12.0055L121.713 7.02959ZM126.87 1.93758C125.146 3.63321 123.425 5.33569 121.713 7.02958L126.637 12.0055C128.35 10.3104 130.063 8.61507 131.778 6.92777L126.87 1.93758ZM132.534 0.795934C132.147 0.71733 131.378 0.571349 130.539 0.571349C129.884 0.571349 128.194 0.64023 126.875 1.93189L131.773 6.93346C131.358 7.33905 130.941 7.48256 130.762 7.53024C130.583 7.57807 130.491 7.57135 130.539 7.57135C130.574 7.57135 130.651 7.57527 130.772 7.59156C130.888 7.60725 131.011 7.6295 131.138 7.65536L132.534 0.795934ZM136.888 2.92266C135.492 1.58773 133.793 1.04154 132.506 0.790429L131.165 7.66086C131.46 7.71838 131.679 7.78771 131.833 7.85567C131.983 7.92178 132.039 7.97199 132.05 7.98176L136.888 2.92266ZM137.133 3.16429C137.046 3.08066 137.008 3.04348 136.979 3.01335L131.958 7.89107C132.081 8.01781 132.203 8.13493 132.275 8.20451L137.133 3.16429ZM137.354 3.37983C137.27 3.29632 137.188 3.21708 137.133 3.16414L132.276 8.20466C132.339 8.26556 132.374 8.29955 132.404 8.32927L137.354 3.37983ZM141.654 7.54417C140.208 6.14291 138.761 4.74068 137.313 3.33928L132.445 8.36982C133.891 9.76927 135.337 11.1698 136.783 12.5714L141.654 7.54417ZM145.992 11.7455C144.546 10.3461 143.101 8.94564 141.654 7.54417L136.783 12.5714C138.229 13.9726 139.676 15.3747 141.125 16.7761L145.992 11.7455ZM155.627 21.0798C152.415 17.969 149.205 14.8601 145.995 11.7479L141.122 16.7737C144.334 19.8874 147.545 22.9977 150.757 26.1082L155.627 21.0798ZM160.599 25.8954C158.941 24.2894 157.284 22.6843 155.627 21.0798L150.757 26.1082C152.414 27.7128 154.071 29.3175 155.729 30.9231L160.599 25.8954ZM162.665 27.9029L160.603 25.899L155.725 30.9195L157.787 32.9234L162.665 27.9029ZM160.994 24.7306C159.918 25.7963 158.843 26.86 157.767 27.9225L162.685 32.9038C163.765 31.8373 164.843 30.7702 165.919 29.7051L160.994 24.7306ZM164.228 21.5319C163.148 22.5983 162.07 23.6654 160.994 24.7306L165.919 29.7051C166.996 28.6394 168.07 27.5756 169.146 26.5131L164.228 21.5319ZM175.681 10.2183C171.866 13.9915 168.052 17.7635 164.23 21.5297L169.144 26.5153C172.971 22.744 176.789 18.9677 180.603 15.1952L175.681 10.2183ZM177.984 7.94015C177.216 8.69949 176.448 9.45893 175.681 10.2183L180.603 15.1952C181.371 14.4358 182.139 13.6765 182.906 12.9174L177.984 7.94015ZM184.165 1.8374C182.105 3.87328 180.045 5.9102 177.989 7.93515L182.901 12.9224C184.963 10.892 187.028 8.85034 189.086 6.81522L184.165 1.8374ZM184.199 1.80302L184.165 1.83727L189.086 6.81534L189.121 6.78109L184.199 1.80302ZM189.476 0.703926C189.215 0.653258 188.521 0.514515 187.769 0.501105C187.251 0.491863 185.515 0.487072 184.185 1.81718L189.135 6.76693C188.657 7.24497 188.16 7.40341 187.953 7.45444C187.739 7.50688 187.616 7.4995 187.644 7.49999C187.657 7.50022 187.711 7.50302 187.813 7.51766C187.912 7.53187 188.013 7.55063 188.141 7.57549L189.476 0.703926ZM193.819 2.75928C192.397 1.37235 190.412 0.893689 189.504 0.709512L188.113 7.5699C188.407 7.62949 188.672 7.70414 188.873 7.78414C188.969 7.82246 189.021 7.85076 189.039 7.86123C189.058 7.87275 189.011 7.84789 188.931 7.77013L193.819 2.75928ZM193.939 2.87533C193.892 2.83046 193.852 2.79179 193.814 2.75425L188.936 7.77516C188.989 7.82618 189.04 7.87607 189.086 7.91975L193.939 2.87533ZM194.26 3.18834C194.143 3.07187 194.027 2.95979 193.939 2.8755L189.086 7.91957C189.182 8.01235 189.249 8.07735 189.31 8.13795L194.26 3.18834ZM197.949 6.75764C196.705 5.55436 195.462 4.35224 194.221 3.14957L189.349 8.17672C190.593 9.38188 191.838 10.5862 193.082 11.789L197.949 6.75764ZM202.91 11.5614C201.258 9.95839 199.602 8.357 197.949 6.75764L193.082 11.7891C194.736 13.3891 196.388 14.9867 198.035 16.5852L202.91 11.5614ZM211.248 19.6357C208.469 16.9433 205.689 14.2492 202.906 11.5575L198.039 16.5891C200.82 19.2782 203.598 21.97 206.377 24.6628L211.248 19.6357ZM217.532 25.7225C215.437 23.6949 213.343 21.6658 211.248 19.6356L206.377 24.6628C208.471 26.6927 210.567 28.7231 212.663 30.7522L217.532 25.7225ZM220.331 28.4278L217.53 25.7207L212.665 30.754L215.466 33.461L220.331 28.4278ZM218.666 25.2638C217.59 26.3297 216.516 27.3923 215.441 28.4515L220.355 33.4373C221.436 32.3715 222.515 31.3033 223.591 30.2383L218.666 25.2638ZM221.902 22.0648C220.821 23.1306 219.742 24.1988 218.666 25.2638L223.591 30.2383C224.668 29.1724 225.741 28.1098 226.816 27.0505L221.902 22.0648ZM230.893 13.1738C227.893 16.1381 224.892 19.1035 221.896 22.0709L226.822 27.0444C229.815 24.0803 232.813 21.1178 235.813 18.1529L230.893 13.1738ZM235.406 8.71335C233.902 10.2003 232.398 11.6869 230.893 13.1738L235.813 18.1529C237.318 16.6662 238.823 15.1789 240.328 13.6911L235.406 8.71335ZM241.483 2.70668C239.454 4.70826 237.429 6.70985 235.404 8.71536L240.33 13.6891C242.352 11.6868 244.373 9.68834 246.399 7.68992L241.483 2.70668ZM246.395 0.765186C245.83 0.812524 245.052 0.910956 244.246 1.14772C243.476 1.37383 242.393 1.80778 241.481 2.70891L246.401 7.68769C246.267 7.82025 246.161 7.87796 246.138 7.88988C246.115 7.90197 246.136 7.88838 246.218 7.86412C246.298 7.84061 246.407 7.81557 246.545 7.79293C246.681 7.77055 246.828 7.75346 246.979 7.74079L246.395 0.765186ZM251.594 2.21418C250.497 1.15285 249.172 0.867536 248.4 0.773703C247.575 0.673338 246.81 0.728216 246.377 0.766771L246.998 7.73921C247.14 7.72652 247.26 7.71892 247.366 7.71704C247.474 7.71512 247.534 7.71997 247.555 7.72251C247.581 7.72561 247.508 7.72037 247.374 7.66928C247.236 7.61621 246.985 7.4955 246.726 7.24492L251.594 2.21418ZM251.8 2.41546C251.724 2.34252 251.678 2.29757 251.635 2.25478L246.685 7.20433C246.788 7.30705 246.887 7.40168 246.955 7.46737L251.8 2.41546ZM252.065 2.67278C251.965 2.57275 251.867 2.47965 251.8 2.41537L246.955 7.46746C247.031 7.53992 247.075 7.58263 247.115 7.62226L252.065 2.67278ZM256.493 6.95765C255.004 5.51554 253.513 4.0715 252.021 2.63013L247.158 7.66491C248.646 9.10248 250.134 10.5432 251.623 11.9859L256.493 6.95765ZM260.959 11.2786C259.471 9.84104 257.983 8.4003 256.493 6.95766L251.623 11.9859C253.112 13.428 254.603 14.872 256.096 16.3133L260.959 11.2786ZM265.889 16.0514C264.247 14.4615 262.604 12.8713 260.961 11.281L256.093 16.3109C257.736 17.9008 259.378 19.4907 261.02 21.0807L265.889 16.0514ZM275.909 25.7488C272.569 22.518 269.23 19.2854 265.889 16.0514L261.02 21.0807C264.36 24.3144 267.701 27.5484 271.043 30.7806L275.909 25.7488ZM289.381 38.7948C284.896 34.4465 280.407 30.0977 275.909 25.7486L271.043 30.7808C275.538 35.127 280.025 39.4736 284.509 43.8206L289.381 38.7948ZM293.209 42.5017C291.932 41.2635 290.661 40.0313 289.377 38.791L284.513 43.8244C285.792 45.0606 287.06 46.2894 288.337 47.5277L293.209 42.5017ZM293.335 42.6131C293.287 42.5707 293.258 42.5455 293.233 42.5232C293.209 42.502 293.204 42.4964 293.208 42.5008L288.338 47.5286C288.493 47.6787 288.652 47.8167 288.728 47.8828L293.335 42.6131ZM295.274 45.9778C295.164 44.8068 294.61 43.9729 294.231 43.5099C293.872 43.0708 293.461 42.7229 293.335 42.6131L288.728 47.8828C288.822 47.965 288.856 47.9957 288.881 48.0189C288.902 48.039 288.869 48.0105 288.815 47.944C288.719 47.8271 288.373 47.372 288.304 46.6297L295.274 45.9778ZM295.304 48.1387C295.319 47.5957 295.346 46.8022 295.276 45.9986L288.302 46.609C288.331 46.9384 288.324 47.3198 288.307 47.94L295.304 48.1387ZM295.289 48.8975C295.289 48.6734 295.295 48.4366 295.304 48.1389L288.307 47.9398C288.299 48.2193 288.289 48.5568 288.289 48.8975H295.289ZM295.289 54.3311V48.8975H288.289V54.3311H295.289ZM295.289 71.0889V54.3311H288.289V71.0889H295.289ZM295.289 92.1944V71.0889H288.289V92.1944H295.289ZM295.289 112.976V92.1944H288.289V112.976H295.289ZM295.289 128.819V112.976H288.289V128.819H295.289ZM295.289 135.124V128.819H288.289V135.124H295.289ZM295.08 136.346C295.081 136.345 295.095 136.304 295.11 136.257C295.126 136.206 295.151 136.125 295.176 136.025C295.227 135.823 295.289 135.51 295.289 135.124H288.289C288.289 134.768 288.346 134.484 288.389 134.311C288.427 134.16 288.472 134.036 288.459 134.076L295.08 136.346ZM295.219 135.749C295.192 135.951 295.151 136.111 295.123 136.21C295.098 136.298 295.072 136.37 295.081 136.345L288.458 134.077C288.458 134.079 288.448 134.106 288.438 134.137C288.427 134.171 288.411 134.221 288.393 134.283C288.358 134.407 288.311 134.592 288.281 134.82L295.219 135.749ZM354.709 136.624C333.822 134.667 312.897 133.062 291.962 131.791L291.538 138.778C312.399 140.045 333.248 141.644 354.056 143.593L354.709 136.624ZM223.706 35.5782C225.722 33.5864 227.738 31.5945 229.754 29.6023L224.835 24.6225C222.818 26.6146 220.801 28.6071 218.786 30.5996L223.706 35.5782ZM223.174 36.1139C223.36 35.9246 223.528 35.7564 223.721 35.5638L218.771 30.6141C218.581 30.8043 218.39 30.9954 218.177 31.2124L223.174 36.1139ZM231.002 38.7903C228.367 36.2457 225.744 33.7047 223.113 31.1513L218.238 36.175C220.872 38.731 223.499 41.2759 226.138 43.8251L231.002 38.7903ZM232.826 40.5576C232.221 39.9704 231.612 39.3796 231.001 38.7899L226.139 43.8254C226.742 44.4078 227.344 44.9923 227.95 45.5805L232.826 40.5576ZM235.084 42.7434C234.331 42.0188 233.581 41.2909 232.826 40.5576L227.95 45.5805C228.704 46.3122 229.464 47.0499 230.228 47.786L235.084 42.7434ZM235.591 43.2348C235.425 43.0735 235.254 42.9079 235.085 42.7447L230.227 47.7847C230.387 47.9384 230.549 48.0958 230.716 48.2585L235.591 43.2348ZM236.07 43.6984C235.913 43.5469 235.754 43.3929 235.591 43.2347L230.716 48.2585C230.878 48.4152 231.045 48.5769 231.211 48.7373L236.07 43.6984ZM236.105 43.7312C236.083 43.7104 236.065 43.6932 236.047 43.6768L231.234 48.7589C231.26 48.784 231.286 48.8082 231.308 48.8288L236.105 43.7312ZM237.894 47.4678C237.894 45.2132 236.302 43.9164 236.105 43.7314L231.307 48.8286C231.354 48.8723 231.381 48.8977 231.404 48.9205C231.426 48.9417 231.433 48.949 231.432 48.9473C231.431 48.9468 231.368 48.8822 231.289 48.7656C231.205 48.6421 231.099 48.4566 231.018 48.2133C230.934 47.9643 230.894 47.7097 230.894 47.4678H237.894ZM237.899 52.1361C237.903 50.586 237.907 49.0112 237.894 47.4384L230.894 47.4973C230.907 49.0243 230.903 50.5598 230.899 52.1165L237.899 52.1361ZM237.894 54.4522C237.894 53.6836 237.896 52.9129 237.899 52.136L230.899 52.1165C230.897 52.8917 230.894 53.6722 230.894 54.4522H237.894ZM237.894 70.5186V54.4522H230.894V70.5186H237.894ZM237.894 91.128V70.5186H230.894V91.128H237.894ZM237.894 111.597V91.128H230.894V111.597H237.894ZM237.894 127.276V111.597H230.894V127.276H237.894ZM237.894 132.651V127.276H230.894V132.651H237.894ZM286.306 131.438C269.045 130.444 251.783 129.681 234.501 129.153L234.287 136.15C251.506 136.676 268.705 137.436 285.904 138.427L286.306 131.438ZM282.605 126.534V134.933H289.605V126.534H282.605ZM282.605 109.089V126.534H289.605V109.089H282.605ZM282.605 87.9444V109.089H289.605V87.9444H282.605ZM282.605 67.4171V87.9444H289.605V67.4171H282.605ZM282.605 52.2803V67.4171H289.605V52.2803H282.605ZM282.605 48.1241V52.2803H289.605V48.1241H282.605ZM282.6 47.9318C282.604 48.0512 282.605 48.0935 282.605 48.1241H289.605C289.605 47.9449 289.599 47.774 289.595 47.6789L282.6 47.9318ZM282.627 46.7728C282.57 47.2843 282.594 47.7638 282.6 47.9323L289.595 47.6785C289.593 47.6219 289.592 47.5834 289.591 47.5476C289.59 47.5135 289.59 47.4927 289.59 47.48C289.59 47.4517 289.591 47.4817 289.584 47.5457L282.627 46.7728ZM282.605 47.1514V47.1592H289.605V47.1514H282.605ZM284.455 50.2372C284.431 50.2234 284.364 50.1846 284.276 50.1257C284.233 50.0967 284.156 50.0435 284.063 49.9698C284.005 49.9235 283.783 49.7478 283.553 49.4695C283.449 49.3441 283.187 49.0159 282.992 48.5226C282.808 48.0572 282.462 46.839 283.192 45.5316C283.904 44.2554 285.084 43.9062 285.528 43.813C286.022 43.7093 286.42 43.7391 286.58 43.7545C286.933 43.7885 287.197 43.8699 287.277 43.8945C287.395 43.9312 287.489 43.9674 287.548 43.9914C287.848 44.1138 288.218 44.3149 288.58 44.6766L283.63 49.6263C284.07 50.0661 284.551 50.3297 284.91 50.4755C284.916 50.4778 285.344 50.6678 285.909 50.7223C286.071 50.7378 286.47 50.7677 286.965 50.6638C287.411 50.5703 288.591 50.2208 289.304 48.944C290.034 47.636 289.687 46.4171 289.503 45.9507C289.307 45.4565 289.045 45.1271 288.94 45.0003C288.707 44.7194 288.482 44.5402 288.418 44.4895C288.32 44.4116 288.236 44.3531 288.184 44.3181C288.078 44.2471 287.986 44.1927 287.928 44.1595L284.455 50.2372ZM284.25 50.0999C284.144 50.0332 284.061 49.9731 284.01 49.9339C283.983 49.9137 283.962 49.8968 283.947 49.8849C283.932 49.8732 283.922 49.8644 283.918 49.8615C283.916 49.86 283.915 49.8591 283.916 49.8598C283.917 49.8603 283.917 49.8606 283.918 49.8616C283.919 49.8624 283.921 49.8636 283.922 49.865C283.928 49.87 283.943 49.8822 283.961 49.8966C283.979 49.9114 284.005 49.9325 284.037 49.957C284.069 49.9816 284.109 50.0123 284.157 50.0464L288.226 44.3502C288.304 44.4062 288.361 44.4524 288.38 44.4682C288.386 44.473 288.391 44.4768 288.394 44.4791C288.395 44.4803 288.396 44.4812 288.397 44.4818C288.397 44.4821 288.398 44.4823 288.398 44.4824C288.398 44.4825 288.398 44.4826 288.398 44.4826C288.398 44.4826 288.398 44.4826 288.398 44.4827C288.398 44.4827 288.398 44.4827 288.398 44.4827C288.402 44.4857 288.389 44.4749 288.381 44.4687C288.362 44.453 288.311 44.4111 288.246 44.3616C288.18 44.3112 288.083 44.2404 287.96 44.1639L284.25 50.0999ZM282.613 47.3525C282.614 47.3701 282.613 47.3522 282.611 47.33C282.611 47.3165 282.609 47.2931 282.608 47.2633C282.607 47.2344 282.605 47.1887 282.605 47.1319H289.605C289.605 47.0133 289.599 46.9178 289.597 46.8813C289.594 46.8398 289.591 46.801 289.591 46.7975L282.613 47.3525ZM284.541 43.8486C283.581 44.3283 283.131 45.0884 282.954 45.4535C282.764 45.844 282.69 46.1822 282.66 46.3455C282.597 46.6781 282.598 46.9468 282.598 47.0226C282.599 47.1346 282.604 47.2253 282.607 47.2657C282.609 47.3091 282.613 47.3489 282.613 47.3538L289.591 46.7962C289.585 46.7277 289.598 46.8564 289.598 47.003C289.598 47.0611 289.6 47.3145 289.54 47.6355C289.51 47.7931 289.438 48.1264 289.25 48.5132C289.074 48.8746 288.627 49.6321 287.67 50.1105L284.541 43.8486ZM289.07 45.2897C289.19 45.4833 289.603 46.1839 289.562 47.1931C289.514 48.3833 288.886 49.2057 288.383 49.637L283.827 44.3222C283.27 44.8003 282.619 45.6695 282.568 46.9076C282.525 47.9647 282.958 48.714 283.109 48.9584L289.07 45.2897ZM283.003 48.9959C283.098 49.1001 283.504 49.568 284.018 49.9451L288.161 44.3031C288.192 44.3258 288.218 44.3459 288.238 44.3624C288.258 44.3788 288.274 44.3926 288.285 44.4028C288.297 44.413 288.305 44.4205 288.309 44.4247C288.314 44.429 288.316 44.4307 288.314 44.4293C288.313 44.4279 288.309 44.4241 288.303 44.4174C288.296 44.4107 288.288 44.4019 288.277 44.3902C288.266 44.3785 288.254 44.3649 288.239 44.3484C288.223 44.3315 288.207 44.3141 288.188 44.2925L283.003 48.9959ZM282.911 48.8951C282.908 48.8916 282.912 48.8963 282.93 48.9153C282.948 48.9352 282.969 48.9581 283.003 48.9958L288.188 44.2926C288.134 44.2334 288.025 44.1119 287.909 43.9937L282.911 48.8951ZM282.185 48.1943C282.447 48.4481 282.713 48.7066 282.983 48.9659L287.837 43.9229C287.579 43.6744 287.322 43.425 287.059 43.17L282.185 48.1943ZM281.416 47.4499C281.672 47.6967 281.926 47.9432 282.185 48.1945L287.059 43.1698C286.802 42.9201 286.538 42.6647 286.271 42.4076L281.416 47.4499ZM276.354 42.5485C278.038 44.1741 279.719 45.804 281.407 47.4412L286.28 42.4164C284.593 40.7801 282.907 39.1444 281.216 37.5121L276.354 42.5485ZM269.114 35.5373C271.527 37.8733 273.94 40.2085 276.349 42.5436L281.221 37.5171C278.81 35.1803 276.396 32.8436 273.983 30.5078L269.114 35.5373ZM261.876 28.528C264.287 30.8648 266.701 33.2015 269.114 35.5373L273.983 30.5078C271.57 28.1717 269.157 25.8365 266.748 23.5014L261.876 28.528ZM247.891 14.9825C252.559 19.4997 257.221 24.0115 261.875 28.5268L266.749 23.5026C262.091 18.9837 257.426 14.4689 252.758 9.95217L247.891 14.9825ZM247.738 14.8345L247.891 14.9824L252.758 9.9522L252.606 9.80428L247.738 14.8345ZM245.07 12.2544C245.96 13.1158 246.851 13.9795 247.742 14.8384L252.602 9.80035C251.717 8.94732 250.831 8.0886 249.941 7.2264L245.07 12.2544ZM243.757 10.9831C244.195 11.4063 244.632 11.8301 245.07 12.2544L249.941 7.22638C249.503 6.80225 249.064 6.37727 248.625 5.95261L243.757 10.9831ZM247.784 11.7982C248.063 11.5283 248.349 11.252 248.635 10.9739L243.748 5.96182C243.476 6.22718 243.201 6.49247 242.92 6.76429L247.784 11.7982ZM246.312 13.2341C246.788 12.7602 247.276 12.2895 247.784 11.7982L242.92 6.76427C242.418 7.24958 241.894 7.75583 241.375 8.27186L246.312 13.2341ZM241.055 18.4322C242.805 16.7016 244.552 14.9723 246.303 13.2431L241.384 8.2629C239.631 9.9945 237.881 11.7259 236.132 13.4561L241.055 18.4322ZM235.803 23.6259C237.556 21.8942 239.306 20.1626 241.055 18.4322L236.132 13.4561C234.383 15.1869 232.635 16.9164 230.884 18.6457L235.803 23.6259ZM229.754 29.6023C231.771 27.6101 233.788 25.6176 235.804 23.6251L230.883 18.6465C228.868 20.6383 226.852 22.6302 224.835 24.6225L229.754 29.6023ZM210.867 131.644V123.148H203.867V131.644H210.867ZM210.378 133.642C210.647 133.123 210.867 132.45 210.867 131.644H203.867C203.867 131.413 203.897 131.181 203.957 130.957C204.016 130.735 204.093 130.556 204.161 130.426L210.378 133.642ZM229.333 129.012C221.998 128.813 214.664 128.648 207.323 128.535L207.215 135.534C214.523 135.647 221.83 135.811 229.143 136.01L229.333 129.012ZM225.453 131.796C225.453 133.048 225.966 134.057 226.557 134.761L231.919 130.261C232.143 130.527 232.453 131.059 232.453 131.796H225.453ZM225.453 131.651V131.796H232.453V131.651H225.453ZM225.45 124.71C225.448 127.022 225.445 129.342 225.453 131.663L232.453 131.64C232.445 129.337 232.448 127.032 232.45 124.718L225.45 124.71ZM225.453 121.241C225.453 122.397 225.452 123.552 225.45 124.71L232.45 124.718C232.452 123.561 232.453 122.401 232.453 121.241H225.453ZM225.453 99.6788V121.241H232.453V99.6788H225.453ZM225.453 74.8467V99.6788H232.453V74.8467H225.453ZM225.453 54.2999V74.8467H232.453V54.2999H225.453ZM225.453 46.2061V54.2999H232.453V46.2061H225.453ZM223.473 45.7803C224.449 46.7541 225.501 47.8051 226.608 48.8042L231.298 43.608C230.343 42.7461 229.414 41.8203 228.417 40.8253L223.473 45.7803ZM221.86 44.1868C222.39 44.7001 222.92 45.2282 223.473 45.7803L228.417 40.8254C227.871 40.2799 227.303 39.7129 226.726 39.1551L221.86 44.1868ZM218.896 41.3175C219.881 42.273 220.87 43.2328 221.863 44.1902L226.722 39.1517C225.739 38.2028 224.757 37.2504 223.771 36.2937L218.896 41.3175ZM215.945 38.4598C216.929 39.4086 217.91 40.3609 218.896 41.3175L223.771 36.2937C222.786 35.3383 221.797 34.3786 220.804 33.4212L215.945 38.4598ZM216.767 42.4475C218.123 41.1073 219.475 39.7697 220.831 38.4337L215.918 33.4473C214.557 34.7886 213.2 36.1309 211.845 37.4703L216.767 42.4475ZM213.712 45.4668C214.732 44.4603 215.75 43.4532 216.767 42.4475L211.845 37.4703C210.828 38.4764 209.812 39.4809 208.795 40.4844L213.712 45.4668ZM209.838 49.286C211.129 48.0071 212.409 46.7391 213.698 45.4804L208.809 40.4709C207.497 41.7512 206.199 43.0379 204.911 44.3137L209.838 49.286ZM210.886 48.9634C210.904 48.3059 210.932 47.4233 210.865 46.5345L203.885 47.0653C203.92 47.5279 203.909 48.0408 203.889 48.767L210.886 48.9634ZM210.867 49.9366C210.867 49.6412 210.875 49.3322 210.886 48.9635L203.889 48.7669C203.879 49.1182 203.867 49.5261 203.867 49.9366H210.867ZM210.867 56.9405V49.9366H203.867V56.9405H210.867ZM210.867 74V56.9405H203.867V74H210.867ZM201.695 77.5H207.367V70.5H201.695V77.5ZM198.195 65.5108V74H205.195V65.5108H198.195ZM198.195 51.4014V65.5108H205.195V51.4014H198.195ZM198.195 47.9053V51.4014H205.195V47.9053H198.195ZM198.193 47.8301C198.194 47.8647 198.194 47.8825 198.195 47.8976C198.195 47.9112 198.195 47.9121 198.195 47.9053H205.195C205.195 47.7742 205.191 47.6518 205.189 47.5972L198.193 47.8301ZM198.211 46.9766C198.173 47.374 198.19 47.7321 198.193 47.8298L205.189 47.5975C205.188 47.5805 205.188 47.5677 205.188 47.5554C205.187 47.5435 205.187 47.5346 205.187 47.5274C205.186 47.5127 205.186 47.5095 205.186 47.5132C205.186 47.5172 205.186 47.5316 205.185 47.5536C205.185 47.5757 205.183 47.6074 205.179 47.6466L198.211 46.9766ZM199.741 43.975C199.591 44.1225 198.348 45.1893 198.205 47.0431L205.185 47.58C205.167 47.8085 205.117 48.0438 205.031 48.2736C204.947 48.5001 204.844 48.6799 204.755 48.8104C204.671 48.9349 204.599 49.0132 204.58 49.034C204.568 49.0472 204.565 49.0489 204.636 48.9793L199.741 43.975ZM199.782 43.9349C199.771 43.9462 199.759 43.9579 199.741 43.9751L204.636 48.9792C204.651 48.9643 204.672 48.9438 204.694 48.9226L199.782 43.9349ZM204.06 39.705C202.633 41.1137 201.201 42.5266 199.772 43.9447L204.704 48.9128C206.124 47.5028 207.549 46.0967 208.977 44.6868L204.06 39.705ZM207.72 36.0874C206.503 37.2936 205.283 38.4977 204.06 39.705L208.977 44.6868C210.199 43.4804 211.424 42.2712 212.647 41.0592L207.72 36.0874ZM213.127 30.7425C211.321 32.5253 209.527 34.3 207.722 36.085L212.645 41.0616C214.45 39.2763 216.241 37.5042 218.044 35.7245L213.127 30.7425ZM213.045 35.645L213.149 35.7462L218.022 30.7207L217.918 30.6194L213.045 35.645ZM211.228 33.8868C211.829 34.466 212.438 35.0562 213.045 35.6451L217.918 30.6193C217.312 30.0319 216.695 29.4339 216.084 28.8457L211.228 33.8868ZM198.963 22.0094L211.221 33.8805L216.091 28.8521L203.833 16.981L198.963 22.0094ZM188.828 12.2018L198.964 22.0104L203.832 16.9799L193.695 7.17134L188.828 12.2018ZM187.485 10.9009C187.925 11.3186 188.358 11.7402 188.808 12.1827L193.715 7.19046C193.251 6.73454 192.786 6.28118 192.304 5.82379L187.485 10.9009ZM186.909 16.2441C188.726 14.4498 190.547 12.6502 192.363 10.8433L187.425 5.88148C185.62 7.67791 183.808 9.46851 181.99 11.2644L186.909 16.2441ZM185.093 18.0388C185.698 17.4406 186.304 16.8427 186.909 16.2441L181.99 11.2643C181.384 11.8627 180.778 12.4617 180.172 13.061L185.093 18.0388ZM170.582 32.3864L185.093 18.0388L180.172 13.061L165.66 27.4086L170.582 32.3864ZM170.55 32.4177L170.585 32.3831L165.657 27.4119L165.622 27.4465L170.55 32.4177ZM166.403 36.5183C167.792 35.1527 169.18 33.7764 170.55 32.4175L165.622 27.4467C164.249 28.8073 162.872 30.1732 161.495 31.5268L166.403 36.5183ZM172.593 37.5262C170.523 35.5231 168.453 33.5206 166.389 31.5134L161.509 36.5316C163.58 38.5459 165.656 40.5545 167.725 42.5566L172.593 37.5262ZM174.067 38.953C173.576 38.4774 173.084 38.0018 172.593 37.5262L167.725 42.5566C168.216 43.0323 168.708 43.5076 169.198 43.9827L174.067 38.953ZM176.115 40.9363C175.431 40.2757 174.752 39.6182 174.071 38.9574L169.194 43.9783C169.881 44.6456 170.566 45.3084 171.248 45.9681L176.115 40.9363ZM178.169 42.9261C177.482 42.2589 176.797 41.596 176.115 40.9363L171.248 45.9681C171.931 46.6287 172.611 47.2862 173.292 47.9471L178.169 42.9261ZM178.402 43.1347C178.331 43.0734 178.285 43.0325 178.243 42.9955C178.224 42.9784 178.21 42.9656 178.2 42.9561C178.19 42.9466 178.186 42.9424 178.186 42.9425L173.275 47.9307C173.472 48.1244 173.683 48.3075 173.796 48.4062L178.402 43.1347ZM180.671 47.2067C180.635 45.8012 179.96 44.7915 179.53 44.2615C179.102 43.7345 178.599 43.3073 178.402 43.1348L173.796 48.4061C173.926 48.5202 173.999 48.5846 174.061 48.643C174.12 48.6991 174.121 48.7058 174.095 48.6736C174.076 48.6494 173.693 48.1893 173.673 47.3852L180.671 47.2067ZM180.688 52.0206C180.704 50.4696 180.722 48.8335 180.67 47.1852L173.673 47.4067C173.72 48.8828 173.705 50.3711 173.688 51.9469L180.688 52.0206ZM180.672 54.3311C180.672 53.5698 180.68 52.8059 180.688 52.0207L173.688 51.9468C173.68 52.7259 173.672 53.5267 173.672 54.3311H180.672ZM180.672 70.4483V54.3311H173.672V70.4483H180.672ZM180.672 74V70.4483H173.672V74H180.672ZM171.613 77.5H177.172V70.5H171.613V77.5ZM168.113 54.4444V74H175.113V54.4444H168.113ZM168.113 46.2921V54.4444H175.113V46.2921H168.113ZM168.108 47.776C168.387 48.068 168.871 48.583 169.434 49.031L173.792 43.5531C173.669 43.4554 173.515 43.3027 173.17 42.9408L168.108 47.776ZM167.694 47.3525C167.803 47.4574 167.923 47.5819 168.108 47.776L173.17 42.9408C173.005 42.7685 172.779 42.5309 172.54 42.302L167.694 47.3525ZM165.924 45.6379C166.511 46.2059 167.094 46.7695 167.676 47.3354L172.558 42.319C171.967 41.7434 171.375 41.1714 170.789 40.6047L165.924 45.6379ZM164.172 43.941C164.757 44.5098 165.342 45.076 165.924 45.6378L170.789 40.6048C170.206 40.0415 169.629 39.4836 169.054 38.9244L164.172 43.941ZM161.587 41.4369C162.452 42.2736 163.315 43.1092 164.176 43.9446L169.05 38.9208C168.186 38.0822 167.32 37.2438 166.456 36.4076L161.587 41.4369ZM159.039 38.9681C159.887 39.7909 160.738 40.6145 161.587 41.4369L166.456 36.4076C165.606 35.5847 164.758 34.7638 163.914 33.9442L159.039 38.9681ZM160.62 42.2234C161.725 41.1293 162.829 40.0378 163.934 38.9485L159.019 33.9637C157.909 35.0581 156.801 36.154 155.696 37.2474L160.62 42.2234ZM157.297 45.5071C158.407 44.4128 159.515 43.3168 160.62 42.2234L155.696 37.2474C154.591 38.3415 153.487 39.4331 152.382 40.5223L157.297 45.5071ZM155.029 47.7518C155.785 47.0045 156.547 46.253 157.307 45.4969L152.372 40.5325C151.621 41.2789 150.869 42.0221 150.11 42.7707L155.029 47.7518ZM153.323 49.438C153.89 48.8756 154.458 48.3149 155.029 47.7518L150.11 42.7707C149.541 43.3331 148.968 43.8985 148.395 44.4664L153.323 49.438ZM152.952 49.8056C153.087 49.6702 153.187 49.5694 153.284 49.4764L148.435 44.428C148.267 44.5886 148.108 44.749 147.984 44.8744L152.952 49.8056ZM152.37 50.377C152.591 50.1702 152.799 49.9603 152.952 49.8056L147.984 44.8744C147.814 45.0455 147.699 45.1605 147.591 45.2618L152.37 50.377ZM153.48 47.8389V47.8194H146.48V47.8389H153.48ZM153.481 48.7116C153.487 48.6466 153.513 48.3891 153.515 48.1144C153.516 47.8956 153.514 47.2639 153.239 46.5612L146.722 49.1167C146.598 48.8013 146.554 48.5385 146.535 48.3918C146.516 48.2379 146.515 48.123 146.515 48.0707C146.516 47.9878 146.523 47.9357 146.511 48.0627L153.481 48.7116ZM153.48 48.6202C153.48 48.6692 153.479 48.7068 153.478 48.7286C153.477 48.7508 153.476 48.7653 153.476 48.7686C153.475 48.7721 153.475 48.7702 153.476 48.7595C153.477 48.748 153.479 48.7348 153.481 48.7117L146.511 48.0626C146.508 48.0942 146.48 48.3566 146.48 48.6202H153.48ZM153.48 50.2022V48.6202H146.48V50.2022H153.48ZM153.48 55.3506V50.2022H146.48V55.3506H153.48ZM153.48 71.71V55.3506H146.48V71.71H153.48ZM153.48 92.5108V71.71H146.48V92.5108H153.48ZM153.48 112.929V92.5108H146.48V112.929H153.48ZM153.48 128.546V112.929H146.48V128.546H153.48ZM153.48 131.976V128.546H146.48V131.976H153.48ZM171.604 128.296C164.385 128.316 157.156 128.37 149.929 128.476L150.031 135.475C157.226 135.37 164.427 135.315 171.623 135.296L171.604 128.296ZM168.101 124.83C168.089 127.141 168.076 129.496 168.114 131.851L175.113 131.741C175.077 129.471 175.089 127.19 175.101 124.867L168.101 124.83ZM168.113 121.374C168.113 122.521 168.107 123.67 168.101 124.83L175.101 124.867C175.107 123.71 175.113 122.542 175.113 121.374H168.113ZM168.113 100V121.374H175.113V100H168.113ZM177.172 96.5H171.613V103.5H177.172V96.5ZM180.672 111.472V100H173.672V111.472H180.672ZM180.672 127.124V111.472H173.672V127.124H180.672ZM180.672 131.796V127.124H173.672V131.796H180.672ZM201.74 128.449C193.552 128.343 185.357 128.296 177.172 128.296V135.296C185.33 135.296 193.495 135.343 201.65 135.448L201.74 128.449ZM198.195 123.128V131.948H205.195V123.128H198.195ZM198.195 106.026V123.128H205.195V106.026H198.195ZM198.195 100V106.026H205.195V100H198.195ZM207.367 96.5H201.695V103.5H207.367V96.5ZM210.867 102.757V100H203.867V102.757H210.867ZM210.867 123.148V102.757H203.867V123.148H210.867ZM96.2498 132.167V116.276H89.2498V132.167H96.2498ZM96.2498 133.722V132.167H89.2498V133.722H96.2498ZM144.459 128.601C127.168 128.899 109.874 129.443 92.5914 130.225L92.9081 137.218C110.126 136.438 127.355 135.896 144.58 135.6L144.459 128.601ZM141.019 123.761V132.101H148.019V123.761H141.019ZM141.019 106.503V123.761H148.019V106.503H141.019ZM141.019 85.5303V106.503H148.019V85.5303H141.019ZM141.019 65.4249V85.5303H148.019V65.4249H141.019ZM141.019 50.7725V65.4249H148.019V50.7725H141.019ZM141.019 46.9327V50.7725H148.019V46.9327H141.019ZM141.016 46.7742C141.018 46.8565 141.019 46.8956 141.019 46.9327H148.019C148.019 46.7912 148.016 46.6648 148.014 46.5916L141.016 46.7742ZM142.303 43.228C141.779 43.7772 141.346 44.4681 141.14 45.3279C140.975 46.0216 141.014 46.6762 141.016 46.7744L148.014 46.5913C148.011 46.4634 148.012 46.4807 148.011 46.5184C148.009 46.5763 148 46.7397 147.949 46.9556C147.893 47.1856 147.804 47.4174 147.68 47.6341C147.562 47.8411 147.442 47.9819 147.369 48.0592L142.303 43.228ZM147.451 38.1097C145.754 39.7575 144.005 41.4559 142.311 43.2194L147.36 48.0678C148.955 46.4073 150.616 44.7939 152.328 43.1317L147.451 38.1097ZM149.939 35.6807C149.12 36.4893 148.292 37.2933 147.451 38.1097L152.328 43.1317C153.165 42.3189 154.014 41.4942 154.858 40.6612L149.939 35.6807ZM155.186 30.4951C153.438 32.2235 151.685 33.9574 149.94 35.6798L154.857 40.6621C156.605 38.9365 158.361 37.1999 160.108 35.472L155.186 30.4951ZM155.3 30.3817L155.186 30.4952L160.108 35.472L160.223 35.3586L155.3 30.3817ZM154.393 34.4773C154.71 34.7827 155.01 35.0719 155.304 35.362L160.219 30.3783C159.892 30.0558 159.564 29.7393 159.252 29.4384L154.393 34.4773ZM153.586 33.6946C153.859 33.962 154.132 34.2253 154.393 34.4773L159.252 29.4385C158.988 29.1834 158.734 28.9391 158.484 28.6942L153.586 33.6946ZM141.315 21.8101L153.6 33.7085L158.47 28.6803L146.185 16.7818L141.315 21.8101ZM131.192 12.0076C134.565 15.2788 137.945 18.5497 141.316 21.8113L146.184 16.7806C142.812 13.5187 139.435 10.2506 136.065 6.98275L131.192 12.0076ZM130.635 11.4663C130.823 11.648 131.002 11.8222 131.18 11.9962L136.077 6.99414C135.884 6.80491 135.691 6.61779 135.505 6.43822L130.635 11.4663ZM130.063 10.9103C130.256 11.0996 130.45 11.2867 130.635 11.4663L135.505 6.43817C135.318 6.25642 135.138 6.08221 134.96 5.90816L130.063 10.9103ZM130.496 15.3224C131.988 13.8506 133.484 12.3746 134.977 10.8939L130.046 5.9246C128.562 7.39718 127.073 8.86613 125.58 10.3392L130.496 15.3224ZM127.516 18.265C128.507 17.2841 129.501 16.3042 130.496 15.3224L125.58 10.3392C124.585 11.3204 123.589 12.3034 122.593 13.2879L127.516 18.265ZM118.951 26.7326C121.806 23.9115 124.662 21.0897 127.517 18.2639L122.592 13.289C119.74 16.1122 116.886 18.9318 114.031 21.7532L118.951 26.7326ZM112.508 33.1008C114.655 30.9768 116.803 28.8549 118.951 26.7326L114.031 21.7532C111.883 23.8754 109.734 25.9985 107.585 28.1239L112.508 33.1008ZM105.146 40.3709C107.598 37.9474 110.049 35.5248 112.504 33.1048L107.589 28.12C105.131 30.5435 102.677 32.9692 100.225 35.3921L105.146 40.3709ZM99.2355 46.2092C101.206 44.2643 103.176 42.3173 105.146 40.3709L100.225 35.3921C98.2555 37.3389 96.2875 39.284 94.3188 41.2265L99.2355 46.2092ZM97.4466 47.9785C98.0426 47.3903 98.6434 46.7974 99.2439 46.2008L94.3104 41.2348C93.7195 41.8219 93.1269 42.4067 92.5296 42.9962L97.4466 47.9785ZM95.6657 49.7399C96.2567 49.1528 96.8492 48.568 97.4466 47.9785L92.5296 42.9962C91.9336 43.5844 91.3328 44.1774 90.7323 44.7739L95.6657 49.7399ZM95.7261 49.6783C95.7435 49.6574 95.7524 49.6467 95.7597 49.638C95.7668 49.6297 95.7647 49.6323 95.7571 49.6409C95.7503 49.6487 95.7283 49.6737 95.6953 49.7082C95.6653 49.7396 95.6013 49.8051 95.5111 49.8845L90.8869 44.6293C90.6892 44.8033 90.5429 44.97 90.4952 45.0244C90.4322 45.0963 90.3711 45.1699 90.3471 45.1988L95.7261 49.6783ZM95.0354 50.3987C95.3991 50.0869 95.6969 49.7134 95.7263 49.6781L90.347 45.1989C90.324 45.2265 90.3118 45.2411 90.301 45.2538C90.291 45.2656 90.2897 45.267 90.2941 45.262C90.2983 45.2574 90.3147 45.2392 90.3412 45.2124C90.3667 45.1866 90.4137 45.1406 90.4798 45.0839L95.0354 50.3987ZM96.2465 48.0678C96.2474 48.0534 96.2576 47.9037 96.2576 47.7413H89.2576C89.2576 47.7125 89.2581 47.6893 89.2585 47.6734C89.259 47.6572 89.2595 47.6452 89.2598 47.6386C89.2601 47.6319 89.2603 47.6284 89.2602 47.6297C89.2601 47.6316 89.2599 47.6345 89.2593 47.6444L96.2465 48.0678ZM96.2498 47.9249C96.2498 47.9689 96.2489 48.0035 96.2482 48.0235C96.2476 48.0444 96.2468 48.06 96.2465 48.0674C96.2459 48.0787 96.2454 48.0862 96.2466 48.0672L89.2593 47.6449C89.2588 47.6535 89.2567 47.6869 89.255 47.7214C89.2536 47.7506 89.2498 47.8291 89.2498 47.9249H96.2498ZM96.2498 56.6553V47.9249H89.2498V56.6553H96.2498ZM96.2498 73.9483V56.6553H89.2498V73.9483H96.2498ZM96.2498 95.3506V73.9483H89.2498V95.3506H96.2498ZM96.2498 116.276V95.3506H89.2498V116.276H96.2498Z" fill="#FF7F50"/>
<rect x="168" y="92" width="42.9" height="14" rx="2" fill="#FF7F50"/>
<path d="M168 68C168 66.8954 168.895 66 170 66H208.9C210.005 66 210.9 66.8954 210.9 68V78C210.9 79.1046 210.005 80 208.9 80H170C168.895 80 168 79.1046 168 78V68Z" fill="#FF7F50"/>
</svg>
